<?xml version="1.0" encoding="UTF-8" standalone="no"?>
<svg
   width="1135"
   height="1593"
   xml:space="preserve"
   overflow="hidden"
   version="1.1"
   id="svg137261"
   sodipodi:docname="all_lnls.svg"
   inkscape:version="1.2 (dc2aedaf03, 2022-05-15)"
   xmlns:inkscape="http://www.inkscape.org/namespaces/inkscape"
   xmlns:sodipodi="http://sodipodi.sourceforge.net/DTD/sodipodi-0.dtd"
   xmlns="http://www.w3.org/2000/svg"
   xmlns:svg="http://www.w3.org/2000/svg"><sodipodi:namedview
     id="namedview137263"
     pagecolor="#ffffff"
     bordercolor="#999999"
     borderopacity="1"
     inkscape:showpageshadow="0"
     inkscape:pageopacity="0"
     inkscape:pagecheckerboard="0"
     inkscape:deskcolor="#d1d1d1"
     showgrid="false"
     inkscape:zoom="0.64469554"
     inkscape:cx="567.70983"
     inkscape:cy="795.72444"
     inkscape:window-width="2560"
     inkscape:window-height="1369"
     inkscape:window-x="-8"
     inkscape:window-y="-8"
     inkscape:window-maximized="1"
     inkscape:current-layer="svg137261" /><defs
     id="defs137161"><clipPath
       id="clip0"><rect
         x="2681"
         y="289"
         width="1135"
         height="1593"
         id="rect137158" /></clipPath></defs><g
     clip-path="url(#clip0)"
     transform="translate(-2681 -289)"
     id="g137259"><path
       d="M3181.89 745.533 3180.4 737.717 3178.03 722.766 3176.06 707.722 3174.46 692.594 3173.31 677.365 3172.49 662.078 3172.1 646.705 3172.1 631.42 3172.49 616.047 3173.31 600.76 3174.46 585.533 3176.06 570.343 3178.03 555.3 3180.4 540.299 3183.17 525.576C3184.34 519.357 3190.33 515.264 3196.55 516.435 3202.76 517.605 3206.86 523.595 3205.69 529.814L3202.95 544.369 3203.01 544.032 3200.69 558.72 3200.74 558.43 3198.8 573.18 3198.83 572.884 3197.27 587.759 3197.3 587.423 3196.18 602.36 3196.19 602.12 3195.38 617.12 3195.39 616.785 3195.02 631.848 3195.02 631.562 3195.02 646.562 3195.02 646.277 3195.39 661.34 3195.38 661.005 3196.19 676.005 3196.18 675.764 3197.3 690.702 3197.27 690.36 3198.83 705.173 3198.8 704.883 3200.74 719.633 3200.69 719.335 3203.01 733.96 3202.94 733.606 3204.4 741.245C3205.58 747.461 3201.5 753.461 3195.29 754.645 3189.07 755.829 3183.07 751.749 3181.89 745.533ZM3222.67 696.689 3197.52 764.561 3147.53 712.211C3143.16 707.635 3143.33 700.382 3147.9 696.011 3152.48 691.641 3159.73 691.808 3164.1 696.385L3201.43 735.476 3182.4 739.407 3201.18 688.726C3203.38 682.792 3209.97 679.765 3215.91 681.964 3221.84 684.162 3224.87 690.755 3222.67 696.689Z"
       fill="#00AFA5"
       id="path137163" /><path
       d="M3283.61 533.7 3285.01 541.916 3287.18 557.109 3288.9 572.336 3290.3 587.687 3291.26 603.144 3291.77 618.552 3291.96 634.023 3291.7 649.542 3291 664.951 3289.98 680.362 3288.52 695.674 3286.67 710.926 3284.37 726.06 3281.69 740.982 3278.66 755.65C3277.39 761.848 3271.33 765.836 3265.13 764.558 3258.93 763.28 3254.94 757.219 3256.22 751.021L3259.22 736.498 3259.16 736.788 3261.78 722.163 3261.73 722.467 3263.98 707.654 3263.94 707.995 3265.75 693.057 3265.72 693.344 3267.16 678.344 3267.13 678.681 3268.13 663.556 3268.12 663.792 3268.8 648.667 3268.79 648.999 3269.04 633.811 3269.04 634.141 3268.85 618.954 3268.86 619.191 3268.36 604.066 3268.38 604.396 3267.44 589.271 3267.46 589.604 3266.09 574.542 3266.11 574.786 3264.43 559.849 3264.47 560.183 3262.34 545.308 3262.39 545.61 3261.02 537.546C3259.96 531.307 3264.15 525.389 3270.39 524.327 3276.63 523.265 3282.55 527.462 3283.61 533.7ZM3242.09 581.874 3268.26 514.387 3317.45 567.482C3321.76 572.124 3321.48 579.374 3316.84 583.675 3312.2 587.976 3304.95 587.699 3300.64 583.057L3263.91 543.411 3283 539.766 3263.46 590.159C3261.17 596.059 3254.53 598.987 3248.63 596.699 3242.73 594.412 3239.8 587.774 3242.09 581.874Z"
       fill="#00AFA5"
       id="path137165" /><path
       d="M9.22509-6.7964 297.901 385.038C301.655 390.133 300.568 397.306 295.473 401.06 290.378 404.813 283.205 403.726 279.451 398.631L-9.22509 6.7964C-12.9786 1.70152-11.8913-5.47155-6.7964-9.22509-1.70152-12.9786 5.47155-11.8913 9.22509-6.7964ZM295.979 337.07 301.5 409.241 234.207 382.578C228.324 380.247 225.445 373.588 227.776 367.705 230.107 361.822 236.766 358.942 242.649 361.273L292.897 381.183 277.252 392.709 273.129 338.818C272.646 332.508 277.37 327.002 283.68 326.519 289.989 326.036 295.496 330.76 295.979 337.07Z"
       fill="#00AFA5"
       transform="matrix(1 0 0 -1 3312.5 1679.68)"
       id="path137167" /><path
       d="M9.52209-6.37364 345.993 496.307C349.513 501.566 348.104 508.683 342.845 512.203 337.586 515.723 330.469 514.314 326.949 509.055L-9.52209 6.37364C-13.0421 1.11474-11.6325-6.00202-6.37364-9.52209-1.11474-13.0421 6.00202-11.6325 9.52209-6.37364ZM346.234 448.3 348.497 520.647 282.475 490.978C276.702 488.384 274.126 481.602 276.72 475.83 279.314 470.058 286.096 467.481 291.868 470.075L341.168 492.229 325.018 503.039 323.329 449.016C323.131 442.691 328.098 437.403 334.424 437.206 340.749 437.008 346.037 441.975 346.234 448.3Z"
       fill="#00AFA5"
       transform="matrix(-1 0 0 1 3230.95 871.5)"
       id="path137169" /><path
       d="M2.47877-11.187 341.519 63.9362C347.697 65.3052 351.596 71.4236 350.227 77.602 348.858 83.7804 342.74 87.6792 336.561 86.3102L-2.47877 11.187C-8.65719 9.81802-12.556 3.69964-11.187-2.47877-9.81802-8.65719-3.69964-12.556 2.47877-11.187ZM308.52 29.0677 360.147 79.8 291.922 103.976C285.957 106.09 279.408 102.968 277.295 97.0027 275.181 91.0378 278.303 84.4889 284.268 82.3753L335.213 64.3228 331.009 83.2959 292.458 45.4133C287.944 40.9779 287.88 33.7232 292.316 29.2094 296.751 24.6957 304.006 24.6323 308.52 29.0677Z"
       fill="#00AFA5"
       transform="matrix(1 0 0 -1 3233.5 1316.28)"
       id="path137171" /><path
       d="M3256.9 857.997 3602.28 1090.64C3607.53 1094.18 3608.92 1101.3 3605.38 1106.55 3601.85 1111.8 3594.73 1113.18 3589.48 1109.65L3244.1 877.004C3238.85 873.468 3237.46 866.347 3241 861.099 3244.53 855.85 3251.65 854.461 3256.9 857.997ZM3584.33 1046.11 3613.81 1112.22 3541.47 1109.75C3535.14 1109.53 3530.19 1104.23 3530.41 1097.91 3530.63 1091.58 3535.93 1086.63 3542.25 1086.85L3596.27 1088.69 3585.41 1104.81 3563.4 1055.45C3560.83 1049.67 3563.42 1042.89 3569.2 1040.32 3574.98 1037.74 3581.76 1040.34 3584.33 1046.11Z"
       fill="#00AFA5"
       id="path137173" /><path
       d="M3244.96 972.5 3244.96 1175.86C3244.96 1182.18 3239.83 1187.31 3233.5 1187.31 3227.17 1187.31 3222.04 1182.18 3222.04 1175.86L3222.04 972.5C3222.04 966.172 3227.17 961.042 3233.5 961.042 3239.83 961.042 3244.96 966.172 3244.96 972.5ZM3271.86 1136.09 3233.5 1197.47 3195.14 1136.09C3191.78 1130.73 3193.42 1123.66 3198.78 1120.31 3204.15 1116.95 3211.22 1118.58 3214.57 1123.95L3243.22 1169.78 3223.78 1169.78 3252.43 1123.95C3255.78 1118.58 3262.85 1116.95 3268.22 1120.31 3273.59 1123.66 3275.22 1130.73 3271.86 1136.09Z"
       fill="#005EA8"
       id="path137175" /><path
       d="M3244.96 1422.5 3244.96 1625.85C3244.96 1632.18 3239.83 1637.31 3233.5 1637.31 3227.17 1637.31 3222.04 1632.18 3222.04 1625.85L3222.04 1422.5C3222.04 1416.17 3227.17 1411.04 3233.5 1411.04 3239.83 1411.04 3244.96 1416.17 3244.96 1422.5ZM3271.86 1586.09 3233.5 1647.47 3195.14 1586.09C3191.78 1580.73 3193.42 1573.66 3198.78 1570.3 3204.15 1566.95 3211.22 1568.58 3214.57 1573.95L3243.22 1619.78 3223.78 1619.78 3252.43 1573.95C3255.78 1568.58 3262.85 1566.95 3268.22 1570.3 3273.59 1573.66 3275.22 1580.73 3271.86 1586.09Z"
       fill="#005EA8"
       id="path137177" /><path
       d="M2892.95 928.762 3147.54 1206.83C3151.82 1211.5 3151.5 1218.75 3146.83 1223.02 3142.16 1227.3 3134.92 1226.98 3130.64 1222.31L2876.05 944.238C2871.78 939.57 2872.09 932.322 2876.76 928.049 2881.43 923.775 2888.68 924.095 2892.95 928.762ZM3140.54 1159.34 3153.69 1230.52 3083.95 1211.15C3077.85 1209.46 3074.28 1203.14 3075.97 1197.04 3077.67 1190.95 3083.98 1187.38 3090.08 1189.07L3142.16 1203.53 3127.83 1216.65 3118 1163.5C3116.85 1157.28 3120.97 1151.3 3127.19 1150.15 3133.41 1149 3139.39 1153.12 3140.54 1159.34Z"
       fill="#AE0060"
       id="path137179" /><path
       d="M2816.05 852.035 3156.11 1655.6C3158.58 1661.43 3155.85 1668.16 3150.02 1670.62 3144.2 1673.09 3137.47 1670.36 3135.01 1664.54L2794.95 860.966C2792.48 855.138 2795.21 848.414 2801.03 845.948 2806.86 843.482 2813.59 846.207 2816.05 852.035ZM3165.39 1608.5 3153.98 1679.98 3094.73 1638.4C3089.55 1634.77 3088.3 1627.62 3091.94 1622.44 3095.57 1617.26 3102.72 1616.01 3107.9 1619.65L3152.14 1650.69 3134.24 1658.26 3142.76 1604.89C3143.76 1598.64 3149.63 1594.38 3155.88 1595.38 3162.13 1596.38 3166.39 1602.25 3165.39 1608.5Z"
       fill="#AE0060"
       id="path137181" /><path
       d="M8.3615-7.83446 262.773 263.692C267.1 268.31 266.864 275.561 262.246 279.888 257.628 284.215 250.377 283.979 246.05 279.361L-8.3615 7.83446C-12.6884 3.21653-12.4524-4.03465-7.83446-8.3615-3.21653-12.6884 4.03465-12.4524 8.3615-7.83446ZM255.22 216.282 269.193 287.303 199.232 268.742C193.115 267.119 189.472 260.845 191.095 254.728 192.717 248.611 198.991 244.968 205.108 246.591L257.35 260.451 243.169 273.738 232.734 220.706C231.513 214.497 235.556 208.473 241.765 207.251 247.974 206.03 253.998 210.073 255.22 216.282Z"
       fill="#AE0060"
       transform="matrix(1 0 0 -1 2884.5 777.746)"
       id="path137183" /><path
       d="M2917.69 846.043 3099.59 849.045C3105.91 849.149 3110.96 854.363 3110.85 860.69 3110.75 867.018 3105.53 872.063 3099.21 871.958L2917.31 868.957C2910.98 868.853 2905.94 863.639 2906.04 857.311 2906.15 850.984 2911.36 845.939 2917.69 846.043ZM3060.27 821.488 3121.01 860.858 3059.01 898.203C3053.59 901.468 3046.55 899.72 3043.28 894.299 3040.02 888.878 3041.76 881.837 3047.18 878.572L3093.48 850.686 3093.16 870.117 3047.81 840.719C3042.5 837.276 3040.98 830.181 3044.43 824.871 3047.87 819.561 3054.96 818.046 3060.27 821.488Z"
       fill="#AE0060"
       id="path137185" /><path
       d="M11.4582-0.0594295 13.3653 367.636C13.3981 373.964 8.29471 379.121 1.96653 379.154-4.36164 379.186-9.51825 374.083-9.55108 367.755L-11.4582 0.0594295C-11.491-6.26875-6.38761-11.4254-0.0594295-11.4582 6.26875-11.491 11.4254-6.38761 11.4582-0.0594295ZM40.0629 327.737 2.01924 389.315-36.6611 328.135C-40.0428 322.786-38.4482 315.708-33.0993 312.326-27.7504 308.945-20.6728 310.539-17.291 315.888L11.5921 361.572-7.84091 361.673 20.5668 315.692C23.8929 310.308 30.9536 308.64 36.3373 311.966 41.7209 315.292 43.3889 322.353 40.0629 327.737Z"
       fill="#AE0060"
       transform="matrix(-1 0 0 1 2805.52 969.5)"
       id="path137187" /><path
       d="M2811.85 862.9 3565.59 1172.3C3571.44 1174.71 3574.24 1181.4 3571.83 1187.25 3569.43 1193.11 3562.74 1195.91 3556.88 1193.5L2803.15 884.1C2797.29 881.697 2794.5 875.003 2796.9 869.149 2799.3 863.294 2806 860.497 2811.85 862.9ZM3539.02 1132.32 3581.24 1191.11 3509.89 1203.29C3503.65 1204.36 3497.73 1200.16 3496.66 1193.93 3495.6 1187.69 3499.79 1181.77 3506.03 1180.7L3559.31 1171.61 3551.93 1189.59 3520.41 1145.68C3516.71 1140.54 3517.89 1133.38 3523.03 1129.69 3528.17 1126 3535.33 1127.18 3539.02 1132.32Z"
       fill="#AE0060"
       id="path137189" /><path
       d="M2693 857C2693 795.144 2743.14 745 2805 745 2866.86 745 2917 795.144 2917 857 2917 918.856 2866.86 969 2805 969 2743.14 969 2693 918.856 2693 857Z"
       fill="#AE0060"
       fill-rule="evenodd"
       id="path137191" /><g
       aria-label="T"
       transform="matrix(1 0 0 1 2771.44 898)"
       id="text137193"
       style="font-weight:700;font-size:110px;font-family:Arial, Arial_MSFontService, sans-serif;fill:#ffffff"><path
         d="M 25.727539,0 V -65.419922 H 2.3632813 V -78.740234 H 64.936523 v 13.320312 H 41.625977 V 0 Z"
         id="path137265" /></g><path
       d="M3121.5 411.5C3121.5 349.644 3171.64 299.5 3233.5 299.5 3295.36 299.5 3345.5 349.644 3345.5 411.5 3345.5 473.356 3295.36 523.5 3233.5 523.5 3171.64 523.5 3121.5 473.356 3121.5 411.5Z"
       stroke="#005EA8"
       stroke-width="20.625"
       stroke-miterlimit="8"
       fill="#FFFFFF"
       fill-rule="evenodd"
       id="path137195" /><path
       d="M3194.05 372.232 3221.39 372.232 3220.58 375.777C3219.04 375.92 3217.92 376.394 3217.23 377.2 3216.53 378.006 3216.18 379.053 3216.18 380.342 3216.18 381.416 3216.38 382.696 3216.77 384.182 3217.16 385.668 3217.77 387.45 3218.6 389.527L3221.98 398.443 3229.18 389.527C3231.47 386.662 3233.06 384.505 3233.96 383.054 3234.85 381.604 3235.3 380.396 3235.3 379.429 3235.3 378.211 3235 377.343 3234.39 376.824 3233.78 376.305 3232.78 375.956 3231.38 375.777L3232.18 372.232 3254.53 372.232 3253.72 375.83C3252.86 375.974 3252 376.314 3251.14 376.851 3250.28 377.388 3249.11 378.391 3247.63 379.859 3246.14 381.327 3243.68 384.066 3240.24 388.076L3224.83 405.962 3234.33 430.723C3235.77 434.483 3237.05 437.195 3238.17 438.86 3239.3 440.525 3240.8 441.572 3242.66 442.002L3241.91 445.547 3214.51 445.547 3215.27 442.002C3218.09 441.716 3219.51 440.427 3219.51 438.135 3219.51 436.846 3219.35 435.539 3219.03 434.214 3218.7 432.889 3218.24 431.421 3217.63 429.81L3212.85 417.188 3201.73 430.454C3200.08 432.424 3198.92 433.981 3198.24 435.127 3197.56 436.273 3197.22 437.401 3197.22 438.511 3197.22 440.659 3198.54 441.823 3201.19 442.002L3200.44 445.547 3178.04 445.547 3178.8 442.002C3180.26 441.608 3181.72 440.785 3183.17 439.531 3184.62 438.278 3187.37 435.342 3191.42 430.723L3209.95 409.776 3201.73 388.076C3201.16 386.608 3200.47 384.943 3199.66 383.081 3198.86 381.219 3198.12 379.796 3197.46 378.811 3196.8 377.827 3196.15 377.119 3195.53 376.69 3194.9 376.26 3194.14 375.956 3193.24 375.777Z"
       fill="#005EA8"
       fill-rule="evenodd"
       id="path137197" /><g
       aria-label="ð‘¿"
       id="text137199"
       style="font-size:73.3154px;font-family:Arial, Arial_MSFontService, sans-serif;fill-opacity:0"><path
         d="m 3206.1777,387.518 -0.537,2.3627 q -1.5393,0.14319 -2.2553,0.96656 -0.6802,0.78757 -0.6802,2.07631 0,1.07396 0.3938,2.5775 0.3938,1.46774 1.2172,3.54405 l 2.2553,5.94256 4.797,-5.94256 q 2.2911,-2.86388 3.186,-4.29582 0.895,-1.46774 0.895,-2.4343 0,-1.21715 -0.6086,-1.71833 -0.6085,-0.53698 -2.0047,-0.71597 l 0.537,-2.3627 h 14.8922 l -0.537,2.3985 q -0.8592,0.14319 -1.7183,0.68017 -0.8592,0.53698 -2.3627,2.00472 -1.4678,1.46774 -4.9044,5.47717 l -10.2742,11.92092 6.3363,16.50312 q 1.432,3.75885 2.5417,5.44138 1.1456,1.64673 3.0071,2.07631 l -0.5012,2.36271 h -18.2572 l 0.5012,-2.36271 q 2.828,-0.28639 2.828,-2.57749 0,-1.28875 -0.3221,-2.6133 -0.3222,-1.32454 -0.9308,-2.93548 l -3.1861,-8.41265 -7.4103,8.84224 q -1.6467,1.96892 -2.3269,3.11447 -0.6802,1.14555 -0.6802,2.25531 0,2.14791 2.6491,2.3269 l -0.5011,2.36271 h -14.928 l 0.5011,-2.36271 q 1.4678,-0.39378 2.8997,-1.64673 1.4678,-1.25295 5.513,-5.87096 l 12.3505,-13.96143 -5.4772,-14.46261 q -0.5728,-1.46774 -1.3961,-3.32926 -0.7876,-1.86152 -1.4678,-2.82808 -0.6443,-1.00236 -1.2887,-1.43195 -0.6086,-0.42958 -1.5035,-0.60857 l 0.5369,-2.3627 z"
         id="path137268" /></g><path
       d="M3268.34 414.685 3287.99 414.685 3287.44 417.263C3285.96 417.68 3284.86 418.409 3284.16 419.451 3283.46 420.492 3282.79 422.419 3282.17 425.232L3275.06 457.459C3274.87 458.292 3274.74 459.015 3274.67 459.626 3274.59 460.238 3274.55 461.039 3274.55 462.029 3274.55 463.123 3274.8 463.923 3275.31 464.431 3275.82 464.939 3276.65 465.271 3277.79 465.427L3277.24 468.005 3257.6 468.005 3258.14 465.427C3259.63 465.011 3260.72 464.281 3261.42 463.24 3262.13 462.198 3262.79 460.271 3263.42 457.459L3270.53 425.232C3270.86 423.695 3271.03 422.172 3271.03 420.662 3271.03 419.568 3270.78 418.767 3270.27 418.259 3269.76 417.751 3268.94 417.419 3267.79 417.263Z"
       fill="#005EA8"
       fill-rule="evenodd"
       id="path137201" /><g
       aria-label="ð‘°"
       id="text137203"
       style="font-size:53.3203px;font-family:Arial, Arial_MSFontService, sans-serif;fill-opacity:0"><path
         d="m 3272.1799,461.34 h -13.0958 l 0.3645,-1.71833 q 1.484,-0.41657 2.187,-1.45798 0.7029,-1.04141 1.3278,-3.85323 l 4.7384,-21.47912 q 0.3385,-1.53608 0.3385,-3.04613 0,-1.09348 -0.5208,-1.58815 -0.4946,-0.52071 -1.6402,-0.67692 l 0.3645,-1.71833 h 13.0958 l -0.3645,1.71833 q -1.484,0.41656 -2.187,1.45797 -0.7029,1.04142 -1.3278,3.85323 l -4.7384,21.47912 q -0.1823,0.83313 -0.2604,1.45798 -0.078,0.59881 -0.078,1.58815 0,1.09349 0.4947,1.61419 0.5207,0.49467 1.6663,0.65089 z"
         id="path137271" /></g><path
       d="M3121.5 1759.5C3121.5 1697.64 3171.64 1647.5 3233.5 1647.5 3295.36 1647.5 3345.5 1697.64 3345.5 1759.5 3345.5 1821.36 3295.36 1871.5 3233.5 1871.5 3171.64 1871.5 3121.5 1821.36 3121.5 1759.5Z"
       stroke="#005EA8"
       stroke-width="20.625"
       stroke-miterlimit="8"
       fill="#FFFFFF"
       fill-rule="evenodd"
       id="path137205" /><path
       d="M3171.13 1719.92 3198.47 1719.92 3197.67 1723.47C3196.13 1723.61 3195.01 1724.08 3194.31 1724.89 3193.61 1725.69 3193.26 1726.74 3193.26 1728.03 3193.26 1729.11 3193.46 1730.39 3193.85 1731.87 3194.25 1733.36 3194.86 1735.14 3195.68 1737.22L3199.06 1746.13 3206.26 1737.22C3208.55 1734.35 3210.15 1732.19 3211.04 1730.74 3211.94 1729.29 3212.38 1728.08 3212.38 1727.12 3212.38 1725.9 3212.08 1725.03 3211.47 1724.51 3210.86 1723.99 3209.86 1723.64 3208.46 1723.47L3209.27 1719.92 3231.61 1719.92 3230.81 1723.52C3229.95 1723.66 3229.09 1724 3228.23 1724.54 3227.37 1725.08 3226.2 1726.08 3224.71 1727.55 3223.22 1729.02 3220.76 1731.76 3217.32 1735.77L3201.91 1753.65 3211.42 1778.41C3212.85 1782.17 3214.13 1784.88 3215.26 1786.55 3216.38 1788.21 3217.88 1789.26 3219.74 1789.69L3218.99 1793.24 3191.6 1793.24 3192.35 1789.69C3195.18 1789.4 3196.59 1788.12 3196.59 1785.82 3196.59 1784.53 3196.43 1783.23 3196.11 1781.9 3195.79 1780.58 3195.32 1779.11 3194.71 1777.5L3189.93 1764.88 3178.81 1778.14C3177.17 1780.11 3176 1781.67 3175.32 1782.82 3174.64 1783.96 3174.3 1785.09 3174.3 1786.2 3174.3 1788.35 3175.63 1789.51 3178.28 1789.69L3177.52 1793.24 3155.13 1793.24 3155.88 1789.69C3157.35 1789.3 3158.81 1788.47 3160.26 1787.22 3161.71 1785.97 3164.46 1783.03 3168.5 1778.41L3187.03 1757.46 3178.81 1735.77C3178.24 1734.3 3177.55 1732.63 3176.75 1730.77 3175.94 1728.91 3175.21 1727.48 3174.54 1726.5 3173.88 1725.52 3173.24 1724.81 3172.61 1724.38 3171.98 1723.95 3171.22 1723.64 3170.33 1723.47Z"
       fill="#005EA8"
       fill-rule="evenodd"
       id="path137207" /><g
       aria-label="ð‘¿"
       id="text137209"
       style="font-size:73.3154px;font-family:Arial, Arial_MSFontService, sans-serif;fill-opacity:0"><path
         d="m 3183.2675,1735.2049 -0.5369,2.3627 q -1.5394,0.1432 -2.2554,0.9666 -0.6801,0.7876 -0.6801,2.0763 0,1.074 0.3938,2.5775 0.3937,1.4678 1.2171,3.5441 l 2.2553,5.9425 4.797,-5.9425 q 2.2911,-2.8639 3.1861,-4.2958 0.895,-1.4678 0.895,-2.4343 0,-1.2172 -0.6086,-1.7184 -0.6086,-0.537 -2.0047,-0.716 l 0.5369,-2.3627 h 14.8922 l -0.537,2.3985 q -0.8591,0.1432 -1.7183,0.6802 -0.8591,0.537 -2.3627,2.0047 -1.4677,1.4678 -4.9044,5.4772 l -10.2742,11.9209 6.3364,16.5032 q 1.4319,3.7588 2.5417,5.4413 1.1455,1.6468 3.0071,2.0763 l -0.5012,2.3627 h -18.2573 l 0.5012,-2.3627 q 2.8281,-0.2863 2.8281,-2.5775 0,-1.2887 -0.3222,-2.6132 -0.3222,-1.3246 -0.9308,-2.9355 l -3.186,-8.4127 -7.4103,8.8423 q -1.6468,1.9689 -2.3269,3.1144 -0.6802,1.1456 -0.6802,2.2553 0,2.148 2.6491,2.3269 l -0.5012,2.3627 h -14.928 l 0.5012,-2.3627 q 1.4677,-0.3937 2.8997,-1.6467 1.4677,-1.2529 5.5129,-5.8709 l 12.3505,-13.9615 -5.4771,-14.4626 q -0.5728,-1.4677 -1.3962,-3.3292 -0.7875,-1.8616 -1.4677,-2.8281 -0.6444,-1.0024 -1.2888,-1.432 -0.6085,-0.4296 -1.5035,-0.6086 l 0.537,-2.3627 z"
         id="path137274" /></g><path
       d="M3271.75 1762.37 3291.95 1762.37 3291.36 1764.95C3290.21 1765.03 3289.32 1765.32 3288.68 1765.81 3288.05 1766.31 3287.59 1766.97 3287.32 1767.8 3287.04 1768.64 3286.91 1769.89 3286.91 1771.55L3286.91 1773.23C3286.91 1773.81 3286.92 1774.42 3286.95 1775.07L3287.22 1788.78C3287.32 1794.01 3287.38 1798.79 3287.38 1803.12L3287.84 1803.12 3300.46 1779.44C3302.49 1775.64 3303.74 1773.08 3304.19 1771.77 3304.65 1770.45 3304.88 1769.26 3304.88 1768.19 3304.88 1766.32 3303.77 1765.24 3301.55 1764.95L3302.14 1762.37 3318.78 1762.37 3318.2 1764.95C3317.26 1765.16 3316.44 1765.52 3315.75 1766.03 3315.06 1766.53 3314.42 1767.2 3313.82 1768.02 3313.22 1768.84 3312.34 1770.29 3311.16 1772.37L3286.91 1815.97 3277.1 1815.97 3275.42 1774.21C3275.37 1772.73 3275.27 1771.39 3275.11 1770.21 3274.95 1769.02 3274.71 1768.05 3274.37 1767.3 3274.03 1766.54 3273.61 1765.99 3273.1 1765.64 3272.59 1765.28 3271.95 1765.06 3271.16 1764.95ZM3245.42 1762.37 3265.07 1762.37 3264.52 1764.95C3263.04 1765.37 3261.95 1766.1 3261.24 1767.14 3260.54 1768.18 3259.88 1770.11 3259.25 1772.92L3252.14 1805.15C3251.96 1805.98 3251.83 1806.7 3251.75 1807.32 3251.67 1807.93 3251.63 1808.73 3251.63 1809.72 3251.63 1810.81 3251.89 1811.61 3252.39 1812.12 3252.9 1812.63 3253.73 1812.96 3254.88 1813.12L3254.33 1815.69 3234.68 1815.69 3235.23 1813.12C3236.71 1812.7 3237.8 1811.97 3238.51 1810.93 3239.21 1809.89 3239.88 1807.96 3240.5 1805.15L3247.61 1772.92C3247.95 1771.38 3248.12 1769.86 3248.12 1768.35 3248.12 1767.26 3247.86 1766.46 3247.36 1765.95 3246.85 1765.44 3246.02 1765.11 3244.88 1764.95Z"
       fill="#005EA8"
       fill-rule="evenodd"
       id="path137211" /><g
       aria-label="ð‘°ð‘½"
       id="text137213"
       style="font-size:53.5938px;font-family:Arial, Arial_MSFontService, sans-serif;fill-opacity:0"><path
         d="m 3249.3345,1809.27 h -13.1629 l 0.3663,-1.7271 q 1.4916,-0.4187 2.1982,-1.4655 0.7066,-1.0467 1.3346,-3.873 l 4.7627,-21.5893 q 0.3402,-1.5439 0.3402,-3.0617 0,-1.0991 -0.5233,-1.5963 -0.4972,-0.5234 -1.6487,-0.6804 l 0.3664,-1.7272 h 13.1629 l -0.3663,1.7272 q -1.4917,0.4187 -2.1982,1.4654 -0.7066,1.0468 -1.3346,3.873 l -4.7628,21.5893 q -0.1832,0.8374 -0.2617,1.4655 -0.079,0.6019 -0.079,1.5963 0,1.0991 0.4972,1.6225 0.5234,0.4972 1.6749,0.6542 z"
         id="path137277" /><path
         d="m 3280.1352,1784.9853 q 2.0412,-3.8206 2.4861,-5.1291 0.471,-1.3346 0.471,-2.4075 0,-1.8842 -2.2244,-2.172 l 0.3926,-1.7272 h 11.1479 l -0.3925,1.7272 q -0.9421,0.2093 -1.6487,0.7327 -0.6804,0.4972 -1.2822,1.3346 -0.6019,0.8113 -1.7795,2.9048 l -16.2509,29.2044 h -6.5684 l -1.1252,-27.9745 q -0.052,-1.4916 -0.2094,-2.6692 -0.157,-1.2038 -0.4972,-1.9627 -0.3402,-0.7589 -0.8635,-1.0991 -0.4973,-0.3663 -1.2823,-0.471 l 0.3925,-1.7272 h 13.5293 l -0.3925,1.7272 q -1.1515,0.079 -1.8057,0.5757 -0.628,0.4972 -0.9159,1.3346 -0.2617,0.8374 -0.2617,2.5122 v 1.1253 q 0,0.5757 0.026,1.2299 l 0.1832,9.1853 q 0.1047,5.2599 0.1047,9.604 h 0.314 z"
         id="path137279" /></g><path
       d="M3121.5 860.5C3121.5 798.644 3171.64 748.5 3233.5 748.5 3295.36 748.5 3345.5 798.644 3345.5 860.5 3345.5 922.356 3295.36 972.5 3233.5 972.5 3171.64 972.5 3121.5 922.356 3121.5 860.5Z"
       stroke="#005EA8"
       stroke-width="20.625"
       stroke-miterlimit="8"
       fill="#FFFFFF"
       fill-rule="evenodd"
       id="path137215" /><path
       d="M3179.73 821.461 3207.07 821.461 3206.26 825.006C3204.72 825.15 3203.6 825.624 3202.9 826.43 3202.2 827.235 3201.86 828.283 3201.86 829.572 3201.86 830.646 3202.05 831.926 3202.45 833.412 3202.84 834.898 3203.45 836.68 3204.27 838.756L3207.66 847.672 3214.85 838.756C3217.15 835.892 3218.74 833.734 3219.63 832.284 3220.53 830.834 3220.98 829.625 3220.98 828.659 3220.98 827.441 3220.67 826.573 3220.06 826.054 3219.46 825.535 3218.45 825.185 3217.06 825.006L3217.86 821.461 3240.21 821.461 3239.4 825.06C3238.54 825.203 3237.68 825.543 3236.82 826.081 3235.96 826.618 3234.79 827.62 3233.3 829.088 3231.82 830.557 3229.36 833.296 3225.92 837.306L3210.5 855.192 3220.01 879.953C3221.44 883.712 3222.72 886.425 3223.85 888.09 3224.98 889.755 3226.47 890.802 3228.34 891.232L3227.58 894.777 3200.19 894.777 3200.94 891.232C3203.77 890.945 3205.19 889.656 3205.19 887.365 3205.19 886.076 3205.02 884.769 3204.7 883.444 3204.38 882.119 3203.91 880.651 3203.31 879.04L3198.53 866.417 3187.41 879.684C3185.76 881.654 3184.6 883.211 3183.92 884.357 3183.24 885.503 3182.9 886.631 3182.9 887.741 3182.9 889.889 3184.22 891.053 3186.87 891.232L3186.12 894.777 3163.72 894.777 3164.47 891.232C3165.94 890.838 3167.4 890.014 3168.85 888.761 3170.3 887.508 3173.05 884.572 3177.09 879.953L3195.63 859.005 3187.41 837.306C3186.83 835.838 3186.15 834.173 3185.34 832.311 3184.53 830.449 3183.8 829.026 3183.14 828.041 3182.48 827.056 3181.83 826.349 3181.2 825.919 3180.58 825.49 3179.82 825.185 3178.92 825.006Z"
       fill="#005EA8"
       fill-rule="evenodd"
       id="path137217" /><g
       aria-label="ð‘¿"
       id="text137219"
       style="font-size:73.3154px;font-family:Arial, Arial_MSFontService, sans-serif;fill-opacity:0"><path
         d="m 3191.8576,836.747 -0.537,2.3627 q -1.5393,0.1432 -2.2553,0.96656 -0.6801,0.78757 -0.6801,2.07632 0,1.07395 0.3937,2.57749 0.3938,1.46774 1.2172,3.54406 l 2.2553,5.94255 4.797,-5.94255 q 2.2911,-2.86389 3.1861,-4.29583 0.8949,-1.46774 0.8949,-2.4343 0,-1.21715 -0.6085,-1.71833 -0.6086,-0.53697 -2.0048,-0.71597 l 0.537,-2.3627 h 14.8922 l -0.537,2.3985 q -0.8591,0.1432 -1.7183,0.68017 -0.8592,0.53698 -2.3627,2.00472 -1.4677,1.46774 -4.9044,5.47718 l -10.2742,11.92091 6.3364,16.50312 q 1.4319,3.75885 2.5417,5.44138 1.1455,1.64673 3.007,2.07632 l -0.5011,2.3627 h -18.2573 l 0.5012,-2.3627 q 2.8281,-0.28639 2.8281,-2.5775 0,-1.28875 -0.3222,-2.61329 -0.3222,-1.32455 -0.9308,-2.93548 l -3.186,-8.41266 -7.4103,8.84224 q -1.6468,1.96892 -2.3269,3.11447 -0.6802,1.14556 -0.6802,2.25531 0,2.14791 2.6491,2.32691 l -0.5012,2.3627 h -14.928 l 0.5012,-2.3627 q 1.4677,-0.39379 2.8997,-1.64674 1.4677,-1.25295 5.5129,-5.87096 l 12.3505,-13.96142 -5.4771,-14.46261 q -0.5728,-1.46774 -1.3962,-3.32927 -0.7876,-1.86152 -1.4677,-2.82808 -0.6444,-1.00236 -1.2888,-1.43194 -0.6085,-0.42958 -1.5035,-0.60858 l 0.537,-2.3627 z"
         id="path137282" /></g><path
       d="M3289.02 863.915 3308.66 863.915 3308.12 866.493C3306.63 866.91 3305.54 867.639 3304.84 868.681 3304.13 869.722 3303.47 871.649 3302.84 874.462L3295.73 906.688C3295.55 907.522 3295.42 908.244 3295.34 908.856 3295.27 909.468 3295.23 910.269 3295.23 911.259 3295.23 912.352 3295.48 913.153 3295.99 913.661 3296.5 914.169 3297.32 914.501 3298.47 914.657L3297.92 917.235 3278.27 917.235 3278.82 914.657C3280.3 914.24 3281.4 913.511 3282.1 912.47 3282.8 911.428 3283.47 909.501 3284.09 906.688L3291.2 874.462C3291.54 872.925 3291.71 871.402 3291.71 869.891 3291.71 868.798 3291.46 867.997 3290.95 867.489 3290.44 866.981 3289.61 866.649 3288.47 866.493ZM3254.02 863.915 3273.66 863.915 3273.12 866.493C3271.63 866.91 3270.54 867.639 3269.84 868.681 3269.13 869.722 3268.47 871.649 3267.84 874.462L3260.73 906.688C3260.55 907.522 3260.42 908.244 3260.34 908.856 3260.27 909.468 3260.23 910.269 3260.23 911.259 3260.23 912.352 3260.48 913.153 3260.99 913.661 3261.5 914.169 3262.32 914.501 3263.47 914.657L3262.92 917.235 3243.27 917.235 3243.82 914.657C3245.3 914.24 3246.4 913.511 3247.1 912.47 3247.8 911.428 3248.47 909.501 3249.09 906.688L3256.2 874.462C3256.54 872.925 3256.71 871.402 3256.71 869.891 3256.71 868.798 3256.46 867.997 3255.95 867.489 3255.44 866.981 3254.61 866.649 3253.47 866.493Z"
       fill="#005EA8"
       fill-rule="evenodd"
       id="path137221" /><g
       aria-label="ð‘°ð‘°"
       id="text137223"
       style="font-size:53.3203px;font-family:Arial, Arial_MSFontService, sans-serif;fill-opacity:0"><path
         d="m 3257.8498,910.57001 h -13.0958 l 0.3645,-1.71833 q 1.484,-0.41657 2.187,-1.45798 0.7029,-1.04141 1.3278,-3.85322 l 4.7384,-21.47913 q 0.3385,-1.53608 0.3385,-3.04613 0,-1.09348 -0.5207,-1.58815 -0.4947,-0.52071 -1.6403,-0.67692 l 0.3645,-1.71833 h 13.0958 l -0.3645,1.71833 q -1.484,0.41656 -2.187,1.45798 -0.7029,1.04141 -1.3278,3.85322 l -4.7384,21.47913 q -0.1822,0.83313 -0.2603,1.45797 -0.078,0.59881 -0.078,1.58816 0,1.09348 0.4946,1.61418 0.5207,0.49468 1.6663,0.65089 z"
         id="path137285" /><path
         d="m 3281.0733,910.57001 h -13.0958 l 0.3645,-1.71833 q 1.484,-0.41657 2.187,-1.45798 0.7029,-1.04141 1.3278,-3.85322 l 4.7384,-21.47913 q 0.3385,-1.53608 0.3385,-3.04613 0,-1.09348 -0.5207,-1.58815 -0.4947,-0.52071 -1.6403,-0.67692 l 0.3645,-1.71833 h 13.0958 l -0.3645,1.71833 q -1.484,0.41656 -2.187,1.45798 -0.7029,1.04141 -1.3278,3.85322 l -4.7384,21.47913 q -0.1822,0.83313 -0.2604,1.45797 -0.078,0.59881 -0.078,1.58816 0,1.09348 0.4947,1.61418 0.5207,0.49468 1.6663,0.65089 z"
         id="path137287" /></g><path
       d="M3121.5 1310C3121.5 1247.87 3171.64 1197.5 3233.5 1197.5 3295.36 1197.5 3345.5 1247.87 3345.5 1310 3345.5 1372.13 3295.36 1422.5 3233.5 1422.5 3171.64 1422.5 3121.5 1372.13 3121.5 1310Z"
       stroke="#005EA8"
       stroke-width="20.625"
       stroke-miterlimit="8"
       fill="#FFFFFF"
       fill-rule="evenodd"
       id="path137225" /><path
       d="M3162.25 1270.69 3189.59 1270.69 3188.79 1274.24C3187.25 1274.38 3186.13 1274.85 3185.43 1275.66 3184.73 1276.47 3184.38 1277.51 3184.38 1278.8 3184.38 1279.88 3184.58 1281.16 3184.97 1282.64 3185.37 1284.13 3185.98 1285.91 3186.8 1287.99L3190.18 1296.9 3197.38 1287.99C3199.67 1285.12 3201.26 1282.96 3202.16 1281.51 3203.06 1280.06 3203.5 1278.86 3203.5 1277.89 3203.5 1276.67 3203.2 1275.8 3202.59 1275.28 3201.98 1274.76 3200.98 1274.42 3199.58 1274.24L3200.39 1270.69 3222.73 1270.69 3221.93 1274.29C3221.07 1274.43 3220.21 1274.77 3219.35 1275.31 3218.49 1275.85 3217.32 1276.85 3215.83 1278.32 3214.34 1279.79 3211.88 1282.53 3208.44 1286.54L3193.03 1304.42 3202.54 1329.18C3203.97 1332.94 3205.25 1335.65 3206.38 1337.32 3207.5 1338.98 3209 1340.03 3210.86 1340.46L3210.11 1344.01 3182.72 1344.01 3183.47 1340.46C3186.3 1340.18 3187.71 1338.89 3187.71 1336.59 3187.71 1335.31 3187.55 1334 3187.23 1332.67 3186.91 1331.35 3186.44 1329.88 3185.83 1328.27L3181.05 1315.65 3169.93 1328.91C3168.29 1330.88 3167.12 1332.44 3166.44 1333.59 3165.76 1334.73 3165.42 1335.86 3165.42 1336.97 3165.42 1339.12 3166.75 1340.28 3169.4 1340.46L3168.64 1344.01 3146.25 1344.01 3147 1340.46C3148.47 1340.07 3149.93 1339.24 3151.38 1337.99 3152.83 1336.74 3155.57 1333.8 3159.62 1329.18L3178.15 1308.24 3169.93 1286.54C3169.36 1285.07 3168.67 1283.4 3167.87 1281.54 3167.06 1279.68 3166.33 1278.26 3165.66 1277.27 3165 1276.29 3164.36 1275.58 3163.73 1275.15 3163.1 1274.72 3162.34 1274.42 3161.45 1274.24Z"
       fill="#005EA8"
       fill-rule="evenodd"
       id="path137227" /><g
       aria-label="ð‘¿"
       id="text137229"
       style="font-size:73.3154px;font-family:Arial, Arial_MSFontService, sans-serif;fill-opacity:0"><path
         d="m 3174.3876,1285.975 -0.5369,2.3627 q -1.5394,0.1432 -2.2553,0.9665 -0.6802,0.7876 -0.6802,2.0763 0,1.074 0.3938,2.5775 0.3938,1.4678 1.2171,3.5441 l 2.2553,5.9426 4.797,-5.9426 q 2.2911,-2.8639 3.1861,-4.2958 0.895,-1.4678 0.895,-2.4343 0,-1.2172 -0.6086,-1.7184 -0.6086,-0.5369 -2.0047,-0.7159 l 0.537,-2.3627 h 14.8921 l -0.5369,2.3985 q -0.8592,0.1432 -1.7184,0.6801 -0.8591,0.537 -2.3627,2.0048 -1.4677,1.4677 -4.9044,5.4771 l -10.2741,11.9209 6.3363,16.5032 q 1.4319,3.7588 2.5417,5.4413 1.1455,1.6468 3.0071,2.0764 l -0.5012,2.3627 h -18.2573 l 0.5012,-2.3627 q 2.8281,-0.2864 2.8281,-2.5775 0,-1.2888 -0.3222,-2.6133 -0.3222,-1.3246 -0.9307,-2.9355 l -3.1861,-8.4127 -7.4103,8.8423 q -1.6467,1.9689 -2.3269,3.1145 -0.6802,1.1455 -0.6802,2.2553 0,2.1479 2.6491,2.3269 l -0.5012,2.3627 h -14.928 l 0.5012,-2.3627 q 1.4678,-0.3938 2.8997,-1.6468 1.4677,-1.2529 5.513,-5.8709 l 12.3505,-13.9615 -5.4772,-14.4626 q -0.5728,-1.4677 -1.3962,-3.3292 -0.7875,-1.8616 -1.4677,-2.8281 -0.6444,-1.0024 -1.2887,-1.432 -0.6086,-0.4295 -1.5036,-0.6085 l 0.537,-2.3627 z"
         id="path137290" /></g><path
       d="M3306.54 1313.14 3326.19 1313.14 3325.64 1315.72C3324.16 1316.14 3323.06 1316.87 3322.36 1317.91 3321.66 1318.95 3320.99 1320.88 3320.37 1323.69L3313.26 1355.92C3313.08 1356.75 3312.95 1357.47 3312.87 1358.09 3312.79 1358.7 3312.75 1359.5 3312.75 1360.49 3312.75 1361.58 3313.01 1362.38 3313.51 1362.89 3314.02 1363.4 3314.85 1363.73 3315.99 1363.89L3315.45 1366.46 3295.8 1366.46 3296.35 1363.89C3297.83 1363.47 3298.92 1362.74 3299.63 1361.7 3300.33 1360.66 3300.99 1358.73 3301.62 1355.92L3308.73 1323.69C3309.07 1322.16 3309.24 1320.63 3309.24 1319.12 3309.24 1318.03 3308.98 1317.23 3308.48 1316.72 3307.97 1316.21 3307.14 1315.88 3305.99 1315.72ZM3271.54 1313.14 3291.19 1313.14 3290.64 1315.72C3289.16 1316.14 3288.06 1316.87 3287.36 1317.91 3286.66 1318.95 3285.99 1320.88 3285.37 1323.69L3278.26 1355.92C3278.08 1356.75 3277.95 1357.47 3277.87 1358.09 3277.79 1358.7 3277.75 1359.5 3277.75 1360.49 3277.75 1361.58 3278.01 1362.38 3278.51 1362.89 3279.02 1363.4 3279.85 1363.73 3280.99 1363.89L3280.45 1366.46 3260.8 1366.46 3261.35 1363.89C3262.83 1363.47 3263.92 1362.74 3264.63 1361.7 3265.33 1360.66 3265.99 1358.73 3266.62 1355.92L3273.73 1323.69C3274.07 1322.16 3274.24 1320.63 3274.24 1319.12 3274.24 1318.03 3273.98 1317.23 3273.48 1316.72 3272.97 1316.21 3272.14 1315.88 3270.99 1315.72ZM3236.54 1313.14 3256.19 1313.14 3255.64 1315.72C3254.16 1316.14 3253.06 1316.87 3252.36 1317.91 3251.66 1318.95 3250.99 1320.88 3250.37 1323.69L3243.26 1355.92C3243.08 1356.75 3242.95 1357.47 3242.87 1358.09 3242.79 1358.7 3242.75 1359.5 3242.75 1360.49 3242.75 1361.58 3243.01 1362.38 3243.51 1362.89 3244.02 1363.4 3244.85 1363.73 3245.99 1363.89L3245.45 1366.46 3225.8 1366.46 3226.35 1363.89C3227.83 1363.47 3228.92 1362.74 3229.63 1361.7 3230.33 1360.66 3230.99 1358.73 3231.62 1355.92L3238.73 1323.69C3239.07 1322.16 3239.24 1320.63 3239.24 1319.12 3239.24 1318.03 3238.98 1317.23 3238.48 1316.72 3237.97 1316.21 3237.14 1315.88 3235.99 1315.72Z"
       fill="#005EA8"
       fill-rule="evenodd"
       id="path137231" /><g
       aria-label="ð‘°ð‘°ð‘°"
       id="text137233"
       style="font-size:53.3203px;font-family:Arial, Arial_MSFontService, sans-serif;fill-opacity:0"><path
         d="m 3240.3798,1359.8 h -13.0957 l 0.3645,-1.7183 q 1.484,-0.4165 2.1869,-1.458 0.703,-1.0414 1.3278,-3.8532 l 4.7384,-21.4791 q 0.3385,-1.5361 0.3385,-3.0461 0,-1.0935 -0.5207,-1.5882 -0.4947,-0.5207 -1.6402,-0.6769 l 0.3645,-1.7183 h 13.0957 l -0.3645,1.7183 q -1.484,0.4166 -2.1869,1.458 -0.703,1.0414 -1.3278,3.8532 l -4.7385,21.4791 q -0.1822,0.8331 -0.2603,1.458 -0.078,0.5988 -0.078,1.5881 0,1.0935 0.4947,1.6142 0.5207,0.4947 1.6662,0.6509 z"
         id="path137293" /><path
         d="m 3263.6033,1359.8 h -13.0957 l 0.3644,-1.7183 q 1.4841,-0.4165 2.187,-1.458 0.703,-1.0414 1.3278,-3.8532 l 4.7384,-21.4791 q 0.3385,-1.5361 0.3385,-3.0461 0,-1.0935 -0.5207,-1.5882 -0.4947,-0.5207 -1.6402,-0.6769 l 0.3645,-1.7183 h 13.0957 l -0.3645,1.7183 q -1.484,0.4166 -2.1869,1.458 -0.703,1.0414 -1.3278,3.8532 l -4.7385,21.4791 q -0.1822,0.8331 -0.2603,1.458 -0.078,0.5988 -0.078,1.5881 0,1.0935 0.4946,1.6142 0.5207,0.4947 1.6663,0.6509 z"
         id="path137295" /><path
         d="m 3286.8268,1359.8 h -13.0958 l 0.3645,-1.7183 q 1.484,-0.4165 2.187,-1.458 0.703,-1.0414 1.3278,-3.8532 l 4.7384,-21.4791 q 0.3385,-1.5361 0.3385,-3.0461 0,-1.0935 -0.5207,-1.5882 -0.4947,-0.5207 -1.6402,-0.6769 l 0.3644,-1.7183 h 13.0958 l -0.3645,1.7183 q -1.484,0.4166 -2.187,1.458 -0.7029,1.0414 -1.3278,3.8532 l -4.7384,21.4791 q -0.1822,0.8331 -0.2603,1.458 -0.078,0.5988 -0.078,1.5881 0,1.0935 0.4946,1.6142 0.5207,0.4947 1.6663,0.6509 z"
         id="path137297" /></g><path
       d="M3581.5 1191.5C3581.5 1129.64 3631.64 1079.5 3693.5 1079.5 3755.36 1079.5 3805.5 1129.64 3805.5 1191.5 3805.5 1253.36 3755.36 1303.5 3693.5 1303.5 3631.64 1303.5 3581.5 1253.36 3581.5 1191.5Z"
       stroke="#005EA8"
       stroke-width="20.625"
       stroke-miterlimit="8"
       fill="#FFFFFF"
       fill-rule="evenodd"
       id="path137235" /><path
       d="M3645.54 1152.11 3672.88 1152.11 3672.07 1155.66C3670.53 1155.8 3669.41 1156.28 3668.71 1157.08 3668.02 1157.89 3667.67 1158.94 3667.67 1160.23 3667.67 1161.3 3667.86 1162.58 3668.26 1164.07 3668.65 1165.55 3669.26 1167.33 3670.08 1169.41L3673.47 1178.33 3680.66 1169.41C3682.96 1166.55 3684.55 1164.39 3685.44 1162.94 3686.34 1161.49 3686.79 1160.28 3686.79 1159.31 3686.79 1158.09 3686.48 1157.23 3685.87 1156.71 3685.27 1156.19 3684.26 1155.84 3682.87 1155.66L3683.67 1152.11 3706.02 1152.11 3705.21 1155.71C3704.35 1155.86 3703.49 1156.2 3702.63 1156.73 3701.77 1157.27 3700.6 1158.27 3699.11 1159.74 3697.63 1161.21 3695.17 1163.95 3691.73 1167.96L3676.31 1185.85 3685.82 1210.61C3687.25 1214.37 3688.53 1217.08 3689.66 1218.74 3690.79 1220.41 3692.28 1221.46 3694.15 1221.89L3693.39 1225.43 3666 1225.43 3666.75 1221.89C3669.58 1221.6 3671 1220.31 3671 1218.02 3671 1216.73 3670.83 1215.42 3670.51 1214.1 3670.19 1212.77 3669.72 1211.3 3669.12 1209.69L3664.34 1197.07 3653.22 1210.34C3651.57 1212.31 3650.41 1213.86 3649.73 1215.01 3649.05 1216.16 3648.71 1217.28 3648.71 1218.39 3648.71 1220.54 3650.03 1221.71 3652.68 1221.89L3651.93 1225.43 3629.53 1225.43 3630.28 1221.89C3631.75 1221.49 3633.21 1220.67 3634.66 1219.41 3636.11 1218.16 3638.86 1215.23 3642.91 1210.61L3661.44 1189.66 3653.22 1167.96C3652.64 1166.49 3651.96 1164.83 3651.15 1162.96 3650.34 1161.1 3649.61 1159.68 3648.95 1158.69 3648.29 1157.71 3647.64 1157 3647.01 1156.57 3646.39 1156.14 3645.63 1155.84 3644.73 1155.66Z"
       fill="#005EA8"
       fill-rule="evenodd"
       id="path137237" /><g
       aria-label="ð‘¿"
       id="text137239"
       style="font-size:73.3154px;font-family:Arial, Arial_MSFontService, sans-serif;fill-opacity:0"><path
         d="m 3657.6677,1167.405 -0.537,2.3627 q -1.5393,0.1432 -2.2553,0.9666 -0.6802,0.7876 -0.6802,2.0763 0,1.074 0.3938,2.5775 0.3938,1.4677 1.2172,3.544 l 2.2553,5.9426 4.797,-5.9426 q 2.2911,-2.8638 3.186,-4.2958 0.895,-1.4677 0.895,-2.4343 0,-1.2171 -0.6086,-1.7183 -0.6086,-0.537 -2.0047,-0.716 l 0.537,-2.3627 h 14.8922 l -0.537,2.3985 q -0.8592,0.1432 -1.7183,0.6802 -0.8592,0.537 -2.3627,2.0047 -1.4678,1.4678 -4.9044,5.4772 l -10.2742,11.9209 6.3363,16.5031 q 1.432,3.7589 2.5417,5.4414 1.1456,1.6467 3.0071,2.0763 l -0.5012,2.3627 h -18.2572 l 0.5011,-2.3627 q 2.8281,-0.2864 2.8281,-2.5775 0,-1.2887 -0.3222,-2.6133 -0.3221,-1.3245 -0.9307,-2.9355 l -3.1861,-8.4126 -7.4103,8.8422 q -1.6467,1.969 -2.3269,3.1145 -0.6802,1.1456 -0.6802,2.2553 0,2.1479 2.6491,2.3269 l -0.5012,2.3627 h -14.9279 l 0.5011,-2.3627 q 1.4678,-0.3938 2.8997,-1.6467 1.4678,-1.253 5.513,-5.871 l 12.3505,-13.9614 -5.4772,-14.4626 q -0.5728,-1.4678 -1.3961,-3.3293 -0.7876,-1.8615 -1.4678,-2.8281 -0.6443,-1.0023 -1.2887,-1.4319 -0.6086,-0.4296 -1.5036,-0.6086 l 0.537,-2.3627 z"
         id="path137300" /></g><path
       d="M3711.15 1194.57 3731.35 1194.57 3730.76 1197.15C3729.62 1197.22 3728.73 1197.51 3728.09 1198.01 3727.45 1198.5 3726.99 1199.16 3726.72 1200 3726.45 1200.83 3726.31 1202.08 3726.31 1203.75L3726.31 1205.43C3726.31 1206 3726.32 1206.61 3726.35 1207.26L3726.62 1220.97C3726.73 1226.21 3726.78 1230.99 3726.78 1235.31L3727.25 1235.31 3739.86 1211.64C3741.9 1207.84 3743.14 1205.28 3743.6 1203.96 3744.05 1202.65 3744.28 1201.46 3744.28 1200.39 3744.28 1198.51 3743.17 1197.43 3740.96 1197.15L3741.54 1194.57 3758.19 1194.57 3757.6 1197.15C3756.66 1197.35 3755.85 1197.71 3755.16 1198.22 3754.47 1198.73 3753.82 1199.39 3753.22 1200.21 3752.63 1201.03 3751.74 1202.49 3750.57 1204.57L3726.31 1248.16 3716.51 1248.16 3714.83 1206.4C3714.77 1204.92 3714.67 1203.59 3714.51 1202.4 3714.36 1201.22 3714.11 1200.25 3713.77 1199.49 3713.43 1198.74 3713.01 1198.18 3712.5 1197.83 3711.99 1197.48 3711.35 1197.25 3710.57 1197.15Z"
       fill="#005EA8"
       fill-rule="evenodd"
       id="path137241" /><g
       aria-label="ð‘½"
       id="text137243"
       style="font-size:53.5938px;font-family:Arial, Arial_MSFontService, sans-serif;fill-opacity:0"><path
         d="m 3732.6827,1217.1753 q 2.0412,-3.8207 2.4861,-5.1291 0.471,-1.3346 0.471,-2.4076 0,-1.8841 -2.2243,-2.172 l 0.3925,-1.7271 h 11.1479 l -0.3925,1.7271 q -0.9421,0.2094 -1.6486,0.7328 -0.6804,0.4972 -1.2823,1.3346 -0.6019,0.8112 -1.7795,2.9047 l -16.2508,29.2044 h -6.5684 l -1.1253,-27.9745 q -0.052,-1.4916 -0.2093,-2.6692 -0.1571,-1.2037 -0.4972,-1.9626 -0.3402,-0.7589 -0.8636,-1.0991 -0.4972,-0.3664 -1.2823,-0.4711 l 0.3925,-1.7271 h 13.5293 l -0.3925,1.7271 q -1.1514,0.079 -1.8056,0.5757 -0.6281,0.4973 -0.916,1.3347 -0.2616,0.8374 -0.2616,2.5122 v 1.1252 q 0,0.5757 0.026,1.23 l 0.1832,9.1852 q 0.1047,5.26 0.1047,9.604 h 0.314 z"
         id="path137303" /></g><path
       d="M2691.5 1471C2691.5 1408.87 2741.64 1358.5 2803.5 1358.5 2865.36 1358.5 2915.5 1408.87 2915.5 1471 2915.5 1533.13 2865.36 1583.5 2803.5 1583.5 2741.64 1583.5 2691.5 1533.13 2691.5 1471Z"
       stroke="#005EA8"
       stroke-width="20.625"
       stroke-miterlimit="8"
       fill="#FFFFFF"
       fill-rule="evenodd"
       id="path137245" /><path
       d="M2720.72 1431.67 2748.06 1431.67 2747.25 1435.22C2745.72 1435.36 2744.6 1435.84 2743.9 1436.64 2743.2 1437.45 2742.85 1438.5 2742.85 1439.78 2742.85 1440.86 2743.05 1442.14 2743.44 1443.63 2743.84 1445.11 2744.44 1446.89 2745.27 1448.97L2748.65 1457.89 2755.85 1448.97C2758.14 1446.1 2759.73 1443.95 2760.63 1442.5 2761.52 1441.05 2761.97 1439.84 2761.97 1438.87 2761.97 1437.65 2761.67 1436.79 2761.06 1436.27 2760.45 1435.75 2759.45 1435.4 2758.05 1435.22L2758.86 1431.67 2781.2 1431.67 2780.39 1435.27C2779.54 1435.42 2778.68 1435.76 2777.82 1436.29 2776.96 1436.83 2775.78 1437.83 2774.3 1439.3 2772.81 1440.77 2770.35 1443.51 2766.91 1447.52L2751.5 1465.4 2761 1490.17C2762.44 1493.93 2763.72 1496.64 2764.85 1498.3 2765.97 1499.97 2767.47 1501.02 2769.33 1501.44L2768.58 1504.99 2741.19 1504.99 2741.94 1501.44C2744.77 1501.16 2746.18 1499.87 2746.18 1497.58 2746.18 1496.29 2746.02 1494.98 2745.7 1493.66 2745.38 1492.33 2744.91 1490.86 2744.3 1489.25L2739.52 1476.63 2728.4 1489.9C2726.76 1491.87 2725.59 1493.42 2724.91 1494.57 2724.23 1495.72 2723.89 1496.84 2723.89 1497.95 2723.89 1500.1 2725.22 1501.27 2727.87 1501.44L2727.11 1504.99 2704.72 1504.99 2705.47 1501.44C2706.94 1501.05 2708.4 1500.23 2709.85 1498.97 2711.3 1497.72 2714.04 1494.78 2718.09 1490.17L2736.62 1469.22 2728.4 1447.52C2727.83 1446.05 2727.14 1444.39 2726.33 1442.52 2725.53 1440.66 2724.79 1439.24 2724.13 1438.25 2723.47 1437.27 2722.83 1436.56 2722.2 1436.13 2721.57 1435.7 2720.81 1435.4 2719.92 1435.22Z"
       fill="#005EA8"
       fill-rule="evenodd"
       id="path137247" /><g
       aria-label="ð‘¿"
       id="text137249"
       style="font-size:73.3154px;font-family:Arial, Arial_MSFontService, sans-serif;fill-opacity:0"><path
         d="m 2732.8576,1446.965 -0.537,2.3627 q -1.5393,0.1432 -2.2553,0.9665 -0.6801,0.7876 -0.6801,2.0763 0,1.074 0.3937,2.5775 0.3938,1.4678 1.2172,3.5441 l 2.2553,5.9425 4.797,-5.9425 q 2.2911,-2.8639 3.1861,-4.2958 0.8949,-1.4678 0.8949,-2.4343 0,-1.2172 -0.6085,-1.7184 -0.6086,-0.5369 -2.0048,-0.7159 l 0.537,-2.3627 h 14.8922 l -0.537,2.3985 q -0.8591,0.1432 -1.7183,0.6801 -0.8592,0.537 -2.3627,2.0047 -1.4677,1.4678 -4.9044,5.4772 l -10.2742,11.9209 6.3364,16.5032 q 1.4319,3.7588 2.5417,5.4413 1.1455,1.6468 3.007,2.0764 l -0.5011,2.3627 h -18.2573 l 0.5012,-2.3627 q 2.8281,-0.2864 2.8281,-2.5775 0,-1.2888 -0.3222,-2.6133 -0.3222,-1.3246 -0.9308,-2.9355 l -3.186,-8.4127 -7.4103,8.8423 q -1.6468,1.9689 -2.3269,3.1144 -0.6802,1.1456 -0.6802,2.2553 0,2.148 2.6491,2.327 l -0.5012,2.3627 h -14.928 l 0.5012,-2.3627 q 1.4677,-0.3938 2.8997,-1.6468 1.4677,-1.2529 5.5129,-5.8709 l 12.3505,-13.9615 -5.4771,-14.4626 q -0.5728,-1.4677 -1.3962,-3.3292 -0.7876,-1.8616 -1.4677,-2.8281 -0.6444,-1.0024 -1.2888,-1.432 -0.6085,-0.4295 -1.5035,-0.6085 l 0.537,-2.3627 z"
         id="path137306" /></g><path
       d="M2786.34 1474.13 2806.53 1474.13 2805.95 1476.71C2804.8 1476.78 2803.91 1477.07 2803.27 1477.57 2802.63 1478.06 2802.18 1478.72 2801.91 1479.56 2801.63 1480.39 2801.49 1481.64 2801.49 1483.31L2801.49 1484.99C2801.49 1485.56 2801.51 1486.17 2801.53 1486.82L2801.81 1500.53C2801.91 1505.77 2801.96 1510.55 2801.96 1514.87L2802.43 1514.87 2815.05 1491.2C2817.08 1487.4 2818.32 1484.84 2818.78 1483.52 2819.24 1482.21 2819.46 1481.02 2819.46 1479.95 2819.46 1478.07 2818.36 1476.99 2816.14 1476.71L2816.73 1474.13 2833.37 1474.13 2832.78 1476.71C2831.85 1476.91 2831.03 1477.27 2830.34 1477.78 2829.65 1478.29 2829.01 1478.95 2828.41 1479.77 2827.81 1480.59 2826.92 1482.04 2825.75 1484.13L2801.49 1527.72 2791.69 1527.72 2790.01 1485.96C2789.96 1484.48 2789.85 1483.14 2789.7 1481.96 2789.54 1480.78 2789.29 1479.81 2788.96 1479.05 2788.62 1478.29 2788.19 1477.74 2787.69 1477.39 2787.18 1477.04 2786.53 1476.81 2785.75 1476.71Z"
       fill="#005EA8"
       fill-rule="evenodd"
       id="path137251" /><g
       aria-label="ð‘½"
       id="text137253"
       style="font-size:53.5938px;font-family:Arial, Arial_MSFontService, sans-serif;fill-opacity:0"><path
         d="m 2807.8627,1496.7353 q 2.0411,-3.8206 2.486,-5.1291 0.4711,-1.3346 0.4711,-2.4075 0,-1.8842 -2.2244,-2.172 l 0.3925,-1.7272 h 11.148 l -0.3926,1.7272 q -0.942,0.2093 -1.6486,0.7327 -0.6804,0.4972 -1.2823,1.3346 -0.6019,0.8113 -1.7795,2.9048 l -16.2508,29.2044 h -6.5684 l -1.1253,-27.9745 q -0.052,-1.4916 -0.2093,-2.6692 -0.157,-1.2038 -0.4972,-1.9627 -0.3402,-0.7589 -0.8636,-1.0991 -0.4972,-0.3663 -1.2823,-0.471 l 0.3926,-1.7272 h 13.5293 l -0.3926,1.7272 q -1.1514,0.079 -1.8056,0.5757 -0.6281,0.4972 -0.9159,1.3346 -0.2617,0.8374 -0.2617,2.5122 v 1.1253 q 0,0.5757 0.026,1.2299 l 0.1831,9.1853 q 0.1047,5.2599 0.1047,9.604 h 0.314 z"
         id="path137309" /></g><path
       d="M2882.15 1474.13 2901.79 1474.13 2901.25 1476.71C2899.76 1477.12 2898.67 1477.85 2897.97 1478.89 2897.26 1479.94 2896.6 1481.86 2895.97 1484.67L2888.86 1516.9C2888.68 1517.73 2888.55 1518.46 2888.47 1519.07 2888.4 1519.68 2888.36 1520.48 2888.36 1521.47 2888.36 1522.57 2888.61 1523.37 2889.12 1523.87 2889.63 1524.38 2890.45 1524.71 2891.6 1524.87L2891.05 1527.45 2871.4 1527.45 2871.95 1524.87C2873.43 1524.45 2874.53 1523.72 2875.23 1522.68 2875.93 1521.64 2876.6 1519.71 2877.22 1516.9L2884.33 1484.67C2884.67 1483.14 2884.84 1481.61 2884.84 1480.1 2884.84 1479.01 2884.59 1478.21 2884.08 1477.7 2883.57 1477.19 2882.74 1476.86 2881.6 1476.71ZM2847.15 1474.13 2866.79 1474.13 2866.25 1476.71C2864.76 1477.12 2863.67 1477.85 2862.97 1478.89 2862.26 1479.94 2861.6 1481.86 2860.97 1484.67L2853.86 1516.9C2853.68 1517.73 2853.55 1518.46 2853.47 1519.07 2853.4 1519.68 2853.36 1520.48 2853.36 1521.47 2853.36 1522.57 2853.61 1523.37 2854.12 1523.87 2854.63 1524.38 2855.45 1524.71 2856.6 1524.87L2856.05 1527.45 2836.4 1527.45 2836.95 1524.87C2838.43 1524.45 2839.53 1523.72 2840.23 1522.68 2840.93 1521.64 2841.6 1519.71 2842.22 1516.9L2849.33 1484.67C2849.67 1483.14 2849.84 1481.61 2849.84 1480.1 2849.84 1479.01 2849.59 1478.21 2849.08 1477.7 2848.57 1477.19 2847.74 1476.86 2846.6 1476.71Z"
       fill="#005EA8"
       fill-rule="evenodd"
       id="path137255" /><g
       aria-label="ð‘°ð‘°"
       id="text137257"
       style="font-size:53.3203px;font-family:Arial, Arial_MSFontService, sans-serif;fill-opacity:0"><path
         d="m 2850.9797,1520.78 h -13.0958 l 0.3645,-1.7183 q 1.484,-0.4166 2.187,-1.458 0.7029,-1.0414 1.3278,-3.8532 l 4.7384,-21.4791 q 0.3385,-1.5361 0.3385,-3.0462 0,-1.0934 -0.5207,-1.5881 -0.4947,-0.5207 -1.6403,-0.6769 l 0.3645,-1.7184 h 13.0958 l -0.3645,1.7184 q -1.484,0.4165 -2.187,1.4579 -0.7029,1.0415 -1.3278,3.8533 l -4.7384,21.4791 q -0.1823,0.8331 -0.2604,1.458 -0.078,0.5988 -0.078,1.5881 0,1.0935 0.4947,1.6142 0.5207,0.4947 1.6663,0.6509 z"
         id="path137312" /><path
         d="m 2874.2032,1520.78 h -13.0958 l 0.3645,-1.7183 q 1.484,-0.4166 2.187,-1.458 0.7029,-1.0414 1.3278,-3.8532 l 4.7384,-21.4791 q 0.3384,-1.5361 0.3384,-3.0462 0,-1.0934 -0.5207,-1.5881 -0.4946,-0.5207 -1.6402,-0.6769 l 0.3645,-1.7184 h 13.0958 l -0.3645,1.7184 q -1.484,0.4165 -2.187,1.4579 -0.7029,1.0415 -1.3278,3.8533 l -4.7384,21.4791 q -0.1823,0.8331 -0.2604,1.458 -0.078,0.5988 -0.078,1.5881 0,1.0935 0.4947,1.6142 0.5207,0.4947 1.6663,0.6509 z"
         id="path137314" /></g></g></svg>
