<?xml version="1.0" encoding="UTF-8" standalone="no"?>
<svg
   width="3253"
   height="714"
   overflow="hidden"
   version="1.1"
   id="svg89"
   sodipodi:docname="simple_graphs.svg"
   inkscape:version="1.2 (dc2aedaf03, 2022-05-15)"
   xmlns:inkscape="http://www.inkscape.org/namespaces/inkscape"
   xmlns:sodipodi="http://sodipodi.sourceforge.net/DTD/sodipodi-0.dtd"
   xmlns="http://www.w3.org/2000/svg"
   xmlns:svg="http://www.w3.org/2000/svg">
  <sodipodi:namedview
     id="namedview91"
     pagecolor="#ffffff"
     bordercolor="#666666"
     borderopacity="1.0"
     inkscape:showpageshadow="2"
     inkscape:pageopacity="0.0"
     inkscape:pagecheckerboard="0"
     inkscape:deskcolor="#d1d1d1"
     showgrid="false"
     inkscape:zoom="0.37196434"
     inkscape:cx="1539.126"
     inkscape:cy="357.56116"
     inkscape:window-width="1920"
     inkscape:window-height="1017"
     inkscape:window-x="1912"
     inkscape:window-y="-8"
     inkscape:window-maximized="1"
     inkscape:current-layer="svg89" />
  <defs
     id="defs5">
    <clipPath
       id="clip0">
      <rect
         x="491"
         y="736"
         width="3253"
         height="714"
         id="rect2" />
    </clipPath>
  </defs>
  <g
     clip-path="url(#clip0)"
     transform="translate(-491 -736)"
     id="g87">
    <path
       d="M701.951 926.763 956.544 1204.83C960.818 1209.5 960.498 1216.75 955.831 1221.02 951.163 1225.3 943.915 1224.98 939.642 1220.31L685.049 942.238C680.775 937.57 681.095 930.322 685.762 926.049 690.43 921.776 697.678 922.095 701.951 926.763ZM949.538 1157.34 962.693 1228.52 892.949 1209.15C886.852 1207.46 883.281 1201.14 884.974 1195.04 886.667 1188.95 892.983 1185.38 899.08 1187.07L951.159 1201.53 936.826 1214.65 927.003 1161.5C925.853 1155.28 929.965 1149.3 936.188 1148.15 942.411 1147 948.388 1151.12 949.538 1157.34Z"
       fill="#AE0060"
       id="path7" />
    <path
       d="M726.689 844.043 908.585 847.045C914.912 847.149 919.957 852.363 919.853 858.69 919.748 865.018 914.534 870.063 908.207 869.958L726.311 866.957C719.983 866.852 714.939 861.638 715.043 855.311 715.147 848.984 720.361 843.939 726.689 844.043ZM869.274 819.488 930.012 858.858 868.008 896.203C862.587 899.468 855.546 897.72 852.281 892.299 849.016 886.878 850.763 879.837 856.184 876.572L902.484 848.686 902.163 868.117 856.809 838.718C851.499 835.276 849.984 828.181 853.426 822.871 856.868 817.561 863.963 816.046 869.274 819.488Z"
       fill="#AE0060"
       id="path9" />
    <path
       d="M501 854.5C501 792.368 551.368 742 613.5 742 675.632 742 726 792.368 726 854.5 726 916.632 675.632 967 613.5 967 551.368 967 501 916.632 501 854.5Z"
       fill="#AE0060"
       fill-rule="evenodd"
       id="path11" />
    <g
       aria-label="T"
       transform="matrix(1 0 0 1 579.879 896)"
       id="text13"
       style="font-weight:700;font-size:110px;font-family:Arial, Arial_MSFontService, sans-serif;fill:#ffffff">
      <path
         d="M 25.727539,0 V -65.419922 H 2.3632813 V -78.740234 H 64.936523 v 13.320312 H 41.625977 V 0 Z"
         id="path320" />
    </g>
    <path
       d="M929.5 858.5C929.5 796.644 979.644 746.5 1041.5 746.5 1103.36 746.5 1153.5 796.644 1153.5 858.5 1153.5 920.356 1103.36 970.5 1041.5 970.5 979.644 970.5 929.5 920.356 929.5 858.5Z"
       stroke="#005EA8"
       stroke-width="20.625"
       stroke-miterlimit="8"
       fill="#FFFFFF"
       fill-rule="evenodd"
       id="path15" />
    <g
       aria-label="II"
       transform="matrix(1 0 0 1 1010.8 899)"
       id="text17"
       style="font-weight:700;font-size:110px;font-family:Arial, Arial_MSFontService, sans-serif;fill:#005ea8">
      <path
         d="M 7.5195312,0 V -78.740234 H 23.417969 V 0 Z"
         id="path323" />
      <path
         d="M 38.081055,0 V -78.740234 H 53.979492 V 0 Z"
         id="path325" />
    </g>
    <path
       d="M929.5 1307.5C929.5 1245.64 979.644 1195.5 1041.5 1195.5 1103.36 1195.5 1153.5 1245.64 1153.5 1307.5 1153.5 1369.36 1103.36 1419.5 1041.5 1419.5 979.644 1419.5 929.5 1369.36 929.5 1307.5Z"
       stroke="#005EA8"
       stroke-width="20.625"
       stroke-miterlimit="8"
       fill="#FFFFFF"
       fill-rule="evenodd"
       id="path19" />
    <g
       aria-label="III"
       transform="matrix(1 0 0 1 995.615 1348)"
       id="text21"
       style="font-weight:700;font-size:110px;font-family:Arial, Arial_MSFontService, sans-serif;fill:#005ea8">
      <path
         d="M 7.5195312,0 V -78.740234 H 23.417969 V 0 Z"
         id="path328" />
      <path
         d="M 38.081055,0 V -78.740234 H 53.979492 V 0 Z"
         id="path330" />
      <path
         d="M 68.642578,0 V -78.740234 H 84.541016 V 0 Z"
         id="path332" />
    </g>
    <path
       d="M1911.96 973.5 1911.96 1176.86C1911.96 1183.18 1906.83 1188.31 1900.5 1188.31 1894.17 1188.31 1889.04 1183.18 1889.04 1176.86L1889.04 973.5C1889.04 967.172 1894.17 962.042 1900.5 962.042 1906.83 962.042 1911.96 967.172 1911.96 973.5ZM1938.86 1137.09 1900.5 1198.47 1862.14 1137.09C1858.78 1131.73 1860.42 1124.66 1865.78 1121.31 1871.15 1117.95 1878.22 1119.58 1881.57 1124.95L1910.22 1170.78 1890.78 1170.78 1919.43 1124.95C1922.78 1119.58 1929.85 1117.95 1935.22 1121.31 1940.59 1124.66 1942.22 1131.73 1938.86 1137.09Z"
       fill="#005EA8"
       id="path23" />
    <path
       d="M1560.95 929.762 1815.54 1207.83C1819.82 1212.5 1819.5 1219.75 1814.83 1224.02 1810.16 1228.3 1802.92 1227.98 1798.64 1223.31L1544.05 945.238C1539.78 940.57 1540.09 933.322 1544.76 929.049 1549.43 924.775 1556.68 925.095 1560.95 929.762ZM1808.54 1160.34 1821.69 1231.52 1751.95 1212.15C1745.85 1210.46 1742.28 1204.14 1743.97 1198.04 1745.67 1191.95 1751.98 1188.38 1758.08 1190.07L1810.16 1204.53 1795.83 1217.65 1786 1164.5C1784.85 1158.28 1788.97 1152.3 1795.19 1151.15 1801.41 1150 1807.39 1154.12 1808.54 1160.34Z"
       fill="#AE0060"
       id="path25" />
    <path
       d="M1585.69 847.043 1767.59 850.044C1773.91 850.149 1778.96 855.363 1778.85 861.69 1778.75 868.018 1773.53 873.062 1767.21 872.958L1585.31 869.957C1578.98 869.852 1573.94 864.638 1574.04 858.311 1574.15 851.983 1579.36 846.939 1585.69 847.043ZM1728.27 822.488 1789.01 861.858 1727.01 899.202C1721.59 902.467 1714.55 900.72 1711.28 895.299 1708.02 889.878 1709.76 882.836 1715.18 879.571L1761.48 851.686 1761.16 871.116 1715.81 841.718C1710.5 838.276 1708.98 831.181 1712.43 825.871 1715.87 820.56 1722.96 819.046 1728.27 822.488Z"
       fill="#AE0060"
       id="path27" />
    <path
       d="M1360 858C1360 796.144 1410.37 746 1472.5 746 1534.63 746 1585 796.144 1585 858 1585 919.856 1534.63 970 1472.5 970 1410.37 970 1360 919.856 1360 858Z"
       fill="#AE0060"
       fill-rule="evenodd"
       id="path29" />
    <g
       aria-label="T"
       transform="matrix(1 0 0 1 1439.11 899)"
       id="text31"
       style="font-weight:700;font-size:110px;font-family:Arial, Arial_MSFontService, sans-serif;fill:#ffffff">
      <path
         d="M 25.727539,0 V -65.419922 H 2.3632813 V -78.740234 H 64.936523 v 13.320312 H 41.625977 V 0 Z"
         id="path335" />
    </g>
    <path
       d="M1788.5 861.5C1788.5 799.644 1838.87 749.5 1901 749.5 1963.13 749.5 2013.5 799.644 2013.5 861.5 2013.5 923.356 1963.13 973.5 1901 973.5 1838.87 973.5 1788.5 923.356 1788.5 861.5Z"
       stroke="#005EA8"
       stroke-width="20.625"
       stroke-miterlimit="8"
       fill="#FFFFFF"
       fill-rule="evenodd"
       id="path33" />
    <g
       aria-label="II"
       transform="matrix(1 0 0 1 1870.03 902)"
       id="text35"
       style="font-weight:700;font-size:110px;font-family:Arial, Arial_MSFontService, sans-serif;fill:#005ea8">
      <path
         d="M 7.5195312,0 V -78.740234 H 23.417969 V 0 Z"
         id="path338" />
      <path
         d="M 38.081055,0 V -78.740234 H 53.979492 V 0 Z"
         id="path340" />
    </g>
    <path
       d="M1788.5 1311C1788.5 1248.87 1838.87 1198.5 1901 1198.5 1963.13 1198.5 2013.5 1248.87 2013.5 1311 2013.5 1373.13 1963.13 1423.5 1901 1423.5 1838.87 1423.5 1788.5 1373.13 1788.5 1311Z"
       stroke="#005EA8"
       stroke-width="20.625"
       stroke-miterlimit="8"
       fill="#FFFFFF"
       fill-rule="evenodd"
       id="path37" />
    <g
       aria-label="III"
       transform="matrix(1 0 0 1 1854.85 1352)"
       id="text39"
       style="font-weight:700;font-size:110px;font-family:Arial, Arial_MSFontService, sans-serif;fill:#005ea8">
      <path
         d="M 7.5195312,0 V -78.740234 H 23.417969 V 0 Z"
         id="path343" />
      <path
         d="M 38.081055,0 V -78.740234 H 53.979492 V 0 Z"
         id="path345" />
      <path
         d="M 68.642578,0 V -78.740234 H 84.541016 V 0 Z"
         id="path347" />
    </g>
    <path
       d="M2771.96 999.042 2771.96 1202.4C2771.96 1208.73 2766.83 1213.86 2760.5 1213.86 2754.17 1213.86 2749.04 1208.73 2749.04 1202.4L2749.04 999.042C2749.04 992.713 2754.17 987.583 2760.5 987.583 2766.83 987.583 2771.96 992.713 2771.96 999.042ZM2722.14 1038.8 2760.5 977.422 2798.86 1038.8C2802.22 1044.17 2800.59 1051.24 2795.22 1054.59 2789.85 1057.95 2782.78 1056.31 2779.43 1050.95L2750.78 1005.11 2770.22 1005.11 2741.57 1050.95C2738.22 1056.31 2731.15 1057.95 2725.78 1054.59 2720.42 1051.24 2718.78 1044.17 2722.14 1038.8Z"
       fill="#005EA8"
       id="path41" />
    <path
       d="M2420.95 933.762 2675.54 1211.83C2679.82 1216.5 2679.5 1223.75 2674.83 1228.02 2670.16 1232.3 2662.92 1231.98 2658.64 1227.31L2404.05 949.238C2399.78 944.57 2400.09 937.322 2404.76 933.049 2409.43 928.776 2416.68 929.095 2420.95 933.762ZM2668.54 1164.34 2681.69 1235.52 2611.95 1216.15C2605.85 1214.46 2602.28 1208.14 2603.97 1202.04 2605.67 1195.95 2611.98 1192.38 2618.08 1194.07L2670.16 1208.53 2655.83 1221.65 2646 1168.5C2644.85 1162.28 2648.97 1156.3 2655.19 1155.15 2661.41 1154 2667.39 1158.12 2668.54 1164.34Z"
       fill="#AE0060"
       id="path43" />
    <path
       d="M2445.69 850.043 2627.59 853.044C2633.91 853.149 2638.96 858.363 2638.85 864.69 2638.75 871.018 2633.53 876.062 2627.21 875.958L2445.31 872.957C2438.98 872.852 2433.94 867.638 2434.04 861.311 2434.15 854.984 2439.36 849.939 2445.69 850.043ZM2588.27 825.488 2649.01 864.858 2587.01 902.203C2581.59 905.468 2574.55 903.72 2571.28 898.299 2568.02 892.878 2569.76 885.836 2575.18 882.571L2621.48 854.686 2621.16 874.116 2575.81 844.718C2570.5 841.276 2568.98 834.181 2572.43 828.871 2575.87 823.56 2582.96 822.046 2588.27 825.488Z"
       fill="#AE0060"
       id="path45" />
    <path
       d="M2220 861C2220 799.144 2270.37 749 2332.5 749 2394.63 749 2445 799.144 2445 861 2445 922.856 2394.63 973 2332.5 973 2270.37 973 2220 922.856 2220 861Z"
       fill="#AE0060"
       fill-rule="evenodd"
       id="path47" />
    <g
       aria-label="T"
       transform="matrix(1 0 0 1 2299.03 902)"
       id="text49"
       style="font-weight:700;font-size:110px;font-family:Arial, Arial_MSFontService, sans-serif;fill:#ffffff">
      <path
         d="M 25.727539,0 V -65.419922 H 2.3632813 V -78.740234 H 64.936523 v 13.320312 H 41.625977 V 0 Z"
         id="path350" />
    </g>
    <path
       d="M2648.5 865C2648.5 802.868 2698.64 752.5 2760.5 752.5 2822.36 752.5 2872.5 802.868 2872.5 865 2872.5 927.132 2822.36 977.5 2760.5 977.5 2698.64 977.5 2648.5 927.132 2648.5 865Z"
       stroke="#005EA8"
       stroke-width="20.625"
       stroke-miterlimit="8"
       fill="#FFFFFF"
       fill-rule="evenodd"
       id="path51" />
    <g
       aria-label="II"
       transform="matrix(1 0 0 1 2729.95 906)"
       id="text53"
       style="font-weight:700;font-size:110px;font-family:Arial, Arial_MSFontService, sans-serif;fill:#005ea8">
      <path
         d="M 7.5195312,0 V -78.740234 H 23.417969 V 0 Z"
         id="path353" />
      <path
         d="M 38.081055,0 V -78.740234 H 53.979492 V 0 Z"
         id="path355" />
    </g>
    <path
       d="M2648.5 1314.5C2648.5 1252.64 2698.64 1202.5 2760.5 1202.5 2822.36 1202.5 2872.5 1252.64 2872.5 1314.5 2872.5 1376.36 2822.36 1426.5 2760.5 1426.5 2698.64 1426.5 2648.5 1376.36 2648.5 1314.5Z"
       stroke="#005EA8"
       stroke-width="20.625"
       stroke-miterlimit="8"
       fill="#FFFFFF"
       fill-rule="evenodd"
       id="path55" />
    <g
       aria-label="III1)"
       transform="matrix(1 0 0 1 2714.77 1355)"
       id="text59"
       style="font-weight:700;font-size:110px;font-family:Arial, Arial_MSFontService, sans-serif;fill:#005ea8">
      <path
         d="M 7.5195312,0 V -78.740234 H 23.417969 V 0 Z"
         id="path358" />
      <path
         d="M 38.081055,0 V -78.740234 H 53.979492 V 0 Z"
         id="path360" />
      <path
         d="M 68.642578,0 V -78.740234 H 84.541016 V 0 Z"
         id="path362" />
      <path
         d="m -2148.9336,-82.192383 q 0,-2.416992 1.9336,-3.276367 1.9873,-0.913086 4.7803,-0.859375 2.8467,0.05371 6.875,-1.12793 4.082,-1.235351 7.3047,-4.082031 1.8798,-1.665039 2.5781,-1.987305 0.6982,-0.322265 2.6855,-0.322265 4.5118,0 4.5118,4.833984 v 65.957031 h 8.0566 q 4.7266,0 4.7266,4.082032 0,3.974609 -4.7266,3.974609 h -32.3877 q -1.9873,0 -3.1152,-0.805664 -1.128,-0.859375 -1.3965,-1.611328 -0.2149,-0.751953 -0.2149,-1.503906 0,-0.805664 0.2149,-1.557618 0.2685,-0.805664 1.4502,-1.665039 1.2353,-0.913086 3.2226,-0.913086 h 9.2383 v -56.71875 q -7.0361,1.450196 -10.7959,1.503907 -4.9414,0.05371 -4.9414,-3.920899 z"
         style="font-family:'CMU Sans Serif', 'CMU Sans Serif_MSFontService', sans-serif;fill:#000000"
         id="path364" />
      <path
         d="m -2090.1201,11.049805 q 0,-0.644532 1.5576,-2.5781253 1.6113,-1.9335938 3.9209,-5.6933594 2.3096,-3.70605468 4.6191,-9.2382812 2.3096,-5.4785161 3.9209,-14.9853511 1.6114,-9.506836 1.6114,-21.269532 0,-11.118164 -1.3965,-20.08789 -1.3428,-8.969727 -3.9746,-14.985352 -2.5782,-6.069336 -4.4043,-9.130859 -1.7725,-3.115235 -4.4043,-6.606446 -1.5576,-1.879882 -1.4502,-2.90039 0.3222,-1.074219 1.9873,-1.074219 h 3.3838 q 1.3427,0 2.0947,0.483398 0.8057,0.483399 3.8672,3.38379 2.7392,2.524414 5.3711,6.015625 2.6318,3.4375 6.0693,9.667968 3.4912,6.176758 5.6397,15.415039 2.1484,9.238282 2.1484,20.03418 0,16.489258 -5.1025,29.541016 -5.1026,13.05175744 -14.0186,21.4843746 -3.2764,3.0615234 -3.9746,3.4375004 -0.6445,0.429687 -2.3096,0.537109 h -2.8466 q -2.3096,0 -2.3096,-1.450195 z"
         style="font-family:'CMU Sans Serif', 'CMU Sans Serif_MSFontService', sans-serif;fill:#000000"
         id="path366" />
    </g>
    <path
       d="M3280.95 936.762 3535.54 1214.83C3539.82 1219.5 3539.5 1226.75 3534.83 1231.02 3530.16 1235.3 3522.92 1234.98 3518.64 1230.31L3264.05 952.238C3259.78 947.57 3260.09 940.322 3264.76 936.049 3269.43 931.776 3276.68 932.095 3280.95 936.762ZM3528.54 1167.34 3541.69 1238.52 3471.95 1219.15C3465.85 1217.46 3462.28 1211.14 3463.97 1205.04 3465.67 1198.95 3471.98 1195.38 3478.08 1197.07L3530.16 1211.53 3515.83 1224.65 3506 1171.5C3504.85 1165.28 3508.97 1159.3 3515.19 1158.15 3521.41 1157 3527.39 1161.12 3528.54 1167.34Z"
       fill="#AE0060"
       id="path61" />
    <path
       d="M3305.69 854.043 3487.59 857.045C3493.91 857.149 3498.96 862.363 3498.85 868.69 3498.75 875.018 3493.53 880.062 3487.21 879.958L3305.31 876.957C3298.98 876.852 3293.94 871.638 3294.04 865.311 3294.15 858.984 3299.36 853.939 3305.69 854.043ZM3448.27 829.488 3509.01 868.858 3447.01 906.203C3441.59 909.468 3434.55 907.72 3431.28 902.299 3428.02 896.878 3429.76 889.837 3435.18 886.572L3481.48 858.686 3481.16 878.116 3435.81 848.718C3430.5 845.276 3428.98 838.181 3432.43 832.871 3435.87 827.561 3442.96 826.046 3448.27 829.488Z"
       fill="#AE0060"
       id="path63" />
    <path
       d="M3080 864.5C3080 802.368 3130.37 752 3192.5 752 3254.63 752 3305 802.368 3305 864.5 3305 926.632 3254.63 977 3192.5 977 3130.37 977 3080 926.632 3080 864.5Z"
       fill="#AE0060"
       fill-rule="evenodd"
       id="path65" />
    <g
       aria-label="T"
       transform="matrix(1 0 0 1 3158.95 906)"
       id="text67"
       style="font-weight:700;font-size:110px;font-family:Arial, Arial_MSFontService, sans-serif;fill:#ffffff">
      <path
         d="M 25.727539,0 V -65.419922 H 2.3632813 V -78.740234 H 64.936523 v 13.320312 H 41.625977 V 0 Z"
         id="path369" />
    </g>
    <path
       d="M3508.5 868.5C3508.5 806.644 3558.64 756.5 3620.5 756.5 3682.36 756.5 3732.5 806.644 3732.5 868.5 3732.5 930.356 3682.36 980.5 3620.5 980.5 3558.64 980.5 3508.5 930.356 3508.5 868.5Z"
       stroke="#005EA8"
       stroke-width="20.625"
       stroke-miterlimit="8"
       fill="#FFFFFF"
       fill-rule="evenodd"
       id="path69" />
    <g
       aria-label="II"
       transform="matrix(1 0 0 1 3589.87 909)"
       id="text71"
       style="font-weight:700;font-size:110px;font-family:Arial, Arial_MSFontService, sans-serif;fill:#005ea8">
      <path
         d="M 7.5195312,0 V -78.740234 H 23.417969 V 0 Z"
         id="path372" />
      <path
         d="M 38.081055,0 V -78.740234 H 53.979492 V 0 Z"
         id="path374" />
    </g>
    <path
       d="M3508.5 1317.5C3508.5 1255.64 3558.64 1205.5 3620.5 1205.5 3682.36 1205.5 3732.5 1255.64 3732.5 1317.5 3732.5 1379.36 3682.36 1429.5 3620.5 1429.5 3558.64 1429.5 3508.5 1379.36 3508.5 1317.5Z"
       stroke="#005EA8"
       stroke-width="20.625"
       stroke-miterlimit="8"
       fill="#FFFFFF"
       fill-rule="evenodd"
       id="path73" />
    <g
       aria-label="III"
       transform="matrix(1 0 0 1 3574.68 1358)"
       id="text75"
       style="font-weight:700;font-size:110px;font-family:Arial, Arial_MSFontService, sans-serif;fill:#005ea8">
      <path
         d="M 7.5195312,0 V -78.740234 H 23.417969 V 0 Z"
         id="path377" />
      <path
         d="M 38.081055,0 V -78.740234 H 53.979492 V 0 Z"
         id="path379" />
      <path
         d="M 68.642578,0 V -78.740234 H 84.541016 V 0 Z"
         id="path381" />
    </g>
    <path
       d="M3570.89 1197.55 3569.4 1189.72 3567.03 1174.77 3565.06 1159.72 3563.46 1144.59 3562.31 1129.37 3561.49 1114.08 3561.1 1098.71 3561.1 1083.42 3561.49 1068.05 3562.31 1052.76 3563.46 1037.53 3565.06 1022.34 3567.03 1007.3 3569.4 992.291 3572.18 977.615C3573.36 971.397 3579.36 967.313 3585.57 968.492 3591.79 969.671 3595.87 975.668 3594.7 981.885L3591.95 996.385 3592.01 996.032 3589.69 1010.72 3589.74 1010.43 3587.8 1025.18 3587.83 1024.88 3586.27 1039.76 3586.3 1039.42 3585.18 1054.36 3585.19 1054.12 3584.38 1069.12 3584.39 1068.79 3584.02 1083.85 3584.02 1083.56 3584.02 1098.56 3584.02 1098.28 3584.39 1113.34 3584.38 1113.01 3585.19 1128.01 3585.18 1127.76 3586.3 1142.7 3586.27 1142.36 3587.83 1157.17 3587.8 1156.88 3589.74 1171.63 3589.69 1171.34 3592.01 1185.96 3591.94 1185.61 3593.4 1193.26C3594.59 1199.48 3590.51 1205.47 3584.29 1206.66 3578.07 1207.84 3572.07 1203.76 3570.89 1197.55ZM3611.68 1148.71 3586.52 1216.58 3536.54 1164.22C3532.17 1159.64 3532.34 1152.39 3536.91 1148.02 3541.49 1143.65 3548.74 1143.82 3553.11 1148.4L3590.43 1187.49 3571.4 1191.42 3590.19 1140.74C3592.39 1134.81 3598.98 1131.78 3604.92 1133.98 3610.85 1136.18 3613.88 1142.77 3611.68 1148.71Z"
       fill="#005EA8"
       id="path77" />
    <path
       d="M3672.62 986.93 3674.01 995.1 3676.18 1010.21 3677.96 1025.46 3679.3 1040.77 3680.26 1056.21 3680.77 1071.61 3680.96 1087.02 3680.7 1102.48 3680 1117.89 3678.98 1133.24 3677.52 1148.55 3675.67 1163.74 3673.37 1178.79 3670.76 1193.71 3667.72 1208.38C3666.44 1214.58 3660.38 1218.57 3654.18 1217.28 3647.98 1216 3644 1209.94 3645.28 1203.74L3648.28 1189.24 3648.21 1189.58 3650.78 1174.96 3650.74 1175.21 3652.99 1160.46 3652.94 1160.8 3654.75 1145.93 3654.72 1146.22 3656.16 1131.22 3656.13 1131.55 3657.13 1116.49 3657.12 1116.73 3657.8 1101.6 3657.79 1101.94 3658.04 1086.81 3658.04 1087.14 3657.85 1072.02 3657.86 1072.25 3657.36 1057.13 3657.38 1057.46 3656.44 1042.33 3656.46 1042.62 3655.15 1027.62 3655.18 1027.96 3653.43 1013.02 3653.47 1013.31 3651.35 998.502 3651.39 998.798 3650.03 990.775C3648.96 984.537 3653.16 978.619 3659.4 977.557 3665.64 976.495 3671.56 980.692 3672.62 986.93ZM3631.03 1035.06 3657.3 967.611 3706.41 1020.78C3710.71 1025.43 3710.42 1032.68 3705.77 1036.97 3701.13 1041.26 3693.88 1040.98 3689.58 1036.33L3652.91 996.628 3672 993.011 3652.38 1043.38C3650.09 1049.27 3643.45 1052.19 3637.55 1049.89 3631.65 1047.6 3628.73 1040.96 3631.03 1035.06Z"
       fill="#005EA8"
       id="path79" />
    <g
       aria-label="2)3)4)"
       transform="matrix(1 0 0 1 1416.58 1340)"
       id="text85"
       style="font-weight:700;font-size:110px;font-family:'CMU Sans Serif', 'CMU Sans Serif_MSFontService', sans-serif">
      <path
         d="m 5.0488281,-62.46582 q 0,-0.429688 0.5908203,-1.987305 0.6445313,-1.557617 2.2558594,-4.082031 1.6650391,-2.524414 4.0820312,-4.780274 2.416992,-2.255859 6.713867,-3.867187 4.296875,-1.665039 9.560547,-1.665039 11.547852,0 18.745117,7.358398 7.250977,7.358399 7.250977,18.046875 0,3.061524 -0.966797,6.015625 -0.913086,2.900391 -1.987305,4.941406 -1.020508,1.987305 -3.920898,5.15625 -2.84668,3.115235 -4.672852,4.780274 -1.772461,1.665039 -6.445312,5.854492 -4.672852,4.135742 -7.089844,6.445313 l -9.023437,8.59375 h 3.706054 l 22.88086,-0.214844 h 2.578125 q 4.941406,0 4.941406,4.9414061 v 1.9873047 Q 54.248047,0 49.306641,0 H 11.010742 Q 9.2382813,0 8.1103516,-0.4296875 7.0361328,-0.859375 6.6064453,-1.8261719 6.1767578,-2.8466797 6.1230469,-3.2763672 6.0693359,-3.7597656 5.9619141,-4.8339844 v -1.7724609 q 0,-1.4501953 0.9667968,-2.631836 0.6445313,-0.7519531 14.9853511,-16.0595707 0.53711,-0.537109 2.578125,-2.685546 2.041016,-2.148438 2.739258,-2.900391 0.698242,-0.805664 2.524414,-2.84668 1.826172,-2.041015 2.524414,-3.061523 0.698243,-1.074219 2.094727,-2.900391 1.396484,-1.879883 1.933594,-3.222656 0.537109,-1.396484 1.289062,-3.222656 0.805664,-1.826172 1.074219,-3.544922 0.268555,-1.772461 0.268555,-3.652344 0,-5.961914 -3.222657,-10.205078 -3.168945,-4.243164 -9.077148,-4.243164 -4.189453,0 -7.036133,2.202148 -2.792969,2.202149 -3.867187,4.941407 -1.020508,2.685546 -1.879883,4.887695 -0.859375,2.202148 -1.557617,2.202148 -0.429688,0 -0.913086,-0.375976 -0.483399,-0.429688 -0.913086,-0.859375 -0.375977,-0.429688 -0.9130861,-1.181641 -0.5371094,-0.805664 -0.7519531,-1.020508 -0.6445313,-0.751953 -1.4501954,-1.71875 Q 6.6064453,-59.726562 6.2841797,-60.102539 5.9619141,-60.478516 5.5859375,-61.015625 5.2636719,-61.606445 5.15625,-61.875 5.0488281,-62.143555 5.0488281,-62.46582 Z"
         id="path384" />
      <path
         d="m 67.299805,26.049805 q 0,-0.644532 1.557617,-2.578125 1.611328,-1.933594 3.920898,-5.69336 2.309571,-3.706054 4.619141,-9.2382809 2.30957,-5.4785157 3.920898,-14.9853516 1.611328,-9.5068355 1.611328,-21.2695315 0,-11.118164 -1.396484,-20.08789 -1.342773,-8.969727 -3.974609,-14.985352 -2.578125,-6.069336 -4.404297,-9.130859 Q 71.381836,-75.03418 68.75,-78.525391 67.192383,-80.405273 67.299805,-81.425781 67.62207,-82.5 69.287109,-82.5 h 3.383789 q 1.342774,0 2.094727,0.483398 0.805664,0.483399 3.867187,3.38379 2.739258,2.524414 5.371094,6.015625 2.631836,3.4375 6.069336,9.667968 3.491211,6.176758 5.639649,15.415039 2.148437,9.238282 2.148437,20.03418 0,16.489258 -5.102539,29.5410156 -5.102539,13.0517574 -14.018555,21.4843754 -3.276367,3.061523 -3.974609,3.4375 -0.644531,0.429687 -2.30957,0.537109 h -2.84668 q -2.30957,0 -2.30957,-1.450195 z"
         id="path386" />
      <path
         d="m 868.34784,-8.0566406 q 0,0 1.12793,-6.4453124 0.21484,-1.235352 0.85937,-1.772461 l 0.53711,-0.107422 q 0.64453,0 3.22266,2.148438 2.63184,2.148437 7.30469,4.189453 4.67285,1.9873044 10.47363,1.9873044 3.06152,0 5.26367,-0.9667969 2.25586,-0.9667969 3.33008,-2.3095705 1.12793,-1.342773 1.71875,-3.491211 0.59082,-2.202148 0.69824,-3.652343 0.10742,-1.450196 0.10742,-3.652344 v -0.751953 q 0,-7.680664 -2.63183,-11.010743 -2.63184,-3.383789 -9.66797,-3.383789 h -4.61914 q -1.66504,0 -2.20215,-0.429687 -0.53711,-0.483399 -0.53711,-2.470703 v -2.954102 q 0,-0.537109 0.10742,-0.859375 0.10742,-0.322265 0.37598,-0.59082 0.26855,-0.322266 0.53711,-0.429688 0.26855,-0.107421 0.91308,-0.214843 0.69825,-0.107422 1.23536,-0.161133 0.53711,-0.05371 1.61132,-0.107422 1.12793,-0.05371 2.14844,-0.161133 4.51172,-0.429687 7.19727,-4.511719 2.68554,-4.082031 2.68554,-9.77539 0,-4.619141 -1.71875,-6.821289 -1.66503,-2.202149 -6.3916,-2.202149 -3.75976,0 -6.98242,1.450196 -3.16894,1.396484 -4.83398,3.115234 -1.61133,1.71875 -2.95411,3.168945 -1.28906,1.396485 -1.77246,1.396485 -0.85937,0 -3.16894,-3.222657 -2.30957,-3.276367 -2.30957,-4.135742 0,-0.966797 2.36328,-3.544922 2.36328,-2.631836 7.89551,-5.371093 5.58593,-2.739258 12.2998,-2.739258 5.69336,0 10.04395,1.396484 4.35058,1.342774 6.66015,3.330078 2.30957,1.987305 3.70606,4.726563 1.45019,2.739258 1.82617,4.941406 0.42969,2.202148 0.42969,4.619141 0,11.333007 -11.7627,18.36914 15.2002,4.296875 15.14649,19.228516 0,12.8906249 -7.19727,18.8525389 -7.19726,5.9082032 -18.85254,5.9082032 -11.87012,0 -21.21582,-6.928711 -0.21484,-0.2148437 -0.75195,-0.5908203 -0.4834,-0.3759765 -0.69824,-0.5371094 -0.21485,-0.1611328 -0.59082,-0.4296875 -0.32227,-0.3222656 -0.42969,-0.5371093 -0.10742,-0.2148438 -0.26856,-0.4833985 -0.16113,-0.2685547 -0.21484,-0.4833984 -0.0537,-0.2685547 -0.0537,-0.5908203 z"
         id="path388" />
      <path
         d="m 930.59882,26.049805 q 0,-0.644532 1.55761,-2.578125 1.61133,-1.933594 3.9209,-5.69336 2.30957,-3.706054 4.61914,-9.2382809 2.30957,-5.4785157 3.9209,-14.9853516 1.61133,-9.5068355 1.61133,-21.2695315 0,-11.118164 -1.39649,-20.08789 -1.34277,-8.969727 -3.97461,-14.985352 -2.57812,-6.069336 -4.40429,-9.130859 -1.77246,-3.115235 -4.4043,-6.606446 -1.55762,-1.879882 -1.45019,-2.90039 Q 930.92108,-82.5 932.58612,-82.5 h 3.38379 q 1.34277,0 2.09473,0.483398 0.80566,0.483399 3.86718,3.38379 2.73926,2.524414 5.3711,6.015625 2.63183,3.4375 6.06933,9.667968 3.49121,6.176758 5.63965,15.415039 2.14844,9.238282 2.14844,20.03418 0,16.489258 -5.10254,29.5410156 -5.10254,13.0517574 -14.01855,21.4843754 -3.27637,3.061523 -3.97461,3.4375 -0.64454,0.429687 -2.30957,0.537109 h -2.84668 q -2.30957,0 -2.30957,-1.450195 z"
         id="path390" />
      <path
         d="m 1725.0164,-20.538086 v -3.544922 q 0,-2.202148 1.3427,-4.61914 l 23.5254,-43.344727 q 0.8594,-1.557617 2.0947,-2.631836 1.3428,-0.644531 3.1153,-0.644531 h 8.7549 q 4.8339,0 4.8339,5.048828 v 43.989258 h 4.9952 q 1.4502,0 2.3095,0.161133 0.8594,0.161132 1.7725,1.396484 0.9668,1.181641 0.9668,3.491211 0,0.537109 -0.1074,1.503906 -0.1074,0.913086 -1.4502,2.416992 -1.2891,1.503907 -3.5987,1.503907 h -4.8877 V -3.8339844 Q 1768.6833,1 1763.6345,1 h -3.5986 q -4.7266,0 -4.7266,-4.8339844 V -15.811523 h -24.8681 q -1.4502,0 -2.417,-0.161133 -0.9131,-0.161133 -1.9873,-1.235352 -1.0205,-1.127929 -1.0205,-3.330078 z m 11.4404,-5.74707 h 19.3896 v -37.8125 q -1.5576,4.458008 -19.3896,37.8125 z"
         id="path392" />
      <path
         d="m 1789.0398,27.049805 q 0,-0.644532 1.5576,-2.578125 1.6113,-1.933594 3.9209,-5.69336 2.3096,-3.706054 4.6192,-9.2382809 2.3095,-5.4785157 3.9208,-14.9853516 1.6114,-9.5068355 1.6114,-21.2695315 0,-11.118164 -1.3965,-20.08789 -1.3428,-8.969727 -3.9746,-14.985352 -2.5781,-6.069336 -4.4043,-9.130859 -1.7725,-3.115235 -4.4043,-6.606446 -1.5576,-1.879882 -1.4502,-2.90039 0.3223,-1.074219 1.9873,-1.074219 h 3.3838 q 1.3428,0 2.0947,0.483398 0.8057,0.483399 3.8672,3.38379 2.7393,2.524414 5.3711,6.015625 2.6318,3.4375 6.0693,9.667968 3.4912,6.176758 5.6397,15.415039 2.1484,9.238282 2.1484,20.03418 0,16.489258 -5.1025,29.5410156 -5.1026,13.0517574 -14.0186,21.4843754 -3.2763,3.061523 -3.9746,3.4375 -0.6445,0.429687 -2.3096,0.537109 h -2.8466 q -2.3096,0 -2.3096,-1.450195 z"
         id="path394" />
    </g>
  </g>
</svg>
