<?xml version="1.0" encoding="UTF-8" standalone="no"?>
<svg
   width="3241.8125"
   height="703.625"
   overflow="hidden"
   version="1.1"
   id="svg99"
   sodipodi:docname="simple_graphs.svg"
   inkscape:version="1.2 (dc2aedaf03, 2022-05-15)"
   xmlns:inkscape="http://www.inkscape.org/namespaces/inkscape"
   xmlns:sodipodi="http://sodipodi.sourceforge.net/DTD/sodipodi-0.dtd"
   xmlns="http://www.w3.org/2000/svg"
   xmlns:svg="http://www.w3.org/2000/svg">
  <sodipodi:namedview
     id="namedview101"
     pagecolor="#ffffff"
     bordercolor="#666666"
     borderopacity="1.0"
     inkscape:showpageshadow="2"
     inkscape:pageopacity="0.0"
     inkscape:pagecheckerboard="0"
     inkscape:deskcolor="#d1d1d1"
     showgrid="false"
     inkscape:zoom="0.37093807"
     inkscape:cx="1446.3331"
     inkscape:cy="237.23637"
     inkscape:window-width="1920"
     inkscape:window-height="1017"
     inkscape:window-x="1912"
     inkscape:window-y="-8"
     inkscape:window-maximized="1"
     inkscape:current-layer="text73" />
  <defs
     id="defs5">
    <clipPath
       id="clip0">
      <rect
         x="492"
         y="492"
         width="3262"
         height="958"
         id="rect2" />
    </clipPath>
  </defs>
  <g
     clip-path="url(#clip0)"
     transform="translate(-501,-736.1875)"
     id="g97">
    <path
       d="m 701.951,926.763 254.593,278.067 c 4.274,4.67 3.954,11.92 -0.713,16.19 -4.668,4.28 -11.916,3.96 -16.189,-0.71 L 685.049,942.238 c -4.274,-4.668 -3.954,-11.916 0.713,-16.189 4.668,-4.273 11.916,-3.954 16.189,0.714 z m 247.587,230.577 13.155,71.18 -69.744,-19.37 c -6.097,-1.69 -9.668,-8.01 -7.975,-14.11 1.693,-6.09 8.009,-9.66 14.106,-7.97 l 52.079,14.46 -14.333,13.12 -9.823,-53.15 c -1.15,-6.22 2.962,-12.2 9.185,-13.35 6.223,-1.15 12.2,2.97 13.35,9.19 z"
       fill="#ae0060"
       id="path7" />
    <path
       d="m 726.689,844.043 181.896,3.002 c 6.327,0.104 11.372,5.318 11.268,11.645 -0.105,6.328 -5.319,11.373 -11.646,11.268 l -181.896,-3.001 c -6.328,-0.105 -11.372,-5.319 -11.268,-11.646 0.104,-6.327 5.318,-11.372 11.646,-11.268 z m 142.585,-24.555 60.738,39.37 -62.004,37.345 c -5.421,3.265 -12.462,1.517 -15.727,-3.904 -3.265,-5.421 -1.518,-12.462 3.903,-15.727 l 46.3,-27.886 -0.321,19.431 -45.354,-29.399 c -5.31,-3.442 -6.825,-10.537 -3.383,-15.847 3.442,-5.31 10.537,-6.825 15.848,-3.383 z"
       fill="#ae0060"
       id="path9" />
    <path
       d="M 501,854.5 C 501,792.368 551.368,742 613.5,742 675.632,742 726,792.368 726,854.5 726,916.632 675.632,967 613.5,967 551.368,967 501,916.632 501,854.5 Z"
       fill="#ae0060"
       fill-rule="evenodd"
       id="path11" />
    <g
       aria-label="T"
       transform="translate(579.879,896)"
       id="text13"
       style="font-weight:700;font-size:110px;font-family:Arial, Arial_MSFontService, sans-serif;fill:#ffffff">
      <path
         d="M 25.727539,0 V -65.419922 H 2.3632813 V -78.740234 H 64.936523 v 13.320312 H 41.625977 V 0 Z"
         id="path330" />
    </g>
    <path
       d="m 929.5,858.5 c 0,-61.856 50.144,-112 112,-112 61.86,0 112,50.144 112,112 0,61.856 -50.14,112 -112,112 -61.856,0 -112,-50.144 -112,-112 z"
       stroke="#005ea8"
       stroke-width="20.625"
       stroke-miterlimit="8"
       fill="#ffffff"
       fill-rule="evenodd"
       id="path15" />
    <g
       aria-label="II"
       transform="translate(1010.8,899)"
       id="text19"
       style="font-weight:700;font-size:110px;font-family:Arial, Arial_MSFontService, sans-serif;fill:#005ea8">
      <path
         d="M 7.5195312,0 V -78.740234 H 23.417969 V 0 Z"
         id="path333" />
      <path
         d="M 37.884031,0 V -78.740234 H 53.782469 V 0 Z"
         id="path335" />
    </g>
    <path
       d="m 929.5,1307.5 c 0,-61.86 50.144,-112 112,-112 61.86,0 112,50.14 112,112 0,61.86 -50.14,112 -112,112 -61.856,0 -112,-50.14 -112,-112 z"
       stroke="#005ea8"
       stroke-width="20.625"
       stroke-miterlimit="8"
       fill="#ffffff"
       fill-rule="evenodd"
       id="path21" />
    <g
       aria-label="III"
       transform="translate(995.615,1348)"
       id="text23"
       style="font-weight:700;font-size:110px;font-family:Arial, Arial_MSFontService, sans-serif;fill:#005ea8">
      <path
         d="M 7.5195312,0 V -78.740234 H 23.417969 V 0 Z"
         id="path338" />
      <path
         d="M 38.081055,0 V -78.740234 H 53.979492 V 0 Z"
         id="path340" />
      <path
         d="M 68.642578,0 V -78.740234 H 84.541016 V 0 Z"
         id="path342" />
    </g>
    <path
       d="m 1911.96,973.5 v 203.36 c 0,6.32 -5.13,11.45 -11.46,11.45 -6.33,0 -11.46,-5.13 -11.46,-11.45 V 973.5 c 0,-6.328 5.13,-11.458 11.46,-11.458 6.33,0 11.46,5.13 11.46,11.458 z m 26.9,163.59 -38.36,61.38 -38.36,-61.38 c -3.36,-5.36 -1.72,-12.43 3.64,-15.78 5.37,-3.36 12.44,-1.73 15.79,3.64 l 28.65,45.83 h -19.44 l 28.65,-45.83 c 3.35,-5.37 10.42,-7 15.79,-3.64 5.37,3.35 7,10.42 3.64,15.78 z"
       fill="#005ea8"
       id="path25" />
    <path
       d="m 1560.95,929.762 254.59,278.068 c 4.28,4.67 3.96,11.92 -0.71,16.19 -4.67,4.28 -11.91,3.96 -16.19,-0.71 L 1544.05,945.238 c -4.27,-4.668 -3.96,-11.916 0.71,-16.189 4.67,-4.274 11.92,-3.954 16.19,0.713 z m 247.59,230.578 13.15,71.18 -69.74,-19.37 c -6.1,-1.69 -9.67,-8.01 -7.98,-14.11 1.7,-6.09 8.01,-9.66 14.11,-7.97 l 52.08,14.46 -14.33,13.12 -9.83,-53.15 c -1.15,-6.22 2.97,-12.2 9.19,-13.35 6.22,-1.15 12.2,2.97 13.35,9.19 z"
       fill="#ae0060"
       id="path27" />
    <path
       d="m 1585.69,847.043 181.9,3.001 c 6.32,0.105 11.37,5.319 11.26,11.646 -0.1,6.328 -5.32,11.372 -11.64,11.268 l -181.9,-3.001 c -6.33,-0.105 -11.37,-5.319 -11.27,-11.646 0.11,-6.328 5.32,-11.372 11.65,-11.268 z m 142.58,-24.555 60.74,39.37 -62,37.344 c -5.42,3.265 -12.46,1.518 -15.73,-3.903 -3.26,-5.421 -1.52,-12.463 3.9,-15.728 l 46.3,-27.885 -0.32,19.43 -45.35,-29.398 c -5.31,-3.442 -6.83,-10.537 -3.38,-15.847 3.44,-5.311 10.53,-6.825 15.84,-3.383 z"
       fill="#ae0060"
       id="path29" />
    <path
       d="m 1360,858 c 0,-61.856 50.37,-112 112.5,-112 62.13,0 112.5,50.144 112.5,112 0,61.856 -50.37,112 -112.5,112 -62.13,0 -112.5,-50.144 -112.5,-112 z"
       fill="#ae0060"
       fill-rule="evenodd"
       id="path31" />
    <g
       aria-label="T"
       transform="translate(1439.11,899)"
       id="text33"
       style="font-weight:700;font-size:110px;font-family:Arial, Arial_MSFontService, sans-serif;fill:#ffffff">
      <path
         d="M 25.727539,0 V -65.419922 H 2.3632813 V -78.740234 H 64.936523 v 13.320312 H 41.625977 V 0 Z"
         id="path345" />
    </g>
    <path
       d="m 1788.5,861.5 c 0,-61.856 50.37,-112 112.5,-112 62.13,0 112.5,50.144 112.5,112 0,61.856 -50.37,112 -112.5,112 -62.13,0 -112.5,-50.144 -112.5,-112 z"
       stroke="#005ea8"
       stroke-width="20.625"
       stroke-miterlimit="8"
       fill="#ffffff"
       fill-rule="evenodd"
       id="path35" />
    <g
       aria-label="II"
       transform="translate(1870.03,902)"
       id="text39"
       style="font-weight:700;font-size:110px;font-family:Arial, Arial_MSFontService, sans-serif;fill:#005ea8">
      <path
         d="M 7.5195312,0 V -78.740234 H 23.417969 V 0 Z"
         id="path348" />
      <path
         d="M 37.88413,0 V -78.740234 H 53.782568 V 0 Z"
         id="path350" />
    </g>
    <path
       d="m 1788.5,1311 c 0,-62.13 50.37,-112.5 112.5,-112.5 62.13,0 112.5,50.37 112.5,112.5 0,62.13 -50.37,112.5 -112.5,112.5 -62.13,0 -112.5,-50.37 -112.5,-112.5 z"
       stroke="#005ea8"
       stroke-width="20.625"
       stroke-miterlimit="8"
       fill="#ffffff"
       fill-rule="evenodd"
       id="path41" />
    <g
       aria-label="III"
       transform="translate(1854.85,1352)"
       id="text43"
       style="font-weight:700;font-size:110px;font-family:Arial, Arial_MSFontService, sans-serif;fill:#005ea8">
      <path
         d="M 7.5195312,0 V -78.740234 H 23.417969 V 0 Z"
         id="path353" />
      <path
         d="M 38.081055,0 V -78.740234 H 53.979492 V 0 Z"
         id="path355" />
      <path
         d="M 68.642578,0 V -78.740234 H 84.541016 V 0 Z"
         id="path357" />
    </g>
    <path
       d="M 2771.96,999.042 V 1202.4 c 0,6.33 -5.13,11.46 -11.46,11.46 -6.33,0 -11.46,-5.13 -11.46,-11.46 V 999.042 c 0,-6.329 5.13,-11.459 11.46,-11.459 6.33,0 11.46,5.13 11.46,11.459 z m -49.82,39.758 38.36,-61.378 38.36,61.378 c 3.36,5.37 1.73,12.44 -3.64,15.79 -5.37,3.36 -12.44,1.72 -15.79,-3.64 l -28.65,-45.84 h 19.44 l -28.65,45.84 c -3.35,5.36 -10.42,7 -15.79,3.64 -5.36,-3.35 -7,-10.42 -3.64,-15.79 z"
       fill="#005ea8"
       id="path45" />
    <path
       d="m 2420.95,933.762 254.59,278.068 c 4.28,4.67 3.96,11.92 -0.71,16.19 -4.67,4.28 -11.91,3.96 -16.19,-0.71 L 2404.05,949.238 c -4.27,-4.668 -3.96,-11.916 0.71,-16.189 4.67,-4.273 11.92,-3.954 16.19,0.713 z m 247.59,230.578 13.15,71.18 -69.74,-19.37 c -6.1,-1.69 -9.67,-8.01 -7.98,-14.11 1.7,-6.09 8.01,-9.66 14.11,-7.97 l 52.08,14.46 -14.33,13.12 -9.83,-53.15 c -1.15,-6.22 2.97,-12.2 9.19,-13.35 6.22,-1.15 12.2,2.97 13.35,9.19 z"
       fill="#ae0060"
       id="path47" />
    <path
       d="m 2445.69,850.043 181.9,3.001 c 6.32,0.105 11.37,5.319 11.26,11.646 -0.1,6.328 -5.32,11.372 -11.64,11.268 l -181.9,-3.001 c -6.33,-0.105 -11.37,-5.319 -11.27,-11.646 0.11,-6.327 5.32,-11.372 11.65,-11.268 z m 142.58,-24.555 60.74,39.37 -62,37.345 c -5.42,3.265 -12.46,1.517 -15.73,-3.904 -3.26,-5.421 -1.52,-12.463 3.9,-15.728 l 46.3,-27.885 -0.32,19.43 -45.35,-29.398 c -5.31,-3.442 -6.83,-10.537 -3.38,-15.847 3.44,-5.311 10.53,-6.825 15.84,-3.383 z"
       fill="#ae0060"
       id="path49" />
    <path
       d="m 2220,861 c 0,-61.856 50.37,-112 112.5,-112 62.13,0 112.5,50.144 112.5,112 0,61.856 -50.37,112 -112.5,112 -62.13,0 -112.5,-50.144 -112.5,-112 z"
       fill="#ae0060"
       fill-rule="evenodd"
       id="path51" />
    <g
       aria-label="T"
       transform="translate(2299.03,902)"
       id="text53"
       style="font-weight:700;font-size:110px;font-family:Arial, Arial_MSFontService, sans-serif;fill:#ffffff">
      <path
         d="M 25.727539,0 V -65.419922 H 2.3632813 V -78.740234 H 64.936523 v 13.320312 H 41.625977 V 0 Z"
         id="path360" />
    </g>
    <path
       d="m 2648.5,865 c 0,-62.132 50.14,-112.5 112,-112.5 61.86,0 112,50.368 112,112.5 0,62.132 -50.14,112.5 -112,112.5 -61.86,0 -112,-50.368 -112,-112.5 z"
       stroke="#005ea8"
       stroke-width="20.625"
       stroke-miterlimit="8"
       fill="#ffffff"
       fill-rule="evenodd"
       id="path55" />
    <g
       aria-label="II"
       transform="translate(2729.95,906)"
       id="text59"
       style="font-weight:700;font-size:110px;font-family:Arial, Arial_MSFontService, sans-serif;fill:#005ea8">
      <path
         d="M 7.5195312,0 V -78.740234 H 23.417969 V 0 Z"
         id="path363" />
      <path
         d="M 37.884031,0 V -78.740234 H 53.782469 V 0 Z"
         id="path365" />
    </g>
    <path
       d="m 2648.5,1314.5 c 0,-61.86 50.14,-112 112,-112 61.86,0 112,50.14 112,112 0,61.86 -50.14,112 -112,112 -61.86,0 -112,-50.14 -112,-112 z"
       stroke="#005ea8"
       stroke-width="20.625"
       stroke-miterlimit="8"
       fill="#ffffff"
       fill-rule="evenodd"
       id="path61" />
    <g
       aria-label="IIInoconnectionfrom II to IIIfrom III to IIboth directions"
       transform="translate(2714.77,1355)"
       id="text73"
       style="font-weight:700;font-size:110px;font-family:Arial, Arial_MSFontService, sans-serif;fill:#005ea8">
      <path
         d="M 7.5195312,0 V -78.740234 H 23.417969 V 0 Z"
         id="path368" />
      <path
         d="M 38.081055,0 V -78.740234 H 53.979492 V 0 Z"
         id="path370" />
      <path
         d="M 68.642578,0 V -78.740234 H 84.541016 V 0 Z"
         id="path372" />
    </g>
    <path
       d="m 3280.95,936.762 254.59,278.068 c 4.28,4.67 3.96,11.92 -0.71,16.19 -4.67,4.28 -11.91,3.96 -16.19,-0.71 L 3264.05,952.238 c -4.27,-4.668 -3.96,-11.916 0.71,-16.189 4.67,-4.273 11.92,-3.954 16.19,0.713 z m 247.59,230.578 13.15,71.18 -69.74,-19.37 c -6.1,-1.69 -9.67,-8.01 -7.98,-14.11 1.7,-6.09 8.01,-9.66 14.11,-7.97 l 52.08,14.46 -14.33,13.12 -9.83,-53.15 c -1.15,-6.22 2.97,-12.2 9.19,-13.35 6.22,-1.15 12.2,2.97 13.35,9.19 z"
       fill="#ae0060"
       id="path75" />
    <path
       d="m 3305.69,854.043 181.9,3.002 c 6.32,0.104 11.37,5.318 11.26,11.645 -0.1,6.328 -5.32,11.372 -11.64,11.268 l -181.9,-3.001 c -6.33,-0.105 -11.37,-5.319 -11.27,-11.646 0.11,-6.327 5.32,-11.372 11.65,-11.268 z m 142.58,-24.555 60.74,39.37 -62,37.345 c -5.42,3.265 -12.46,1.517 -15.73,-3.904 -3.26,-5.421 -1.52,-12.462 3.9,-15.727 l 46.3,-27.886 -0.32,19.43 -45.35,-29.398 c -5.31,-3.442 -6.83,-10.537 -3.38,-15.847 3.44,-5.31 10.53,-6.825 15.84,-3.383 z"
       fill="#ae0060"
       id="path77" />
    <path
       d="m 3080,864.5 c 0,-62.132 50.37,-112.5 112.5,-112.5 62.13,0 112.5,50.368 112.5,112.5 0,62.132 -50.37,112.5 -112.5,112.5 -62.13,0 -112.5,-50.368 -112.5,-112.5 z"
       fill="#ae0060"
       fill-rule="evenodd"
       id="path79" />
    <g
       aria-label="T"
       transform="translate(3158.95,906)"
       id="text81"
       style="font-weight:700;font-size:110px;font-family:Arial, Arial_MSFontService, sans-serif;fill:#ffffff">
      <path
         d="M 25.727539,0 V -65.419922 H 2.3632813 V -78.740234 H 64.936523 v 13.320312 H 41.625977 V 0 Z"
         id="path471" />
    </g>
    <path
       d="m 3508.5,868.5 c 0,-61.856 50.14,-112 112,-112 61.86,0 112,50.144 112,112 0,61.856 -50.14,112 -112,112 -61.86,0 -112,-50.144 -112,-112 z"
       stroke="#005ea8"
       stroke-width="20.625"
       stroke-miterlimit="8"
       fill="#ffffff"
       fill-rule="evenodd"
       id="path83" />
    <g
       aria-label="II"
       transform="translate(3589.87,909)"
       id="text87"
       style="font-weight:700;font-size:110px;font-family:Arial, Arial_MSFontService, sans-serif;fill:#005ea8">
      <path
         d="M 7.5195312,0 V -78.740234 H 23.417969 V 0 Z"
         id="path474" />
      <path
         d="M 37.884232,0 V -78.740234 H 53.782669 V 0 Z"
         id="path476" />
    </g>
    <path
       d="m 3508.5,1317.5 c 0,-61.86 50.14,-112 112,-112 61.86,0 112,50.14 112,112 0,61.86 -50.14,112 -112,112 -61.86,0 -112,-50.14 -112,-112 z"
       stroke="#005ea8"
       stroke-width="20.625"
       stroke-miterlimit="8"
       fill="#ffffff"
       fill-rule="evenodd"
       id="path89" />
    <g
       aria-label="III"
       transform="translate(3574.68,1358)"
       id="text91"
       style="font-weight:700;font-size:110px;font-family:Arial, Arial_MSFontService, sans-serif;fill:#005ea8">
      <path
         d="M 7.5195312,0 V -78.740234 H 23.417969 V 0 Z"
         id="path479" />
      <path
         d="M 38.081055,0 V -78.740234 H 53.979492 V 0 Z"
         id="path481" />
      <path
         d="M 68.642578,0 V -78.740234 H 84.541016 V 0 Z"
         id="path483" />
    </g>
    <path
       d="m 3570.89,1197.55 -1.49,-7.83 -2.37,-14.95 -1.97,-15.05 -1.6,-15.13 -1.15,-15.22 -0.82,-15.29 -0.39,-15.37 v -15.29 l 0.39,-15.37 0.82,-15.29 1.15,-15.23 1.6,-15.19 1.97,-15.04 2.37,-15.009 2.78,-14.676 c 1.18,-6.218 7.18,-10.302 13.39,-9.123 6.22,1.179 10.3,7.176 9.13,13.393 l -2.75,14.5 0.06,-0.353 -2.32,14.688 0.05,-0.29 -1.94,14.75 0.03,-0.3 -1.56,14.88 0.03,-0.34 -1.12,14.94 0.01,-0.24 -0.81,15 0.01,-0.33 -0.37,15.06 v -0.29 15 -0.28 l 0.37,15.06 -0.01,-0.33 0.81,15 -0.01,-0.25 1.12,14.94 -0.03,-0.34 1.56,14.81 -0.03,-0.29 1.94,14.75 -0.05,-0.29 2.32,14.62 -0.07,-0.35 1.46,7.65 c 1.19,6.22 -2.89,12.21 -9.11,13.4 -6.22,1.18 -12.22,-2.9 -13.4,-9.11 z m 40.79,-48.84 -25.16,67.87 -49.98,-52.36 c -4.37,-4.58 -4.2,-11.83 0.37,-16.2 4.58,-4.37 11.83,-4.2 16.2,0.38 l 37.32,39.09 -19.03,3.93 18.79,-50.68 c 2.2,-5.93 8.79,-8.96 14.73,-6.76 5.93,2.2 8.96,8.79 6.76,14.73 z"
       fill="#005ea8"
       id="path93" />
    <path
       d="m 3672.62,986.93 1.39,8.17 2.17,15.11 1.78,15.25 1.34,15.31 0.96,15.44 0.51,15.4 0.19,15.41 -0.26,15.46 -0.7,15.41 -1.02,15.35 -1.46,15.31 -1.85,15.19 -2.3,15.05 -2.61,14.92 -3.04,14.67 c -1.28,6.2 -7.34,10.19 -13.54,8.9 -6.2,-1.28 -10.18,-7.34 -8.9,-13.54 l 3,-14.5 -0.07,0.34 2.57,-14.62 -0.04,0.25 2.25,-14.75 -0.05,0.34 1.81,-14.87 -0.03,0.29 1.44,-15 -0.03,0.33 1,-15.06 -0.01,0.24 0.68,-15.13 -0.01,0.34 0.25,-15.13 v 0.33 l -0.19,-15.12 0.01,0.23 -0.5,-15.12 0.02,0.33 -0.94,-15.13 0.02,0.29 -1.31,-15 0.03,0.34 -1.75,-14.94 0.04,0.29 -2.12,-14.808 0.04,0.296 -1.36,-8.023 c -1.07,-6.238 3.13,-12.156 9.37,-13.218 6.24,-1.062 12.16,3.135 13.22,9.373 z m -41.59,48.13 26.27,-67.449 49.11,53.169 c 4.3,4.65 4.01,11.9 -0.64,16.19 -4.64,4.29 -11.89,4.01 -16.19,-0.64 l -36.67,-39.702 19.09,-3.617 -19.62,50.369 c -2.29,5.89 -8.93,8.81 -14.83,6.51 -5.9,-2.29 -8.82,-8.93 -6.52,-14.83 z"
       fill="#005ea8"
       id="path95" />
  </g>
</svg>
