<?xml version="1.0" encoding="UTF-8" standalone="no"?>
<svg
   width="560"
   height="780"
   xml:space="preserve"
   overflow="hidden"
   version="1.1"
   id="svg59"
   sodipodi:docname="graph.svg"
   inkscape:version="1.2 (dc2aedaf03, 2022-05-15)"
   xmlns:inkscape="http://www.inkscape.org/namespaces/inkscape"
   xmlns:sodipodi="http://sodipodi.sourceforge.net/DTD/sodipodi-0.dtd"
   xmlns="http://www.w3.org/2000/svg"
   xmlns:svg="http://www.w3.org/2000/svg"><sodipodi:namedview
     id="namedview61"
     pagecolor="#ffffff"
     bordercolor="#999999"
     borderopacity="1"
     inkscape:showpageshadow="0"
     inkscape:pageopacity="0"
     inkscape:pagecheckerboard="0"
     inkscape:deskcolor="#d1d1d1"
     showgrid="false"
     inkscape:zoom="1.3166667"
     inkscape:cx="280.63291"
     inkscape:cy="389.62025"
     inkscape:window-width="2560"
     inkscape:window-height="1369"
     inkscape:window-x="-8"
     inkscape:window-y="-8"
     inkscape:window-maximized="1"
     inkscape:current-layer="svg59" /><defs
     id="defs5"><clipPath
       id="clip0"><rect
         x="1790"
         y="638"
         width="560"
         height="780"
         id="rect2" /></clipPath></defs><g
     clip-path="url(#clip0)"
     transform="translate(-1790 -638)"
     id="g57"><path
       d="M2092.2 759.639 2092.48 761.188 2094.41 775.994 2095.49 790.927 2095.81 805.952 2095.43 820.992 2094.21 835.941 2092.16 850.674 2089.47 864.952C2088.76 868.683 2085.17 871.137 2081.44 870.433 2077.71 869.728 2075.25 866.133 2075.96 862.402L2078.62 848.288 2078.57 848.615 2080.57 834.24 2080.52 834.629 2081.71 820.066 2081.69 820.45 2082.06 805.762 2082.06 806.084 2081.75 791.396 2081.77 791.75 2080.71 777.188 2080.74 777.573 2078.87 763.135 2078.92 763.486 2078.67 762.112C2077.99 758.377 2080.46 754.795 2084.2 754.112 2087.93 753.43 2091.52 755.904 2092.2 759.639ZM2067.08 788.482 2083.1 748.115 2112.37 780.203C2114.93 783.009 2114.73 787.357 2111.92 789.916 2109.12 792.474 2104.77 792.274 2102.21 789.469L2080.36 765.508 2091.83 763.411 2079.86 793.554C2078.46 797.083 2074.47 798.809 2070.94 797.408 2067.41 796.008 2065.68 792.011 2067.08 788.482Z"
       fill="#00AFA5"
       id="path7" /><path
       d="M1.48726-6.7122 163.494 29.1844C167.201 30.0058 169.54 33.6769 168.719 37.3839 167.897 41.091 164.226 43.4302 160.519 42.6088L-1.48726 6.7122C-5.19431 5.89081-7.53359 2.21979-6.7122-1.48726-5.89081-5.19431-2.21979-7.53359 1.48726-6.7122ZM143.695 8.26344 174.671 38.7028 133.736 53.2083C130.157 54.4765 126.228 52.6033 124.96 49.0244 123.691 45.4455 125.565 41.5162 129.144 40.248L159.711 29.4165 157.188 40.8004 134.057 18.0708C131.349 15.4096 131.311 11.0567 133.972 8.34848 136.634 5.64025 140.987 5.60217 143.695 8.26344Z"
       fill="#00AFA5"
       transform="matrix(1 0 0 -1 2066 1136.69)"
       id="path9" /><path
       d="M2077.84 913.298 2243.29 1024.74C2246.43 1026.86 2247.27 1031.13 2245.15 1034.28 2243.03 1037.43 2238.75 1038.27 2235.6 1036.14L2070.16 924.702C2067.01 922.581 2066.18 918.308 2068.3 915.159 2070.42 912.01 2074.69 911.177 2077.84 913.298ZM2232.52 998.024 2250.2 1037.69 2206.8 1036.21C2203 1036.08 2200.03 1032.89 2200.16 1029.1 2200.29 1025.3 2203.47 1022.33 2207.27 1022.46L2239.68 1023.57 2233.17 1033.24 2219.96 1003.62C2218.41 1000.16 2219.97 996.091 2223.44 994.545 2226.91 992.999 2230.97 994.556 2232.52 998.024Z"
       fill="#005EA8"
       id="path11" /><path
       d="M2072.88 970 2072.88 1066.14C2072.88 1069.94 2069.8 1073.02 2066 1073.02 2062.2 1073.02 2059.13 1069.94 2059.13 1066.14L2059.12 970C2059.12 966.203 2062.2 963.125 2066 963.125 2069.8 963.125 2072.88 966.203 2072.88 970ZM2089.02 1042.29 2066 1079.12 2042.98 1042.29C2040.97 1039.07 2041.95 1034.83 2045.17 1032.81 2048.39 1030.8 2052.63 1031.78 2054.64 1035L2071.83 1062.5 2060.17 1062.5 2077.36 1035C2079.37 1031.78 2083.61 1030.8 2086.83 1032.81 2090.05 1034.83 2091.03 1039.07 2089.02 1042.29Z"
       fill="#005EA8"
       id="path13" /><path
       d="M2072.88 1188 2072.88 1284.14C2072.88 1287.94 2069.8 1291.02 2066 1291.02 2062.2 1291.02 2059.13 1287.94 2059.13 1284.14L2059.12 1188C2059.12 1184.2 2062.2 1181.12 2066 1181.12 2069.8 1181.12 2072.88 1184.2 2072.88 1188ZM2089.02 1260.29 2066 1297.12 2042.98 1260.29C2040.97 1257.07 2041.95 1252.83 2045.17 1250.81 2048.39 1248.8 2052.63 1249.78 2054.64 1253L2071.83 1280.5 2060.17 1280.5 2077.36 1253C2079.37 1249.78 2083.61 1248.8 2086.83 1250.81 2090.05 1252.83 2091.03 1257.07 2089.02 1260.29Z"
       fill="#005EA8"
       id="path15" /><path
       d="M1902.07 948.357 2023.87 1081.39C2026.43 1084.19 2026.24 1088.54 2023.44 1091.1 2020.64 1093.66 2016.29 1093.47 2013.73 1090.67L1891.93 957.642C1889.37 954.842 1889.56 950.493 1892.36 947.929 1895.16 945.365 1899.51 945.557 1902.07 948.357ZM2019.67 1052.89 2027.56 1095.6 1985.71 1083.98C1982.05 1082.96 1979.91 1079.17 1980.93 1075.51 1981.94 1071.86 1985.73 1069.71 1989.39 1070.73L2020.64 1079.41 2012.04 1087.28 2006.14 1055.39C2005.45 1051.66 2007.92 1048.07 2011.66 1047.38 2015.39 1046.69 2018.98 1049.16 2019.67 1052.89Z"
       fill="#AE0060"
       id="path17" /><path
       d="M1865.33 911.321 2029.29 1298.75C2030.77 1302.25 2029.13 1306.28 2025.63 1307.76 2022.14 1309.24 2018.1 1307.61 2016.62 1304.11L1852.67 916.679C1851.19 913.183 1852.82 909.148 1856.32 907.669 1859.82 906.189 1863.85 907.824 1865.33 911.321ZM2034.85 1270.49 2028.01 1313.38 1992.46 1288.43C1989.35 1286.25 1988.6 1281.96 1990.78 1278.85 1992.96 1275.75 1997.25 1274.99 2000.36 1277.17L2026.9 1295.8 2016.17 1300.35 2021.28 1268.32C2021.87 1264.57 2025.4 1262.02 2029.15 1262.62 2032.9 1263.22 2035.45 1266.74 2034.85 1270.49Z"
       fill="#AE0060"
       id="path19" /><path
       d="M5.01689-4.70068 126.706 125.175C129.302 127.945 129.161 132.296 126.39 134.892 123.619 137.488 119.268 137.347 116.672 134.576L-5.01689 4.70068C-7.61301 1.92993-7.47143-2.42078-4.70068-5.01689-1.92993-7.61301 2.42078-7.47143 5.01689-4.70068ZM122.174 96.7287 130.558 139.341 88.5813 128.204C84.9113 127.231 82.7255 123.466 83.6991 119.796 84.6728 116.126 88.4372 113.941 92.1072 114.914L123.452 123.23 114.944 131.202 108.683 99.3832C107.95 95.6576 110.376 92.0433 114.102 91.3103 117.827 90.5773 121.441 93.0032 122.174 96.7287Z"
       fill="#AE0060"
       transform="matrix(1 0 0 -1 1897 875.307)"
       id="path21" /><path
       d="M1913.11 907.126 1998.85 908.541C2002.65 908.603 2005.67 911.732 2005.61 915.528 2005.55 919.325 2002.42 922.352 1998.62 922.289L1912.89 920.874C1909.09 920.811 1906.06 917.683 1906.13 913.887 1906.19 910.09 1909.32 907.063 1913.11 907.126ZM1975.26 892.007 2011.71 915.629 1974.5 938.036C1971.25 939.995 1967.03 938.946 1965.07 935.693 1963.11 932.441 1964.16 928.216 1967.41 926.257L1995.19 909.526 1995 921.184 1967.79 903.545C1964.6 901.48 1963.69 897.223 1965.76 894.036 1967.82 890.85 1972.08 889.942 1975.26 892.007Z"
       fill="#AE0060"
       id="path23" /><path
       d="M6.87491-0.0356583 7.78697 175.81C7.80666 179.606 4.74463 182.7 0.947721 182.72-2.84919 182.74-5.94315 179.678-5.96285 175.881L-6.87491 0.0356583C-6.8946-3.76125-3.83257-6.85521-0.0356583-6.87491 3.76125-6.8946 6.85521-3.83257 6.87491-0.0356583ZM23.8055 151.87 0.979344 188.817-22.2288 152.109C-24.2579 148.899-23.3011 144.653-20.0918 142.624-16.8824 140.595-12.6359 141.552-10.6068 144.761L6.72307 172.171-4.93675 172.232 12.1079 144.643C14.1035 141.413 18.3399 140.412 21.5702 142.408 24.8004 144.403 25.8012 148.64 23.8055 151.87Z"
       fill="#AE0060"
       transform="matrix(-1 0 0 1 1858.98 968)"
       id="path25" /><path
       d="M1862.61 915.64 2225.86 1064.75C2229.37 1066.19 2231.05 1070.21 2229.61 1073.72 2228.17 1077.23 2224.15 1078.91 2220.64 1077.47L1857.39 928.36C1853.88 926.918 1852.2 922.902 1853.64 919.389 1855.08 915.877 1859.1 914.198 1862.61 915.64ZM2209.92 1040.76 2235.25 1076.04 2192.44 1083.35C2188.7 1083.98 2185.15 1081.47 2184.51 1077.73 2183.87 1073.98 2186.38 1070.43 2190.13 1069.79L2222.09 1064.33 2217.67 1075.12 2198.75 1048.78C2196.54 1045.69 2197.24 1041.4 2200.33 1039.18 2203.41 1036.97 2207.71 1037.68 2209.92 1040.76Z"
       fill="#AE0060"
       id="path27" /><path
       d="M1804 914C1804 884.177 1828.4 860 1858.5 860 1888.6 860 1913 884.177 1913 914 1913 943.823 1888.6 968 1858.5 968 1828.4 968 1804 943.823 1804 914Z"
       fill="#AE0060"
       fill-rule="evenodd"
       id="path29" /><g
       aria-label="T"
       transform="matrix(1 0 0 1 1841.63 934)"
       id="text31"
       style="font-weight:700;font-size:55px;font-family:Arial, Arial_MSFontService, sans-serif;fill:#ffffff"><path
         d="M 12.86377,0 V -32.709961 H 1.1816406 v -6.660156 H 32.468262 v 6.660156 H 20.812988 V 0 Z"
         id="path167" /></g><path
       d="M2012.5 698C2012.5 667.9 2036.68 643.5 2066.5 643.5 2096.32 643.5 2120.5 667.9 2120.5 698 2120.5 728.099 2096.32 752.5 2066.5 752.5 2036.68 752.5 2012.5 728.099 2012.5 698Z"
       stroke="#005EA8"
       stroke-width="11.4583"
       stroke-miterlimit="8"
       fill="#FFFFFF"
       fill-rule="evenodd"
       id="path33" /><g
       aria-label="I"
       transform="matrix(1 0 0 1 2058.25 718)"
       id="text35"
       style="font-weight:700;font-size:55px;font-family:Arial, Arial_MSFontService, sans-serif;fill:#005ea8"><path
         d="M 3.7597656,0 V -39.370117 H 11.708984 V 0 Z"
         id="path170" /></g><path
       d="M2012.5 1352C2012.5 1321.9 2036.68 1297.5 2066.5 1297.5 2096.32 1297.5 2120.5 1321.9 2120.5 1352 2120.5 1382.1 2096.32 1406.5 2066.5 1406.5 2036.68 1406.5 2012.5 1382.1 2012.5 1352Z"
       stroke="#005EA8"
       stroke-width="11.4583"
       stroke-miterlimit="8"
       fill="#FFFFFF"
       fill-rule="evenodd"
       id="path37" /><g
       aria-label="IV"
       transform="matrix(1 0 0 1 2039.92 1371)"
       id="text39"
       style="font-weight:700;font-size:55px;font-family:Arial, Arial_MSFontService, sans-serif;fill:#005ea8"><path
         d="M 3.7597656,0 V -39.370117 H 11.708984 V 0 Z"
         id="path173" /><path
         d="M 29.326172,0 15.253906,-39.370117 h 8.620606 l 9.963379,29.138183 9.641113,-29.138183 h 8.432617 L 37.8125,0 Z"
         id="path175" /></g><path
       d="M2012.5 916C2012.5 885.9 2036.68 861.5 2066.5 861.5 2096.32 861.5 2120.5 885.9 2120.5 916 2120.5 946.099 2096.32 970.5 2066.5 970.5 2036.68 970.5 2012.5 946.099 2012.5 916Z"
       stroke="#005EA8"
       stroke-width="11.4583"
       stroke-miterlimit="8"
       fill="#FFFFFF"
       fill-rule="evenodd"
       id="path41" /><g
       aria-label="II"
       transform="matrix(1 0 0 1 2050.52 936)"
       id="text43"
       style="font-weight:700;font-size:55px;font-family:Arial, Arial_MSFontService, sans-serif;fill:#005ea8"><path
         d="M 3.7597656,0 V -39.370117 H 11.708984 V 0 Z"
         id="path178" /><path
         d="m 19.040527,0 v -39.370117 h 7.949219 V 0 Z"
         id="path180" /></g><path
       d="M2012.5 1134C2012.5 1103.9 2036.68 1079.5 2066.5 1079.5 2096.32 1079.5 2120.5 1103.9 2120.5 1134 2120.5 1164.1 2096.32 1188.5 2066.5 1188.5 2036.68 1188.5 2012.5 1164.1 2012.5 1134Z"
       stroke="#005EA8"
       stroke-width="11.4583"
       stroke-miterlimit="8"
       fill="#FFFFFF"
       fill-rule="evenodd"
       id="path45" /><g
       aria-label="III"
       transform="matrix(1 0 0 1 2042.78 1154)"
       id="text47"
       style="font-weight:700;font-size:55px;font-family:Arial, Arial_MSFontService, sans-serif;fill:#005ea8"><path
         d="M 3.7597656,0 V -39.370117 H 11.708984 V 0 Z"
         id="path183" /><path
         d="m 19.040527,0 v -39.370117 h 7.949219 V 0 Z"
         id="path185" /><path
         d="m 34.321289,0 v -39.370117 h 7.949219 V 0 Z"
         id="path187" /></g><path
       d="M2235.5 1076.5C2235.5 1046.68 2259.9 1022.5 2290 1022.5 2320.1 1022.5 2344.5 1046.68 2344.5 1076.5 2344.5 1106.32 2320.1 1130.5 2290 1130.5 2259.9 1130.5 2235.5 1106.32 2235.5 1076.5Z"
       stroke="#005EA8"
       stroke-width="11.4583"
       stroke-miterlimit="8"
       fill="#FFFFFF"
       fill-rule="evenodd"
       id="path49" /><g
       aria-label="V"
       transform="matrix(1 0 0 1 2270.78 1096)"
       id="text51"
       style="font-weight:700;font-size:55px;font-family:Arial, Arial_MSFontService, sans-serif;fill:#005ea8"><path
         d="M 14.04541,0 -0.02685547,-39.370117 H 8.59375 l 9.963379,29.138183 9.641113,-29.138183 h 8.432617 L 22.531738,0 Z"
         id="path190" /></g><path
       d="M1803.5 1212C1803.5 1181.9 1827.9 1157.5 1858 1157.5 1888.1 1157.5 1912.5 1181.9 1912.5 1212 1912.5 1242.1 1888.1 1266.5 1858 1266.5 1827.9 1266.5 1803.5 1242.1 1803.5 1212Z"
       stroke="#005EA8"
       stroke-width="11.4583"
       stroke-miterlimit="8"
       fill="#FFFFFF"
       fill-rule="evenodd"
       id="path53" /><g
       aria-label="VII"
       transform="matrix(1 0 0 1 1823.75 1232)"
       id="text55"
       style="font-weight:700;font-size:55px;font-family:Arial, Arial_MSFontService, sans-serif;fill:#005ea8"><path
         d="M 14.04541,0 -0.02685547,-39.370117 H 8.59375 l 9.963379,29.138183 9.641113,-29.138183 h 8.432617 L 22.531738,0 Z"
         id="path193" /><path
         d="m 40.444336,0 v -39.370117 h 7.949219 V 0 Z"
         id="path195" /><path
         d="m 55.725098,0 v -39.370117 h 7.949218 V 0 Z"
         id="path197" /></g></g></svg>
