<?xml version="1.0" encoding="UTF-8" standalone="no"?>
<svg
   width="156.00117"
   height="95.999565"
   viewBox="0 0 156.00117 95.999565"
   fill="none"
   version="1.1"
   id="svg3032"
   sodipodi:docname="dvc_black.svg"
   inkscape:version="1.2 (dc2aedaf03, 2022-05-15)"
   xmlns:inkscape="http://www.inkscape.org/namespaces/inkscape"
   xmlns:sodipodi="http://sodipodi.sourceforge.net/DTD/sodipodi-0.dtd"
   xmlns="http://www.w3.org/2000/svg"
   xmlns:svg="http://www.w3.org/2000/svg">
  <defs
     id="defs3036" />
  <sodipodi:namedview
     id="namedview3034"
     pagecolor="#ffffff"
     bordercolor="#999999"
     borderopacity="1"
     inkscape:showpageshadow="0"
     inkscape:pageopacity="0"
     inkscape:pagecheckerboard="0"
     inkscape:deskcolor="#d1d1d1"
     showgrid="false"
     inkscape:zoom="6.41875"
     inkscape:cx="77.974684"
     inkscape:cy="39.883155"
     inkscape:window-width="2560"
     inkscape:window-height="1369"
     inkscape:window-x="-8"
     inkscape:window-y="-8"
     inkscape:window-maximized="1"
     inkscape:current-layer="svg3032" />
  <path
     d="m 102.49412,64.672565 c -7.410003,-7.333 -10.842003,-16.221 -10.842003,-26.703 0,-10.542 3.413,-19.47 10.842003,-26.863 a 37.272,37.272 0 0 1 12.411,-8.3560002 36.612,36.612 0 0 1 14.616,-2.74400002 c 9.434,-0.158 18.578,3.32900002 25.604,9.76400002 1.073,0.9970002 1.092,1.9930002 0.117,2.9500002 l -8.249,8.509 c -0.916,0.837 -1.813,0.837 -2.652,0 -3.947,-3.54 -9.042,-5.45 -14.293,-5.36 -5.928,0 -10.862,2.112 -14.82,6.376 a 21.151,21.151 0 0 0 -4.328,7.042 21.497,21.497 0 0 0 -1.327,8.203 c 0,5.899 1.755,10.92 5.733,15.086 a 19.92,19.92 0 0 0 6.787,4.716 19.554,19.554 0 0 0 8.072,1.521 c 5.165,0.12 10.199,-1.67 14.176,-5.041 0.975,-0.837 1.892,-0.798 2.73,0.1 l 8.269,8.728 c 0.916,0.916 0.877,1.853 -0.098,2.829 -6.92,6.735 -16.167,10.396 -25.721,10.184 a 36.874,36.874 0 0 1 -14.593,-2.701 37.518,37.518 0 0 1 -12.434,-8.26 z"
     fill="#2e3137"
     id="path3026" />
  <path
     fill-rule="evenodd"
     clip-rule="evenodd"
     d="m 0.00211687,2.0795648 a 1.95,1.95 0 0 1 0.14,-0.792 c 0.1,-0.251 0.252,-0.47700002 0.445,-0.66300002 a 1.72,1.72 0 0 1 0.59000003,-0.445 c 0.225,-0.103 0.47,-0.156 0.717,-0.153 H 27.380117 c 10.452,0.797 18.252,3.78600002 25.428,11.16000022 7.215,7.373 10.083,15.743 10.998,26.503 0.878,10.362 -3.354,19.33 -10.53,26.703 a 35.185,35.185 0 0 1 -11.815,8.314 34.519,34.519 0 0 1 -14.08,2.806 H 1.8931169 a 1.733,1.733 0 0 1 -0.715,-0.158 1.778,1.778 0 0 1 -0.59200003,-0.44 1.953,1.953 0 0 1 -0.446,-0.673 1.994,1.994 0 0 1 -0.139,-0.801 V 2.0785648 Z M 16.304117,59.531565 h 10.023 c 5.85,0 10.725,-2.113 14.586,-6.317 3.861,-4.198 5.943,-9.785 5.792,-15.544 0,-6.118 -1.95,-11.28 -5.792,-15.484 a 19.175,19.175 0 0 0 -6.624,-4.77 18.808,18.808 0 0 0 -7.962,-1.547 h -10.023 z"
     fill="#2e3137"
     id="path3028" />
  <path
     d="m 94.719117,59.943565 c 0.402,0.599 0.482,1.364 0.18,2.02 l -15.103,32.86 c -0.41,0.797 -0.994,1.176 -1.774,1.176 h -1.053 c -0.78,0 -1.365,-0.399 -1.794,-1.196 l -14.822,-32.46 a 2.068,2.068 0 0 1 0.213,-2.054 c 4.38,-6.164 6.457,-13.182 6.249,-20.605 -0.016,-0.573 0.862,-0.797 1.094,-0.273 l 9.352,21.036 h 0.644 l 9.708,-21.802 c 0.227,-0.509 1.04,-0.32 1.04,0.237 0,7.453 1.88,14.83 6.066,21.06 z"
     fill="#2e3137"
     id="path3030" />
</svg>
