<?xml version="1.0" encoding="utf-8" standalone="no"?>
<!DOCTYPE svg PUBLIC "-//W3C//DTD SVG 1.1//EN"
  "http://www.w3.org/Graphics/SVG/1.1/DTD/svg11.dtd">
<!-- Created with matplotlib (https://matplotlib.org/) -->
<svg height="175.194417pt" version="1.1" viewBox="0 0 283.464567 175.194417" width="283.464567pt" xmlns="http://www.w3.org/2000/svg" xmlns:xlink="http://www.w3.org/1999/xlink">
 <metadata>
  <rdf:RDF xmlns:cc="http://creativecommons.org/ns#" xmlns:dc="http://purl.org/dc/elements/1.1/" xmlns:rdf="http://www.w3.org/1999/02/22-rdf-syntax-ns#">
   <cc:Work>
    <dc:type rdf:resource="http://purl.org/dc/dcmitype/StillImage"/>
    <dc:date>2020-10-30T17:08:35.219809</dc:date>
    <dc:format>image/svg+xml</dc:format>
    <dc:creator>
     <cc:Agent>
      <dc:title>Matplotlib v3.3.2, https://matplotlib.org/</dc:title>
     </cc:Agent>
    </dc:creator>
   </cc:Work>
  </rdf:RDF>
 </metadata>
 <defs>
  <style type="text/css">*{stroke-linecap:butt;stroke-linejoin:round;}</style>
 </defs>
 <g id="figure_1">
  <g id="patch_1">
   <path d="M 0 175.194417 
L 283.464567 175.194417 
L 283.464567 0 
L 0 0 
z
" style="fill:none;"/>
  </g>
  <g id="axes_1">
   <g id="patch_2">
    <path d="M 22.779237 155.613586 
L 277.298386 155.613586 
L 277.298386 3.00024 
L 22.779237 3.00024 
z
" style="fill:#ffffff;"/>
   </g>
   <g id="patch_3">
    <path clip-path="url(#pf6d63fa8e5)" d="M 22.779237 155.613586 
L 22.779237 155.613586 
L 27.973506 155.613586 
L 27.973506 155.613586 
L 33.167774 155.613586 
L 33.167774 155.613586 
L 38.362042 155.613586 
L 38.362042 155.613586 
L 43.556311 155.613586 
L 43.556311 155.548815 
L 48.750579 155.548815 
L 48.750579 150.755763 
L 53.944847 150.755763 
L 53.944847 127.502987 
L 59.139116 127.502987 
L 59.139116 73.160148 
L 64.333384 73.160148 
L 64.333384 24.128528 
L 69.527652 24.128528 
L 69.527652 10.267542 
L 74.721921 10.267542 
L 74.721921 38.896308 
L 79.916189 38.896308 
L 79.916189 84.624609 
L 85.110457 84.624609 
L 85.110457 119.60093 
L 90.304726 119.60093 
L 90.304726 136.117525 
L 95.498994 136.117525 
L 95.498994 147.452444 
L 100.693262 147.452444 
L 100.693262 152.504579 
L 105.887531 152.504579 
L 105.887531 155.22496 
L 111.081799 155.22496 
L 111.081799 155.22496 
L 116.276067 155.22496 
L 116.276067 155.613586 
L 121.470336 155.613586 
L 121.470336 155.548815 
L 126.664604 155.548815 
L 126.664604 155.548815 
L 131.858872 155.548815 
L 131.858872 155.613586 
L 137.053141 155.613586 
L 137.053141 155.613586 
L 142.247409 155.613586 
L 142.247409 155.613586 
L 147.441677 155.613586 
L 147.441677 155.613586 
L 152.635946 155.613586 
L 152.635946 155.613586 
L 157.830214 155.613586 
L 157.830214 155.613586 
L 163.024482 155.613586 
L 163.024482 155.613586 
L 168.218751 155.613586 
L 168.218751 155.613586 
L 173.413019 155.613586 
L 173.413019 155.613586 
L 178.607287 155.613586 
L 178.607287 155.613586 
L 183.801556 155.613586 
L 183.801556 155.613586 
L 188.995824 155.613586 
L 188.995824 155.613586 
L 194.190092 155.613586 
L 194.190092 155.613586 
L 199.384361 155.613586 
L 199.384361 155.613586 
L 204.578629 155.613586 
L 204.578629 155.613586 
L 209.772897 155.613586 
L 209.772897 155.613586 
L 214.967166 155.613586 
L 214.967166 155.613586 
L 220.161434 155.613586 
L 220.161434 155.613586 
L 225.355702 155.613586 
L 225.355702 155.613586 
L 230.549971 155.613586 
L 230.549971 155.613586 
L 235.744239 155.613586 
L 235.744239 155.613586 
L 240.938507 155.613586 
L 240.938507 155.613586 
L 246.132776 155.613586 
L 246.132776 155.613586 
L 251.327044 155.613586 
L 251.327044 155.613586 
L 256.521312 155.613586 
L 256.521312 155.613586 
L 261.715581 155.613586 
L 261.715581 155.613586 
L 266.909849 155.613586 
L 266.909849 155.613586 
L 272.104117 155.613586 
L 272.104117 155.613586 
L 277.298386 155.613586 
L 277.298386 155.613586 
L 272.104117 155.613586 
L 272.104117 155.613586 
L 266.909849 155.613586 
L 266.909849 155.613586 
L 261.715581 155.613586 
L 261.715581 155.613586 
L 256.521312 155.613586 
L 256.521312 155.613586 
L 251.327044 155.613586 
L 251.327044 155.613586 
L 246.132776 155.613586 
L 246.132776 155.613586 
L 240.938507 155.613586 
L 240.938507 155.613586 
L 235.744239 155.613586 
L 235.744239 155.613586 
L 230.549971 155.613586 
L 230.549971 155.613586 
L 225.355702 155.613586 
L 225.355702 155.613586 
L 220.161434 155.613586 
L 220.161434 155.613586 
L 214.967166 155.613586 
L 214.967166 155.613586 
L 209.772897 155.613586 
L 209.772897 155.613586 
L 204.578629 155.613586 
L 204.578629 155.613586 
L 199.384361 155.613586 
L 199.384361 155.613586 
L 194.190092 155.613586 
L 194.190092 155.613586 
L 188.995824 155.613586 
L 188.995824 155.613586 
L 183.801556 155.613586 
L 183.801556 155.613586 
L 178.607287 155.613586 
L 178.607287 155.613586 
L 173.413019 155.613586 
L 173.413019 155.613586 
L 168.218751 155.613586 
L 168.218751 155.613586 
L 163.024482 155.613586 
L 163.024482 155.613586 
L 157.830214 155.613586 
L 157.830214 155.613586 
L 152.635946 155.613586 
L 152.635946 155.613586 
L 147.441677 155.613586 
L 147.441677 155.613586 
L 142.247409 155.613586 
L 142.247409 155.613586 
L 137.053141 155.613586 
L 137.053141 155.613586 
L 131.858872 155.613586 
L 131.858872 155.613586 
L 126.664604 155.613586 
L 126.664604 155.613586 
L 121.470336 155.613586 
L 121.470336 155.613586 
L 116.276067 155.613586 
L 116.276067 155.613586 
L 111.081799 155.613586 
L 111.081799 155.613586 
L 105.887531 155.613586 
L 105.887531 155.613586 
L 100.693262 155.613586 
L 100.693262 155.613586 
L 95.498994 155.613586 
L 95.498994 155.613586 
L 90.304726 155.613586 
L 90.304726 155.613586 
L 85.110457 155.613586 
L 85.110457 155.613586 
L 79.916189 155.613586 
L 79.916189 155.613586 
L 74.721921 155.613586 
L 74.721921 155.613586 
L 69.527652 155.613586 
L 69.527652 155.613586 
L 64.333384 155.613586 
L 64.333384 155.613586 
L 59.139116 155.613586 
L 59.139116 155.613586 
L 53.944847 155.613586 
L 53.944847 155.613586 
L 48.750579 155.613586 
L 48.750579 155.613586 
L 43.556311 155.613586 
L 43.556311 155.613586 
L 38.362042 155.613586 
L 38.362042 155.613586 
L 33.167774 155.613586 
L 33.167774 155.613586 
L 27.973506 155.613586 
L 27.973506 155.613586 
z
" style="fill:#005ea8;opacity:0.5;"/>
   </g>
   <g id="patch_4">
    <path clip-path="url(#pf6d63fa8e5)" d="M 22.779237 155.613586 
L 22.779237 155.613586 
L 27.973506 155.613586 
L 27.973506 155.613586 
L 33.167774 155.613586 
L 33.167774 155.613586 
L 38.362042 155.613586 
L 38.362042 155.613586 
L 43.556311 155.613586 
L 43.556311 155.613586 
L 48.750579 155.613586 
L 48.750579 155.613586 
L 53.944847 155.613586 
L 53.944847 155.419273 
L 59.139116 155.419273 
L 59.139116 155.22496 
L 64.333384 155.22496 
L 64.333384 153.281831 
L 69.527652 153.281831 
L 69.527652 147.84107 
L 74.721921 147.84107 
L 74.721921 135.599358 
L 79.916189 135.599358 
L 79.916189 112.152269 
L 85.110457 112.152269 
L 85.110457 92.07327 
L 90.304726 92.07327 
L 90.304726 72.123813 
L 95.498994 72.123813 
L 95.498994 64.610381 
L 100.693262 64.610381 
L 100.693262 73.354461 
L 105.887531 73.354461 
L 105.887531 81.709916 
L 111.081799 81.709916 
L 111.081799 93.239147 
L 116.276067 93.239147 
L 116.276067 113.642001 
L 121.470336 113.642001 
L 121.470336 125.559858 
L 126.664604 125.559858 
L 126.664604 137.477716 
L 131.858872 137.477716 
L 131.858872 144.408209 
L 137.053141 144.408209 
L 137.053141 148.229696 
L 142.247409 148.229696 
L 142.247409 151.662557 
L 147.441677 151.662557 
L 147.441677 154.123853 
L 152.635946 154.123853 
L 152.635946 153.994311 
L 157.830214 153.994311 
L 157.830214 155.354502 
L 163.024482 155.354502 
L 163.024482 154.836334 
L 168.218751 154.836334 
L 168.218751 155.484044 
L 173.413019 155.484044 
L 173.413019 155.613586 
L 178.607287 155.613586 
L 178.607287 155.613586 
L 183.801556 155.613586 
L 183.801556 155.613586 
L 188.995824 155.613586 
L 188.995824 155.613586 
L 194.190092 155.613586 
L 194.190092 155.613586 
L 199.384361 155.613586 
L 199.384361 155.613586 
L 204.578629 155.613586 
L 204.578629 155.613586 
L 209.772897 155.613586 
L 209.772897 155.613586 
L 214.967166 155.613586 
L 214.967166 155.613586 
L 220.161434 155.613586 
L 220.161434 155.613586 
L 225.355702 155.613586 
L 225.355702 155.613586 
L 230.549971 155.613586 
L 230.549971 155.613586 
L 235.744239 155.613586 
L 235.744239 155.613586 
L 240.938507 155.613586 
L 240.938507 155.613586 
L 246.132776 155.613586 
L 246.132776 155.613586 
L 251.327044 155.613586 
L 251.327044 155.613586 
L 256.521312 155.613586 
L 256.521312 155.613586 
L 261.715581 155.613586 
L 261.715581 155.613586 
L 266.909849 155.613586 
L 266.909849 155.613586 
L 272.104117 155.613586 
L 272.104117 155.613586 
L 277.298386 155.613586 
L 277.298386 155.613586 
L 272.104117 155.613586 
L 272.104117 155.613586 
L 266.909849 155.613586 
L 266.909849 155.613586 
L 261.715581 155.613586 
L 261.715581 155.613586 
L 256.521312 155.613586 
L 256.521312 155.613586 
L 251.327044 155.613586 
L 251.327044 155.613586 
L 246.132776 155.613586 
L 246.132776 155.613586 
L 240.938507 155.613586 
L 240.938507 155.613586 
L 235.744239 155.613586 
L 235.744239 155.613586 
L 230.549971 155.613586 
L 230.549971 155.613586 
L 225.355702 155.613586 
L 225.355702 155.613586 
L 220.161434 155.613586 
L 220.161434 155.613586 
L 214.967166 155.613586 
L 214.967166 155.613586 
L 209.772897 155.613586 
L 209.772897 155.613586 
L 204.578629 155.613586 
L 204.578629 155.613586 
L 199.384361 155.613586 
L 199.384361 155.613586 
L 194.190092 155.613586 
L 194.190092 155.613586 
L 188.995824 155.613586 
L 188.995824 155.613586 
L 183.801556 155.613586 
L 183.801556 155.613586 
L 178.607287 155.613586 
L 178.607287 155.613586 
L 173.413019 155.613586 
L 173.413019 155.613586 
L 168.218751 155.613586 
L 168.218751 155.613586 
L 163.024482 155.613586 
L 163.024482 155.613586 
L 157.830214 155.613586 
L 157.830214 155.613586 
L 152.635946 155.613586 
L 152.635946 155.613586 
L 147.441677 155.613586 
L 147.441677 155.613586 
L 142.247409 155.613586 
L 142.247409 155.613586 
L 137.053141 155.613586 
L 137.053141 155.613586 
L 131.858872 155.613586 
L 131.858872 155.613586 
L 126.664604 155.613586 
L 126.664604 155.613586 
L 121.470336 155.613586 
L 121.470336 155.613586 
L 116.276067 155.613586 
L 116.276067 155.613586 
L 111.081799 155.613586 
L 111.081799 155.613586 
L 105.887531 155.613586 
L 105.887531 155.613586 
L 100.693262 155.613586 
L 100.693262 155.613586 
L 95.498994 155.613586 
L 95.498994 155.613586 
L 90.304726 155.613586 
L 90.304726 155.613586 
L 85.110457 155.613586 
L 85.110457 155.613586 
L 79.916189 155.613586 
L 79.916189 155.613586 
L 74.721921 155.613586 
L 74.721921 155.613586 
L 69.527652 155.613586 
L 69.527652 155.613586 
L 64.333384 155.613586 
L 64.333384 155.613586 
L 59.139116 155.613586 
L 59.139116 155.613586 
L 53.944847 155.613586 
L 53.944847 155.613586 
L 48.750579 155.613586 
L 48.750579 155.613586 
L 43.556311 155.613586 
L 43.556311 155.613586 
L 38.362042 155.613586 
L 38.362042 155.613586 
L 33.167774 155.613586 
L 33.167774 155.613586 
L 27.973506 155.613586 
L 27.973506 155.613586 
z
" style="fill:#f17900;opacity:0.5;"/>
   </g>
   <g id="matplotlib.axis_1">
    <g id="xtick_1">
     <g id="line2d_1">
      <path clip-path="url(#pf6d63fa8e5)" d="M 22.779237 155.613586 
L 22.779237 3.00024 
" style="fill:none;stroke:#000000;stroke-linecap:square;stroke-opacity:0.1;stroke-width:0.5;"/>
     </g>
     <g id="line2d_2">
      <defs>
       <path d="M 0 0 
L 0 -3 
" id="mdc2d84f1c0" style="stroke:#000000;stroke-width:0.5;"/>
      </defs>
      <g>
       <use style="stroke:#000000;stroke-width:0.5;" x="22.779237" xlink:href="#mdc2d84f1c0" y="155.613586"/>
      </g>
     </g>
     <g id="text_1">
      <!-- 0 -->
      <g transform="translate(21.196267 161.361842)scale(0.06246 -0.06246)">
       <defs>
        <path d="M 47.21875 31.734375 
Q 47.21875 24.46875 46.0625 18.453125 
Q 44.921875 12.453125 42.25 8.125 
Q 39.59375 3.8125 35.296875 1.4375 
Q 31 -0.921875 24.703125 -0.921875 
Q 18.75 -0.921875 14.671875 1.203125 
Q 10.59375 3.328125 8.09375 7.453125 
Q 5.609375 11.578125 4.5625 17.609375 
Q 3.515625 23.640625 3.515625 31.453125 
Q 3.515625 38.671875 4.6875 44.703125 
Q 5.859375 50.734375 8.5 55.046875 
Q 11.140625 59.375 15.4375 61.734375 
Q 19.734375 64.109375 25.984375 64.109375 
Q 31.984375 64.109375 36.0625 61.984375 
Q 40.140625 59.859375 42.625 55.734375 
Q 45.125 51.609375 46.171875 45.578125 
Q 47.21875 39.546875 47.21875 31.734375 
z
M 38.625 31.15625 
Q 38.625 35.890625 38.28125 39.640625 
Q 37.9375 43.40625 37.28125 46.28125 
Q 36.625 49.171875 35.5625 51.25 
Q 34.515625 53.328125 33.046875 54.65625 
Q 31.59375 56 29.703125 56.609375 
Q 27.828125 57.234375 25.484375 57.234375 
Q 21.34375 57.234375 18.75 55.28125 
Q 16.15625 53.328125 14.671875 49.90625 
Q 13.1875 46.484375 12.640625 41.890625 
Q 12.109375 37.3125 12.109375 32.03125 
Q 12.109375 24.953125 12.84375 20 
Q 13.578125 15.046875 15.15625 11.921875 
Q 16.75 8.796875 19.21875 7.375 
Q 21.6875 5.953125 25.203125 5.953125 
Q 27.9375 5.953125 30 6.828125 
Q 32.078125 7.71875 33.5625 9.34375 
Q 35.0625 10.984375 36.03125 13.28125 
Q 37.015625 15.578125 37.59375 18.359375 
Q 38.1875 21.140625 38.40625 24.390625 
Q 38.625 27.640625 38.625 31.15625 
z
" id="Calibri-48"/>
       </defs>
       <use xlink:href="#Calibri-48"/>
      </g>
     </g>
    </g>
    <g id="xtick_2">
     <g id="line2d_3">
      <path clip-path="url(#pf6d63fa8e5)" d="M 73.683067 155.613586 
L 73.683067 3.00024 
" style="fill:none;stroke:#000000;stroke-linecap:square;stroke-opacity:0.1;stroke-width:0.5;"/>
     </g>
     <g id="line2d_4">
      <g>
       <use style="stroke:#000000;stroke-width:0.5;" x="73.683067" xlink:href="#mdc2d84f1c0" y="155.613586"/>
      </g>
     </g>
     <g id="text_2">
      <!-- 5 -->
      <g transform="translate(72.100097 161.361842)scale(0.06246 -0.06246)">
       <defs>
        <path d="M 44.828125 20.3125 
Q 44.828125 15.234375 43.109375 11.28125 
Q 41.40625 7.328125 38.28125 4.609375 
Q 35.15625 1.90625 30.828125 0.484375 
Q 26.515625 -0.921875 21.234375 -0.921875 
Q 18.3125 -0.921875 15.671875 -0.5 
Q 13.03125 -0.09375 10.984375 0.515625 
Q 8.9375 1.125 7.609375 1.703125 
Q 6.296875 2.296875 5.921875 2.640625 
Q 5.5625 2.984375 5.421875 3.265625 
Q 5.28125 3.5625 5.15625 3.96875 
Q 5.03125 4.390625 4.984375 5.03125 
Q 4.9375 5.671875 4.9375 6.546875 
Q 4.9375 7.375 5 8.03125 
Q 5.078125 8.6875 5.265625 9.09375 
Q 5.46875 9.515625 5.734375 9.703125 
Q 6 9.90625 6.34375 9.90625 
Q 6.84375 9.90625 7.859375 9.296875 
Q 8.890625 8.6875 10.625 7.984375 
Q 12.359375 7.28125 14.921875 6.640625 
Q 17.484375 6 21 6 
Q 24.265625 6 27 6.78125 
Q 29.734375 7.5625 31.703125 9.21875 
Q 33.6875 10.890625 34.8125 13.40625 
Q 35.9375 15.921875 35.9375 19.53125 
Q 35.9375 22.5625 34.984375 24.875 
Q 34.03125 27.203125 32.046875 28.734375 
Q 30.078125 30.28125 27.046875 31.03125 
Q 24.03125 31.78125 19.828125 31.78125 
Q 16.84375 31.78125 14.6875 31.484375 
Q 12.546875 31.203125 10.6875 31.203125 
Q 9.328125 31.203125 8.734375 31.828125 
Q 8.15625 32.46875 8.15625 34.28125 
L 8.15625 60.015625 
Q 8.15625 61.625 8.90625 62.40625 
Q 9.671875 63.1875 11.078125 63.1875 
L 39.0625 63.1875 
Q 39.453125 63.1875 39.8125 62.96875 
Q 40.1875 62.75 40.421875 62.296875 
Q 40.671875 61.859375 40.796875 61.171875 
Q 40.921875 60.5 40.921875 59.578125 
Q 40.921875 57.8125 40.421875 56.828125 
Q 39.9375 55.859375 39.0625 55.859375 
L 15.484375 55.859375 
L 15.484375 38.140625 
Q 17.1875 38.375 18.96875 38.421875 
Q 20.75 38.484375 23.09375 38.484375 
Q 28.515625 38.484375 32.5625 37.1875 
Q 36.625 35.890625 39.328125 33.515625 
Q 42.046875 31.15625 43.4375 27.78125 
Q 44.828125 24.421875 44.828125 20.3125 
z
" id="Calibri-53"/>
       </defs>
       <use xlink:href="#Calibri-53"/>
      </g>
     </g>
    </g>
    <g id="xtick_3">
     <g id="line2d_5">
      <path clip-path="url(#pf6d63fa8e5)" d="M 124.586897 155.613586 
L 124.586897 3.00024 
" style="fill:none;stroke:#000000;stroke-linecap:square;stroke-opacity:0.1;stroke-width:0.5;"/>
     </g>
     <g id="line2d_6">
      <g>
       <use style="stroke:#000000;stroke-width:0.5;" x="124.586897" xlink:href="#mdc2d84f1c0" y="155.613586"/>
      </g>
     </g>
     <g id="text_3">
      <!-- 10 -->
      <g transform="translate(121.420956 161.361842)scale(0.06246 -0.06246)">
       <defs>
        <path d="M 45.265625 3.328125 
Q 45.265625 2.390625 45.109375 1.75 
Q 44.96875 1.125 44.71875 0.734375 
Q 44.484375 0.34375 44.15625 0.171875 
Q 43.84375 0 43.5 0 
L 10.5 0 
Q 10.15625 0 9.859375 0.171875 
Q 9.578125 0.34375 9.296875 0.734375 
Q 9.03125 1.125 8.875 1.75 
Q 8.734375 2.390625 8.734375 3.328125 
Q 8.734375 4.203125 8.875 4.828125 
Q 9.03125 5.46875 9.25 5.875 
Q 9.46875 6.296875 9.78125 6.515625 
Q 10.109375 6.734375 10.5 6.734375 
L 23.6875 6.734375 
L 23.6875 54.78125 
L 11.46875 47.515625 
Q 10.546875 47.015625 9.984375 46.921875 
Q 9.421875 46.828125 9.078125 47.140625 
Q 8.734375 47.46875 8.609375 48.1875 
Q 8.5 48.921875 8.5 50.046875 
Q 8.5 50.875 8.5625 51.453125 
Q 8.640625 52.046875 8.78125 52.4375 
Q 8.9375 52.828125 9.203125 53.125 
Q 9.46875 53.421875 9.90625 53.71875 
L 24.46875 63.03125 
Q 24.65625 63.1875 24.953125 63.28125 
Q 25.25 63.375 25.6875 63.46875 
Q 26.125 63.578125 26.703125 63.59375 
Q 27.296875 63.625 28.171875 63.625 
Q 29.34375 63.625 30.125 63.515625 
Q 30.90625 63.421875 31.34375 63.25 
Q 31.78125 63.09375 31.921875 62.8125 
Q 32.078125 62.546875 32.078125 62.25 
L 32.078125 6.734375 
L 43.5 6.734375 
Q 43.890625 6.734375 44.234375 6.515625 
Q 44.578125 6.296875 44.796875 5.875 
Q 45.015625 5.46875 45.140625 4.828125 
Q 45.265625 4.203125 45.265625 3.328125 
z
" id="Calibri-49"/>
       </defs>
       <use xlink:href="#Calibri-49"/>
       <use x="50.683594" xlink:href="#Calibri-48"/>
      </g>
     </g>
    </g>
    <g id="xtick_4">
     <g id="line2d_7">
      <path clip-path="url(#pf6d63fa8e5)" d="M 175.490726 155.613586 
L 175.490726 3.00024 
" style="fill:none;stroke:#000000;stroke-linecap:square;stroke-opacity:0.1;stroke-width:0.5;"/>
     </g>
     <g id="line2d_8">
      <g>
       <use style="stroke:#000000;stroke-width:0.5;" x="175.490726" xlink:href="#mdc2d84f1c0" y="155.613586"/>
      </g>
     </g>
     <g id="text_4">
      <!-- 15 -->
      <g transform="translate(172.324785 161.361842)scale(0.06246 -0.06246)">
       <use xlink:href="#Calibri-49"/>
       <use x="50.683594" xlink:href="#Calibri-53"/>
      </g>
     </g>
    </g>
    <g id="xtick_5">
     <g id="line2d_9">
      <path clip-path="url(#pf6d63fa8e5)" d="M 226.394556 155.613586 
L 226.394556 3.00024 
" style="fill:none;stroke:#000000;stroke-linecap:square;stroke-opacity:0.1;stroke-width:0.5;"/>
     </g>
     <g id="line2d_10">
      <g>
       <use style="stroke:#000000;stroke-width:0.5;" x="226.394556" xlink:href="#mdc2d84f1c0" y="155.613586"/>
      </g>
     </g>
     <g id="text_5">
      <!-- 20 -->
      <g transform="translate(223.228615 161.361842)scale(0.06246 -0.06246)">
       <defs>
        <path d="M 45.125 3.609375 
Q 45.125 2.734375 45 2.046875 
Q 44.875 1.375 44.65625 0.90625 
Q 44.4375 0.4375 44.0625 0.21875 
Q 43.703125 0 43.265625 0 
L 8.34375 0 
Q 7.671875 0 7.15625 0.171875 
Q 6.640625 0.34375 6.265625 0.734375 
Q 5.90625 1.125 5.734375 1.859375 
Q 5.5625 2.59375 5.5625 3.65625 
Q 5.5625 4.640625 5.640625 5.375 
Q 5.71875 6.109375 5.953125 6.671875 
Q 6.203125 7.234375 6.5625 7.78125 
Q 6.9375 8.34375 7.515625 8.984375 
L 19.78125 21.96875 
Q 24.03125 26.46875 26.59375 30.03125 
Q 29.15625 33.59375 30.546875 36.515625 
Q 31.9375 39.453125 32.375 41.84375 
Q 32.8125 44.234375 32.8125 46.34375 
Q 32.8125 48.4375 32.125 50.3125 
Q 31.453125 52.203125 30.15625 53.609375 
Q 28.859375 55.03125 26.90625 55.859375 
Q 24.953125 56.6875 22.40625 56.6875 
Q 19.4375 56.6875 17.0625 55.859375 
Q 14.703125 55.03125 12.921875 54.046875 
Q 11.140625 53.078125 9.9375 52.25 
Q 8.734375 51.421875 8.15625 51.421875 
Q 7.8125 51.421875 7.546875 51.609375 
Q 7.28125 51.8125 7.109375 52.25 
Q 6.9375 52.6875 6.828125 53.421875 
Q 6.734375 54.15625 6.734375 55.171875 
Q 6.734375 55.90625 6.78125 56.4375 
Q 6.84375 56.984375 6.953125 57.375 
Q 7.078125 57.765625 7.265625 58.109375 
Q 7.46875 58.453125 8.046875 58.953125 
Q 8.640625 59.46875 10.078125 60.34375 
Q 11.53125 61.234375 13.703125 62.078125 
Q 15.875 62.9375 18.484375 63.515625 
Q 21.09375 64.109375 23.96875 64.109375 
Q 28.5625 64.109375 32 62.8125 
Q 35.453125 61.53125 37.71875 59.28125 
Q 39.984375 57.03125 41.109375 54.046875 
Q 42.234375 51.078125 42.234375 47.703125 
Q 42.234375 44.671875 41.6875 41.671875 
Q 41.15625 38.671875 39.421875 35.171875 
Q 37.703125 31.6875 34.421875 27.40625 
Q 31.15625 23.140625 25.734375 17.578125 
L 15.71875 7.125 
L 43.21875 7.125 
Q 43.609375 7.125 43.96875 6.90625 
Q 44.34375 6.6875 44.609375 6.25 
Q 44.875 5.8125 45 5.15625 
Q 45.125 4.5 45.125 3.609375 
z
" id="Calibri-50"/>
       </defs>
       <use xlink:href="#Calibri-50"/>
       <use x="50.683594" xlink:href="#Calibri-48"/>
      </g>
     </g>
    </g>
    <g id="xtick_6">
     <g id="line2d_11">
      <path clip-path="url(#pf6d63fa8e5)" d="M 277.298386 155.613586 
L 277.298386 3.00024 
" style="fill:none;stroke:#000000;stroke-linecap:square;stroke-opacity:0.1;stroke-width:0.5;"/>
     </g>
     <g id="line2d_12">
      <g>
       <use style="stroke:#000000;stroke-width:0.5;" x="277.298386" xlink:href="#mdc2d84f1c0" y="155.613586"/>
      </g>
     </g>
     <g id="text_6">
      <!-- 25 -->
      <g transform="translate(274.132444 161.361842)scale(0.06246 -0.06246)">
       <use xlink:href="#Calibri-50"/>
       <use x="50.683594" xlink:href="#Calibri-53"/>
      </g>
     </g>
    </g>
    <g id="text_7">
     <!-- risk $R$ [%] -->
     <g transform="translate(132.938812 170.593865)scale(0.09 -0.09)">
      <defs>
       <path d="M 33.15625 42.28125 
Q 33.15625 41.21875 33.109375 40.484375 
Q 33.0625 39.75 32.90625 39.328125 
Q 32.765625 38.921875 32.546875 38.703125 
Q 32.328125 38.484375 31.9375 38.484375 
Q 31.546875 38.484375 30.984375 38.703125 
Q 30.421875 38.921875 29.703125 39.140625 
Q 29 39.359375 28.125 39.546875 
Q 27.25 39.75 26.21875 39.75 
Q 25 39.75 23.828125 39.25 
Q 22.65625 38.765625 21.359375 37.640625 
Q 20.0625 36.53125 18.640625 34.671875 
Q 17.234375 32.8125 15.53125 30.125 
L 15.53125 1.21875 
Q 15.53125 0.828125 15.328125 0.5625 
Q 15.140625 0.296875 14.703125 0.09375 
Q 14.265625 -0.09375 13.484375 -0.1875 
Q 12.703125 -0.296875 11.46875 -0.296875 
Q 10.296875 -0.296875 9.515625 -0.1875 
Q 8.734375 -0.09375 8.265625 0.09375 
Q 7.8125 0.296875 7.640625 0.5625 
Q 7.46875 0.828125 7.46875 1.21875 
L 7.46875 45.171875 
Q 7.46875 45.5625 7.609375 45.828125 
Q 7.765625 46.09375 8.203125 46.3125 
Q 8.640625 46.53125 9.328125 46.609375 
Q 10.015625 46.6875 11.140625 46.6875 
Q 12.203125 46.6875 12.90625 46.609375 
Q 13.625 46.53125 14.015625 46.3125 
Q 14.40625 46.09375 14.578125 45.828125 
Q 14.75 45.5625 14.75 45.171875 
L 14.75 38.765625 
Q 16.546875 41.40625 18.140625 43.0625 
Q 19.734375 44.734375 21.140625 45.671875 
Q 22.5625 46.625 23.953125 46.984375 
Q 25.34375 47.359375 26.765625 47.359375 
Q 27.390625 47.359375 28.1875 47.28125 
Q 29 47.21875 29.875 47.015625 
Q 30.765625 46.828125 31.46875 46.578125 
Q 32.171875 46.34375 32.46875 46.09375 
Q 32.765625 45.84375 32.859375 45.625 
Q 32.953125 45.40625 33.03125 45.0625 
Q 33.109375 44.734375 33.125 44.0625 
Q 33.15625 43.40625 33.15625 42.28125 
z
" id="Calibri-114"/>
       <path d="M 15.53125 1.21875 
Q 15.53125 0.828125 15.328125 0.5625 
Q 15.140625 0.296875 14.703125 0.09375 
Q 14.265625 -0.09375 13.484375 -0.1875 
Q 12.703125 -0.296875 11.46875 -0.296875 
Q 10.296875 -0.296875 9.515625 -0.1875 
Q 8.734375 -0.09375 8.265625 0.09375 
Q 7.8125 0.296875 7.640625 0.5625 
Q 7.46875 0.828125 7.46875 1.21875 
L 7.46875 45.171875 
Q 7.46875 45.515625 7.640625 45.796875 
Q 7.8125 46.09375 8.265625 46.28125 
Q 8.734375 46.484375 9.515625 46.578125 
Q 10.296875 46.6875 11.46875 46.6875 
Q 12.703125 46.6875 13.484375 46.578125 
Q 14.265625 46.484375 14.703125 46.28125 
Q 15.140625 46.09375 15.328125 45.796875 
Q 15.53125 45.515625 15.53125 45.171875 
z
M 16.453125 60.015625 
Q 16.453125 57.171875 15.375 56.140625 
Q 14.3125 55.125 11.421875 55.125 
Q 8.59375 55.125 7.546875 56.125 
Q 6.5 57.125 6.5 59.90625 
Q 6.5 62.75 7.5625 63.765625 
Q 8.640625 64.796875 11.53125 64.796875 
Q 14.359375 64.796875 15.40625 63.796875 
Q 16.453125 62.796875 16.453125 60.015625 
z
" id="Calibri-105"/>
       <path d="M 35.0625 13.1875 
Q 35.0625 9.8125 33.8125 7.171875 
Q 32.5625 4.546875 30.265625 2.734375 
Q 27.984375 0.921875 24.796875 0 
Q 21.625 -0.921875 17.828125 -0.921875 
Q 15.484375 -0.921875 13.359375 -0.5625 
Q 11.234375 -0.203125 9.546875 0.359375 
Q 7.859375 0.921875 6.6875 1.53125 
Q 5.515625 2.15625 4.96875 2.640625 
Q 4.4375 3.125 4.1875 4 
Q 3.953125 4.890625 3.953125 6.390625 
Q 3.953125 7.328125 4.046875 7.953125 
Q 4.15625 8.59375 4.296875 8.984375 
Q 4.4375 9.375 4.703125 9.546875 
Q 4.984375 9.71875 5.328125 9.71875 
Q 5.859375 9.71875 6.90625 9.0625 
Q 7.953125 8.40625 9.484375 7.625 
Q 11.03125 6.84375 13.125 6.171875 
Q 15.234375 5.515625 17.96875 5.515625 
Q 20.015625 5.515625 21.671875 5.953125 
Q 23.34375 6.390625 24.5625 7.25 
Q 25.78125 8.109375 26.4375 9.421875 
Q 27.09375 10.75 27.09375 12.546875 
Q 27.09375 14.40625 26.140625 15.671875 
Q 25.203125 16.9375 23.640625 17.90625 
Q 22.078125 18.890625 20.125 19.640625 
Q 18.171875 20.40625 16.09375 21.234375 
Q 14.015625 22.078125 12.03125 23.125 
Q 10.0625 24.171875 8.5 25.6875 
Q 6.9375 27.203125 5.984375 29.296875 
Q 5.03125 31.390625 5.03125 34.328125 
Q 5.03125 36.921875 6.03125 39.28125 
Q 7.03125 41.65625 9.03125 43.4375 
Q 11.03125 45.21875 14.03125 46.28125 
Q 17.046875 47.359375 21.046875 47.359375 
Q 22.796875 47.359375 24.546875 47.0625 
Q 26.3125 46.78125 27.734375 46.34375 
Q 29.15625 45.90625 30.15625 45.390625 
Q 31.15625 44.875 31.65625 44.484375 
Q 32.171875 44.09375 32.34375 43.796875 
Q 32.515625 43.5 32.59375 43.140625 
Q 32.671875 42.78125 32.734375 42.234375 
Q 32.8125 41.703125 32.8125 40.921875 
Q 32.8125 40.09375 32.734375 39.484375 
Q 32.671875 38.875 32.5 38.484375 
Q 32.328125 38.09375 32.078125 37.921875 
Q 31.84375 37.75 31.546875 37.75 
Q 31.109375 37.75 30.265625 38.28125 
Q 29.4375 38.8125 28.125 39.421875 
Q 26.8125 40.046875 25.03125 40.578125 
Q 23.25 41.109375 20.953125 41.109375 
Q 18.890625 41.109375 17.328125 40.640625 
Q 15.765625 40.1875 14.765625 39.328125 
Q 13.765625 38.484375 13.25 37.3125 
Q 12.75 36.140625 12.75 34.765625 
Q 12.75 32.859375 13.71875 31.5625 
Q 14.703125 30.28125 16.265625 29.296875 
Q 17.828125 28.328125 19.828125 27.546875 
Q 21.828125 26.765625 23.90625 25.921875 
Q 25.984375 25.09375 28 24.0625 
Q 30.03125 23.046875 31.59375 21.578125 
Q 33.15625 20.125 34.109375 18.0625 
Q 35.0625 16.015625 35.0625 13.1875 
z
" id="Calibri-115"/>
       <path d="M 43.5625 1.265625 
Q 43.5625 0.875 43.359375 0.578125 
Q 43.171875 0.296875 42.703125 0.09375 
Q 42.234375 -0.09375 41.40625 -0.1875 
Q 40.578125 -0.296875 39.3125 -0.296875 
Q 37.984375 -0.296875 37.125 -0.21875 
Q 36.28125 -0.140625 35.6875 0.03125 
Q 35.109375 0.203125 34.734375 0.515625 
Q 34.375 0.828125 34.078125 1.265625 
L 15.53125 25.59375 
L 15.53125 1.21875 
Q 15.53125 0.828125 15.328125 0.5625 
Q 15.140625 0.296875 14.703125 0.09375 
Q 14.265625 -0.09375 13.484375 -0.1875 
Q 12.703125 -0.296875 11.46875 -0.296875 
Q 10.296875 -0.296875 9.515625 -0.1875 
Q 8.734375 -0.09375 8.265625 0.09375 
Q 7.8125 0.296875 7.640625 0.5625 
Q 7.46875 0.828125 7.46875 1.21875 
L 7.46875 66.453125 
Q 7.46875 66.84375 7.640625 67.140625 
Q 7.8125 67.4375 8.265625 67.625 
Q 8.734375 67.828125 9.515625 67.921875 
Q 10.296875 68.015625 11.46875 68.015625 
Q 12.703125 68.015625 13.484375 67.921875 
Q 14.265625 67.828125 14.703125 67.625 
Q 15.140625 67.4375 15.328125 67.140625 
Q 15.53125 66.84375 15.53125 66.453125 
L 15.53125 26.703125 
L 32.125 44.96875 
Q 32.515625 45.453125 32.953125 45.765625 
Q 33.40625 46.09375 34.015625 46.3125 
Q 34.625 46.53125 35.453125 46.609375 
Q 36.28125 46.6875 37.453125 46.6875 
Q 38.671875 46.6875 39.5 46.609375 
Q 40.328125 46.53125 40.84375 46.359375 
Q 41.359375 46.1875 41.578125 45.921875 
Q 41.796875 45.65625 41.796875 45.21875 
Q 41.796875 44.625 41.46875 44.03125 
Q 41.15625 43.453125 40.4375 42.671875 
L 24.515625 26.765625 
L 42.390625 3.5625 
Q 43.015625 2.734375 43.28125 2.21875 
Q 43.5625 1.703125 43.5625 1.265625 
z
" id="Calibri-107"/>
       <path id="Calibri-32"/>
       <path d="M 39.5 30.21875 
Q 41.84375 28.46875 43.28125 26.015625 
Q 44.734375 23.578125 45.609375 19.234375 
L 46.734375 13.578125 
Q 47.078125 11.8125 47.484375 10.296875 
Q 47.90625 8.796875 48.46875 7.390625 
Q 49.03125 6 49.6875 5.171875 
Q 50.34375 4.34375 51.09375 3.796875 
Q 51.859375 3.265625 52.8125 2.953125 
Q 53.765625 2.640625 55.21875 2.390625 
L 54.734375 0 
L 41.21875 0 
Q 39.65625 4.34375 38.421875 10.359375 
L 36.28125 20.703125 
Q 35.75 23.390625 34.984375 25.21875 
Q 34.234375 27.046875 33.171875 28.046875 
Q 32.125 29.046875 30.734375 29.359375 
Q 29.34375 29.6875 27.34375 29.6875 
L 21.78125 29.6875 
L 18.359375 14.203125 
Q 17.921875 12.3125 17.75 11.1875 
Q 17.578125 10.0625 17.453125 8.8125 
Q 17.328125 7.5625 17.328125 6.59375 
Q 17.328125 5.078125 17.8125 4.21875 
Q 18.3125 3.375 19.28125 2.984375 
Q 20.265625 2.59375 22.65625 2.390625 
L 22.125 0 
L 2.046875 0 
L 2.59375 2.390625 
Q 4.4375 2.6875 5.359375 3.34375 
Q 6.296875 4 6.921875 5.171875 
Q 7.5625 6.34375 8.09375 8.03125 
Q 8.640625 9.71875 9.71875 14.546875 
L 18.015625 52.15625 
Q 19.09375 57.03125 19.09375 59.859375 
Q 19.09375 62.25 17.96875 63.171875 
Q 16.84375 64.109375 14.3125 64.265625 
L 14.84375 66.65625 
L 36.578125 66.65625 
Q 41.75 66.65625 45.015625 66.046875 
Q 48.296875 65.4375 50.609375 64.203125 
Q 52.9375 62.984375 54.5 61.046875 
Q 56.0625 59.125 56.84375 56.703125 
Q 57.625 54.296875 57.625 51.5625 
Q 57.625 47.21875 56.171875 43.84375 
Q 54.734375 40.484375 52.234375 37.9375 
Q 49.75 35.40625 46.453125 33.640625 
Q 43.171875 31.890625 39.5 30.765625 
z
M 28.46875 33.890625 
Q 33.796875 33.890625 37.3125 34.9375 
Q 40.828125 35.984375 43.171875 38.125 
Q 45.515625 40.28125 47.015625 43.796875 
Q 48.53125 47.3125 48.53125 51.421875 
Q 48.53125 53.515625 48.140625 55.140625 
Q 47.75 56.78125 47.109375 57.859375 
Q 46.484375 58.9375 45.5 59.765625 
Q 44.53125 60.59375 43.0625 61.203125 
Q 41.609375 61.8125 39.671875 62.078125 
Q 37.75 62.359375 34.421875 62.359375 
Q 31.84375 62.359375 28.953125 62.15625 
L 22.703125 33.890625 
z
" id="Cambria-Italic-82"/>
       <path d="M 26.3125 -12.703125 
Q 26.3125 -14.3125 25.953125 -14.96875 
Q 25.59375 -15.625 24.90625 -15.625 
L 12.40625 -15.625 
Q 11.8125 -15.625 11.28125 -15.453125 
Q 10.75 -15.28125 10.296875 -14.890625 
Q 9.859375 -14.5 9.59375 -13.84375 
Q 9.328125 -13.1875 9.328125 -12.203125 
L 9.328125 64.890625 
Q 9.328125 65.828125 9.59375 66.484375 
Q 9.859375 67.140625 10.296875 67.546875 
Q 10.75 67.96875 11.28125 68.140625 
Q 11.8125 68.3125 12.40625 68.3125 
L 24.90625 68.3125 
Q 25.203125 68.3125 25.46875 68.15625 
Q 25.734375 68.015625 25.921875 67.625 
Q 26.125 67.234375 26.21875 66.671875 
Q 26.3125 66.109375 26.3125 65.28125 
Q 26.3125 63.71875 25.953125 63.03125 
Q 25.59375 62.359375 24.90625 62.359375 
L 16.9375 62.359375 
L 16.9375 -9.71875 
L 24.90625 -9.71875 
Q 25.203125 -9.71875 25.46875 -9.859375 
Q 25.734375 -10.015625 25.921875 -10.375 
Q 26.125 -10.75 26.21875 -11.296875 
Q 26.3125 -11.859375 26.3125 -12.703125 
z
" id="Calibri-91"/>
       <path d="M 30.71875 47.5625 
Q 30.71875 43.796875 29.875 40.71875 
Q 29.046875 37.65625 27.34375 35.46875 
Q 25.640625 33.296875 23.015625 32.078125 
Q 20.40625 30.859375 16.890625 30.859375 
Q 13.328125 30.859375 10.78125 31.984375 
Q 8.25 33.109375 6.640625 35.234375 
Q 5.03125 37.359375 4.265625 40.40625 
Q 3.515625 43.453125 3.515625 47.359375 
Q 3.515625 50.9375 4.3125 53.953125 
Q 5.125 56.984375 6.78125 59.171875 
Q 8.453125 61.375 11.0625 62.640625 
Q 13.671875 63.921875 17.234375 63.921875 
Q 21.09375 63.921875 23.703125 62.59375 
Q 26.3125 61.28125 27.875 59.0625 
Q 29.4375 56.84375 30.078125 53.859375 
Q 30.71875 50.875 30.71875 47.5625 
z
M 23.875 47.3125 
Q 23.875 50.046875 23.484375 52.171875 
Q 23.09375 54.296875 22.28125 55.703125 
Q 21.484375 57.125 20.15625 57.828125 
Q 18.84375 58.546875 17.046875 58.546875 
Q 15.328125 58.546875 14.0625 57.859375 
Q 12.796875 57.1875 11.984375 55.8125 
Q 11.1875 54.453125 10.796875 52.421875 
Q 10.40625 50.390625 10.40625 47.65625 
Q 10.40625 44.34375 10.859375 42.109375 
Q 11.328125 39.890625 12.171875 38.59375 
Q 13.03125 37.3125 14.328125 36.796875 
Q 15.625 36.28125 17.28125 36.28125 
Q 19.234375 36.28125 20.484375 37.015625 
Q 21.734375 37.75 22.484375 39.1875 
Q 23.25 40.625 23.5625 42.65625 
Q 23.875 44.6875 23.875 47.3125 
z
M 67.96875 15.96875 
Q 67.96875 12.203125 67.140625 9.125 
Q 66.3125 6.0625 64.59375 3.875 
Q 62.890625 1.703125 60.28125 0.484375 
Q 57.671875 -0.734375 54.15625 -0.734375 
Q 50.59375 -0.734375 48.046875 0.390625 
Q 45.515625 1.515625 43.890625 3.640625 
Q 42.28125 5.765625 41.515625 8.8125 
Q 40.765625 11.859375 40.765625 15.765625 
Q 40.765625 19.34375 41.578125 22.359375 
Q 42.390625 25.390625 44.046875 27.578125 
Q 45.703125 29.78125 48.3125 31.046875 
Q 50.921875 32.328125 54.5 32.328125 
Q 58.34375 32.328125 60.953125 31 
Q 63.578125 29.6875 65.140625 27.46875 
Q 66.703125 25.25 67.328125 22.265625 
Q 67.96875 19.28125 67.96875 15.96875 
z
M 61.140625 15.71875 
Q 61.140625 18.453125 60.75 20.578125 
Q 60.359375 22.703125 59.546875 24.109375 
Q 58.734375 25.53125 57.421875 26.234375 
Q 56.109375 26.953125 54.296875 26.953125 
Q 52.59375 26.953125 51.3125 26.265625 
Q 50.046875 25.59375 49.234375 24.21875 
Q 48.4375 22.859375 48.046875 20.828125 
Q 47.65625 18.796875 47.65625 16.0625 
Q 47.65625 12.75 48.109375 10.515625 
Q 48.578125 8.296875 49.4375 7 
Q 50.296875 5.71875 51.578125 5.203125 
Q 52.875 4.6875 54.546875 4.6875 
Q 56.5 4.6875 57.734375 5.421875 
Q 58.984375 6.15625 59.734375 7.59375 
Q 60.5 9.03125 60.8125 11.0625 
Q 61.140625 13.09375 61.140625 15.71875 
z
M 16.890625 -0.390625 
Q 16.65625 -0.828125 16.3125 -1.046875 
Q 15.96875 -1.265625 15.46875 -1.4375 
Q 14.984375 -1.609375 14.296875 -1.6875 
Q 13.625 -1.765625 12.640625 -1.765625 
Q 11.578125 -1.765625 10.90625 -1.5625 
Q 10.25 -1.375 9.984375 -1.046875 
Q 9.71875 -0.734375 9.78125 -0.265625 
Q 9.859375 0.203125 10.25 0.78125 
L 54.203125 63.71875 
Q 54.4375 64.109375 54.78125 64.375 
Q 55.125 64.65625 55.640625 64.796875 
Q 56.15625 64.9375 56.8125 65.015625 
Q 57.46875 65.09375 58.5 65.09375 
Q 59.515625 65.09375 60.171875 64.921875 
Q 60.84375 64.75 61.125 64.40625 
Q 61.421875 64.0625 61.34375 63.578125 
Q 61.28125 63.09375 60.890625 62.546875 
z
" id="Calibri-37"/>
       <path d="M 21.390625 -12.203125 
Q 21.390625 -13.1875 21.109375 -13.84375 
Q 20.84375 -14.5 20.40625 -14.890625 
Q 19.96875 -15.28125 19.40625 -15.453125 
Q 18.84375 -15.625 18.265625 -15.625 
L 5.8125 -15.625 
Q 5.125 -15.625 4.75 -14.96875 
Q 4.390625 -14.3125 4.390625 -12.703125 
Q 4.390625 -11.859375 4.46875 -11.296875 
Q 4.546875 -10.75 4.734375 -10.375 
Q 4.9375 -10.015625 5.203125 -9.859375 
Q 5.46875 -9.71875 5.8125 -9.71875 
L 13.765625 -9.71875 
L 13.765625 62.359375 
L 5.8125 62.359375 
Q 5.125 62.359375 4.75 63.03125 
Q 4.390625 63.71875 4.390625 65.28125 
Q 4.390625 66.109375 4.46875 66.671875 
Q 4.546875 67.234375 4.734375 67.625 
Q 4.9375 68.015625 5.203125 68.15625 
Q 5.46875 68.3125 5.8125 68.3125 
L 18.265625 68.3125 
Q 18.84375 68.3125 19.40625 68.140625 
Q 19.96875 67.96875 20.40625 67.546875 
Q 20.84375 67.140625 21.109375 66.484375 
Q 21.390625 65.828125 21.390625 64.890625 
z
" id="Calibri-93"/>
      </defs>
      <use transform="translate(0 0.6875)" xlink:href="#Calibri-114"/>
      <use transform="translate(34.863281 0.6875)" xlink:href="#Calibri-105"/>
      <use transform="translate(57.8125 0.6875)" xlink:href="#Calibri-115"/>
      <use transform="translate(96.923828 0.6875)" xlink:href="#Calibri-107"/>
      <use transform="translate(142.382812 0.6875)" xlink:href="#Calibri-32"/>
      <use transform="translate(164.990234 0.6875)" xlink:href="#Cambria-Italic-82"/>
      <use transform="translate(224.023438 0.6875)" xlink:href="#Calibri-32"/>
      <use transform="translate(246.630859 0.6875)" xlink:href="#Calibri-91"/>
      <use transform="translate(277.294922 0.6875)" xlink:href="#Calibri-37"/>
      <use transform="translate(348.779297 0.6875)" xlink:href="#Calibri-93"/>
     </g>
    </g>
   </g>
   <g id="matplotlib.axis_2">
    <g id="ytick_1">
     <g id="line2d_13">
      <path clip-path="url(#pf6d63fa8e5)" d="M 22.779237 155.613586 
L 277.298386 155.613586 
" style="fill:none;stroke:#000000;stroke-linecap:square;stroke-opacity:0.1;stroke-width:0.5;"/>
     </g>
     <g id="line2d_14">
      <defs>
       <path d="M 0 0 
L 3 0 
" id="me0dd69e5bd" style="stroke:#000000;stroke-width:0.5;"/>
      </defs>
      <g>
       <use style="stroke:#000000;stroke-width:0.5;" x="22.779237" xlink:href="#me0dd69e5bd" y="155.613586"/>
      </g>
     </g>
     <g id="text_8">
      <!-- 0.0 -->
      <g transform="translate(13.37024 157.737714)scale(0.06246 -0.06246)">
       <defs>
        <path d="M 17.875 5.328125 
Q 17.875 1.859375 16.71875 0.703125 
Q 15.578125 -0.4375 12.546875 -0.4375 
Q 9.625 -0.4375 8.5 0.6875 
Q 7.375 1.8125 7.375 5.171875 
Q 7.375 8.640625 8.515625 9.78125 
Q 9.671875 10.9375 12.703125 10.9375 
Q 15.625 10.9375 16.75 9.8125 
Q 17.875 8.6875 17.875 5.328125 
z
" id="Calibri-46"/>
       </defs>
       <use xlink:href="#Calibri-48"/>
       <use x="50.683594" xlink:href="#Calibri-46"/>
       <use x="75.927734" xlink:href="#Calibri-48"/>
      </g>
     </g>
    </g>
    <g id="ytick_2">
     <g id="line2d_15">
      <path clip-path="url(#pf6d63fa8e5)" d="M 22.779237 122.567175 
L 277.298386 122.567175 
" style="fill:none;stroke:#000000;stroke-linecap:square;stroke-opacity:0.1;stroke-width:0.5;"/>
     </g>
     <g id="line2d_16">
      <g>
       <use style="stroke:#000000;stroke-width:0.5;" x="22.779237" xlink:href="#me0dd69e5bd" y="122.567175"/>
      </g>
     </g>
     <g id="text_9">
      <!-- 0.1 -->
      <g transform="translate(13.37024 124.691303)scale(0.06246 -0.06246)">
       <use xlink:href="#Calibri-48"/>
       <use x="50.683594" xlink:href="#Calibri-46"/>
       <use x="75.927734" xlink:href="#Calibri-49"/>
      </g>
     </g>
    </g>
    <g id="ytick_3">
     <g id="line2d_17">
      <path clip-path="url(#pf6d63fa8e5)" d="M 22.779237 89.520765 
L 277.298386 89.520765 
" style="fill:none;stroke:#000000;stroke-linecap:square;stroke-opacity:0.1;stroke-width:0.5;"/>
     </g>
     <g id="line2d_18">
      <g>
       <use style="stroke:#000000;stroke-width:0.5;" x="22.779237" xlink:href="#me0dd69e5bd" y="89.520765"/>
      </g>
     </g>
     <g id="text_10">
      <!-- 0.2 -->
      <g transform="translate(13.37024 91.644893)scale(0.06246 -0.06246)">
       <use xlink:href="#Calibri-48"/>
       <use x="50.683594" xlink:href="#Calibri-46"/>
       <use x="75.927734" xlink:href="#Calibri-50"/>
      </g>
     </g>
    </g>
    <g id="ytick_4">
     <g id="line2d_19">
      <path clip-path="url(#pf6d63fa8e5)" d="M 22.779237 56.474355 
L 277.298386 56.474355 
" style="fill:none;stroke:#000000;stroke-linecap:square;stroke-opacity:0.1;stroke-width:0.5;"/>
     </g>
     <g id="line2d_20">
      <g>
       <use style="stroke:#000000;stroke-width:0.5;" x="22.779237" xlink:href="#me0dd69e5bd" y="56.474355"/>
      </g>
     </g>
     <g id="text_11">
      <!-- 0.3 -->
      <g transform="translate(13.37024 58.598483)scale(0.06246 -0.06246)">
       <defs>
        <path d="M 44.625 18.0625 
Q 44.625 13.71875 43.109375 10.21875 
Q 41.609375 6.734375 38.765625 4.25 
Q 35.9375 1.765625 31.78125 0.421875 
Q 27.640625 -0.921875 22.40625 -0.921875 
Q 19.234375 -0.921875 16.46875 -0.40625 
Q 13.71875 0.09375 11.5625 0.796875 
Q 9.421875 1.515625 8 2.265625 
Q 6.59375 3.03125 6.21875 3.375 
Q 5.859375 3.71875 5.65625 4.046875 
Q 5.46875 4.390625 5.3125 4.875 
Q 5.171875 5.375 5.09375 6.078125 
Q 5.03125 6.78125 5.03125 7.8125 
Q 5.03125 9.578125 5.375 10.25 
Q 5.71875 10.9375 6.34375 10.9375 
Q 6.78125 10.9375 8.078125 10.15625 
Q 9.375 9.375 11.390625 8.46875 
Q 13.421875 7.5625 16.125 6.78125 
Q 18.84375 6 22.171875 6 
Q 25.390625 6 27.828125 6.828125 
Q 30.28125 7.671875 31.9375 9.171875 
Q 33.59375 10.6875 34.421875 12.765625 
Q 35.25 14.84375 35.25 17.28125 
Q 35.25 19.96875 34.203125 22.109375 
Q 33.15625 24.265625 31.125 25.828125 
Q 29.109375 27.390625 26.140625 28.21875 
Q 23.1875 29.046875 19.4375 29.046875 
L 13.421875 29.046875 
Q 13.03125 29.046875 12.671875 29.21875 
Q 12.3125 29.390625 12.03125 29.78125 
Q 11.765625 30.171875 11.59375 30.8125 
Q 11.421875 31.453125 11.421875 32.46875 
Q 11.421875 33.40625 11.5625 34.015625 
Q 11.71875 34.625 11.984375 34.984375 
Q 12.25 35.359375 12.59375 35.515625 
Q 12.9375 35.6875 13.375 35.6875 
L 18.890625 35.6875 
Q 22.125 35.6875 24.6875 36.515625 
Q 27.25 37.359375 29.03125 38.921875 
Q 30.8125 40.484375 31.765625 42.65625 
Q 32.71875 44.828125 32.71875 47.515625 
Q 32.71875 49.46875 32.078125 51.25 
Q 31.453125 53.03125 30.171875 54.34375 
Q 28.90625 55.671875 26.921875 56.421875 
Q 24.953125 57.171875 22.359375 57.171875 
Q 19.53125 57.171875 17.15625 56.3125 
Q 14.796875 55.46875 12.9375 54.484375 
Q 11.078125 53.515625 9.859375 52.65625 
Q 8.640625 51.8125 8.15625 51.8125 
Q 7.8125 51.8125 7.546875 51.921875 
Q 7.28125 52.046875 7.109375 52.40625 
Q 6.9375 52.78125 6.859375 53.4375 
Q 6.78125 54.109375 6.78125 55.171875 
Q 6.78125 55.90625 6.828125 56.46875 
Q 6.890625 57.03125 7.03125 57.4375 
Q 7.171875 57.859375 7.359375 58.203125 
Q 7.5625 58.546875 8.03125 59 
Q 8.5 59.46875 9.90625 60.34375 
Q 11.328125 61.234375 13.40625 62.078125 
Q 15.484375 62.9375 18.1875 63.515625 
Q 20.90625 64.109375 24.03125 64.109375 
Q 28.421875 64.109375 31.734375 62.984375 
Q 35.0625 61.859375 37.28125 59.8125 
Q 39.5 57.765625 40.59375 54.90625 
Q 41.703125 52.046875 41.703125 48.578125 
Q 41.703125 45.609375 40.921875 43.046875 
Q 40.140625 40.484375 38.625 38.5 
Q 37.109375 36.53125 34.90625 35.125 
Q 32.71875 33.734375 29.828125 33.203125 
L 29.828125 33.109375 
Q 33.109375 32.765625 35.8125 31.46875 
Q 38.53125 30.171875 40.484375 28.21875 
Q 42.4375 26.265625 43.53125 23.65625 
Q 44.625 21.046875 44.625 18.0625 
z
" id="Calibri-51"/>
       </defs>
       <use xlink:href="#Calibri-48"/>
       <use x="50.683594" xlink:href="#Calibri-46"/>
       <use x="75.927734" xlink:href="#Calibri-51"/>
      </g>
     </g>
    </g>
    <g id="ytick_5">
     <g id="line2d_21">
      <path clip-path="url(#pf6d63fa8e5)" d="M 22.779237 23.427945 
L 277.298386 23.427945 
" style="fill:none;stroke:#000000;stroke-linecap:square;stroke-opacity:0.1;stroke-width:0.5;"/>
     </g>
     <g id="line2d_22">
      <g>
       <use style="stroke:#000000;stroke-width:0.5;" x="22.779237" xlink:href="#me0dd69e5bd" y="23.427945"/>
      </g>
     </g>
     <g id="text_12">
      <!-- 0.4 -->
      <g transform="translate(13.37024 25.552073)scale(0.06246 -0.06246)">
       <defs>
        <path d="M 47.796875 17.96875 
Q 47.796875 16.359375 47.3125 15.421875 
Q 46.828125 14.5 45.953125 14.5 
L 38.8125 14.5 
L 38.8125 1.21875 
Q 38.8125 0.828125 38.609375 0.5625 
Q 38.421875 0.296875 37.9375 0.09375 
Q 37.453125 -0.09375 36.671875 -0.1875 
Q 35.890625 -0.296875 34.671875 -0.296875 
Q 33.5 -0.296875 32.71875 -0.1875 
Q 31.9375 -0.09375 31.46875 0.09375 
Q 31 0.296875 30.828125 0.5625 
Q 30.671875 0.828125 30.671875 1.21875 
L 30.671875 14.5 
L 4.59375 14.5 
Q 4 14.5 3.609375 14.640625 
Q 3.21875 14.796875 2.90625 15.1875 
Q 2.59375 15.578125 2.46875 16.3125 
Q 2.34375 17.046875 2.34375 18.21875 
Q 2.34375 19.140625 2.390625 19.875 
Q 2.4375 20.609375 2.578125 21.21875 
Q 2.734375 21.828125 2.96875 22.390625 
Q 3.21875 22.953125 3.5625 23.578125 
L 26.3125 61.96875 
Q 26.5625 62.359375 27.015625 62.640625 
Q 27.484375 62.9375 28.21875 63.125 
Q 28.953125 63.328125 30.03125 63.40625 
Q 31.109375 63.484375 32.5625 63.484375 
Q 34.1875 63.484375 35.375 63.359375 
Q 36.578125 63.234375 37.296875 63.03125 
Q 38.03125 62.84375 38.421875 62.515625 
Q 38.8125 62.203125 38.8125 61.765625 
L 38.8125 21.4375 
L 45.953125 21.4375 
Q 46.78125 21.4375 47.28125 20.578125 
Q 47.796875 19.734375 47.796875 17.96875 
z
M 30.671875 56.109375 
L 30.5625 56.109375 
L 10.015625 21.4375 
L 30.671875 21.4375 
z
" id="Calibri-52"/>
       </defs>
       <use xlink:href="#Calibri-48"/>
       <use x="50.683594" xlink:href="#Calibri-46"/>
       <use x="75.927734" xlink:href="#Calibri-52"/>
      </g>
     </g>
    </g>
    <g id="text_13">
     <!-- $p(R)$ -->
     <g transform="translate(9.39024 87.811913)rotate(-90)scale(0.09 -0.09)">
      <defs>
       <path d="M 10.453125 -8.640625 
Q 9.96875 -10.984375 9.84375 -12.25 
Q 9.71875 -13.53125 9.71875 -14.359375 
Q 9.71875 -15.828125 10.203125 -16.65625 
Q 10.6875 -17.484375 11.71875 -17.921875 
Q 12.75 -18.359375 15.09375 -18.609375 
L 14.703125 -21 
L -0.390625 -21 
L 11.96875 33.296875 
Q 12.890625 37.40625 12.890625 40.328125 
Q 12.890625 41.703125 12.46875 42.453125 
Q 12.0625 43.21875 11.0625 43.578125 
Q 10.0625 43.953125 7.671875 44.09375 
L 8.25 46.6875 
L 19.34375 47.125 
L 22.125 47.125 
L 18.84375 34.421875 
L 19.4375 34.234375 
Q 28.46875 47.46875 37.40625 47.46875 
Q 42.71875 47.46875 45.671875 43.40625 
Q 48.640625 39.359375 48.640625 31.984375 
Q 48.640625 26.703125 47.1875 21.375 
Q 45.75 16.0625 43.1875 11.765625 
Q 40.625 7.46875 37.46875 4.703125 
Q 34.328125 1.953125 30.828125 0.578125 
Q 27.34375 -0.78125 23.484375 -0.78125 
Q 17 -0.78125 12.703125 2.046875 
z
M 16.3125 17 
Q 15.828125 14.40625 15.703125 13.03125 
Q 15.578125 11.671875 15.578125 10.359375 
Q 15.578125 6.546875 17.203125 4.8125 
Q 18.84375 3.078125 22.859375 3.078125 
Q 25.34375 3.078125 27.4375 4.046875 
Q 29.546875 5.03125 31.421875 6.875 
Q 33.296875 8.734375 34.8125 11.375 
Q 36.328125 14.015625 37.515625 17.5 
Q 38.71875 21 39.328125 24.6875 
Q 39.9375 28.375 39.9375 31.59375 
Q 39.9375 36.71875 38.5 39.234375 
Q 37.0625 41.75 33.9375 41.75 
Q 31.453125 41.75 29.03125 40.0625 
Q 26.609375 38.375 23.71875 34.65625 
Q 20.84375 30.953125 19.234375 27.34375 
Q 17.625 23.734375 16.703125 19.046875 
z
" id="Cambria-Italic-112"/>
       <path d="M 36.078125 -21.234375 
Q 27.78125 -21.234375 22.53125 -18.75 
Q 17.28125 -16.265625 14.34375 -11.15625 
Q 11.421875 -6.0625 10.109375 2.09375 
Q 8.796875 10.25 8.796875 24.21875 
Q 8.796875 38.09375 10.078125 46.3125 
Q 11.375 54.546875 14.296875 59.71875 
Q 17.234375 64.890625 22.5 67.46875 
Q 27.78125 70.0625 36.078125 70.0625 
L 36.078125 66.0625 
Q 32.671875 66.0625 30.03125 65.484375 
Q 27.046875 64.796875 24.953125 62.84375 
Q 22.609375 60.6875 21.140625 56.84375 
Q 19.4375 52.34375 18.609375 44.921875 
Q 17.71875 37.0625 17.71875 24.609375 
Q 17.71875 13.625 18.453125 5.921875 
Q 19.1875 -1.765625 20.90625 -6.640625 
Q 22.265625 -10.75 24.3125 -13.03125 
Q 26.125 -15.046875 28.609375 -16.0625 
Q 31.5 -17.234375 36.078125 -17.234375 
z
" id="Cambria-40"/>
       <path d="M 2.09375 70.0625 
Q 10.40625 70.0625 15.65625 67.578125 
Q 20.90625 65.09375 23.828125 59.984375 
Q 26.765625 54.890625 28.078125 46.734375 
Q 29.390625 38.578125 29.390625 24.609375 
Q 29.390625 10.75 28.09375 2.515625 
Q 26.8125 -5.71875 23.875 -10.890625 
Q 20.953125 -16.0625 15.671875 -18.640625 
Q 10.40625 -21.234375 2.09375 -21.234375 
L 2.09375 -17.234375 
Q 5.515625 -17.234375 8.15625 -16.65625 
Q 11.140625 -15.96875 13.234375 -14.015625 
Q 15.578125 -11.859375 17.046875 -8.015625 
Q 18.75 -3.515625 19.578125 3.90625 
Q 20.453125 11.765625 20.453125 24.21875 
Q 20.453125 35.203125 19.71875 42.890625 
Q 19 50.59375 17.28125 55.46875 
Q 15.921875 59.578125 13.875 61.859375 
Q 12.0625 63.875 9.578125 64.890625 
Q 6.6875 66.0625 2.09375 66.0625 
z
" id="Cambria-41"/>
      </defs>
      <use transform="translate(0 0.9375)" xlink:href="#Cambria-Italic-112"/>
      <use transform="translate(52.685547 0.9375)" xlink:href="#Cambria-40"/>
      <use transform="translate(90.869141 0.9375)" xlink:href="#Cambria-Italic-82"/>
      <use transform="translate(149.902344 0.9375)" xlink:href="#Cambria-41"/>
     </g>
    </g>
   </g>
   <g id="patch_5">
    <path clip-path="url(#pf6d63fa8e5)" d="M 22.779237 155.613586 
L 22.779237 155.613586 
L 27.973506 155.613586 
L 27.973506 155.613586 
L 33.167774 155.613586 
L 33.167774 155.613586 
L 38.362042 155.613586 
L 38.362042 155.613586 
L 43.556311 155.613586 
L 43.556311 155.613586 
L 48.750579 155.613586 
L 48.750579 155.613586 
L 53.944847 155.613586 
L 53.944847 155.613586 
L 59.139116 155.613586 
L 59.139116 155.613586 
L 64.333384 155.613586 
L 64.333384 155.613586 
L 69.527652 155.613586 
L 69.527652 155.548815 
L 74.721921 155.548815 
L 74.721921 155.354502 
L 79.916189 155.354502 
L 79.916189 154.965876 
L 85.110457 154.965876 
L 85.110457 152.763663 
L 90.304726 152.763663 
L 90.304726 146.999047 
L 95.498994 146.999047 
L 95.498994 141.040119 
L 100.693262 141.040119 
L 100.693262 129.187032 
L 105.887531 129.187032 
L 105.887531 112.799978 
L 111.081799 112.799978 
L 111.081799 95.635673 
L 116.276067 95.635673 
L 116.276067 80.932664 
L 121.470336 80.932664 
L 121.470336 76.204384 
L 126.664604 76.204384 
L 126.664604 74.520339 
L 131.858872 74.520339 
L 131.858872 83.458732 
L 137.053141 83.458732 
L 137.053141 98.032199 
L 142.247409 98.032199 
L 142.247409 111.893185 
L 147.441677 111.893185 
L 147.441677 124.32921 
L 152.635946 124.32921 
L 152.635946 134.822106 
L 157.830214 134.822106 
L 157.830214 142.724164 
L 163.024482 142.724164 
L 163.024482 147.970612 
L 168.218751 147.970612 
L 168.218751 150.626221 
L 173.413019 150.626221 
L 173.413019 153.346602 
L 178.607287 153.346602 
L 178.607287 154.512479 
L 183.801556 154.512479 
L 183.801556 154.965876 
L 188.995824 154.965876 
L 188.995824 154.642021 
L 194.190092 154.642021 
L 194.190092 155.354502 
L 199.384361 155.354502 
L 199.384361 155.613586 
L 204.578629 155.613586 
L 204.578629 155.613586 
L 209.772897 155.613586 
L 209.772897 155.613586 
L 214.967166 155.613586 
L 214.967166 155.613586 
L 220.161434 155.613586 
L 220.161434 155.613586 
L 225.355702 155.613586 
L 225.355702 155.613586 
L 230.549971 155.613586 
L 230.549971 155.613586 
L 235.744239 155.613586 
L 235.744239 155.613586 
L 240.938507 155.613586 
L 240.938507 155.613586 
L 246.132776 155.613586 
L 246.132776 155.613586 
L 251.327044 155.613586 
L 251.327044 155.613586 
L 256.521312 155.613586 
L 256.521312 155.613586 
L 261.715581 155.613586 
L 261.715581 155.613586 
L 266.909849 155.613586 
L 266.909849 155.613586 
L 272.104117 155.613586 
L 272.104117 155.613586 
L 277.298386 155.613586 
L 277.298386 155.613586 
" style="fill:none;stroke:#005ea8;stroke-linejoin:miter;stroke-width:1.5;"/>
   </g>
   <g id="patch_6">
    <path clip-path="url(#pf6d63fa8e5)" d="M 22.779237 155.613586 
L 22.779237 155.613586 
L 27.973506 155.613586 
L 27.973506 155.613586 
L 33.167774 155.613586 
L 33.167774 155.613586 
L 38.362042 155.613586 
L 38.362042 155.613586 
L 43.556311 155.613586 
L 43.556311 155.613586 
L 48.750579 155.613586 
L 48.750579 155.613586 
L 53.944847 155.613586 
L 53.944847 155.613586 
L 59.139116 155.613586 
L 59.139116 155.613586 
L 64.333384 155.613586 
L 64.333384 155.613586 
L 69.527652 155.613586 
L 69.527652 155.613586 
L 74.721921 155.613586 
L 74.721921 155.613586 
L 79.916189 155.613586 
L 79.916189 155.613586 
L 85.110457 155.613586 
L 85.110457 155.548678 
L 90.304726 155.548678 
L 90.304726 155.353956 
L 95.498994 155.353956 
L 95.498994 155.224142 
L 100.693262 155.224142 
L 100.693262 154.834698 
L 105.887531 154.834698 
L 105.887531 153.147109 
L 111.081799 153.147109 
L 111.081799 151.913871 
L 116.276067 151.913871 
L 116.276067 149.187766 
L 121.470336 149.187766 
L 121.470336 144.449535 
L 126.664604 144.449535 
L 126.664604 139.646397 
L 131.858872 139.646397 
L 131.858872 135.557239 
L 137.053141 135.557239 
L 137.053141 127.249109 
L 142.247409 127.249109 
L 142.247409 122.445971 
L 147.441677 122.445971 
L 147.441677 115.176357 
L 152.635946 115.176357 
L 152.635946 111.801179 
L 157.830214 111.801179 
L 157.830214 110.11359 
L 163.024482 110.11359 
L 163.024482 111.346828 
L 168.218751 111.346828 
L 168.218751 108.490908 
L 173.413019 108.490908 
L 173.413019 113.42386 
L 178.607287 113.42386 
L 178.607287 112.25553 
L 183.801556 112.25553 
L 183.801556 117.772648 
L 188.995824 117.772648 
L 188.995824 122.900322 
L 194.190092 122.900322 
L 194.190092 129.13142 
L 199.384361 129.13142 
L 199.384361 132.506598 
L 204.578629 132.506598 
L 204.578629 133.86965 
L 209.772897 133.86965 
L 209.772897 140.944543 
L 214.967166 140.944543 
L 214.967166 142.047966 
L 220.161434 142.047966 
L 220.161434 144.189906 
L 225.355702 144.189906 
L 225.355702 145.877495 
L 230.549971 145.877495 
L 230.549971 148.538693 
L 235.744239 148.538693 
L 235.744239 150.875355 
L 240.938507 150.875355 
L 240.938507 151.134984 
L 246.132776 151.134984 
L 246.132776 152.043686 
L 251.327044 152.043686 
L 251.327044 153.212017 
L 256.521312 153.212017 
L 256.521312 154.185626 
L 261.715581 154.185626 
L 261.715581 154.445255 
L 266.909849 154.445255 
L 266.909849 154.639977 
L 272.104117 154.639977 
L 272.104117 154.510162 
L 277.298386 154.510162 
L 277.298386 155.613586 
" style="fill:none;stroke:#f17900;stroke-linejoin:miter;stroke-width:1.5;"/>
   </g>
   <g id="line2d_23">
    <path clip-path="url(#pf6d63fa8e5)" d="M 68.389069 155.613586 
L 68.389069 3.00024 
" style="fill:none;stroke:#000000;stroke-dasharray:3.7,1.6;stroke-dashoffset:0;"/>
   </g>
   <g id="line2d_24">
    <path clip-path="url(#pf6d63fa8e5)" d="M 124.281474 155.613586 
L 124.281474 3.00024 
" style="fill:none;stroke:#000000;stroke-dasharray:1,1.65;stroke-dashoffset:0;"/>
   </g>
   <g id="patch_7">
    <path d="M 22.779237 155.613586 
L 22.779237 3.00024 
" style="fill:none;stroke:#000000;stroke-linecap:square;stroke-linejoin:miter;stroke-width:0.5;"/>
   </g>
   <g id="patch_8">
    <path d="M 277.298386 155.613586 
L 277.298386 3.00024 
" style="fill:none;stroke:#000000;stroke-linecap:square;stroke-linejoin:miter;stroke-width:0.5;"/>
   </g>
   <g id="patch_9">
    <path d="M 22.779237 155.613586 
L 277.298386 155.613586 
" style="fill:none;stroke:#000000;stroke-linecap:square;stroke-linejoin:miter;stroke-width:0.5;"/>
   </g>
   <g id="patch_10">
    <path d="M 22.779237 3.00024 
L 277.298386 3.00024 
" style="fill:none;stroke:#000000;stroke-linecap:square;stroke-linejoin:miter;stroke-width:0.5;"/>
   </g>
   <g id="legend_1">
    <g id="patch_11">
     <path d="M 171.070517 44.641541 
L 272.926186 44.641541 
Q 274.175386 44.641541 274.175386 43.392341 
L 274.175386 7.37244 
Q 274.175386 6.12324 272.926186 6.12324 
L 171.070517 6.12324 
Q 169.821317 6.12324 169.821317 7.37244 
L 169.821317 43.392341 
Q 169.821317 44.641541 171.070517 44.641541 
z
" style="fill:#ffffff;opacity:0.8;stroke:#cccccc;stroke-linejoin:miter;"/>
    </g>
    <g id="line2d_25">
     <path d="M 171.070517 9.55854 
L 183.562517 9.55854 
" style="fill:none;stroke:#000000;stroke-dasharray:3.7,1.6;stroke-dashoffset:0;"/>
    </g>
    <g id="line2d_26"/>
    <g id="text_14">
     <!-- early   LNL II (-), Pouymayou et al -->
     <g transform="translate(188.559317 11.74464)scale(0.06246 -0.06246)">
      <defs>
       <path d="M 44.96875 25.09375 
Q 44.96875 23.1875 44.015625 22.375 
Q 43.0625 21.578125 41.84375 21.578125 
L 13.03125 21.578125 
Q 13.03125 17.921875 13.765625 14.984375 
Q 14.5 12.0625 16.203125 9.953125 
Q 17.921875 7.859375 20.65625 6.734375 
Q 23.390625 5.609375 27.34375 5.609375 
Q 30.46875 5.609375 32.90625 6.125 
Q 35.359375 6.640625 37.140625 7.265625 
Q 38.921875 7.90625 40.0625 8.421875 
Q 41.21875 8.9375 41.796875 8.9375 
Q 42.140625 8.9375 42.40625 8.765625 
Q 42.671875 8.59375 42.8125 8.25 
Q 42.96875 7.90625 43.03125 7.296875 
Q 43.109375 6.6875 43.109375 5.8125 
Q 43.109375 5.171875 43.0625 4.703125 
Q 43.015625 4.25 42.9375 3.875 
Q 42.875 3.515625 42.703125 3.21875 
Q 42.53125 2.9375 42.265625 2.65625 
Q 42 2.390625 40.671875 1.78125 
Q 39.359375 1.171875 37.25 0.578125 
Q 35.15625 0 32.390625 -0.453125 
Q 29.640625 -0.921875 26.515625 -0.921875 
Q 21.09375 -0.921875 17.015625 0.578125 
Q 12.9375 2.09375 10.15625 5.078125 
Q 7.375 8.0625 5.953125 12.546875 
Q 4.546875 17.046875 4.546875 23 
Q 4.546875 28.65625 6 33.171875 
Q 7.46875 37.703125 10.21875 40.84375 
Q 12.984375 44 16.890625 45.671875 
Q 20.796875 47.359375 25.640625 47.359375 
Q 30.8125 47.359375 34.453125 45.703125 
Q 38.09375 44.046875 40.4375 41.234375 
Q 42.78125 38.421875 43.875 34.640625 
Q 44.96875 30.859375 44.96875 26.5625 
z
M 36.859375 27.484375 
Q 37.015625 33.84375 34.0625 37.453125 
Q 31.109375 41.0625 25.296875 41.0625 
Q 22.3125 41.0625 20.0625 39.9375 
Q 17.828125 38.8125 16.3125 36.953125 
Q 14.796875 35.109375 13.96875 32.640625 
Q 13.140625 30.171875 13.03125 27.484375 
z
" id="Calibri-101"/>
       <path d="M 40.578125 1.171875 
Q 40.578125 0.59375 40.1875 0.296875 
Q 39.796875 0 39.109375 -0.140625 
Q 38.421875 -0.296875 37.109375 -0.296875 
Q 35.84375 -0.296875 35.078125 -0.140625 
Q 34.328125 0 33.984375 0.296875 
Q 33.640625 0.59375 33.640625 1.171875 
L 33.640625 5.5625 
Q 30.765625 2.484375 27.21875 0.78125 
Q 23.6875 -0.921875 19.734375 -0.921875 
Q 16.265625 -0.921875 13.453125 -0.015625 
Q 10.640625 0.875 8.65625 2.578125 
Q 6.6875 4.296875 5.59375 6.78125 
Q 4.5 9.28125 4.5 12.453125 
Q 4.5 16.15625 6 18.890625 
Q 7.515625 21.625 10.34375 23.4375 
Q 13.1875 25.25 17.28125 26.140625 
Q 21.390625 27.046875 26.515625 27.046875 
L 32.5625 27.046875 
L 32.5625 30.46875 
Q 32.5625 33.015625 32.03125 34.96875 
Q 31.5 36.921875 30.296875 38.203125 
Q 29.109375 39.5 27.203125 40.15625 
Q 25.296875 40.828125 22.515625 40.828125 
Q 19.53125 40.828125 17.15625 40.109375 
Q 14.796875 39.40625 13.015625 38.546875 
Q 11.234375 37.703125 10.03125 36.984375 
Q 8.84375 36.28125 8.25 36.28125 
Q 7.859375 36.28125 7.5625 36.46875 
Q 7.28125 36.671875 7.0625 37.0625 
Q 6.84375 37.453125 6.734375 38.0625 
Q 6.640625 38.671875 6.640625 39.40625 
Q 6.640625 40.625 6.8125 41.328125 
Q 6.984375 42.046875 7.640625 42.671875 
Q 8.296875 43.3125 9.90625 44.15625 
Q 11.53125 45.015625 13.625 45.71875 
Q 15.71875 46.4375 18.203125 46.890625 
Q 20.703125 47.359375 23.25 47.359375 
Q 27.984375 47.359375 31.296875 46.28125 
Q 34.625 45.21875 36.671875 43.140625 
Q 38.71875 41.0625 39.640625 37.984375 
Q 40.578125 34.90625 40.578125 30.8125 
z
M 32.5625 21.234375 
L 25.6875 21.234375 
Q 22.359375 21.234375 19.921875 20.671875 
Q 17.484375 20.125 15.875 19.015625 
Q 14.265625 17.921875 13.5 16.375 
Q 12.75 14.84375 12.75 12.84375 
Q 12.75 9.421875 14.921875 7.390625 
Q 17.09375 5.375 21 5.375 
Q 24.171875 5.375 26.875 6.984375 
Q 29.59375 8.59375 32.5625 11.921875 
z
" id="Calibri-97"/>
       <path d="M 15.53125 1.21875 
Q 15.53125 0.828125 15.328125 0.5625 
Q 15.140625 0.296875 14.703125 0.09375 
Q 14.265625 -0.09375 13.484375 -0.1875 
Q 12.703125 -0.296875 11.46875 -0.296875 
Q 10.296875 -0.296875 9.515625 -0.1875 
Q 8.734375 -0.09375 8.265625 0.09375 
Q 7.8125 0.296875 7.640625 0.5625 
Q 7.46875 0.828125 7.46875 1.21875 
L 7.46875 66.453125 
Q 7.46875 66.84375 7.640625 67.140625 
Q 7.8125 67.4375 8.265625 67.625 
Q 8.734375 67.828125 9.515625 67.921875 
Q 10.296875 68.015625 11.46875 68.015625 
Q 12.703125 68.015625 13.484375 67.921875 
Q 14.265625 67.828125 14.703125 67.625 
Q 15.140625 67.4375 15.328125 67.140625 
Q 15.53125 66.84375 15.53125 66.453125 
z
" id="Calibri-108"/>
       <path d="M 27.484375 0 
L 21.625 -16.15625 
Q 21.34375 -16.9375 20.140625 -17.359375 
Q 18.953125 -17.78125 16.5 -17.78125 
Q 15.234375 -17.78125 14.453125 -17.65625 
Q 13.671875 -17.53125 13.25 -17.234375 
Q 12.84375 -16.9375 12.796875 -16.453125 
Q 12.75 -15.96875 13.03125 -15.28125 
L 19.09375 0 
Q 18.65625 0.203125 18.265625 0.640625 
Q 17.875 1.078125 17.71875 1.5625 
L 2.046875 43.5625 
Q 1.65625 44.578125 1.65625 45.15625 
Q 1.65625 45.75 2.046875 46.09375 
Q 2.4375 46.4375 3.3125 46.5625 
Q 4.203125 46.6875 5.671875 46.6875 
Q 7.125 46.6875 7.953125 46.609375 
Q 8.796875 46.53125 9.28125 46.328125 
Q 9.765625 46.140625 9.984375 45.765625 
Q 10.203125 45.40625 10.453125 44.78125 
L 23 9.515625 
L 23.140625 9.515625 
L 35.25 44.96875 
Q 35.546875 45.90625 35.953125 46.171875 
Q 36.375 46.4375 37.203125 46.5625 
Q 38.03125 46.6875 39.59375 46.6875 
Q 40.96875 46.6875 41.84375 46.5625 
Q 42.71875 46.4375 43.140625 46.09375 
Q 43.5625 45.75 43.5625 45.15625 
Q 43.5625 44.578125 43.265625 43.703125 
z
" id="Calibri-121"/>
       <path d="M 41.15625 3.65625 
Q 41.15625 2.6875 41.0625 2.03125 
Q 40.96875 1.375 40.75 0.90625 
Q 40.53125 0.4375 40.203125 0.21875 
Q 39.890625 0 39.453125 0 
L 11.53125 0 
Q 10.40625 0 9.40625 0.75 
Q 8.40625 1.515625 8.40625 3.421875 
L 8.40625 61.921875 
Q 8.40625 62.3125 8.59375 62.59375 
Q 8.796875 62.890625 9.28125 63.0625 
Q 9.765625 63.234375 10.59375 63.359375 
Q 11.421875 63.484375 12.59375 63.484375 
Q 13.8125 63.484375 14.625 63.359375 
Q 15.4375 63.234375 15.921875 63.0625 
Q 16.40625 62.890625 16.59375 62.59375 
Q 16.796875 62.3125 16.796875 61.921875 
L 16.796875 7.28125 
L 39.453125 7.28125 
Q 39.890625 7.28125 40.203125 7.0625 
Q 40.53125 6.84375 40.75 6.421875 
Q 40.96875 6 41.0625 5.3125 
Q 41.15625 4.640625 41.15625 3.65625 
z
" id="Calibri-76"/>
       <path d="M 56.15625 3.46875 
Q 56.15625 2.484375 55.828125 1.796875 
Q 55.515625 1.125 55 0.6875 
Q 54.5 0.25 53.859375 0.046875 
Q 53.21875 -0.140625 52.59375 -0.140625 
L 49.90625 -0.140625 
Q 48.640625 -0.140625 47.6875 0.125 
Q 46.734375 0.390625 45.875 1.09375 
Q 45.015625 1.8125 44.15625 3.03125 
Q 43.3125 4.25 42.28125 6.15625 
L 22.359375 42.09375 
Q 20.796875 44.875 19.203125 47.921875 
Q 17.625 50.984375 16.265625 53.859375 
L 16.15625 53.859375 
Q 16.265625 50.34375 16.3125 46.671875 
Q 16.359375 43.015625 16.359375 39.40625 
L 16.359375 1.265625 
Q 16.359375 0.921875 16.15625 0.609375 
Q 15.96875 0.296875 15.5 0.125 
Q 15.046875 -0.046875 14.28125 -0.171875 
Q 13.53125 -0.296875 12.359375 -0.296875 
Q 11.1875 -0.296875 10.421875 -0.171875 
Q 9.671875 -0.046875 9.234375 0.125 
Q 8.796875 0.296875 8.59375 0.609375 
Q 8.40625 0.921875 8.40625 1.265625 
L 8.40625 59.578125 
Q 8.40625 61.53125 9.46875 62.359375 
Q 10.546875 63.1875 11.8125 63.1875 
L 15.828125 63.1875 
Q 17.234375 63.1875 18.1875 62.9375 
Q 19.140625 62.703125 19.890625 62.140625 
Q 20.65625 61.578125 21.359375 60.578125 
Q 22.078125 59.578125 22.90625 58.0625 
L 38.234375 30.328125 
Q 39.65625 27.78125 40.96875 25.359375 
Q 42.28125 22.953125 43.5 20.609375 
Q 44.734375 18.265625 45.921875 15.984375 
Q 47.125 13.71875 48.296875 11.421875 
L 48.34375 11.421875 
Q 48.25 15.28125 48.21875 19.453125 
Q 48.1875 23.640625 48.1875 27.484375 
L 48.1875 61.765625 
Q 48.1875 62.109375 48.375 62.40625 
Q 48.578125 62.703125 49.046875 62.921875 
Q 49.515625 63.140625 50.265625 63.234375 
Q 51.03125 63.328125 52.25 63.328125 
Q 53.328125 63.328125 54.109375 63.234375 
Q 54.890625 63.140625 55.328125 62.921875 
Q 55.765625 62.703125 55.953125 62.40625 
Q 56.15625 62.109375 56.15625 61.765625 
z
" id="Calibri-78"/>
       <path d="M 16.796875 1.265625 
Q 16.796875 0.875 16.59375 0.578125 
Q 16.40625 0.296875 15.921875 0.125 
Q 15.4375 -0.046875 14.625 -0.171875 
Q 13.8125 -0.296875 12.59375 -0.296875 
Q 11.421875 -0.296875 10.59375 -0.171875 
Q 9.765625 -0.046875 9.28125 0.125 
Q 8.796875 0.296875 8.59375 0.578125 
Q 8.40625 0.875 8.40625 1.265625 
L 8.40625 61.921875 
Q 8.40625 62.3125 8.625 62.59375 
Q 8.84375 62.890625 9.34375 63.0625 
Q 9.859375 63.234375 10.65625 63.359375 
Q 11.46875 63.484375 12.59375 63.484375 
Q 13.8125 63.484375 14.625 63.359375 
Q 15.4375 63.234375 15.921875 63.0625 
Q 16.40625 62.890625 16.59375 62.59375 
Q 16.796875 62.3125 16.796875 61.921875 
z
" id="Calibri-73"/>
       <path d="M 24.171875 67.28125 
Q 19.53125 57.46875 17.25 47.140625 
Q 14.984375 36.8125 14.984375 26.375 
Q 14.984375 15.875 17.296875 5.5625 
Q 19.625 -4.734375 24.078125 -14.65625 
Q 24.3125 -15.234375 24.328125 -15.640625 
Q 24.359375 -16.0625 24.015625 -16.328125 
Q 23.6875 -16.609375 22.96875 -16.71875 
Q 22.265625 -16.84375 21.046875 -16.84375 
Q 20.171875 -16.84375 19.53125 -16.796875 
Q 18.890625 -16.75 18.421875 -16.59375 
Q 17.96875 -16.453125 17.671875 -16.25 
Q 17.390625 -16.0625 17.234375 -15.828125 
Q 14.59375 -10.84375 12.59375 -5.734375 
Q 10.59375 -0.640625 9.21875 4.625 
Q 7.859375 9.90625 7.171875 15.296875 
Q 6.5 20.703125 6.5 26.21875 
Q 6.5 31.734375 7.25 37.109375 
Q 8.015625 42.484375 9.40625 47.78125 
Q 10.796875 53.078125 12.796875 58.203125 
Q 14.796875 63.328125 17.28125 68.359375 
Q 17.328125 68.5625 17.546875 68.703125 
Q 17.78125 68.84375 18.171875 68.984375 
Q 18.5625 69.140625 19.234375 69.203125 
Q 19.921875 69.28125 21 69.28125 
Q 22.125 69.28125 22.796875 69.140625 
Q 23.484375 69 23.875 68.75 
Q 24.265625 68.5 24.3125 68.109375 
Q 24.359375 67.71875 24.171875 67.28125 
z
" id="Calibri-40"/>
       <path d="M 27.25 24.65625 
Q 27.25 22.75 26.8125 22.015625 
Q 26.375 21.296875 25.53125 21.296875 
L 5.125 21.296875 
Q 4.25 21.296875 3.8125 22.046875 
Q 3.375 22.796875 3.375 24.65625 
Q 3.375 26.515625 3.8125 27.25 
Q 4.25 27.984375 5.125 27.984375 
L 25.53125 27.984375 
Q 25.921875 27.984375 26.234375 27.828125 
Q 26.5625 27.6875 26.78125 27.265625 
Q 27 26.859375 27.125 26.21875 
Q 27.25 25.59375 27.25 24.65625 
z
" id="Calibri-45"/>
       <path d="M 23.78125 26.21875 
Q 23.78125 20.703125 23.09375 15.296875 
Q 22.40625 9.90625 21.03125 4.625 
Q 19.671875 -0.640625 17.6875 -5.734375 
Q 15.71875 -10.84375 13.09375 -15.828125 
Q 12.9375 -16.0625 12.640625 -16.25 
Q 12.359375 -16.453125 11.890625 -16.59375 
Q 11.421875 -16.75 10.78125 -16.796875 
Q 10.15625 -16.84375 9.28125 -16.84375 
Q 8.015625 -16.84375 7.296875 -16.71875 
Q 6.59375 -16.609375 6.265625 -16.328125 
Q 5.953125 -16.0625 5.96875 -15.640625 
Q 6 -15.234375 6.25 -14.65625 
Q 10.75 -4.78125 13.03125 5.546875 
Q 15.328125 15.875 15.328125 26.375 
Q 15.328125 36.8125 13.03125 47.140625 
Q 10.75 57.46875 6.15625 67.28125 
Q 5.953125 67.71875 6 68.109375 
Q 6.0625 68.5 6.453125 68.75 
Q 6.84375 69 7.515625 69.140625 
Q 8.203125 69.28125 9.328125 69.28125 
Q 10.359375 69.28125 11.03125 69.203125 
Q 11.71875 69.140625 12.125 68.984375 
Q 12.546875 68.84375 12.734375 68.703125 
Q 12.9375 68.5625 13.03125 68.359375 
Q 18.0625 58.34375 20.921875 47.765625 
Q 23.78125 37.203125 23.78125 26.21875 
z
" id="Calibri-41"/>
       <path d="M 18.109375 6.984375 
Q 18.109375 5.46875 17.96875 4.203125 
Q 17.828125 2.9375 17.484375 1.8125 
Q 17.140625 0.6875 16.578125 -0.40625 
Q 16.015625 -1.515625 15.1875 -2.734375 
L 8.5 -12.796875 
Q 8.25 -13.140625 7.9375 -13.375 
Q 7.625 -13.625 7.15625 -13.8125 
Q 6.6875 -14.015625 6.078125 -14.078125 
Q 5.46875 -14.15625 4.546875 -14.15625 
Q 3.71875 -14.15625 3.15625 -14.078125 
Q 2.59375 -14.015625 2.34375 -13.84375 
Q 2.09375 -13.671875 2.0625 -13.375 
Q 2.046875 -13.09375 2.25 -12.703125 
L 8.734375 0.734375 
L 8.734375 6.984375 
Q 8.734375 8.296875 9 9.078125 
Q 9.28125 9.859375 9.859375 10.25 
Q 10.453125 10.640625 11.328125 10.78125 
Q 12.203125 10.9375 13.484375 10.9375 
Q 14.703125 10.9375 15.578125 10.78125 
Q 16.453125 10.640625 17.015625 10.25 
Q 17.578125 9.859375 17.84375 9.078125 
Q 18.109375 8.296875 18.109375 6.984375 
z
" id="Calibri-44"/>
       <path d="M 47.21875 44.671875 
Q 47.21875 39.9375 45.65625 36.125 
Q 44.09375 32.328125 41.1875 29.640625 
Q 38.28125 26.953125 34.046875 25.484375 
Q 29.828125 24.03125 23.96875 24.03125 
L 16.796875 24.03125 
L 16.796875 1.265625 
Q 16.796875 0.875 16.578125 0.578125 
Q 16.359375 0.296875 15.890625 0.125 
Q 15.4375 -0.046875 14.625 -0.171875 
Q 13.8125 -0.296875 12.59375 -0.296875 
Q 11.375 -0.296875 10.5625 -0.171875 
Q 9.765625 -0.046875 9.28125 0.125 
Q 8.796875 0.296875 8.59375 0.578125 
Q 8.40625 0.875 8.40625 1.265625 
L 8.40625 59.578125 
Q 8.40625 61.53125 9.421875 62.359375 
Q 10.453125 63.1875 11.71875 63.1875 
L 25.25 63.1875 
Q 27.296875 63.1875 29.171875 63.015625 
Q 31.0625 62.84375 33.625 62.28125 
Q 36.1875 61.71875 38.84375 60.171875 
Q 41.5 58.640625 43.359375 56.390625 
Q 45.21875 54.15625 46.21875 51.203125 
Q 47.21875 48.25 47.21875 44.671875 
z
M 38.375 44 
Q 38.375 47.859375 36.9375 50.4375 
Q 35.5 53.03125 33.375 54.296875 
Q 31.25 55.5625 28.96875 55.90625 
Q 26.703125 56.25 24.5625 56.25 
L 16.796875 56.25 
L 16.796875 30.90625 
L 24.359375 30.90625 
Q 28.171875 30.90625 30.6875 31.875 
Q 33.203125 32.859375 34.90625 34.59375 
Q 36.625 36.328125 37.5 38.734375 
Q 38.375 41.15625 38.375 44 
z
" id="Calibri-80"/>
       <path d="M 48.34375 23.6875 
Q 48.34375 18.3125 46.921875 13.796875 
Q 45.515625 9.28125 42.703125 6 
Q 39.890625 2.734375 35.671875 0.90625 
Q 31.453125 -0.921875 25.875 -0.921875 
Q 20.453125 -0.921875 16.421875 0.6875 
Q 12.40625 2.296875 9.71875 5.375 
Q 7.03125 8.453125 5.703125 12.84375 
Q 4.390625 17.234375 4.390625 22.796875 
Q 4.390625 28.171875 5.78125 32.6875 
Q 7.171875 37.203125 9.984375 40.46875 
Q 12.796875 43.75 16.984375 45.546875 
Q 21.1875 47.359375 26.8125 47.359375 
Q 32.234375 47.359375 36.25 45.75 
Q 40.28125 44.140625 42.96875 41.0625 
Q 45.65625 37.984375 47 33.59375 
Q 48.34375 29.203125 48.34375 23.6875 
z
M 39.84375 23.140625 
Q 39.84375 26.703125 39.1875 29.875 
Q 38.53125 33.0625 37.015625 35.453125 
Q 35.5 37.84375 32.90625 39.234375 
Q 30.328125 40.625 26.46875 40.625 
Q 22.90625 40.625 20.34375 39.359375 
Q 17.78125 38.09375 16.109375 35.765625 
Q 14.453125 33.453125 13.640625 30.265625 
Q 12.84375 27.09375 12.84375 23.34375 
Q 12.84375 19.734375 13.5 16.546875 
Q 14.15625 13.375 15.6875 11 
Q 17.234375 8.640625 19.8125 7.25 
Q 22.40625 5.859375 26.265625 5.859375 
Q 29.78125 5.859375 32.375 7.125 
Q 34.96875 8.40625 36.625 10.6875 
Q 38.28125 12.984375 39.0625 16.15625 
Q 39.84375 19.34375 39.84375 23.140625 
z
" id="Calibri-111"/>
       <path d="M 45.125 1.21875 
Q 45.125 0.828125 44.953125 0.5625 
Q 44.78125 0.296875 44.328125 0.09375 
Q 43.890625 -0.09375 43.1875 -0.1875 
Q 42.484375 -0.296875 41.453125 -0.296875 
Q 40.328125 -0.296875 39.625 -0.1875 
Q 38.921875 -0.09375 38.5 0.09375 
Q 38.09375 0.296875 37.9375 0.5625 
Q 37.796875 0.828125 37.796875 1.21875 
L 37.796875 7.03125 
Q 34.03125 2.875 30.359375 0.96875 
Q 26.703125 -0.921875 22.953125 -0.921875 
Q 18.5625 -0.921875 15.546875 0.53125 
Q 12.546875 2 10.6875 4.515625 
Q 8.84375 7.03125 8.03125 10.375 
Q 7.234375 13.71875 7.234375 18.5 
L 7.234375 45.171875 
Q 7.234375 45.5625 7.390625 45.828125 
Q 7.5625 46.09375 8.046875 46.3125 
Q 8.546875 46.53125 9.328125 46.609375 
Q 10.109375 46.6875 11.28125 46.6875 
Q 12.453125 46.6875 13.234375 46.609375 
Q 14.015625 46.53125 14.46875 46.3125 
Q 14.9375 46.09375 15.125 45.828125 
Q 15.328125 45.5625 15.328125 45.171875 
L 15.328125 19.578125 
Q 15.328125 15.71875 15.890625 13.390625 
Q 16.453125 11.078125 17.59375 9.4375 
Q 18.75 7.8125 20.5 6.90625 
Q 22.265625 6 24.609375 6 
Q 27.640625 6 30.640625 8.140625 
Q 33.640625 10.296875 37.015625 14.453125 
L 37.015625 45.171875 
Q 37.015625 45.5625 37.1875 45.828125 
Q 37.359375 46.09375 37.84375 46.3125 
Q 38.328125 46.53125 39.078125 46.609375 
Q 39.84375 46.6875 41.0625 46.6875 
Q 42.234375 46.6875 43.015625 46.609375 
Q 43.796875 46.53125 44.234375 46.3125 
Q 44.671875 46.09375 44.890625 45.828125 
Q 45.125 45.5625 45.125 45.171875 
z
" id="Calibri-117"/>
       <path d="M 72.65625 1.21875 
Q 72.65625 0.828125 72.453125 0.5625 
Q 72.265625 0.296875 71.828125 0.09375 
Q 71.390625 -0.09375 70.609375 -0.1875 
Q 69.828125 -0.296875 68.65625 -0.296875 
Q 67.4375 -0.296875 66.65625 -0.1875 
Q 65.875 -0.09375 65.40625 0.09375 
Q 64.9375 0.296875 64.734375 0.5625 
Q 64.546875 0.828125 64.546875 1.21875 
L 64.546875 27.9375 
Q 64.546875 30.71875 64.0625 33 
Q 63.578125 35.296875 62.5 36.953125 
Q 61.421875 38.625 59.765625 39.5 
Q 58.109375 40.375 55.859375 40.375 
Q 53.078125 40.375 50.265625 38.21875 
Q 47.46875 36.078125 44.09375 31.9375 
L 44.09375 1.21875 
Q 44.09375 0.828125 43.890625 0.5625 
Q 43.703125 0.296875 43.234375 0.09375 
Q 42.78125 -0.09375 42 -0.1875 
Q 41.21875 -0.296875 40.046875 -0.296875 
Q 38.921875 -0.296875 38.109375 -0.1875 
Q 37.3125 -0.09375 36.84375 0.09375 
Q 36.375 0.296875 36.203125 0.5625 
Q 36.03125 0.828125 36.03125 1.21875 
L 36.03125 27.9375 
Q 36.03125 30.71875 35.5 33 
Q 34.96875 35.296875 33.890625 36.953125 
Q 32.8125 38.625 31.171875 39.5 
Q 29.546875 40.375 27.296875 40.375 
Q 24.515625 40.375 21.671875 38.21875 
Q 18.84375 36.078125 15.53125 31.9375 
L 15.53125 1.21875 
Q 15.53125 0.828125 15.328125 0.5625 
Q 15.140625 0.296875 14.703125 0.09375 
Q 14.265625 -0.09375 13.484375 -0.1875 
Q 12.703125 -0.296875 11.46875 -0.296875 
Q 10.296875 -0.296875 9.515625 -0.1875 
Q 8.734375 -0.09375 8.265625 0.09375 
Q 7.8125 0.296875 7.640625 0.5625 
Q 7.46875 0.828125 7.46875 1.21875 
L 7.46875 45.171875 
Q 7.46875 45.5625 7.609375 45.828125 
Q 7.765625 46.09375 8.203125 46.3125 
Q 8.640625 46.53125 9.328125 46.609375 
Q 10.015625 46.6875 11.140625 46.6875 
Q 12.203125 46.6875 12.90625 46.609375 
Q 13.625 46.53125 14.015625 46.3125 
Q 14.40625 46.09375 14.578125 45.828125 
Q 14.75 45.5625 14.75 45.171875 
L 14.75 39.359375 
Q 18.453125 43.5 21.9375 45.421875 
Q 25.4375 47.359375 29 47.359375 
Q 31.734375 47.359375 33.90625 46.71875 
Q 36.078125 46.09375 37.734375 44.9375 
Q 39.40625 43.796875 40.578125 42.203125 
Q 41.75 40.625 42.53125 38.671875 
Q 44.734375 41.0625 46.703125 42.71875 
Q 48.6875 44.390625 50.515625 45.40625 
Q 52.34375 46.4375 54.078125 46.890625 
Q 55.8125 47.359375 57.5625 47.359375 
Q 61.8125 47.359375 64.6875 45.875 
Q 67.578125 44.390625 69.359375 41.890625 
Q 71.140625 39.40625 71.890625 36.0625 
Q 72.65625 32.71875 72.65625 29 
z
" id="Calibri-109"/>
       <path d="M 30.328125 4.4375 
Q 30.328125 3.03125 30.125 2.203125 
Q 29.9375 1.375 29.546875 0.984375 
Q 29.15625 0.59375 28.375 0.25 
Q 27.59375 -0.09375 26.59375 -0.3125 
Q 25.59375 -0.53125 24.46875 -0.671875 
Q 23.34375 -0.828125 22.21875 -0.828125 
Q 18.796875 -0.828125 16.359375 0.078125 
Q 13.921875 0.984375 12.359375 2.8125 
Q 10.796875 4.640625 10.078125 7.4375 
Q 9.375 10.25 9.375 14.0625 
L 9.375 39.75 
L 3.21875 39.75 
Q 2.484375 39.75 2.046875 40.53125 
Q 1.609375 41.3125 1.609375 43.0625 
Q 1.609375 44 1.734375 44.625 
Q 1.859375 45.265625 2.046875 45.671875 
Q 2.25 46.09375 2.5625 46.265625 
Q 2.875 46.4375 3.265625 46.4375 
L 9.375 46.4375 
L 9.375 56.890625 
Q 9.375 57.234375 9.546875 57.515625 
Q 9.71875 57.8125 10.171875 58.03125 
Q 10.640625 58.25 11.421875 58.34375 
Q 12.203125 58.453125 13.375 58.453125 
Q 14.59375 58.453125 15.375 58.34375 
Q 16.15625 58.25 16.59375 58.03125 
Q 17.046875 57.8125 17.234375 57.515625 
Q 17.4375 57.234375 17.4375 56.890625 
L 17.4375 46.4375 
L 28.71875 46.4375 
Q 29.109375 46.4375 29.390625 46.265625 
Q 29.6875 46.09375 29.90625 45.671875 
Q 30.125 45.265625 30.21875 44.625 
Q 30.328125 44 30.328125 43.0625 
Q 30.328125 41.3125 29.875 40.53125 
Q 29.4375 39.75 28.71875 39.75 
L 17.4375 39.75 
L 17.4375 15.234375 
Q 17.4375 10.6875 18.78125 8.375 
Q 20.125 6.0625 23.578125 6.0625 
Q 24.703125 6.0625 25.578125 6.28125 
Q 26.46875 6.5 27.140625 6.734375 
Q 27.828125 6.984375 28.3125 7.203125 
Q 28.8125 7.421875 29.203125 7.421875 
Q 29.4375 7.421875 29.65625 7.296875 
Q 29.890625 7.171875 30 6.828125 
Q 30.125 6.5 30.21875 5.90625 
Q 30.328125 5.328125 30.328125 4.4375 
z
" id="Calibri-116"/>
      </defs>
      <use xlink:href="#Calibri-101"/>
      <use x="49.755859" xlink:href="#Calibri-97"/>
      <use x="97.65625" xlink:href="#Calibri-114"/>
      <use x="132.519531" xlink:href="#Calibri-108"/>
      <use x="155.46875" xlink:href="#Calibri-121"/>
      <use x="200.732422" xlink:href="#Calibri-32"/>
      <use x="223.339844" xlink:href="#Calibri-32"/>
      <use x="245.947266" xlink:href="#Calibri-32"/>
      <use x="268.554688" xlink:href="#Calibri-76"/>
      <use x="310.595703" xlink:href="#Calibri-78"/>
      <use x="375.146484" xlink:href="#Calibri-76"/>
      <use x="417.1875" xlink:href="#Calibri-32"/>
      <use x="439.794922" xlink:href="#Calibri-73"/>
      <use x="464.990234" xlink:href="#Calibri-73"/>
      <use x="490.185547" xlink:href="#Calibri-32"/>
      <use x="512.792969" xlink:href="#Calibri-40"/>
      <use x="543.115234" xlink:href="#Calibri-45"/>
      <use x="573.730469" xlink:href="#Calibri-41"/>
      <use x="604.052734" xlink:href="#Calibri-44"/>
      <use x="629.003906" xlink:href="#Calibri-32"/>
      <use x="651.611328" xlink:href="#Calibri-80"/>
      <use x="703.271484" xlink:href="#Calibri-111"/>
      <use x="756.005859" xlink:href="#Calibri-117"/>
      <use x="808.544922" xlink:href="#Calibri-121"/>
      <use x="853.808594" xlink:href="#Calibri-109"/>
      <use x="933.691406" xlink:href="#Calibri-97"/>
      <use x="981.591797" xlink:href="#Calibri-121"/>
      <use x="1026.855469" xlink:href="#Calibri-111"/>
      <use x="1079.589844" xlink:href="#Calibri-117"/>
      <use x="1132.128906" xlink:href="#Calibri-32"/>
      <use x="1154.736328" xlink:href="#Calibri-101"/>
      <use x="1204.492188" xlink:href="#Calibri-116"/>
      <use x="1237.988281" xlink:href="#Calibri-32"/>
      <use x="1260.595703" xlink:href="#Calibri-97"/>
      <use x="1308.496094" xlink:href="#Calibri-108"/>
     </g>
    </g>
    <g id="line2d_27">
     <path d="M 171.070517 15.665957 
L 183.562517 15.665957 
" style="fill:none;stroke:#000000;stroke-dasharray:1,1.65;stroke-dashoffset:0;"/>
    </g>
    <g id="line2d_28"/>
    <g id="text_15">
     <!-- early   LNL II (+), Pouymayou et al -->
     <g transform="translate(188.559317 17.852057)scale(0.06246 -0.06246)">
      <defs>
       <path d="M 46.390625 28.125 
Q 46.390625 27.203125 46.234375 26.53125 
Q 46.09375 25.875 45.84375 25.4375 
Q 45.609375 25 45.265625 24.796875 
Q 44.921875 24.609375 44.53125 24.609375 
L 28.515625 24.609375 
L 28.515625 6.84375 
Q 28.515625 6.453125 28.3125 6.171875 
Q 28.125 5.90625 27.703125 5.703125 
Q 27.296875 5.515625 26.609375 5.390625 
Q 25.921875 5.28125 24.90625 5.28125 
Q 23.921875 5.28125 23.21875 5.390625 
Q 22.515625 5.515625 22.09375 5.703125 
Q 21.6875 5.90625 21.484375 6.171875 
Q 21.296875 6.453125 21.296875 6.84375 
L 21.296875 24.609375 
L 5.28125 24.609375 
Q 4.828125 24.609375 4.515625 24.796875 
Q 4.203125 25 3.953125 25.4375 
Q 3.71875 25.875 3.5625 26.53125 
Q 3.421875 27.203125 3.421875 28.125 
Q 3.421875 29 3.5625 29.65625 
Q 3.71875 30.328125 3.953125 30.765625 
Q 4.203125 31.203125 4.515625 31.390625 
Q 4.828125 31.59375 5.21875 31.59375 
L 21.296875 31.59375 
L 21.296875 49.359375 
Q 21.296875 49.75 21.484375 50.0625 
Q 21.6875 50.390625 22.09375 50.609375 
Q 22.515625 50.828125 23.21875 50.953125 
Q 23.921875 51.078125 24.90625 51.078125 
Q 25.921875 51.078125 26.609375 50.953125 
Q 27.296875 50.828125 27.703125 50.609375 
Q 28.125 50.390625 28.3125 50.0625 
Q 28.515625 49.75 28.515625 49.359375 
L 28.515625 31.59375 
L 44.578125 31.59375 
Q 44.96875 31.59375 45.28125 31.390625 
Q 45.609375 31.203125 45.875 30.765625 
Q 46.140625 30.328125 46.265625 29.65625 
Q 46.390625 29 46.390625 28.125 
z
" id="Calibri-43"/>
      </defs>
      <use xlink:href="#Calibri-101"/>
      <use x="49.755859" xlink:href="#Calibri-97"/>
      <use x="97.65625" xlink:href="#Calibri-114"/>
      <use x="132.519531" xlink:href="#Calibri-108"/>
      <use x="155.46875" xlink:href="#Calibri-121"/>
      <use x="200.732422" xlink:href="#Calibri-32"/>
      <use x="223.339844" xlink:href="#Calibri-32"/>
      <use x="245.947266" xlink:href="#Calibri-32"/>
      <use x="268.554688" xlink:href="#Calibri-76"/>
      <use x="310.595703" xlink:href="#Calibri-78"/>
      <use x="375.146484" xlink:href="#Calibri-76"/>
      <use x="417.1875" xlink:href="#Calibri-32"/>
      <use x="439.794922" xlink:href="#Calibri-73"/>
      <use x="464.990234" xlink:href="#Calibri-73"/>
      <use x="490.185547" xlink:href="#Calibri-32"/>
      <use x="512.792969" xlink:href="#Calibri-40"/>
      <use x="543.115234" xlink:href="#Calibri-43"/>
      <use x="592.919922" xlink:href="#Calibri-41"/>
      <use x="623.242188" xlink:href="#Calibri-44"/>
      <use x="648.193359" xlink:href="#Calibri-32"/>
      <use x="670.800781" xlink:href="#Calibri-80"/>
      <use x="722.460938" xlink:href="#Calibri-111"/>
      <use x="775.195312" xlink:href="#Calibri-117"/>
      <use x="827.734375" xlink:href="#Calibri-121"/>
      <use x="872.998047" xlink:href="#Calibri-109"/>
      <use x="952.880859" xlink:href="#Calibri-97"/>
      <use x="1000.78125" xlink:href="#Calibri-121"/>
      <use x="1046.044922" xlink:href="#Calibri-111"/>
      <use x="1098.779297" xlink:href="#Calibri-117"/>
      <use x="1151.318359" xlink:href="#Calibri-32"/>
      <use x="1173.925781" xlink:href="#Calibri-101"/>
      <use x="1223.681641" xlink:href="#Calibri-116"/>
      <use x="1257.177734" xlink:href="#Calibri-32"/>
      <use x="1279.785156" xlink:href="#Calibri-97"/>
      <use x="1327.685547" xlink:href="#Calibri-108"/>
     </g>
    </g>
    <g id="patch_12">
     <path d="M 171.070517 23.959474 
L 183.562517 23.959474 
L 183.562517 19.587274 
L 171.070517 19.587274 
z
" style="fill:#005ea8;opacity:0.5;"/>
    </g>
    <g id="text_16">
     <!-- early   LNL II (-) -->
     <g transform="translate(188.559317 23.959474)scale(0.06246 -0.06246)">
      <use xlink:href="#Calibri-101"/>
      <use x="49.755859" xlink:href="#Calibri-97"/>
      <use x="97.65625" xlink:href="#Calibri-114"/>
      <use x="132.519531" xlink:href="#Calibri-108"/>
      <use x="155.46875" xlink:href="#Calibri-121"/>
      <use x="200.732422" xlink:href="#Calibri-32"/>
      <use x="223.339844" xlink:href="#Calibri-32"/>
      <use x="245.947266" xlink:href="#Calibri-32"/>
      <use x="268.554688" xlink:href="#Calibri-76"/>
      <use x="310.595703" xlink:href="#Calibri-78"/>
      <use x="375.146484" xlink:href="#Calibri-76"/>
      <use x="417.1875" xlink:href="#Calibri-32"/>
      <use x="439.794922" xlink:href="#Calibri-73"/>
      <use x="464.990234" xlink:href="#Calibri-73"/>
      <use x="490.185547" xlink:href="#Calibri-32"/>
      <use x="512.792969" xlink:href="#Calibri-40"/>
      <use x="543.115234" xlink:href="#Calibri-45"/>
      <use x="573.730469" xlink:href="#Calibri-41"/>
     </g>
    </g>
    <g id="patch_13">
     <path d="M 171.070517 30.066891 
L 183.562517 30.066891 
L 183.562517 25.694691 
L 171.070517 25.694691 
z
" style="fill:none;stroke:#005ea8;stroke-linejoin:miter;stroke-width:1.5;"/>
    </g>
    <g id="text_17">
     <!-- early   LNL II (+) -->
     <g transform="translate(188.559317 30.066891)scale(0.06246 -0.06246)">
      <use xlink:href="#Calibri-101"/>
      <use x="49.755859" xlink:href="#Calibri-97"/>
      <use x="97.65625" xlink:href="#Calibri-114"/>
      <use x="132.519531" xlink:href="#Calibri-108"/>
      <use x="155.46875" xlink:href="#Calibri-121"/>
      <use x="200.732422" xlink:href="#Calibri-32"/>
      <use x="223.339844" xlink:href="#Calibri-32"/>
      <use x="245.947266" xlink:href="#Calibri-32"/>
      <use x="268.554688" xlink:href="#Calibri-76"/>
      <use x="310.595703" xlink:href="#Calibri-78"/>
      <use x="375.146484" xlink:href="#Calibri-76"/>
      <use x="417.1875" xlink:href="#Calibri-32"/>
      <use x="439.794922" xlink:href="#Calibri-73"/>
      <use x="464.990234" xlink:href="#Calibri-73"/>
      <use x="490.185547" xlink:href="#Calibri-32"/>
      <use x="512.792969" xlink:href="#Calibri-40"/>
      <use x="543.115234" xlink:href="#Calibri-43"/>
      <use x="592.919922" xlink:href="#Calibri-41"/>
     </g>
    </g>
    <g id="patch_14">
     <path d="M 171.070517 36.174307 
L 183.562517 36.174307 
L 183.562517 31.802107 
L 171.070517 31.802107 
z
" style="fill:#f17900;opacity:0.5;"/>
    </g>
    <g id="text_18">
     <!-- late     LNL II (-) -->
     <g transform="translate(188.559317 36.174307)scale(0.06246 -0.06246)">
      <use xlink:href="#Calibri-108"/>
      <use x="22.949219" xlink:href="#Calibri-97"/>
      <use x="70.849609" xlink:href="#Calibri-116"/>
      <use x="104.345703" xlink:href="#Calibri-101"/>
      <use x="154.101562" xlink:href="#Calibri-32"/>
      <use x="176.708984" xlink:href="#Calibri-32"/>
      <use x="199.316406" xlink:href="#Calibri-32"/>
      <use x="221.923828" xlink:href="#Calibri-32"/>
      <use x="244.53125" xlink:href="#Calibri-32"/>
      <use x="267.138672" xlink:href="#Calibri-76"/>
      <use x="309.179688" xlink:href="#Calibri-78"/>
      <use x="373.730469" xlink:href="#Calibri-76"/>
      <use x="415.771484" xlink:href="#Calibri-32"/>
      <use x="438.378906" xlink:href="#Calibri-73"/>
      <use x="463.574219" xlink:href="#Calibri-73"/>
      <use x="488.769531" xlink:href="#Calibri-32"/>
      <use x="511.376953" xlink:href="#Calibri-40"/>
      <use x="541.699219" xlink:href="#Calibri-45"/>
      <use x="572.314453" xlink:href="#Calibri-41"/>
     </g>
    </g>
    <g id="patch_15">
     <path d="M 171.070517 42.281724 
L 183.562517 42.281724 
L 183.562517 37.909524 
L 171.070517 37.909524 
z
" style="fill:none;stroke:#f17900;stroke-linejoin:miter;stroke-width:1.5;"/>
    </g>
    <g id="text_19">
     <!-- late     LNL II (+) -->
     <g transform="translate(188.559317 42.281724)scale(0.06246 -0.06246)">
      <use xlink:href="#Calibri-108"/>
      <use x="22.949219" xlink:href="#Calibri-97"/>
      <use x="70.849609" xlink:href="#Calibri-116"/>
      <use x="104.345703" xlink:href="#Calibri-101"/>
      <use x="154.101562" xlink:href="#Calibri-32"/>
      <use x="176.708984" xlink:href="#Calibri-32"/>
      <use x="199.316406" xlink:href="#Calibri-32"/>
      <use x="221.923828" xlink:href="#Calibri-32"/>
      <use x="244.53125" xlink:href="#Calibri-32"/>
      <use x="267.138672" xlink:href="#Calibri-76"/>
      <use x="309.179688" xlink:href="#Calibri-78"/>
      <use x="373.730469" xlink:href="#Calibri-76"/>
      <use x="415.771484" xlink:href="#Calibri-32"/>
      <use x="438.378906" xlink:href="#Calibri-73"/>
      <use x="463.574219" xlink:href="#Calibri-73"/>
      <use x="488.769531" xlink:href="#Calibri-32"/>
      <use x="511.376953" xlink:href="#Calibri-40"/>
      <use x="541.699219" xlink:href="#Calibri-43"/>
      <use x="591.503906" xlink:href="#Calibri-41"/>
     </g>
    </g>
   </g>
  </g>
 </g>
 <defs>
  <clipPath id="pf6d63fa8e5">
   <rect height="152.613346" width="254.519148" x="22.779237" y="3.00024"/>
  </clipPath>
 </defs>
</svg>
