<?xml version="1.0" encoding="utf-8" standalone="no"?>
<!DOCTYPE svg PUBLIC "-//W3C//DTD SVG 1.1//EN"
  "http://www.w3.org/Graphics/SVG/1.1/DTD/svg11.dtd">
<!-- Created with matplotlib (https://matplotlib.org/) -->
<svg height="168.355009pt" version="1.1" viewBox="0 0 276.629506 168.355009" width="276.629506pt" xmlns="http://www.w3.org/2000/svg" xmlns:xlink="http://www.w3.org/1999/xlink">
 <defs>
  <style type="text/css">
*{stroke-linecap:butt;stroke-linejoin:round;}
  </style>
 </defs>
 <g id="figure_1">
  <g id="patch_1">
   <path d="M 0 168.355009 
L 276.629506 168.355009 
L 276.629506 0 
L 0 0 
z
" style="fill:#ffffff;"/>
  </g>
  <g id="axes_1">
   <g id="patch_2">
    <path d="M 30.144939 144.574417 
L 269.429506 144.574417 
L 269.429506 7.2 
L 30.144939 7.2 
z
" style="fill:#ffffff;"/>
   </g>
   <g id="patch_3">
    <path clip-path="url(#p2e1e8ac603)" d="M 41.02151 144.574417 
L 41.02151 144.574417 
L 43.807713 144.574417 
L 43.807713 144.574417 
L 46.593916 144.574417 
L 46.593916 144.574417 
L 49.380119 144.574417 
L 49.380119 144.574417 
L 52.166322 144.574417 
L 52.166322 144.574417 
L 54.952526 144.574417 
L 54.952526 144.574417 
L 57.738729 144.574417 
L 57.738729 144.574417 
L 60.524932 144.574417 
L 60.524932 144.574417 
L 63.311135 144.574417 
L 63.311135 144.574417 
L 66.097338 144.574417 
L 66.097338 144.574417 
L 68.883541 144.574417 
L 68.883541 144.574417 
L 71.669744 144.574417 
L 71.669744 144.574417 
L 74.455948 144.574417 
L 74.455948 143.498026 
L 77.242151 143.498026 
L 77.242151 139.730655 
L 80.028354 139.730655 
L 80.028354 136.50148 
L 82.814557 136.50148 
L 82.814557 131.119522 
L 85.60076 131.119522 
L 85.60076 115.511844 
L 88.386963 115.511844 
L 88.386963 93.445816 
L 91.173166 93.445816 
L 91.173166 71.379788 
L 93.959369 71.379788 
L 93.959369 65.99783 
L 96.745573 65.99783 
L 96.745573 32.091495 
L 99.531776 32.091495 
L 99.531776 28.86232 
L 102.317979 28.86232 
L 102.317979 38.011649 
L 105.104182 38.011649 
L 105.104182 33.167887 
L 107.890385 33.167887 
L 107.890385 36.397062 
L 110.676588 36.397062 
L 110.676588 72.45618 
L 113.462791 72.45618 
L 113.462791 87.525662 
L 116.248995 87.525662 
L 116.248995 101.518753 
L 119.035198 101.518753 
L 119.035198 120.893802 
L 121.821401 120.893802 
L 121.821401 114.435452 
L 124.607604 114.435452 
L 124.607604 128.428543 
L 127.393807 128.428543 
L 127.393807 133.272305 
L 130.18001 133.272305 
L 130.18001 141.345242 
L 132.966213 141.345242 
L 132.966213 141.345242 
L 135.752416 141.345242 
L 135.752416 144.036221 
L 138.53862 144.036221 
L 138.53862 143.498026 
L 141.324823 143.498026 
L 141.324823 144.036221 
L 144.111026 144.036221 
L 144.111026 144.574417 
L 146.897229 144.574417 
L 146.897229 144.036221 
L 149.683432 144.036221 
L 149.683432 144.574417 
L 152.469635 144.574417 
L 152.469635 144.574417 
L 149.683432 144.574417 
L 149.683432 144.574417 
L 146.897229 144.574417 
L 146.897229 144.574417 
L 144.111026 144.574417 
L 144.111026 144.574417 
L 141.324823 144.574417 
L 141.324823 144.574417 
L 138.53862 144.574417 
L 138.53862 144.574417 
L 135.752416 144.574417 
L 135.752416 144.574417 
L 132.966213 144.574417 
L 132.966213 144.574417 
L 130.18001 144.574417 
L 130.18001 144.574417 
L 127.393807 144.574417 
L 127.393807 144.574417 
L 124.607604 144.574417 
L 124.607604 144.574417 
L 121.821401 144.574417 
L 121.821401 144.574417 
L 119.035198 144.574417 
L 119.035198 144.574417 
L 116.248995 144.574417 
L 116.248995 144.574417 
L 113.462791 144.574417 
L 113.462791 144.574417 
L 110.676588 144.574417 
L 110.676588 144.574417 
L 107.890385 144.574417 
L 107.890385 144.574417 
L 105.104182 144.574417 
L 105.104182 144.574417 
L 102.317979 144.574417 
L 102.317979 144.574417 
L 99.531776 144.574417 
L 99.531776 144.574417 
L 96.745573 144.574417 
L 96.745573 144.574417 
L 93.959369 144.574417 
L 93.959369 144.574417 
L 91.173166 144.574417 
L 91.173166 144.574417 
L 88.386963 144.574417 
L 88.386963 144.574417 
L 85.60076 144.574417 
L 85.60076 144.574417 
L 82.814557 144.574417 
L 82.814557 144.574417 
L 80.028354 144.574417 
L 80.028354 144.574417 
L 77.242151 144.574417 
L 77.242151 144.574417 
L 74.455948 144.574417 
L 74.455948 144.574417 
L 71.669744 144.574417 
L 71.669744 144.574417 
L 68.883541 144.574417 
L 68.883541 144.574417 
L 66.097338 144.574417 
L 66.097338 144.574417 
L 63.311135 144.574417 
L 63.311135 144.574417 
L 60.524932 144.574417 
L 60.524932 144.574417 
L 57.738729 144.574417 
L 57.738729 144.574417 
L 54.952526 144.574417 
L 54.952526 144.574417 
L 52.166322 144.574417 
L 52.166322 144.574417 
L 49.380119 144.574417 
L 49.380119 144.574417 
L 46.593916 144.574417 
L 46.593916 144.574417 
L 43.807713 144.574417 
L 43.807713 144.574417 
z
" style="fill:#00afa5;"/>
   </g>
   <g id="patch_4">
    <path clip-path="url(#p2e1e8ac603)" d="M 97.664835 144.574417 
L 97.664835 140.652726 
L 100.341399 140.652726 
L 100.341399 141.212967 
L 103.017964 141.212967 
L 103.017964 142.333451 
L 105.694528 142.333451 
L 105.694528 133.929826 
L 108.371092 133.929826 
L 108.371092 133.929826 
L 111.047657 133.929826 
L 111.047657 124.96596 
L 113.724221 124.96596 
L 113.724221 122.164751 
L 116.400786 122.164751 
L 116.400786 113.761127 
L 119.07735 113.761127 
L 119.07735 113.200885 
L 121.753914 113.200885 
L 121.753914 95.833394 
L 124.430479 95.833394 
L 124.430479 94.152669 
L 127.107043 94.152669 
L 127.107043 98.074361 
L 129.783607 98.074361 
L 129.783607 78.465903 
L 132.460172 78.465903 
L 132.460172 71.743003 
L 135.136736 71.743003 
L 135.136736 65.580345 
L 137.8133 65.580345 
L 137.8133 73.423728 
L 140.489865 73.423728 
L 140.489865 87.429769 
L 143.166429 87.429769 
L 143.166429 73.98397 
L 145.842994 73.98397 
L 145.842994 67.26107 
L 148.519558 67.26107 
L 148.519558 80.146628 
L 151.196122 80.146628 
L 151.196122 95.833394 
L 153.872687 95.833394 
L 153.872687 101.996052 
L 156.549251 101.996052 
L 156.549251 108.15871 
L 159.225815 108.15871 
L 159.225815 117.682818 
L 161.90238 117.682818 
L 161.90238 114.88161 
L 164.578944 114.88161 
L 164.578944 128.327409 
L 167.255508 128.327409 
L 167.255508 124.96596 
L 169.932073 124.96596 
L 169.932073 124.96596 
L 172.608637 124.96596 
L 172.608637 131.128618 
L 175.285202 131.128618 
L 175.285202 134.490068 
L 177.961766 134.490068 
L 177.961766 140.092484 
L 180.63833 140.092484 
L 180.63833 139.532242 
L 183.314895 139.532242 
L 183.314895 141.773209 
L 185.991459 141.773209 
L 185.991459 142.893692 
L 188.668023 142.893692 
L 188.668023 143.453934 
L 191.344588 143.453934 
L 191.344588 144.574417 
L 194.021152 144.574417 
L 194.021152 142.893692 
L 196.697716 142.893692 
L 196.697716 144.574417 
L 199.374281 144.574417 
L 199.374281 144.014175 
L 202.050845 144.014175 
L 202.050845 144.014175 
L 204.72741 144.014175 
L 204.72741 144.574417 
L 202.050845 144.574417 
L 202.050845 144.574417 
L 199.374281 144.574417 
L 199.374281 144.574417 
L 196.697716 144.574417 
L 196.697716 144.574417 
L 194.021152 144.574417 
L 194.021152 144.574417 
L 191.344588 144.574417 
L 191.344588 144.574417 
L 188.668023 144.574417 
L 188.668023 144.574417 
L 185.991459 144.574417 
L 185.991459 144.574417 
L 183.314895 144.574417 
L 183.314895 144.574417 
L 180.63833 144.574417 
L 180.63833 144.574417 
L 177.961766 144.574417 
L 177.961766 144.574417 
L 175.285202 144.574417 
L 175.285202 144.574417 
L 172.608637 144.574417 
L 172.608637 144.574417 
L 169.932073 144.574417 
L 169.932073 144.574417 
L 167.255508 144.574417 
L 167.255508 144.574417 
L 164.578944 144.574417 
L 164.578944 144.574417 
L 161.90238 144.574417 
L 161.90238 144.574417 
L 159.225815 144.574417 
L 159.225815 144.574417 
L 156.549251 144.574417 
L 156.549251 144.574417 
L 153.872687 144.574417 
L 153.872687 144.574417 
L 151.196122 144.574417 
L 151.196122 144.574417 
L 148.519558 144.574417 
L 148.519558 144.574417 
L 145.842994 144.574417 
L 145.842994 144.574417 
L 143.166429 144.574417 
L 143.166429 144.574417 
L 140.489865 144.574417 
L 140.489865 144.574417 
L 137.8133 144.574417 
L 137.8133 144.574417 
L 135.136736 144.574417 
L 135.136736 144.574417 
L 132.460172 144.574417 
L 132.460172 144.574417 
L 129.783607 144.574417 
L 129.783607 144.574417 
L 127.107043 144.574417 
L 127.107043 144.574417 
L 124.430479 144.574417 
L 124.430479 144.574417 
L 121.753914 144.574417 
L 121.753914 144.574417 
L 119.07735 144.574417 
L 119.07735 144.574417 
L 116.400786 144.574417 
L 116.400786 144.574417 
L 113.724221 144.574417 
L 113.724221 144.574417 
L 111.047657 144.574417 
L 111.047657 144.574417 
L 108.371092 144.574417 
L 108.371092 144.574417 
L 105.694528 144.574417 
L 105.694528 144.574417 
L 103.017964 144.574417 
L 103.017964 144.574417 
L 100.341399 144.574417 
L 100.341399 144.574417 
z
" style="fill:#f17900;opacity:0.8;"/>
   </g>
   <g id="patch_5">
    <path clip-path="url(#p2e1e8ac603)" d="M 119.99892 144.574417 
L 119.99892 142.409885 
L 123.46277 142.409885 
L 123.46277 141.544073 
L 126.92662 141.544073 
L 126.92662 142.409885 
L 130.390471 142.409885 
L 130.390471 138.946635 
L 133.854321 138.946635 
L 133.854321 139.812447 
L 137.318172 139.812447 
L 137.318172 132.885946 
L 140.782022 132.885946 
L 140.782022 128.989789 
L 144.245872 128.989789 
L 144.245872 132.453039 
L 147.709723 132.453039 
L 147.709723 120.764568 
L 151.173573 120.764568 
L 151.173573 121.197474 
L 154.637423 121.197474 
L 154.637423 112.106441 
L 158.101274 112.106441 
L 158.101274 106.045752 
L 161.565124 106.045752 
L 161.565124 112.106441 
L 165.028975 112.106441 
L 165.028975 101.716688 
L 168.492825 101.716688 
L 168.492825 99.552157 
L 171.956675 99.552157 
L 171.956675 83.967528 
L 175.420526 83.967528 
L 175.420526 90.89403 
L 178.884376 90.89403 
L 178.884376 96.521812 
L 182.348226 96.521812 
L 182.348226 99.985063 
L 185.812077 99.985063 
L 185.812077 91.759842 
L 189.275927 91.759842 
L 189.275927 92.192749 
L 192.739777 92.192749 
L 192.739777 93.491468 
L 196.203628 93.491468 
L 196.203628 111.240628 
L 199.667478 111.240628 
L 199.667478 110.807722 
L 203.131329 110.807722 
L 203.131329 117.734223 
L 206.595179 117.734223 
L 206.595179 125.526538 
L 210.059029 125.526538 
L 210.059029 124.227819 
L 213.52288 124.227819 
L 213.52288 126.825257 
L 216.98673 126.825257 
L 216.98673 128.123976 
L 220.45058 128.123976 
L 220.45058 134.184665 
L 223.914431 134.184665 
L 223.914431 135.91629 
L 227.378281 135.91629 
L 227.378281 137.647916 
L 230.842132 137.647916 
L 230.842132 140.67826 
L 234.305982 140.67826 
L 234.305982 140.245354 
L 237.769832 140.245354 
L 237.769832 142.842792 
L 241.233683 142.842792 
L 241.233683 143.275698 
L 244.697533 143.275698 
L 244.697533 144.574417 
L 248.161383 144.574417 
L 248.161383 143.708604 
L 251.625234 143.708604 
L 251.625234 144.141511 
L 255.089084 144.141511 
L 255.089084 143.708604 
L 258.552934 143.708604 
L 258.552934 144.574417 
L 255.089084 144.574417 
L 255.089084 144.574417 
L 251.625234 144.574417 
L 251.625234 144.574417 
L 248.161383 144.574417 
L 248.161383 144.574417 
L 244.697533 144.574417 
L 244.697533 144.574417 
L 241.233683 144.574417 
L 241.233683 144.574417 
L 237.769832 144.574417 
L 237.769832 144.574417 
L 234.305982 144.574417 
L 234.305982 144.574417 
L 230.842132 144.574417 
L 230.842132 144.574417 
L 227.378281 144.574417 
L 227.378281 144.574417 
L 223.914431 144.574417 
L 223.914431 144.574417 
L 220.45058 144.574417 
L 220.45058 144.574417 
L 216.98673 144.574417 
L 216.98673 144.574417 
L 213.52288 144.574417 
L 213.52288 144.574417 
L 210.059029 144.574417 
L 210.059029 144.574417 
L 206.595179 144.574417 
L 206.595179 144.574417 
L 203.131329 144.574417 
L 203.131329 144.574417 
L 199.667478 144.574417 
L 199.667478 144.574417 
L 196.203628 144.574417 
L 196.203628 144.574417 
L 192.739777 144.574417 
L 192.739777 144.574417 
L 189.275927 144.574417 
L 189.275927 144.574417 
L 185.812077 144.574417 
L 185.812077 144.574417 
L 182.348226 144.574417 
L 182.348226 144.574417 
L 178.884376 144.574417 
L 178.884376 144.574417 
L 175.420526 144.574417 
L 175.420526 144.574417 
L 171.956675 144.574417 
L 171.956675 144.574417 
L 168.492825 144.574417 
L 168.492825 144.574417 
L 165.028975 144.574417 
L 165.028975 144.574417 
L 161.565124 144.574417 
L 161.565124 144.574417 
L 158.101274 144.574417 
L 158.101274 144.574417 
L 154.637423 144.574417 
L 154.637423 144.574417 
L 151.173573 144.574417 
L 151.173573 144.574417 
L 147.709723 144.574417 
L 147.709723 144.574417 
L 144.245872 144.574417 
L 144.245872 144.574417 
L 140.782022 144.574417 
L 140.782022 144.574417 
L 137.318172 144.574417 
L 137.318172 144.574417 
L 133.854321 144.574417 
L 133.854321 144.574417 
L 130.390471 144.574417 
L 130.390471 144.574417 
L 126.92662 144.574417 
L 126.92662 144.574417 
L 123.46277 144.574417 
L 123.46277 144.574417 
z
" style="fill:#ae0060;opacity:0.8;"/>
   </g>
   <g id="patch_6">
    <path clip-path="url(#p2e1e8ac603)" d="M 75.355402 144.574417 
L 75.355402 143.813761 
L 77.326757 143.813761 
L 77.326757 138.489172 
L 79.298113 138.489172 
L 79.298113 140.771139 
L 81.269469 140.771139 
L 81.269469 138.489172 
L 83.240824 138.489172 
L 83.240824 126.318681 
L 85.21218 126.318681 
L 85.21218 117.190812 
L 87.183535 117.190812 
L 87.183535 104.259666 
L 89.154891 104.259666 
L 89.154891 92.84983 
L 91.126246 92.84983 
L 91.126246 66.226881 
L 93.097602 66.226881 
L 93.097602 53.295735 
L 95.068958 53.295735 
L 95.068958 58.620324 
L 97.040313 58.620324 
L 97.040313 13.741639 
L 99.011669 13.741639 
L 99.011669 24.390819 
L 100.983024 24.390819 
L 100.983024 16.784262 
L 102.95438 16.784262 
L 102.95438 22.108851 
L 104.925735 22.108851 
L 104.925735 38.082621 
L 106.897091 38.082621 
L 106.897091 70.790815 
L 108.868446 70.790815 
L 108.868446 47.971145 
L 110.839802 47.971145 
L 110.839802 82.961306 
L 112.811158 82.961306 
L 112.811158 77.636717 
L 114.782513 77.636717 
L 114.782513 95.892453 
L 116.753869 95.892453 
L 116.753869 111.105567 
L 118.725224 111.105567 
L 118.725224 112.626878 
L 120.69658 112.626878 
L 120.69658 119.472779 
L 122.667935 119.472779 
L 122.667935 126.318681 
L 124.639291 126.318681 
L 124.639291 134.685893 
L 126.610647 134.685893 
L 126.610647 131.64327 
L 128.582002 131.64327 
L 128.582002 137.728516 
L 130.553358 137.728516 
L 130.553358 140.771139 
L 132.524713 140.771139 
L 132.524713 139.249827 
L 134.496069 139.249827 
L 134.496069 143.053106 
L 136.467424 143.053106 
L 136.467424 143.053106 
L 138.43878 143.053106 
L 138.43878 143.053106 
L 140.410135 143.053106 
L 140.410135 143.053106 
L 142.381491 143.053106 
L 142.381491 144.574417 
L 144.352847 144.574417 
L 144.352847 143.053106 
L 146.324202 143.053106 
L 146.324202 144.574417 
L 148.295558 144.574417 
L 148.295558 144.574417 
L 150.266913 144.574417 
L 150.266913 144.574417 
L 152.238269 144.574417 
L 152.238269 143.813761 
L 154.209624 143.813761 
L 154.209624 144.574417 
" style="fill:none;stroke:#005ea8;stroke-linejoin:miter;"/>
   </g>
   <g id="matplotlib.axis_1">
    <g id="xtick_1">
     <g id="line2d_1">
      <path clip-path="url(#p2e1e8ac603)" d="M 41.02151 144.574417 
L 41.02151 7.2 
" style="fill:none;stroke:#000000;stroke-linecap:square;stroke-opacity:0.1;stroke-width:0.5;"/>
     </g>
     <g id="line2d_2">
      <defs>
       <path d="M 0 0 
L 0 -3 
" id="m610aeb7718" style="stroke:#000000;stroke-width:0.5;"/>
      </defs>
      <g>
       <use style="stroke:#000000;stroke-width:0.5;" x="41.02151" xlink:href="#m610aeb7718" y="144.574417"/>
      </g>
     </g>
     <g id="text_1">
      <!-- 0 -->
      <defs>
       <path d="M 47.21875 31.734375 
Q 47.21875 24.46875 46.0625 18.453125 
Q 44.921875 12.453125 42.25 8.125 
Q 39.59375 3.8125 35.296875 1.4375 
Q 31 -0.921875 24.703125 -0.921875 
Q 18.75 -0.921875 14.671875 1.203125 
Q 10.59375 3.328125 8.09375 7.453125 
Q 5.609375 11.578125 4.5625 17.609375 
Q 3.515625 23.640625 3.515625 31.453125 
Q 3.515625 38.671875 4.6875 44.703125 
Q 5.859375 50.734375 8.5 55.046875 
Q 11.140625 59.375 15.4375 61.734375 
Q 19.734375 64.109375 25.984375 64.109375 
Q 31.984375 64.109375 36.0625 61.984375 
Q 40.140625 59.859375 42.625 55.734375 
Q 45.125 51.609375 46.171875 45.578125 
Q 47.21875 39.546875 47.21875 31.734375 
z
M 38.625 31.15625 
Q 38.625 35.890625 38.28125 39.640625 
Q 37.9375 43.40625 37.28125 46.28125 
Q 36.625 49.171875 35.5625 51.25 
Q 34.515625 53.328125 33.046875 54.65625 
Q 31.59375 56 29.703125 56.609375 
Q 27.828125 57.234375 25.484375 57.234375 
Q 21.34375 57.234375 18.75 55.28125 
Q 16.15625 53.328125 14.671875 49.90625 
Q 13.1875 46.484375 12.640625 41.890625 
Q 12.109375 37.3125 12.109375 32.03125 
Q 12.109375 24.953125 12.84375 20 
Q 13.578125 15.046875 15.15625 11.921875 
Q 16.75 8.796875 19.21875 7.375 
Q 21.6875 5.953125 25.203125 5.953125 
Q 27.9375 5.953125 30 6.828125 
Q 32.078125 7.71875 33.5625 9.34375 
Q 35.0625 10.984375 36.03125 13.28125 
Q 37.015625 15.578125 37.59375 18.359375 
Q 38.1875 21.140625 38.40625 24.390625 
Q 38.625 27.640625 38.625 31.15625 
z
" id="Calibri-48"/>
      </defs>
      <g transform="translate(39.438539 150.322673)scale(0.06246 -0.06246)">
       <use xlink:href="#Calibri-48"/>
      </g>
     </g>
    </g>
    <g id="xtick_2">
     <g id="line2d_3">
      <path clip-path="url(#p2e1e8ac603)" d="M 78.170885 144.574417 
L 78.170885 7.2 
" style="fill:none;stroke:#000000;stroke-linecap:square;stroke-opacity:0.1;stroke-width:0.5;"/>
     </g>
     <g id="line2d_4">
      <g>
       <use style="stroke:#000000;stroke-width:0.5;" x="78.170885" xlink:href="#m610aeb7718" y="144.574417"/>
      </g>
     </g>
     <g id="text_2">
      <!-- 10 -->
      <defs>
       <path d="M 45.265625 3.328125 
Q 45.265625 2.390625 45.109375 1.75 
Q 44.96875 1.125 44.71875 0.734375 
Q 44.484375 0.34375 44.15625 0.171875 
Q 43.84375 0 43.5 0 
L 10.5 0 
Q 10.15625 0 9.859375 0.171875 
Q 9.578125 0.34375 9.296875 0.734375 
Q 9.03125 1.125 8.875 1.75 
Q 8.734375 2.390625 8.734375 3.328125 
Q 8.734375 4.203125 8.875 4.828125 
Q 9.03125 5.46875 9.25 5.875 
Q 9.46875 6.296875 9.78125 6.515625 
Q 10.109375 6.734375 10.5 6.734375 
L 23.6875 6.734375 
L 23.6875 54.78125 
L 11.46875 47.515625 
Q 10.546875 47.015625 9.984375 46.921875 
Q 9.421875 46.828125 9.078125 47.140625 
Q 8.734375 47.46875 8.609375 48.1875 
Q 8.5 48.921875 8.5 50.046875 
Q 8.5 50.875 8.5625 51.453125 
Q 8.640625 52.046875 8.78125 52.4375 
Q 8.9375 52.828125 9.203125 53.125 
Q 9.46875 53.421875 9.90625 53.71875 
L 24.46875 63.03125 
Q 24.65625 63.1875 24.953125 63.28125 
Q 25.25 63.375 25.6875 63.46875 
Q 26.125 63.578125 26.703125 63.59375 
Q 27.296875 63.625 28.171875 63.625 
Q 29.34375 63.625 30.125 63.515625 
Q 30.90625 63.421875 31.34375 63.25 
Q 31.78125 63.09375 31.921875 62.8125 
Q 32.078125 62.546875 32.078125 62.25 
L 32.078125 6.734375 
L 43.5 6.734375 
Q 43.890625 6.734375 44.234375 6.515625 
Q 44.578125 6.296875 44.796875 5.875 
Q 45.015625 5.46875 45.140625 4.828125 
Q 45.265625 4.203125 45.265625 3.328125 
z
" id="Calibri-49"/>
      </defs>
      <g transform="translate(75.004944 150.322673)scale(0.06246 -0.06246)">
       <use xlink:href="#Calibri-49"/>
       <use x="50.683594" xlink:href="#Calibri-48"/>
      </g>
     </g>
    </g>
    <g id="xtick_3">
     <g id="line2d_5">
      <path clip-path="url(#p2e1e8ac603)" d="M 115.32026 144.574417 
L 115.32026 7.2 
" style="fill:none;stroke:#000000;stroke-linecap:square;stroke-opacity:0.1;stroke-width:0.5;"/>
     </g>
     <g id="line2d_6">
      <g>
       <use style="stroke:#000000;stroke-width:0.5;" x="115.32026" xlink:href="#m610aeb7718" y="144.574417"/>
      </g>
     </g>
     <g id="text_3">
      <!-- 20 -->
      <defs>
       <path d="M 45.125 3.609375 
Q 45.125 2.734375 45 2.046875 
Q 44.875 1.375 44.65625 0.90625 
Q 44.4375 0.4375 44.0625 0.21875 
Q 43.703125 0 43.265625 0 
L 8.34375 0 
Q 7.671875 0 7.15625 0.171875 
Q 6.640625 0.34375 6.265625 0.734375 
Q 5.90625 1.125 5.734375 1.859375 
Q 5.5625 2.59375 5.5625 3.65625 
Q 5.5625 4.640625 5.640625 5.375 
Q 5.71875 6.109375 5.953125 6.671875 
Q 6.203125 7.234375 6.5625 7.78125 
Q 6.9375 8.34375 7.515625 8.984375 
L 19.78125 21.96875 
Q 24.03125 26.46875 26.59375 30.03125 
Q 29.15625 33.59375 30.546875 36.515625 
Q 31.9375 39.453125 32.375 41.84375 
Q 32.8125 44.234375 32.8125 46.34375 
Q 32.8125 48.4375 32.125 50.3125 
Q 31.453125 52.203125 30.15625 53.609375 
Q 28.859375 55.03125 26.90625 55.859375 
Q 24.953125 56.6875 22.40625 56.6875 
Q 19.4375 56.6875 17.0625 55.859375 
Q 14.703125 55.03125 12.921875 54.046875 
Q 11.140625 53.078125 9.9375 52.25 
Q 8.734375 51.421875 8.15625 51.421875 
Q 7.8125 51.421875 7.546875 51.609375 
Q 7.28125 51.8125 7.109375 52.25 
Q 6.9375 52.6875 6.828125 53.421875 
Q 6.734375 54.15625 6.734375 55.171875 
Q 6.734375 55.90625 6.78125 56.4375 
Q 6.84375 56.984375 6.953125 57.375 
Q 7.078125 57.765625 7.265625 58.109375 
Q 7.46875 58.453125 8.046875 58.953125 
Q 8.640625 59.46875 10.078125 60.34375 
Q 11.53125 61.234375 13.703125 62.078125 
Q 15.875 62.9375 18.484375 63.515625 
Q 21.09375 64.109375 23.96875 64.109375 
Q 28.5625 64.109375 32 62.8125 
Q 35.453125 61.53125 37.71875 59.28125 
Q 39.984375 57.03125 41.109375 54.046875 
Q 42.234375 51.078125 42.234375 47.703125 
Q 42.234375 44.671875 41.6875 41.671875 
Q 41.15625 38.671875 39.421875 35.171875 
Q 37.703125 31.6875 34.421875 27.40625 
Q 31.15625 23.140625 25.734375 17.578125 
L 15.71875 7.125 
L 43.21875 7.125 
Q 43.609375 7.125 43.96875 6.90625 
Q 44.34375 6.6875 44.609375 6.25 
Q 44.875 5.8125 45 5.15625 
Q 45.125 4.5 45.125 3.609375 
z
" id="Calibri-50"/>
      </defs>
      <g transform="translate(112.154319 150.322673)scale(0.06246 -0.06246)">
       <use xlink:href="#Calibri-50"/>
       <use x="50.683594" xlink:href="#Calibri-48"/>
      </g>
     </g>
    </g>
    <g id="xtick_4">
     <g id="line2d_7">
      <path clip-path="url(#p2e1e8ac603)" d="M 152.469635 144.574417 
L 152.469635 7.2 
" style="fill:none;stroke:#000000;stroke-linecap:square;stroke-opacity:0.1;stroke-width:0.5;"/>
     </g>
     <g id="line2d_8">
      <g>
       <use style="stroke:#000000;stroke-width:0.5;" x="152.469635" xlink:href="#m610aeb7718" y="144.574417"/>
      </g>
     </g>
     <g id="text_4">
      <!-- 30 -->
      <defs>
       <path d="M 44.625 18.0625 
Q 44.625 13.71875 43.109375 10.21875 
Q 41.609375 6.734375 38.765625 4.25 
Q 35.9375 1.765625 31.78125 0.421875 
Q 27.640625 -0.921875 22.40625 -0.921875 
Q 19.234375 -0.921875 16.46875 -0.40625 
Q 13.71875 0.09375 11.5625 0.796875 
Q 9.421875 1.515625 8 2.265625 
Q 6.59375 3.03125 6.21875 3.375 
Q 5.859375 3.71875 5.65625 4.046875 
Q 5.46875 4.390625 5.3125 4.875 
Q 5.171875 5.375 5.09375 6.078125 
Q 5.03125 6.78125 5.03125 7.8125 
Q 5.03125 9.578125 5.375 10.25 
Q 5.71875 10.9375 6.34375 10.9375 
Q 6.78125 10.9375 8.078125 10.15625 
Q 9.375 9.375 11.390625 8.46875 
Q 13.421875 7.5625 16.125 6.78125 
Q 18.84375 6 22.171875 6 
Q 25.390625 6 27.828125 6.828125 
Q 30.28125 7.671875 31.9375 9.171875 
Q 33.59375 10.6875 34.421875 12.765625 
Q 35.25 14.84375 35.25 17.28125 
Q 35.25 19.96875 34.203125 22.109375 
Q 33.15625 24.265625 31.125 25.828125 
Q 29.109375 27.390625 26.140625 28.21875 
Q 23.1875 29.046875 19.4375 29.046875 
L 13.421875 29.046875 
Q 13.03125 29.046875 12.671875 29.21875 
Q 12.3125 29.390625 12.03125 29.78125 
Q 11.765625 30.171875 11.59375 30.8125 
Q 11.421875 31.453125 11.421875 32.46875 
Q 11.421875 33.40625 11.5625 34.015625 
Q 11.71875 34.625 11.984375 34.984375 
Q 12.25 35.359375 12.59375 35.515625 
Q 12.9375 35.6875 13.375 35.6875 
L 18.890625 35.6875 
Q 22.125 35.6875 24.6875 36.515625 
Q 27.25 37.359375 29.03125 38.921875 
Q 30.8125 40.484375 31.765625 42.65625 
Q 32.71875 44.828125 32.71875 47.515625 
Q 32.71875 49.46875 32.078125 51.25 
Q 31.453125 53.03125 30.171875 54.34375 
Q 28.90625 55.671875 26.921875 56.421875 
Q 24.953125 57.171875 22.359375 57.171875 
Q 19.53125 57.171875 17.15625 56.3125 
Q 14.796875 55.46875 12.9375 54.484375 
Q 11.078125 53.515625 9.859375 52.65625 
Q 8.640625 51.8125 8.15625 51.8125 
Q 7.8125 51.8125 7.546875 51.921875 
Q 7.28125 52.046875 7.109375 52.40625 
Q 6.9375 52.78125 6.859375 53.4375 
Q 6.78125 54.109375 6.78125 55.171875 
Q 6.78125 55.90625 6.828125 56.46875 
Q 6.890625 57.03125 7.03125 57.4375 
Q 7.171875 57.859375 7.359375 58.203125 
Q 7.5625 58.546875 8.03125 59 
Q 8.5 59.46875 9.90625 60.34375 
Q 11.328125 61.234375 13.40625 62.078125 
Q 15.484375 62.9375 18.1875 63.515625 
Q 20.90625 64.109375 24.03125 64.109375 
Q 28.421875 64.109375 31.734375 62.984375 
Q 35.0625 61.859375 37.28125 59.8125 
Q 39.5 57.765625 40.59375 54.90625 
Q 41.703125 52.046875 41.703125 48.578125 
Q 41.703125 45.609375 40.921875 43.046875 
Q 40.140625 40.484375 38.625 38.5 
Q 37.109375 36.53125 34.90625 35.125 
Q 32.71875 33.734375 29.828125 33.203125 
L 29.828125 33.109375 
Q 33.109375 32.765625 35.8125 31.46875 
Q 38.53125 30.171875 40.484375 28.21875 
Q 42.4375 26.265625 43.53125 23.65625 
Q 44.625 21.046875 44.625 18.0625 
z
" id="Calibri-51"/>
      </defs>
      <g transform="translate(149.303694 150.322673)scale(0.06246 -0.06246)">
       <use xlink:href="#Calibri-51"/>
       <use x="50.683594" xlink:href="#Calibri-48"/>
      </g>
     </g>
    </g>
    <g id="xtick_5">
     <g id="line2d_9">
      <path clip-path="url(#p2e1e8ac603)" d="M 189.61901 144.574417 
L 189.61901 7.2 
" style="fill:none;stroke:#000000;stroke-linecap:square;stroke-opacity:0.1;stroke-width:0.5;"/>
     </g>
     <g id="line2d_10">
      <g>
       <use style="stroke:#000000;stroke-width:0.5;" x="189.61901" xlink:href="#m610aeb7718" y="144.574417"/>
      </g>
     </g>
     <g id="text_5">
      <!-- 40 -->
      <defs>
       <path d="M 47.796875 17.96875 
Q 47.796875 16.359375 47.3125 15.421875 
Q 46.828125 14.5 45.953125 14.5 
L 38.8125 14.5 
L 38.8125 1.21875 
Q 38.8125 0.828125 38.609375 0.5625 
Q 38.421875 0.296875 37.9375 0.09375 
Q 37.453125 -0.09375 36.671875 -0.1875 
Q 35.890625 -0.296875 34.671875 -0.296875 
Q 33.5 -0.296875 32.71875 -0.1875 
Q 31.9375 -0.09375 31.46875 0.09375 
Q 31 0.296875 30.828125 0.5625 
Q 30.671875 0.828125 30.671875 1.21875 
L 30.671875 14.5 
L 4.59375 14.5 
Q 4 14.5 3.609375 14.640625 
Q 3.21875 14.796875 2.90625 15.1875 
Q 2.59375 15.578125 2.46875 16.3125 
Q 2.34375 17.046875 2.34375 18.21875 
Q 2.34375 19.140625 2.390625 19.875 
Q 2.4375 20.609375 2.578125 21.21875 
Q 2.734375 21.828125 2.96875 22.390625 
Q 3.21875 22.953125 3.5625 23.578125 
L 26.3125 61.96875 
Q 26.5625 62.359375 27.015625 62.640625 
Q 27.484375 62.9375 28.21875 63.125 
Q 28.953125 63.328125 30.03125 63.40625 
Q 31.109375 63.484375 32.5625 63.484375 
Q 34.1875 63.484375 35.375 63.359375 
Q 36.578125 63.234375 37.296875 63.03125 
Q 38.03125 62.84375 38.421875 62.515625 
Q 38.8125 62.203125 38.8125 61.765625 
L 38.8125 21.4375 
L 45.953125 21.4375 
Q 46.78125 21.4375 47.28125 20.578125 
Q 47.796875 19.734375 47.796875 17.96875 
z
M 30.671875 56.109375 
L 30.5625 56.109375 
L 10.015625 21.4375 
L 30.671875 21.4375 
z
" id="Calibri-52"/>
      </defs>
      <g transform="translate(186.453069 150.322673)scale(0.06246 -0.06246)">
       <use xlink:href="#Calibri-52"/>
       <use x="50.683594" xlink:href="#Calibri-48"/>
      </g>
     </g>
    </g>
    <g id="xtick_6">
     <g id="line2d_11">
      <path clip-path="url(#p2e1e8ac603)" d="M 226.768385 144.574417 
L 226.768385 7.2 
" style="fill:none;stroke:#000000;stroke-linecap:square;stroke-opacity:0.1;stroke-width:0.5;"/>
     </g>
     <g id="line2d_12">
      <g>
       <use style="stroke:#000000;stroke-width:0.5;" x="226.768385" xlink:href="#m610aeb7718" y="144.574417"/>
      </g>
     </g>
     <g id="text_6">
      <!-- 50 -->
      <defs>
       <path d="M 44.828125 20.3125 
Q 44.828125 15.234375 43.109375 11.28125 
Q 41.40625 7.328125 38.28125 4.609375 
Q 35.15625 1.90625 30.828125 0.484375 
Q 26.515625 -0.921875 21.234375 -0.921875 
Q 18.3125 -0.921875 15.671875 -0.5 
Q 13.03125 -0.09375 10.984375 0.515625 
Q 8.9375 1.125 7.609375 1.703125 
Q 6.296875 2.296875 5.921875 2.640625 
Q 5.5625 2.984375 5.421875 3.265625 
Q 5.28125 3.5625 5.15625 3.96875 
Q 5.03125 4.390625 4.984375 5.03125 
Q 4.9375 5.671875 4.9375 6.546875 
Q 4.9375 7.375 5 8.03125 
Q 5.078125 8.6875 5.265625 9.09375 
Q 5.46875 9.515625 5.734375 9.703125 
Q 6 9.90625 6.34375 9.90625 
Q 6.84375 9.90625 7.859375 9.296875 
Q 8.890625 8.6875 10.625 7.984375 
Q 12.359375 7.28125 14.921875 6.640625 
Q 17.484375 6 21 6 
Q 24.265625 6 27 6.78125 
Q 29.734375 7.5625 31.703125 9.21875 
Q 33.6875 10.890625 34.8125 13.40625 
Q 35.9375 15.921875 35.9375 19.53125 
Q 35.9375 22.5625 34.984375 24.875 
Q 34.03125 27.203125 32.046875 28.734375 
Q 30.078125 30.28125 27.046875 31.03125 
Q 24.03125 31.78125 19.828125 31.78125 
Q 16.84375 31.78125 14.6875 31.484375 
Q 12.546875 31.203125 10.6875 31.203125 
Q 9.328125 31.203125 8.734375 31.828125 
Q 8.15625 32.46875 8.15625 34.28125 
L 8.15625 60.015625 
Q 8.15625 61.625 8.90625 62.40625 
Q 9.671875 63.1875 11.078125 63.1875 
L 39.0625 63.1875 
Q 39.453125 63.1875 39.8125 62.96875 
Q 40.1875 62.75 40.421875 62.296875 
Q 40.671875 61.859375 40.796875 61.171875 
Q 40.921875 60.5 40.921875 59.578125 
Q 40.921875 57.8125 40.421875 56.828125 
Q 39.9375 55.859375 39.0625 55.859375 
L 15.484375 55.859375 
L 15.484375 38.140625 
Q 17.1875 38.375 18.96875 38.421875 
Q 20.75 38.484375 23.09375 38.484375 
Q 28.515625 38.484375 32.5625 37.1875 
Q 36.625 35.890625 39.328125 33.515625 
Q 42.046875 31.15625 43.4375 27.78125 
Q 44.828125 24.421875 44.828125 20.3125 
z
" id="Calibri-53"/>
      </defs>
      <g transform="translate(223.602444 150.322673)scale(0.06246 -0.06246)">
       <use xlink:href="#Calibri-53"/>
       <use x="50.683594" xlink:href="#Calibri-48"/>
      </g>
     </g>
    </g>
    <g id="xtick_7">
     <g id="line2d_13">
      <path clip-path="url(#p2e1e8ac603)" d="M 263.91776 144.574417 
L 263.91776 7.2 
" style="fill:none;stroke:#000000;stroke-linecap:square;stroke-opacity:0.1;stroke-width:0.5;"/>
     </g>
     <g id="line2d_14">
      <g>
       <use style="stroke:#000000;stroke-width:0.5;" x="263.91776" xlink:href="#m610aeb7718" y="144.574417"/>
      </g>
     </g>
     <g id="text_7">
      <!-- 60 -->
      <defs>
       <path d="M 46.734375 20.453125 
Q 46.734375 16.3125 45.453125 12.421875 
Q 44.1875 8.546875 41.546875 5.59375 
Q 38.921875 2.640625 34.859375 0.859375 
Q 30.8125 -0.921875 25.296875 -0.921875 
Q 21.34375 -0.921875 18.3125 0.046875 
Q 15.28125 1.03125 13.03125 2.828125 
Q 10.796875 4.640625 9.296875 7.265625 
Q 7.8125 9.90625 6.90625 13.28125 
Q 6 16.65625 5.609375 20.65625 
Q 5.21875 24.65625 5.21875 29.25 
Q 5.21875 33.296875 5.65625 37.453125 
Q 6.109375 41.609375 7.21875 45.453125 
Q 8.34375 49.3125 10.265625 52.703125 
Q 12.203125 56.109375 15.109375 58.625 
Q 18.015625 61.140625 22.0625 62.59375 
Q 26.125 64.0625 31.5 64.0625 
Q 33.296875 64.0625 35.15625 63.84375 
Q 37.015625 63.625 38.578125 63.25 
Q 40.140625 62.890625 41.203125 62.453125 
Q 42.28125 62.015625 42.625 61.734375 
Q 42.96875 61.46875 43.140625 61.15625 
Q 43.3125 60.84375 43.40625 60.46875 
Q 43.5 60.109375 43.546875 59.640625 
Q 43.609375 59.1875 43.609375 58.5 
Q 43.609375 57.625 43.578125 56.984375 
Q 43.5625 56.34375 43.390625 55.953125 
Q 43.21875 55.5625 42.9375 55.359375 
Q 42.671875 55.171875 42.234375 55.171875 
Q 41.703125 55.171875 40.765625 55.515625 
Q 39.84375 55.859375 38.515625 56.265625 
Q 37.203125 56.6875 35.328125 57.03125 
Q 33.453125 57.375 30.953125 57.375 
Q 26.421875 57.375 23.140625 55.515625 
Q 19.875 53.65625 17.796875 50.53125 
Q 15.71875 47.40625 14.71875 43.28125 
Q 13.71875 39.15625 13.578125 34.671875 
Q 14.84375 35.40625 16.421875 36.125 
Q 18.015625 36.859375 19.890625 37.4375 
Q 21.78125 38.03125 23.875 38.390625 
Q 25.984375 38.765625 28.375 38.765625 
Q 33.5 38.765625 37.015625 37.375 
Q 40.53125 35.984375 42.703125 33.515625 
Q 44.875 31.0625 45.796875 27.703125 
Q 46.734375 24.359375 46.734375 20.453125 
z
M 38.234375 19.671875 
Q 38.234375 22.515625 37.671875 24.828125 
Q 37.109375 27.15625 35.78125 28.765625 
Q 34.46875 30.375 32.265625 31.25 
Q 30.078125 32.125 26.859375 32.125 
Q 25.046875 32.125 23.234375 31.8125 
Q 21.4375 31.5 19.75 30.9375 
Q 18.0625 30.375 16.515625 29.609375 
Q 14.984375 28.859375 13.71875 27.984375 
Q 13.71875 21.6875 14.515625 17.4375 
Q 15.328125 13.1875 16.859375 10.625 
Q 18.40625 8.0625 20.703125 6.953125 
Q 23 5.859375 26.078125 5.859375 
Q 29.203125 5.859375 31.5 7.03125 
Q 33.796875 8.203125 35.296875 10.171875 
Q 36.8125 12.15625 37.515625 14.625 
Q 38.234375 17.09375 38.234375 19.671875 
z
" id="Calibri-54"/>
      </defs>
      <g transform="translate(260.751819 150.322673)scale(0.06246 -0.06246)">
       <use xlink:href="#Calibri-54"/>
       <use x="50.683594" xlink:href="#Calibri-48"/>
      </g>
     </g>
    </g>
    <g id="text_8">
     <!-- risk $R$ [%] -->
     <defs>
      <path d="M 33.15625 42.28125 
Q 33.15625 41.21875 33.109375 40.484375 
Q 33.0625 39.75 32.90625 39.328125 
Q 32.765625 38.921875 32.546875 38.703125 
Q 32.328125 38.484375 31.9375 38.484375 
Q 31.546875 38.484375 30.984375 38.703125 
Q 30.421875 38.921875 29.703125 39.140625 
Q 29 39.359375 28.125 39.546875 
Q 27.25 39.75 26.21875 39.75 
Q 25 39.75 23.828125 39.25 
Q 22.65625 38.765625 21.359375 37.640625 
Q 20.0625 36.53125 18.640625 34.671875 
Q 17.234375 32.8125 15.53125 30.125 
L 15.53125 1.21875 
Q 15.53125 0.828125 15.328125 0.5625 
Q 15.140625 0.296875 14.703125 0.09375 
Q 14.265625 -0.09375 13.484375 -0.1875 
Q 12.703125 -0.296875 11.46875 -0.296875 
Q 10.296875 -0.296875 9.515625 -0.1875 
Q 8.734375 -0.09375 8.265625 0.09375 
Q 7.8125 0.296875 7.640625 0.5625 
Q 7.46875 0.828125 7.46875 1.21875 
L 7.46875 45.171875 
Q 7.46875 45.5625 7.609375 45.828125 
Q 7.765625 46.09375 8.203125 46.3125 
Q 8.640625 46.53125 9.328125 46.609375 
Q 10.015625 46.6875 11.140625 46.6875 
Q 12.203125 46.6875 12.90625 46.609375 
Q 13.625 46.53125 14.015625 46.3125 
Q 14.40625 46.09375 14.578125 45.828125 
Q 14.75 45.5625 14.75 45.171875 
L 14.75 38.765625 
Q 16.546875 41.40625 18.140625 43.0625 
Q 19.734375 44.734375 21.140625 45.671875 
Q 22.5625 46.625 23.953125 46.984375 
Q 25.34375 47.359375 26.765625 47.359375 
Q 27.390625 47.359375 28.1875 47.28125 
Q 29 47.21875 29.875 47.015625 
Q 30.765625 46.828125 31.46875 46.578125 
Q 32.171875 46.34375 32.46875 46.09375 
Q 32.765625 45.84375 32.859375 45.625 
Q 32.953125 45.40625 33.03125 45.0625 
Q 33.109375 44.734375 33.125 44.0625 
Q 33.15625 43.40625 33.15625 42.28125 
z
" id="Calibri-114"/>
      <path d="M 15.53125 1.21875 
Q 15.53125 0.828125 15.328125 0.5625 
Q 15.140625 0.296875 14.703125 0.09375 
Q 14.265625 -0.09375 13.484375 -0.1875 
Q 12.703125 -0.296875 11.46875 -0.296875 
Q 10.296875 -0.296875 9.515625 -0.1875 
Q 8.734375 -0.09375 8.265625 0.09375 
Q 7.8125 0.296875 7.640625 0.5625 
Q 7.46875 0.828125 7.46875 1.21875 
L 7.46875 45.171875 
Q 7.46875 45.515625 7.640625 45.796875 
Q 7.8125 46.09375 8.265625 46.28125 
Q 8.734375 46.484375 9.515625 46.578125 
Q 10.296875 46.6875 11.46875 46.6875 
Q 12.703125 46.6875 13.484375 46.578125 
Q 14.265625 46.484375 14.703125 46.28125 
Q 15.140625 46.09375 15.328125 45.796875 
Q 15.53125 45.515625 15.53125 45.171875 
z
M 16.453125 60.015625 
Q 16.453125 57.171875 15.375 56.140625 
Q 14.3125 55.125 11.421875 55.125 
Q 8.59375 55.125 7.546875 56.125 
Q 6.5 57.125 6.5 59.90625 
Q 6.5 62.75 7.5625 63.765625 
Q 8.640625 64.796875 11.53125 64.796875 
Q 14.359375 64.796875 15.40625 63.796875 
Q 16.453125 62.796875 16.453125 60.015625 
z
" id="Calibri-105"/>
      <path d="M 35.0625 13.1875 
Q 35.0625 9.8125 33.8125 7.171875 
Q 32.5625 4.546875 30.265625 2.734375 
Q 27.984375 0.921875 24.796875 0 
Q 21.625 -0.921875 17.828125 -0.921875 
Q 15.484375 -0.921875 13.359375 -0.5625 
Q 11.234375 -0.203125 9.546875 0.359375 
Q 7.859375 0.921875 6.6875 1.53125 
Q 5.515625 2.15625 4.96875 2.640625 
Q 4.4375 3.125 4.1875 4 
Q 3.953125 4.890625 3.953125 6.390625 
Q 3.953125 7.328125 4.046875 7.953125 
Q 4.15625 8.59375 4.296875 8.984375 
Q 4.4375 9.375 4.703125 9.546875 
Q 4.984375 9.71875 5.328125 9.71875 
Q 5.859375 9.71875 6.90625 9.0625 
Q 7.953125 8.40625 9.484375 7.625 
Q 11.03125 6.84375 13.125 6.171875 
Q 15.234375 5.515625 17.96875 5.515625 
Q 20.015625 5.515625 21.671875 5.953125 
Q 23.34375 6.390625 24.5625 7.25 
Q 25.78125 8.109375 26.4375 9.421875 
Q 27.09375 10.75 27.09375 12.546875 
Q 27.09375 14.40625 26.140625 15.671875 
Q 25.203125 16.9375 23.640625 17.90625 
Q 22.078125 18.890625 20.125 19.640625 
Q 18.171875 20.40625 16.09375 21.234375 
Q 14.015625 22.078125 12.03125 23.125 
Q 10.0625 24.171875 8.5 25.6875 
Q 6.9375 27.203125 5.984375 29.296875 
Q 5.03125 31.390625 5.03125 34.328125 
Q 5.03125 36.921875 6.03125 39.28125 
Q 7.03125 41.65625 9.03125 43.4375 
Q 11.03125 45.21875 14.03125 46.28125 
Q 17.046875 47.359375 21.046875 47.359375 
Q 22.796875 47.359375 24.546875 47.0625 
Q 26.3125 46.78125 27.734375 46.34375 
Q 29.15625 45.90625 30.15625 45.390625 
Q 31.15625 44.875 31.65625 44.484375 
Q 32.171875 44.09375 32.34375 43.796875 
Q 32.515625 43.5 32.59375 43.140625 
Q 32.671875 42.78125 32.734375 42.234375 
Q 32.8125 41.703125 32.8125 40.921875 
Q 32.8125 40.09375 32.734375 39.484375 
Q 32.671875 38.875 32.5 38.484375 
Q 32.328125 38.09375 32.078125 37.921875 
Q 31.84375 37.75 31.546875 37.75 
Q 31.109375 37.75 30.265625 38.28125 
Q 29.4375 38.8125 28.125 39.421875 
Q 26.8125 40.046875 25.03125 40.578125 
Q 23.25 41.109375 20.953125 41.109375 
Q 18.890625 41.109375 17.328125 40.640625 
Q 15.765625 40.1875 14.765625 39.328125 
Q 13.765625 38.484375 13.25 37.3125 
Q 12.75 36.140625 12.75 34.765625 
Q 12.75 32.859375 13.71875 31.5625 
Q 14.703125 30.28125 16.265625 29.296875 
Q 17.828125 28.328125 19.828125 27.546875 
Q 21.828125 26.765625 23.90625 25.921875 
Q 25.984375 25.09375 28 24.0625 
Q 30.03125 23.046875 31.59375 21.578125 
Q 33.15625 20.125 34.109375 18.0625 
Q 35.0625 16.015625 35.0625 13.1875 
z
" id="Calibri-115"/>
      <path d="M 43.5625 1.265625 
Q 43.5625 0.875 43.359375 0.578125 
Q 43.171875 0.296875 42.703125 0.09375 
Q 42.234375 -0.09375 41.40625 -0.1875 
Q 40.578125 -0.296875 39.3125 -0.296875 
Q 37.984375 -0.296875 37.125 -0.21875 
Q 36.28125 -0.140625 35.6875 0.03125 
Q 35.109375 0.203125 34.734375 0.515625 
Q 34.375 0.828125 34.078125 1.265625 
L 15.53125 25.59375 
L 15.53125 1.21875 
Q 15.53125 0.828125 15.328125 0.5625 
Q 15.140625 0.296875 14.703125 0.09375 
Q 14.265625 -0.09375 13.484375 -0.1875 
Q 12.703125 -0.296875 11.46875 -0.296875 
Q 10.296875 -0.296875 9.515625 -0.1875 
Q 8.734375 -0.09375 8.265625 0.09375 
Q 7.8125 0.296875 7.640625 0.5625 
Q 7.46875 0.828125 7.46875 1.21875 
L 7.46875 66.453125 
Q 7.46875 66.84375 7.640625 67.140625 
Q 7.8125 67.4375 8.265625 67.625 
Q 8.734375 67.828125 9.515625 67.921875 
Q 10.296875 68.015625 11.46875 68.015625 
Q 12.703125 68.015625 13.484375 67.921875 
Q 14.265625 67.828125 14.703125 67.625 
Q 15.140625 67.4375 15.328125 67.140625 
Q 15.53125 66.84375 15.53125 66.453125 
L 15.53125 26.703125 
L 32.125 44.96875 
Q 32.515625 45.453125 32.953125 45.765625 
Q 33.40625 46.09375 34.015625 46.3125 
Q 34.625 46.53125 35.453125 46.609375 
Q 36.28125 46.6875 37.453125 46.6875 
Q 38.671875 46.6875 39.5 46.609375 
Q 40.328125 46.53125 40.84375 46.359375 
Q 41.359375 46.1875 41.578125 45.921875 
Q 41.796875 45.65625 41.796875 45.21875 
Q 41.796875 44.625 41.46875 44.03125 
Q 41.15625 43.453125 40.4375 42.671875 
L 24.515625 26.765625 
L 42.390625 3.5625 
Q 43.015625 2.734375 43.28125 2.21875 
Q 43.5625 1.703125 43.5625 1.265625 
z
" id="Calibri-107"/>
      <path id="Calibri-32"/>
      <path d="M 39.5 30.21875 
Q 41.84375 28.46875 43.28125 26.015625 
Q 44.734375 23.578125 45.609375 19.234375 
L 46.734375 13.578125 
Q 47.078125 11.8125 47.484375 10.296875 
Q 47.90625 8.796875 48.46875 7.390625 
Q 49.03125 6 49.6875 5.171875 
Q 50.34375 4.34375 51.09375 3.796875 
Q 51.859375 3.265625 52.8125 2.953125 
Q 53.765625 2.640625 55.21875 2.390625 
L 54.734375 0 
L 41.21875 0 
Q 39.65625 4.34375 38.421875 10.359375 
L 36.28125 20.703125 
Q 35.75 23.390625 34.984375 25.21875 
Q 34.234375 27.046875 33.171875 28.046875 
Q 32.125 29.046875 30.734375 29.359375 
Q 29.34375 29.6875 27.34375 29.6875 
L 21.78125 29.6875 
L 18.359375 14.203125 
Q 17.921875 12.3125 17.75 11.1875 
Q 17.578125 10.0625 17.453125 8.8125 
Q 17.328125 7.5625 17.328125 6.59375 
Q 17.328125 5.078125 17.8125 4.21875 
Q 18.3125 3.375 19.28125 2.984375 
Q 20.265625 2.59375 22.65625 2.390625 
L 22.125 0 
L 2.046875 0 
L 2.59375 2.390625 
Q 4.4375 2.6875 5.359375 3.34375 
Q 6.296875 4 6.921875 5.171875 
Q 7.5625 6.34375 8.09375 8.03125 
Q 8.640625 9.71875 9.71875 14.546875 
L 18.015625 52.15625 
Q 19.09375 57.03125 19.09375 59.859375 
Q 19.09375 62.25 17.96875 63.171875 
Q 16.84375 64.109375 14.3125 64.265625 
L 14.84375 66.65625 
L 36.578125 66.65625 
Q 41.75 66.65625 45.015625 66.046875 
Q 48.296875 65.4375 50.609375 64.203125 
Q 52.9375 62.984375 54.5 61.046875 
Q 56.0625 59.125 56.84375 56.703125 
Q 57.625 54.296875 57.625 51.5625 
Q 57.625 47.21875 56.171875 43.84375 
Q 54.734375 40.484375 52.234375 37.9375 
Q 49.75 35.40625 46.453125 33.640625 
Q 43.171875 31.890625 39.5 30.765625 
z
M 28.46875 33.890625 
Q 33.796875 33.890625 37.3125 34.9375 
Q 40.828125 35.984375 43.171875 38.125 
Q 45.515625 40.28125 47.015625 43.796875 
Q 48.53125 47.3125 48.53125 51.421875 
Q 48.53125 53.515625 48.140625 55.140625 
Q 47.75 56.78125 47.109375 57.859375 
Q 46.484375 58.9375 45.5 59.765625 
Q 44.53125 60.59375 43.0625 61.203125 
Q 41.609375 61.8125 39.671875 62.078125 
Q 37.75 62.359375 34.421875 62.359375 
Q 31.84375 62.359375 28.953125 62.15625 
L 22.703125 33.890625 
z
" id="Cambria-Italic-82"/>
      <path d="M 26.3125 -12.703125 
Q 26.3125 -14.3125 25.953125 -14.96875 
Q 25.59375 -15.625 24.90625 -15.625 
L 12.40625 -15.625 
Q 11.8125 -15.625 11.28125 -15.453125 
Q 10.75 -15.28125 10.296875 -14.890625 
Q 9.859375 -14.5 9.59375 -13.84375 
Q 9.328125 -13.1875 9.328125 -12.203125 
L 9.328125 64.890625 
Q 9.328125 65.828125 9.59375 66.484375 
Q 9.859375 67.140625 10.296875 67.546875 
Q 10.75 67.96875 11.28125 68.140625 
Q 11.8125 68.3125 12.40625 68.3125 
L 24.90625 68.3125 
Q 25.203125 68.3125 25.46875 68.15625 
Q 25.734375 68.015625 25.921875 67.625 
Q 26.125 67.234375 26.21875 66.671875 
Q 26.3125 66.109375 26.3125 65.28125 
Q 26.3125 63.71875 25.953125 63.03125 
Q 25.59375 62.359375 24.90625 62.359375 
L 16.9375 62.359375 
L 16.9375 -9.71875 
L 24.90625 -9.71875 
Q 25.203125 -9.71875 25.46875 -9.859375 
Q 25.734375 -10.015625 25.921875 -10.375 
Q 26.125 -10.75 26.21875 -11.296875 
Q 26.3125 -11.859375 26.3125 -12.703125 
z
" id="Calibri-91"/>
      <path d="M 30.71875 47.5625 
Q 30.71875 43.796875 29.875 40.71875 
Q 29.046875 37.65625 27.34375 35.46875 
Q 25.640625 33.296875 23.015625 32.078125 
Q 20.40625 30.859375 16.890625 30.859375 
Q 13.328125 30.859375 10.78125 31.984375 
Q 8.25 33.109375 6.640625 35.234375 
Q 5.03125 37.359375 4.265625 40.40625 
Q 3.515625 43.453125 3.515625 47.359375 
Q 3.515625 50.9375 4.3125 53.953125 
Q 5.125 56.984375 6.78125 59.171875 
Q 8.453125 61.375 11.0625 62.640625 
Q 13.671875 63.921875 17.234375 63.921875 
Q 21.09375 63.921875 23.703125 62.59375 
Q 26.3125 61.28125 27.875 59.0625 
Q 29.4375 56.84375 30.078125 53.859375 
Q 30.71875 50.875 30.71875 47.5625 
z
M 23.875 47.3125 
Q 23.875 50.046875 23.484375 52.171875 
Q 23.09375 54.296875 22.28125 55.703125 
Q 21.484375 57.125 20.15625 57.828125 
Q 18.84375 58.546875 17.046875 58.546875 
Q 15.328125 58.546875 14.0625 57.859375 
Q 12.796875 57.1875 11.984375 55.8125 
Q 11.1875 54.453125 10.796875 52.421875 
Q 10.40625 50.390625 10.40625 47.65625 
Q 10.40625 44.34375 10.859375 42.109375 
Q 11.328125 39.890625 12.171875 38.59375 
Q 13.03125 37.3125 14.328125 36.796875 
Q 15.625 36.28125 17.28125 36.28125 
Q 19.234375 36.28125 20.484375 37.015625 
Q 21.734375 37.75 22.484375 39.1875 
Q 23.25 40.625 23.5625 42.65625 
Q 23.875 44.6875 23.875 47.3125 
z
M 67.96875 15.96875 
Q 67.96875 12.203125 67.140625 9.125 
Q 66.3125 6.0625 64.59375 3.875 
Q 62.890625 1.703125 60.28125 0.484375 
Q 57.671875 -0.734375 54.15625 -0.734375 
Q 50.59375 -0.734375 48.046875 0.390625 
Q 45.515625 1.515625 43.890625 3.640625 
Q 42.28125 5.765625 41.515625 8.8125 
Q 40.765625 11.859375 40.765625 15.765625 
Q 40.765625 19.34375 41.578125 22.359375 
Q 42.390625 25.390625 44.046875 27.578125 
Q 45.703125 29.78125 48.3125 31.046875 
Q 50.921875 32.328125 54.5 32.328125 
Q 58.34375 32.328125 60.953125 31 
Q 63.578125 29.6875 65.140625 27.46875 
Q 66.703125 25.25 67.328125 22.265625 
Q 67.96875 19.28125 67.96875 15.96875 
z
M 61.140625 15.71875 
Q 61.140625 18.453125 60.75 20.578125 
Q 60.359375 22.703125 59.546875 24.109375 
Q 58.734375 25.53125 57.421875 26.234375 
Q 56.109375 26.953125 54.296875 26.953125 
Q 52.59375 26.953125 51.3125 26.265625 
Q 50.046875 25.59375 49.234375 24.21875 
Q 48.4375 22.859375 48.046875 20.828125 
Q 47.65625 18.796875 47.65625 16.0625 
Q 47.65625 12.75 48.109375 10.515625 
Q 48.578125 8.296875 49.4375 7 
Q 50.296875 5.71875 51.578125 5.203125 
Q 52.875 4.6875 54.546875 4.6875 
Q 56.5 4.6875 57.734375 5.421875 
Q 58.984375 6.15625 59.734375 7.59375 
Q 60.5 9.03125 60.8125 11.0625 
Q 61.140625 13.09375 61.140625 15.71875 
z
M 16.890625 -0.390625 
Q 16.65625 -0.828125 16.3125 -1.046875 
Q 15.96875 -1.265625 15.46875 -1.4375 
Q 14.984375 -1.609375 14.296875 -1.6875 
Q 13.625 -1.765625 12.640625 -1.765625 
Q 11.578125 -1.765625 10.90625 -1.5625 
Q 10.25 -1.375 9.984375 -1.046875 
Q 9.71875 -0.734375 9.78125 -0.265625 
Q 9.859375 0.203125 10.25 0.78125 
L 54.203125 63.71875 
Q 54.4375 64.109375 54.78125 64.375 
Q 55.125 64.65625 55.640625 64.796875 
Q 56.15625 64.9375 56.8125 65.015625 
Q 57.46875 65.09375 58.5 65.09375 
Q 59.515625 65.09375 60.171875 64.921875 
Q 60.84375 64.75 61.125 64.40625 
Q 61.421875 64.0625 61.34375 63.578125 
Q 61.28125 63.09375 60.890625 62.546875 
z
" id="Calibri-37"/>
      <path d="M 21.390625 -12.203125 
Q 21.390625 -13.1875 21.109375 -13.84375 
Q 20.84375 -14.5 20.40625 -14.890625 
Q 19.96875 -15.28125 19.40625 -15.453125 
Q 18.84375 -15.625 18.265625 -15.625 
L 5.8125 -15.625 
Q 5.125 -15.625 4.75 -14.96875 
Q 4.390625 -14.3125 4.390625 -12.703125 
Q 4.390625 -11.859375 4.46875 -11.296875 
Q 4.546875 -10.75 4.734375 -10.375 
Q 4.9375 -10.015625 5.203125 -9.859375 
Q 5.46875 -9.71875 5.8125 -9.71875 
L 13.765625 -9.71875 
L 13.765625 62.359375 
L 5.8125 62.359375 
Q 5.125 62.359375 4.75 63.03125 
Q 4.390625 63.71875 4.390625 65.28125 
Q 4.390625 66.109375 4.46875 66.671875 
Q 4.546875 67.234375 4.734375 67.625 
Q 4.9375 68.015625 5.203125 68.15625 
Q 5.46875 68.3125 5.8125 68.3125 
L 18.265625 68.3125 
Q 18.84375 68.3125 19.40625 68.140625 
Q 19.96875 67.96875 20.40625 67.546875 
Q 20.84375 67.140625 21.109375 66.484375 
Q 21.390625 65.828125 21.390625 64.890625 
z
" id="Calibri-93"/>
     </defs>
     <g transform="translate(132.687222 159.554696)scale(0.09 -0.09)">
      <use transform="translate(0 0.6875)" xlink:href="#Calibri-114"/>
      <use transform="translate(34.863281 0.6875)" xlink:href="#Calibri-105"/>
      <use transform="translate(57.8125 0.6875)" xlink:href="#Calibri-115"/>
      <use transform="translate(96.923828 0.6875)" xlink:href="#Calibri-107"/>
      <use transform="translate(142.382812 0.6875)" xlink:href="#Calibri-32"/>
      <use transform="translate(164.990234 0.6875)" xlink:href="#Cambria-Italic-82"/>
      <use transform="translate(224.023438 0.6875)" xlink:href="#Calibri-32"/>
      <use transform="translate(246.630859 0.6875)" xlink:href="#Calibri-91"/>
      <use transform="translate(277.294922 0.6875)" xlink:href="#Calibri-37"/>
      <use transform="translate(348.779297 0.6875)" xlink:href="#Calibri-93"/>
     </g>
    </g>
   </g>
   <g id="matplotlib.axis_2">
    <g id="ytick_1">
     <g id="line2d_15">
      <path clip-path="url(#p2e1e8ac603)" d="M 30.144939 144.574417 
L 269.429506 144.574417 
" style="fill:none;stroke:#000000;stroke-linecap:square;stroke-opacity:0.1;stroke-width:0.5;"/>
     </g>
     <g id="line2d_16">
      <defs>
       <path d="M 0 0 
L 3 0 
" id="m4cbf86e12d" style="stroke:#000000;stroke-width:0.5;"/>
      </defs>
      <g>
       <use style="stroke:#000000;stroke-width:0.5;" x="30.144939" xlink:href="#m4cbf86e12d" y="144.574417"/>
      </g>
     </g>
     <g id="text_9">
      <!-- 0.00 -->
      <defs>
       <path d="M 17.875 5.328125 
Q 17.875 1.859375 16.71875 0.703125 
Q 15.578125 -0.4375 12.546875 -0.4375 
Q 9.625 -0.4375 8.5 0.6875 
Q 7.375 1.8125 7.375 5.171875 
Q 7.375 8.640625 8.515625 9.78125 
Q 9.671875 10.9375 12.703125 10.9375 
Q 15.625 10.9375 16.75 9.8125 
Q 17.875 8.6875 17.875 5.328125 
z
" id="Calibri-46"/>
      </defs>
      <g transform="translate(17.57 146.698545)scale(0.06246 -0.06246)">
       <use xlink:href="#Calibri-48"/>
       <use x="50.683594" xlink:href="#Calibri-46"/>
       <use x="75.927734" xlink:href="#Calibri-48"/>
       <use x="126.611328" xlink:href="#Calibri-48"/>
      </g>
     </g>
    </g>
    <g id="ytick_2">
     <g id="line2d_17">
      <path clip-path="url(#p2e1e8ac603)" d="M 30.144939 128.428543 
L 269.429506 128.428543 
" style="fill:none;stroke:#000000;stroke-linecap:square;stroke-opacity:0.1;stroke-width:0.5;"/>
     </g>
     <g id="line2d_18">
      <g>
       <use style="stroke:#000000;stroke-width:0.5;" x="30.144939" xlink:href="#m4cbf86e12d" y="128.428543"/>
      </g>
     </g>
     <g id="text_10">
      <!-- 0.02 -->
      <g transform="translate(17.57 130.552671)scale(0.06246 -0.06246)">
       <use xlink:href="#Calibri-48"/>
       <use x="50.683594" xlink:href="#Calibri-46"/>
       <use x="75.927734" xlink:href="#Calibri-48"/>
       <use x="126.611328" xlink:href="#Calibri-50"/>
      </g>
     </g>
    </g>
    <g id="ytick_3">
     <g id="line2d_19">
      <path clip-path="url(#p2e1e8ac603)" d="M 30.144939 112.282669 
L 269.429506 112.282669 
" style="fill:none;stroke:#000000;stroke-linecap:square;stroke-opacity:0.1;stroke-width:0.5;"/>
     </g>
     <g id="line2d_20">
      <g>
       <use style="stroke:#000000;stroke-width:0.5;" x="30.144939" xlink:href="#m4cbf86e12d" y="112.282669"/>
      </g>
     </g>
     <g id="text_11">
      <!-- 0.04 -->
      <g transform="translate(17.57 114.406797)scale(0.06246 -0.06246)">
       <use xlink:href="#Calibri-48"/>
       <use x="50.683594" xlink:href="#Calibri-46"/>
       <use x="75.927734" xlink:href="#Calibri-48"/>
       <use x="126.611328" xlink:href="#Calibri-52"/>
      </g>
     </g>
    </g>
    <g id="ytick_4">
     <g id="line2d_21">
      <path clip-path="url(#p2e1e8ac603)" d="M 30.144939 96.136795 
L 269.429506 96.136795 
" style="fill:none;stroke:#000000;stroke-linecap:square;stroke-opacity:0.1;stroke-width:0.5;"/>
     </g>
     <g id="line2d_22">
      <g>
       <use style="stroke:#000000;stroke-width:0.5;" x="30.144939" xlink:href="#m4cbf86e12d" y="96.136795"/>
      </g>
     </g>
     <g id="text_12">
      <!-- 0.06 -->
      <g transform="translate(17.57 98.260923)scale(0.06246 -0.06246)">
       <use xlink:href="#Calibri-48"/>
       <use x="50.683594" xlink:href="#Calibri-46"/>
       <use x="75.927734" xlink:href="#Calibri-48"/>
       <use x="126.611328" xlink:href="#Calibri-54"/>
      </g>
     </g>
    </g>
    <g id="ytick_5">
     <g id="line2d_23">
      <path clip-path="url(#p2e1e8ac603)" d="M 30.144939 79.990921 
L 269.429506 79.990921 
" style="fill:none;stroke:#000000;stroke-linecap:square;stroke-opacity:0.1;stroke-width:0.5;"/>
     </g>
     <g id="line2d_24">
      <g>
       <use style="stroke:#000000;stroke-width:0.5;" x="30.144939" xlink:href="#m4cbf86e12d" y="79.990921"/>
      </g>
     </g>
     <g id="text_13">
      <!-- 0.08 -->
      <defs>
       <path d="M 46.578125 16.21875 
Q 46.578125 12.109375 45.109375 8.90625 
Q 43.65625 5.71875 40.890625 3.515625 
Q 38.140625 1.3125 34.078125 0.1875 
Q 30.03125 -0.921875 24.8125 -0.921875 
Q 19.921875 -0.921875 16.0625 0.09375 
Q 12.203125 1.125 9.515625 3.125 
Q 6.84375 5.125 5.421875 8.046875 
Q 4 10.984375 4 14.75 
Q 4 17.71875 4.96875 20.203125 
Q 5.953125 22.703125 7.78125 24.796875 
Q 9.625 26.90625 12.296875 28.734375 
Q 14.984375 30.5625 18.359375 32.234375 
Q 15.4375 33.734375 13.1875 35.421875 
Q 10.9375 37.109375 9.375 39.078125 
Q 7.8125 41.0625 7 43.3125 
Q 6.203125 45.5625 6.203125 48.1875 
Q 6.203125 51.515625 7.390625 54.421875 
Q 8.59375 57.328125 11 59.46875 
Q 13.421875 61.625 17.15625 62.859375 
Q 20.90625 64.109375 25.875 64.109375 
Q 30.671875 64.109375 34.15625 62.953125 
Q 37.640625 61.8125 39.90625 59.828125 
Q 42.1875 57.859375 43.265625 55.171875 
Q 44.34375 52.484375 44.34375 49.421875 
Q 44.34375 46.921875 43.53125 44.625 
Q 42.71875 42.328125 41.15625 40.28125 
Q 39.59375 38.234375 37.328125 36.453125 
Q 35.0625 34.671875 32.125 33.109375 
Q 35.59375 31.390625 38.296875 29.578125 
Q 41.015625 27.78125 42.84375 25.703125 
Q 44.671875 23.640625 45.625 21.3125 
Q 46.578125 19 46.578125 16.21875 
z
M 36.03125 48.640625 
Q 36.03125 50.6875 35.328125 52.34375 
Q 34.625 54 33.25 55.171875 
Q 31.890625 56.34375 29.859375 56.953125 
Q 27.828125 57.5625 25.25 57.5625 
Q 19.96875 57.5625 17.25 55.171875 
Q 14.546875 52.78125 14.546875 48.640625 
Q 14.546875 46.734375 15.203125 45.09375 
Q 15.875 43.453125 17.265625 41.984375 
Q 18.65625 40.53125 20.78125 39.140625 
Q 22.90625 37.75 25.828125 36.234375 
Q 30.765625 38.765625 33.390625 41.84375 
Q 36.03125 44.921875 36.03125 48.640625 
z
M 38.09375 15.328125 
Q 38.09375 17.578125 37.25 19.40625 
Q 36.421875 21.234375 34.734375 22.828125 
Q 33.0625 24.421875 30.546875 25.90625 
Q 28.03125 27.390625 24.703125 29 
Q 21.625 27.484375 19.3125 25.96875 
Q 17 24.46875 15.5 22.84375 
Q 14.015625 21.234375 13.25 19.453125 
Q 12.5 17.671875 12.5 15.53125 
Q 12.5 10.796875 15.75 8.203125 
Q 19 5.609375 25.4375 5.609375 
Q 31.6875 5.609375 34.890625 8.21875 
Q 38.09375 10.84375 38.09375 15.328125 
z
" id="Calibri-56"/>
      </defs>
      <g transform="translate(17.57 82.115049)scale(0.06246 -0.06246)">
       <use xlink:href="#Calibri-48"/>
       <use x="50.683594" xlink:href="#Calibri-46"/>
       <use x="75.927734" xlink:href="#Calibri-48"/>
       <use x="126.611328" xlink:href="#Calibri-56"/>
      </g>
     </g>
    </g>
    <g id="ytick_6">
     <g id="line2d_25">
      <path clip-path="url(#p2e1e8ac603)" d="M 30.144939 63.845047 
L 269.429506 63.845047 
" style="fill:none;stroke:#000000;stroke-linecap:square;stroke-opacity:0.1;stroke-width:0.5;"/>
     </g>
     <g id="line2d_26">
      <g>
       <use style="stroke:#000000;stroke-width:0.5;" x="30.144939" xlink:href="#m4cbf86e12d" y="63.845047"/>
      </g>
     </g>
     <g id="text_14">
      <!-- 0.10 -->
      <g transform="translate(17.57 65.969175)scale(0.06246 -0.06246)">
       <use xlink:href="#Calibri-48"/>
       <use x="50.683594" xlink:href="#Calibri-46"/>
       <use x="75.927734" xlink:href="#Calibri-49"/>
       <use x="126.611328" xlink:href="#Calibri-48"/>
      </g>
     </g>
    </g>
    <g id="ytick_7">
     <g id="line2d_27">
      <path clip-path="url(#p2e1e8ac603)" d="M 30.144939 47.699173 
L 269.429506 47.699173 
" style="fill:none;stroke:#000000;stroke-linecap:square;stroke-opacity:0.1;stroke-width:0.5;"/>
     </g>
     <g id="line2d_28">
      <g>
       <use style="stroke:#000000;stroke-width:0.5;" x="30.144939" xlink:href="#m4cbf86e12d" y="47.699173"/>
      </g>
     </g>
     <g id="text_15">
      <!-- 0.12 -->
      <g transform="translate(17.57 49.823301)scale(0.06246 -0.06246)">
       <use xlink:href="#Calibri-48"/>
       <use x="50.683594" xlink:href="#Calibri-46"/>
       <use x="75.927734" xlink:href="#Calibri-49"/>
       <use x="126.611328" xlink:href="#Calibri-50"/>
      </g>
     </g>
    </g>
    <g id="ytick_8">
     <g id="line2d_29">
      <path clip-path="url(#p2e1e8ac603)" d="M 30.144939 31.553299 
L 269.429506 31.553299 
" style="fill:none;stroke:#000000;stroke-linecap:square;stroke-opacity:0.1;stroke-width:0.5;"/>
     </g>
     <g id="line2d_30">
      <g>
       <use style="stroke:#000000;stroke-width:0.5;" x="30.144939" xlink:href="#m4cbf86e12d" y="31.553299"/>
      </g>
     </g>
     <g id="text_16">
      <!-- 0.14 -->
      <g transform="translate(17.57 33.677427)scale(0.06246 -0.06246)">
       <use xlink:href="#Calibri-48"/>
       <use x="50.683594" xlink:href="#Calibri-46"/>
       <use x="75.927734" xlink:href="#Calibri-49"/>
       <use x="126.611328" xlink:href="#Calibri-52"/>
      </g>
     </g>
    </g>
    <g id="ytick_9">
     <g id="line2d_31">
      <path clip-path="url(#p2e1e8ac603)" d="M 30.144939 15.407425 
L 269.429506 15.407425 
" style="fill:none;stroke:#000000;stroke-linecap:square;stroke-opacity:0.1;stroke-width:0.5;"/>
     </g>
     <g id="line2d_32">
      <g>
       <use style="stroke:#000000;stroke-width:0.5;" x="30.144939" xlink:href="#m4cbf86e12d" y="15.407425"/>
      </g>
     </g>
     <g id="text_17">
      <!-- 0.16 -->
      <g transform="translate(17.57 17.531553)scale(0.06246 -0.06246)">
       <use xlink:href="#Calibri-48"/>
       <use x="50.683594" xlink:href="#Calibri-46"/>
       <use x="75.927734" xlink:href="#Calibri-49"/>
       <use x="126.611328" xlink:href="#Calibri-54"/>
      </g>
     </g>
    </g>
    <g id="text_18">
     <!-- $p(R)$ -->
     <defs>
      <path d="M 10.453125 -8.640625 
Q 9.96875 -10.984375 9.84375 -12.25 
Q 9.71875 -13.53125 9.71875 -14.359375 
Q 9.71875 -15.828125 10.203125 -16.65625 
Q 10.6875 -17.484375 11.71875 -17.921875 
Q 12.75 -18.359375 15.09375 -18.609375 
L 14.703125 -21 
L -0.390625 -21 
L 11.96875 33.296875 
Q 12.890625 37.40625 12.890625 40.328125 
Q 12.890625 41.703125 12.46875 42.453125 
Q 12.0625 43.21875 11.0625 43.578125 
Q 10.0625 43.953125 7.671875 44.09375 
L 8.25 46.6875 
L 19.34375 47.125 
L 22.125 47.125 
L 18.84375 34.421875 
L 19.4375 34.234375 
Q 28.46875 47.46875 37.40625 47.46875 
Q 42.71875 47.46875 45.671875 43.40625 
Q 48.640625 39.359375 48.640625 31.984375 
Q 48.640625 26.703125 47.1875 21.375 
Q 45.75 16.0625 43.1875 11.765625 
Q 40.625 7.46875 37.46875 4.703125 
Q 34.328125 1.953125 30.828125 0.578125 
Q 27.34375 -0.78125 23.484375 -0.78125 
Q 17 -0.78125 12.703125 2.046875 
z
M 16.3125 17 
Q 15.828125 14.40625 15.703125 13.03125 
Q 15.578125 11.671875 15.578125 10.359375 
Q 15.578125 6.546875 17.203125 4.8125 
Q 18.84375 3.078125 22.859375 3.078125 
Q 25.34375 3.078125 27.4375 4.046875 
Q 29.546875 5.03125 31.421875 6.875 
Q 33.296875 8.734375 34.8125 11.375 
Q 36.328125 14.015625 37.515625 17.5 
Q 38.71875 21 39.328125 24.6875 
Q 39.9375 28.375 39.9375 31.59375 
Q 39.9375 36.71875 38.5 39.234375 
Q 37.0625 41.75 33.9375 41.75 
Q 31.453125 41.75 29.03125 40.0625 
Q 26.609375 38.375 23.71875 34.65625 
Q 20.84375 30.953125 19.234375 27.34375 
Q 17.625 23.734375 16.703125 19.046875 
z
" id="Cambria-Italic-112"/>
      <path d="M 36.078125 -21.234375 
Q 27.78125 -21.234375 22.53125 -18.75 
Q 17.28125 -16.265625 14.34375 -11.15625 
Q 11.421875 -6.0625 10.109375 2.09375 
Q 8.796875 10.25 8.796875 24.21875 
Q 8.796875 38.09375 10.078125 46.3125 
Q 11.375 54.546875 14.296875 59.71875 
Q 17.234375 64.890625 22.5 67.46875 
Q 27.78125 70.0625 36.078125 70.0625 
L 36.078125 66.0625 
Q 32.671875 66.0625 30.03125 65.484375 
Q 27.046875 64.796875 24.953125 62.84375 
Q 22.609375 60.6875 21.140625 56.84375 
Q 19.4375 52.34375 18.609375 44.921875 
Q 17.71875 37.0625 17.71875 24.609375 
Q 17.71875 13.625 18.453125 5.921875 
Q 19.1875 -1.765625 20.90625 -6.640625 
Q 22.265625 -10.75 24.3125 -13.03125 
Q 26.125 -15.046875 28.609375 -16.0625 
Q 31.5 -17.234375 36.078125 -17.234375 
z
" id="Cambria-40"/>
      <path d="M 2.09375 70.0625 
Q 10.40625 70.0625 15.65625 67.578125 
Q 20.90625 65.09375 23.828125 59.984375 
Q 26.765625 54.890625 28.078125 46.734375 
Q 29.390625 38.578125 29.390625 24.609375 
Q 29.390625 10.75 28.09375 2.515625 
Q 26.8125 -5.71875 23.875 -10.890625 
Q 20.953125 -16.0625 15.671875 -18.640625 
Q 10.40625 -21.234375 2.09375 -21.234375 
L 2.09375 -17.234375 
Q 5.515625 -17.234375 8.15625 -16.65625 
Q 11.140625 -15.96875 13.234375 -14.015625 
Q 15.578125 -11.859375 17.046875 -8.015625 
Q 18.75 -3.515625 19.578125 3.90625 
Q 20.453125 11.765625 20.453125 24.21875 
Q 20.453125 35.203125 19.71875 42.890625 
Q 19 50.59375 17.28125 55.46875 
Q 15.921875 59.578125 13.875 61.859375 
Q 12.0625 63.875 9.578125 64.890625 
Q 6.6875 66.0625 2.09375 66.0625 
z
" id="Cambria-41"/>
     </defs>
     <g transform="translate(13.59 84.392209)rotate(-90)scale(0.09 -0.09)">
      <use transform="translate(0 0.9375)" xlink:href="#Cambria-Italic-112"/>
      <use transform="translate(52.685547 0.9375)" xlink:href="#Cambria-40"/>
      <use transform="translate(90.869141 0.9375)" xlink:href="#Cambria-Italic-82"/>
      <use transform="translate(149.902344 0.9375)" xlink:href="#Cambria-41"/>
     </g>
    </g>
   </g>
   <g id="patch_7">
    <path d="M 30.144939 144.574417 
L 30.144939 7.2 
" style="fill:none;stroke:#000000;stroke-linecap:square;stroke-linejoin:miter;stroke-width:0.5;"/>
   </g>
   <g id="patch_8">
    <path d="M 269.429506 144.574417 
L 269.429506 7.2 
" style="fill:none;stroke:#000000;stroke-linecap:square;stroke-linejoin:miter;stroke-width:0.5;"/>
   </g>
   <g id="patch_9">
    <path d="M 30.144939 144.574417 
L 269.429506 144.574417 
" style="fill:none;stroke:#000000;stroke-linecap:square;stroke-linejoin:miter;stroke-width:0.5;"/>
   </g>
   <g id="patch_10">
    <path d="M 30.144939 7.2 
L 269.429506 7.2 
" style="fill:none;stroke:#000000;stroke-linecap:square;stroke-linejoin:miter;stroke-width:0.5;"/>
   </g>
   <g id="legend_1">
    <g id="patch_11">
     <path d="M 202.424565 37.229597 
L 265.057306 37.229597 
Q 266.306506 37.229597 266.306506 35.980397 
L 266.306506 11.5722 
Q 266.306506 10.323 265.057306 10.323 
L 202.424565 10.323 
Q 201.175365 10.323 201.175365 11.5722 
L 201.175365 35.980397 
Q 201.175365 37.229597 202.424565 37.229597 
z
" style="fill:#ffffff;opacity:0.8;stroke:#cccccc;stroke-linejoin:miter;"/>
    </g>
    <g id="patch_12">
     <path d="M 202.424565 15.9444 
L 214.916565 15.9444 
L 214.916565 11.5722 
L 202.424565 11.5722 
z
" style="fill:#00afa5;"/>
    </g>
    <g id="text_19">
     <!-- early, $p = 0.4$ -->
     <defs>
      <path d="M 44.96875 25.09375 
Q 44.96875 23.1875 44.015625 22.375 
Q 43.0625 21.578125 41.84375 21.578125 
L 13.03125 21.578125 
Q 13.03125 17.921875 13.765625 14.984375 
Q 14.5 12.0625 16.203125 9.953125 
Q 17.921875 7.859375 20.65625 6.734375 
Q 23.390625 5.609375 27.34375 5.609375 
Q 30.46875 5.609375 32.90625 6.125 
Q 35.359375 6.640625 37.140625 7.265625 
Q 38.921875 7.90625 40.0625 8.421875 
Q 41.21875 8.9375 41.796875 8.9375 
Q 42.140625 8.9375 42.40625 8.765625 
Q 42.671875 8.59375 42.8125 8.25 
Q 42.96875 7.90625 43.03125 7.296875 
Q 43.109375 6.6875 43.109375 5.8125 
Q 43.109375 5.171875 43.0625 4.703125 
Q 43.015625 4.25 42.9375 3.875 
Q 42.875 3.515625 42.703125 3.21875 
Q 42.53125 2.9375 42.265625 2.65625 
Q 42 2.390625 40.671875 1.78125 
Q 39.359375 1.171875 37.25 0.578125 
Q 35.15625 0 32.390625 -0.453125 
Q 29.640625 -0.921875 26.515625 -0.921875 
Q 21.09375 -0.921875 17.015625 0.578125 
Q 12.9375 2.09375 10.15625 5.078125 
Q 7.375 8.0625 5.953125 12.546875 
Q 4.546875 17.046875 4.546875 23 
Q 4.546875 28.65625 6 33.171875 
Q 7.46875 37.703125 10.21875 40.84375 
Q 12.984375 44 16.890625 45.671875 
Q 20.796875 47.359375 25.640625 47.359375 
Q 30.8125 47.359375 34.453125 45.703125 
Q 38.09375 44.046875 40.4375 41.234375 
Q 42.78125 38.421875 43.875 34.640625 
Q 44.96875 30.859375 44.96875 26.5625 
z
M 36.859375 27.484375 
Q 37.015625 33.84375 34.0625 37.453125 
Q 31.109375 41.0625 25.296875 41.0625 
Q 22.3125 41.0625 20.0625 39.9375 
Q 17.828125 38.8125 16.3125 36.953125 
Q 14.796875 35.109375 13.96875 32.640625 
Q 13.140625 30.171875 13.03125 27.484375 
z
" id="Calibri-101"/>
      <path d="M 40.578125 1.171875 
Q 40.578125 0.59375 40.1875 0.296875 
Q 39.796875 0 39.109375 -0.140625 
Q 38.421875 -0.296875 37.109375 -0.296875 
Q 35.84375 -0.296875 35.078125 -0.140625 
Q 34.328125 0 33.984375 0.296875 
Q 33.640625 0.59375 33.640625 1.171875 
L 33.640625 5.5625 
Q 30.765625 2.484375 27.21875 0.78125 
Q 23.6875 -0.921875 19.734375 -0.921875 
Q 16.265625 -0.921875 13.453125 -0.015625 
Q 10.640625 0.875 8.65625 2.578125 
Q 6.6875 4.296875 5.59375 6.78125 
Q 4.5 9.28125 4.5 12.453125 
Q 4.5 16.15625 6 18.890625 
Q 7.515625 21.625 10.34375 23.4375 
Q 13.1875 25.25 17.28125 26.140625 
Q 21.390625 27.046875 26.515625 27.046875 
L 32.5625 27.046875 
L 32.5625 30.46875 
Q 32.5625 33.015625 32.03125 34.96875 
Q 31.5 36.921875 30.296875 38.203125 
Q 29.109375 39.5 27.203125 40.15625 
Q 25.296875 40.828125 22.515625 40.828125 
Q 19.53125 40.828125 17.15625 40.109375 
Q 14.796875 39.40625 13.015625 38.546875 
Q 11.234375 37.703125 10.03125 36.984375 
Q 8.84375 36.28125 8.25 36.28125 
Q 7.859375 36.28125 7.5625 36.46875 
Q 7.28125 36.671875 7.0625 37.0625 
Q 6.84375 37.453125 6.734375 38.0625 
Q 6.640625 38.671875 6.640625 39.40625 
Q 6.640625 40.625 6.8125 41.328125 
Q 6.984375 42.046875 7.640625 42.671875 
Q 8.296875 43.3125 9.90625 44.15625 
Q 11.53125 45.015625 13.625 45.71875 
Q 15.71875 46.4375 18.203125 46.890625 
Q 20.703125 47.359375 23.25 47.359375 
Q 27.984375 47.359375 31.296875 46.28125 
Q 34.625 45.21875 36.671875 43.140625 
Q 38.71875 41.0625 39.640625 37.984375 
Q 40.578125 34.90625 40.578125 30.8125 
z
M 32.5625 21.234375 
L 25.6875 21.234375 
Q 22.359375 21.234375 19.921875 20.671875 
Q 17.484375 20.125 15.875 19.015625 
Q 14.265625 17.921875 13.5 16.375 
Q 12.75 14.84375 12.75 12.84375 
Q 12.75 9.421875 14.921875 7.390625 
Q 17.09375 5.375 21 5.375 
Q 24.171875 5.375 26.875 6.984375 
Q 29.59375 8.59375 32.5625 11.921875 
z
" id="Calibri-97"/>
      <path d="M 15.53125 1.21875 
Q 15.53125 0.828125 15.328125 0.5625 
Q 15.140625 0.296875 14.703125 0.09375 
Q 14.265625 -0.09375 13.484375 -0.1875 
Q 12.703125 -0.296875 11.46875 -0.296875 
Q 10.296875 -0.296875 9.515625 -0.1875 
Q 8.734375 -0.09375 8.265625 0.09375 
Q 7.8125 0.296875 7.640625 0.5625 
Q 7.46875 0.828125 7.46875 1.21875 
L 7.46875 66.453125 
Q 7.46875 66.84375 7.640625 67.140625 
Q 7.8125 67.4375 8.265625 67.625 
Q 8.734375 67.828125 9.515625 67.921875 
Q 10.296875 68.015625 11.46875 68.015625 
Q 12.703125 68.015625 13.484375 67.921875 
Q 14.265625 67.828125 14.703125 67.625 
Q 15.140625 67.4375 15.328125 67.140625 
Q 15.53125 66.84375 15.53125 66.453125 
z
" id="Calibri-108"/>
      <path d="M 27.484375 0 
L 21.625 -16.15625 
Q 21.34375 -16.9375 20.140625 -17.359375 
Q 18.953125 -17.78125 16.5 -17.78125 
Q 15.234375 -17.78125 14.453125 -17.65625 
Q 13.671875 -17.53125 13.25 -17.234375 
Q 12.84375 -16.9375 12.796875 -16.453125 
Q 12.75 -15.96875 13.03125 -15.28125 
L 19.09375 0 
Q 18.65625 0.203125 18.265625 0.640625 
Q 17.875 1.078125 17.71875 1.5625 
L 2.046875 43.5625 
Q 1.65625 44.578125 1.65625 45.15625 
Q 1.65625 45.75 2.046875 46.09375 
Q 2.4375 46.4375 3.3125 46.5625 
Q 4.203125 46.6875 5.671875 46.6875 
Q 7.125 46.6875 7.953125 46.609375 
Q 8.796875 46.53125 9.28125 46.328125 
Q 9.765625 46.140625 9.984375 45.765625 
Q 10.203125 45.40625 10.453125 44.78125 
L 23 9.515625 
L 23.140625 9.515625 
L 35.25 44.96875 
Q 35.546875 45.90625 35.953125 46.171875 
Q 36.375 46.4375 37.203125 46.5625 
Q 38.03125 46.6875 39.59375 46.6875 
Q 40.96875 46.6875 41.84375 46.5625 
Q 42.71875 46.4375 43.140625 46.09375 
Q 43.5625 45.75 43.5625 45.15625 
Q 43.5625 44.578125 43.265625 43.703125 
z
" id="Calibri-121"/>
      <path d="M 18.109375 6.984375 
Q 18.109375 5.46875 17.96875 4.203125 
Q 17.828125 2.9375 17.484375 1.8125 
Q 17.140625 0.6875 16.578125 -0.40625 
Q 16.015625 -1.515625 15.1875 -2.734375 
L 8.5 -12.796875 
Q 8.25 -13.140625 7.9375 -13.375 
Q 7.625 -13.625 7.15625 -13.8125 
Q 6.6875 -14.015625 6.078125 -14.078125 
Q 5.46875 -14.15625 4.546875 -14.15625 
Q 3.71875 -14.15625 3.15625 -14.078125 
Q 2.59375 -14.015625 2.34375 -13.84375 
Q 2.09375 -13.671875 2.0625 -13.375 
Q 2.046875 -13.09375 2.25 -12.703125 
L 8.734375 0.734375 
L 8.734375 6.984375 
Q 8.734375 8.296875 9 9.078125 
Q 9.28125 9.859375 9.859375 10.25 
Q 10.453125 10.640625 11.328125 10.78125 
Q 12.203125 10.9375 13.484375 10.9375 
Q 14.703125 10.9375 15.578125 10.78125 
Q 16.453125 10.640625 17.015625 10.25 
Q 17.578125 9.859375 17.84375 9.078125 
Q 18.109375 8.296875 18.109375 6.984375 
z
" id="Calibri-44"/>
      <path d="M 6.0625 35.296875 
L 6.0625 42.09375 
L 49.3125 42.09375 
L 49.3125 35.296875 
z
M 6.0625 15.046875 
L 6.0625 21.828125 
L 49.3125 21.828125 
L 49.3125 15.046875 
z
" id="Cambria-61"/>
      <path d="M 27.15625 -0.78125 
Q 16.609375 -0.78125 11.453125 7.515625 
Q 6.296875 15.828125 6.296875 32.71875 
Q 6.296875 41.703125 7.875 48.234375 
Q 9.46875 54.78125 12.328125 59.046875 
Q 15.1875 63.328125 19.1875 65.375 
Q 23.1875 67.4375 27.9375 67.4375 
Q 38.625 67.4375 43.84375 59.171875 
Q 49.078125 50.921875 49.078125 34.234375 
Q 49.078125 16.9375 43.484375 8.078125 
Q 37.890625 -0.78125 27.15625 -0.78125 
z
M 15.828125 34.1875 
Q 15.828125 18.265625 18.78125 10.8125 
Q 21.734375 3.375 27.9375 3.375 
Q 33.84375 3.375 36.6875 10.375 
Q 39.546875 17.390625 39.546875 32.078125 
Q 39.546875 43.3125 38.078125 50.265625 
Q 36.625 57.234375 34 60.25 
Q 31.390625 63.28125 27.6875 63.28125 
Q 24.3125 63.28125 22.046875 61.28125 
Q 19.78125 59.28125 18.390625 55.515625 
Q 17 51.765625 16.40625 46.359375 
Q 15.828125 40.96875 15.828125 34.1875 
z
" id="Cambria-48"/>
      <path d="M 15.1875 11.328125 
L 15.1875 0 
L 5.328125 0 
L 5.328125 11.328125 
z
" id="Cambria-46"/>
      <path d="M 25.203125 2.390625 
Q 28.21875 3.171875 29.25 4.125 
Q 30.28125 5.078125 30.59375 6.828125 
Q 30.90625 8.59375 30.90625 12.203125 
L 30.90625 20.21875 
L 3.765625 20.21875 
L 3.765625 23.875 
L 32.328125 67 
L 39.3125 67 
L 39.3125 24.953125 
L 40.328125 24.953125 
Q 43.171875 24.953125 44.390625 25.359375 
Q 45.609375 25.78125 46.40625 26.828125 
Q 47.21875 27.875 47.90625 30.28125 
L 51.609375 30.28125 
L 51.03125 20.21875 
L 39.3125 20.21875 
L 39.3125 12.203125 
Q 39.3125 8.9375 39.53125 7.421875 
Q 39.75 5.90625 40.25 5.03125 
Q 40.765625 4.15625 41.765625 3.5625 
Q 42.78125 2.984375 45.015625 2.390625 
L 45.015625 0 
L 25.203125 0 
z
M 11.8125 24.953125 
L 30.90625 24.953125 
L 30.90625 37.109375 
Q 30.90625 41.703125 31.046875 47.390625 
Q 31.203125 53.078125 31.390625 55.953125 
L 30.90625 55.953125 
L 11.8125 25.640625 
z
" id="Cambria-52"/>
     </defs>
     <g transform="translate(219.913365 15.9444)scale(0.06246 -0.06246)">
      <use transform="translate(0 0.984375)" xlink:href="#Calibri-101"/>
      <use transform="translate(49.755859 0.984375)" xlink:href="#Calibri-97"/>
      <use transform="translate(97.65625 0.984375)" xlink:href="#Calibri-114"/>
      <use transform="translate(132.519531 0.984375)" xlink:href="#Calibri-108"/>
      <use transform="translate(155.46875 0.984375)" xlink:href="#Calibri-121"/>
      <use transform="translate(200.732422 0.984375)" xlink:href="#Calibri-44"/>
      <use transform="translate(225.683594 0.984375)" xlink:href="#Calibri-32"/>
      <use transform="translate(248.291016 0.984375)" xlink:href="#Cambria-Italic-112"/>
      <use transform="translate(316.953125 0.984375)" xlink:href="#Cambria-61"/>
      <use transform="translate(388.300781 0.984375)" xlink:href="#Cambria-48"/>
      <use transform="translate(443.671875 0.984375)" xlink:href="#Cambria-46"/>
      <use transform="translate(464.179688 0.984375)" xlink:href="#Cambria-52"/>
     </g>
    </g>
    <g id="patch_13">
     <path d="M 202.424565 22.25286 
L 214.916565 22.25286 
L 214.916565 17.88066 
L 202.424565 17.88066 
z
" style="fill:#f17900;opacity:0.8;"/>
    </g>
    <g id="text_20">
     <!-- mid, $p = 0.55$ -->
     <defs>
      <path d="M 72.65625 1.21875 
Q 72.65625 0.828125 72.453125 0.5625 
Q 72.265625 0.296875 71.828125 0.09375 
Q 71.390625 -0.09375 70.609375 -0.1875 
Q 69.828125 -0.296875 68.65625 -0.296875 
Q 67.4375 -0.296875 66.65625 -0.1875 
Q 65.875 -0.09375 65.40625 0.09375 
Q 64.9375 0.296875 64.734375 0.5625 
Q 64.546875 0.828125 64.546875 1.21875 
L 64.546875 27.9375 
Q 64.546875 30.71875 64.0625 33 
Q 63.578125 35.296875 62.5 36.953125 
Q 61.421875 38.625 59.765625 39.5 
Q 58.109375 40.375 55.859375 40.375 
Q 53.078125 40.375 50.265625 38.21875 
Q 47.46875 36.078125 44.09375 31.9375 
L 44.09375 1.21875 
Q 44.09375 0.828125 43.890625 0.5625 
Q 43.703125 0.296875 43.234375 0.09375 
Q 42.78125 -0.09375 42 -0.1875 
Q 41.21875 -0.296875 40.046875 -0.296875 
Q 38.921875 -0.296875 38.109375 -0.1875 
Q 37.3125 -0.09375 36.84375 0.09375 
Q 36.375 0.296875 36.203125 0.5625 
Q 36.03125 0.828125 36.03125 1.21875 
L 36.03125 27.9375 
Q 36.03125 30.71875 35.5 33 
Q 34.96875 35.296875 33.890625 36.953125 
Q 32.8125 38.625 31.171875 39.5 
Q 29.546875 40.375 27.296875 40.375 
Q 24.515625 40.375 21.671875 38.21875 
Q 18.84375 36.078125 15.53125 31.9375 
L 15.53125 1.21875 
Q 15.53125 0.828125 15.328125 0.5625 
Q 15.140625 0.296875 14.703125 0.09375 
Q 14.265625 -0.09375 13.484375 -0.1875 
Q 12.703125 -0.296875 11.46875 -0.296875 
Q 10.296875 -0.296875 9.515625 -0.1875 
Q 8.734375 -0.09375 8.265625 0.09375 
Q 7.8125 0.296875 7.640625 0.5625 
Q 7.46875 0.828125 7.46875 1.21875 
L 7.46875 45.171875 
Q 7.46875 45.5625 7.609375 45.828125 
Q 7.765625 46.09375 8.203125 46.3125 
Q 8.640625 46.53125 9.328125 46.609375 
Q 10.015625 46.6875 11.140625 46.6875 
Q 12.203125 46.6875 12.90625 46.609375 
Q 13.625 46.53125 14.015625 46.3125 
Q 14.40625 46.09375 14.578125 45.828125 
Q 14.75 45.5625 14.75 45.171875 
L 14.75 39.359375 
Q 18.453125 43.5 21.9375 45.421875 
Q 25.4375 47.359375 29 47.359375 
Q 31.734375 47.359375 33.90625 46.71875 
Q 36.078125 46.09375 37.734375 44.9375 
Q 39.40625 43.796875 40.578125 42.203125 
Q 41.75 40.625 42.53125 38.671875 
Q 44.734375 41.0625 46.703125 42.71875 
Q 48.6875 44.390625 50.515625 45.40625 
Q 52.34375 46.4375 54.078125 46.890625 
Q 55.8125 47.359375 57.5625 47.359375 
Q 61.8125 47.359375 64.6875 45.875 
Q 67.578125 44.390625 69.359375 41.890625 
Q 71.140625 39.40625 71.890625 36.0625 
Q 72.65625 32.71875 72.65625 29 
z
" id="Calibri-109"/>
      <path d="M 45.125 1.21875 
Q 45.125 0.828125 44.953125 0.53125 
Q 44.78125 0.25 44.359375 0.078125 
Q 43.953125 -0.09375 43.265625 -0.1875 
Q 42.578125 -0.296875 41.609375 -0.296875 
Q 40.578125 -0.296875 39.890625 -0.1875 
Q 39.203125 -0.09375 38.765625 0.078125 
Q 38.328125 0.25 38.125 0.53125 
Q 37.9375 0.828125 37.9375 1.21875 
L 37.9375 7.03125 
Q 34.46875 3.265625 30.734375 1.171875 
Q 27 -0.921875 22.5625 -0.921875 
Q 17.71875 -0.921875 14.296875 0.953125 
Q 10.890625 2.828125 8.765625 6.03125 
Q 6.640625 9.234375 5.65625 13.546875 
Q 4.6875 17.875 4.6875 22.65625 
Q 4.6875 28.328125 5.90625 32.890625 
Q 7.125 37.453125 9.515625 40.671875 
Q 11.921875 43.890625 15.453125 45.625 
Q 19 47.359375 23.640625 47.359375 
Q 27.484375 47.359375 30.6875 45.671875 
Q 33.890625 44 37.015625 40.71875 
L 37.015625 66.265625 
Q 37.015625 66.609375 37.1875 66.921875 
Q 37.359375 67.234375 37.84375 67.40625 
Q 38.328125 67.578125 39.078125 67.703125 
Q 39.84375 67.828125 41.015625 67.828125 
Q 42.234375 67.828125 43.015625 67.703125 
Q 43.796875 67.578125 44.234375 67.40625 
Q 44.671875 67.234375 44.890625 66.921875 
Q 45.125 66.609375 45.125 66.265625 
z
M 37.015625 32.125 
Q 33.734375 36.1875 30.6875 38.3125 
Q 27.640625 40.4375 24.3125 40.4375 
Q 21.234375 40.4375 19.078125 38.96875 
Q 16.9375 37.5 15.59375 35.109375 
Q 14.265625 32.71875 13.640625 29.6875 
Q 13.03125 26.65625 13.03125 23.53125 
Q 13.03125 20.21875 13.546875 17.046875 
Q 14.0625 13.875 15.328125 11.40625 
Q 16.609375 8.9375 18.703125 7.4375 
Q 20.796875 5.953125 23.96875 5.953125 
Q 25.59375 5.953125 27.078125 6.390625 
Q 28.5625 6.84375 30.125 7.859375 
Q 31.6875 8.890625 33.390625 10.515625 
Q 35.109375 12.15625 37.015625 14.546875 
z
" id="Calibri-100"/>
      <path d="M 7.328125 2.6875 
L 7.328125 13.03125 
L 13.234375 13.03125 
Q 14.703125 8.0625 17.65625 5.71875 
Q 20.609375 3.375 25.296875 3.375 
Q 31.78125 3.375 35.09375 7.28125 
Q 38.421875 11.1875 38.421875 18.953125 
Q 38.421875 24.125 36.65625 27.515625 
Q 34.90625 30.90625 31.921875 32.421875 
Q 28.953125 33.9375 25 33.9375 
Q 21.6875 33.9375 19.28125 33.515625 
Q 16.890625 33.109375 14.15625 32.234375 
L 10.25 34.515625 
L 10.25 66.65625 
L 37.15625 66.65625 
Q 38.8125 66.65625 39.546875 66.921875 
Q 40.28125 67.1875 40.71875 67.75 
Q 41.15625 68.3125 41.75 69.875 
L 45.5625 69.875 
L 44.828125 58.546875 
L 16.75 58.546875 
L 16.75 37.109375 
Q 19.28125 38.1875 22.265625 38.71875 
Q 25.25 39.265625 28.21875 39.265625 
Q 34.03125 39.265625 38.515625 36.890625 
Q 43.015625 34.515625 45.453125 30.140625 
Q 47.90625 25.78125 47.90625 20.015625 
Q 47.90625 13.484375 45.171875 8.796875 
Q 42.4375 4.109375 37.25 1.65625 
Q 32.078125 -0.78125 25 -0.78125 
Q 16.546875 -0.78125 7.328125 2.6875 
z
" id="Cambria-53"/>
     </defs>
     <g transform="translate(219.913365 22.25286)scale(0.06246 -0.06246)">
      <use transform="translate(0 0.125)" xlink:href="#Calibri-109"/>
      <use transform="translate(79.882812 0.125)" xlink:href="#Calibri-105"/>
      <use transform="translate(102.832031 0.125)" xlink:href="#Calibri-100"/>
      <use transform="translate(155.371094 0.125)" xlink:href="#Calibri-44"/>
      <use transform="translate(180.322266 0.125)" xlink:href="#Calibri-32"/>
      <use transform="translate(202.929688 0.125)" xlink:href="#Cambria-Italic-112"/>
      <use transform="translate(271.591797 0.125)" xlink:href="#Cambria-61"/>
      <use transform="translate(342.939453 0.125)" xlink:href="#Cambria-48"/>
      <use transform="translate(398.310547 0.125)" xlink:href="#Cambria-46"/>
      <use transform="translate(418.818359 0.125)" xlink:href="#Cambria-53"/>
      <use transform="translate(474.189453 0.125)" xlink:href="#Cambria-53"/>
     </g>
    </g>
    <g id="patch_14">
     <path d="M 202.424565 28.56132 
L 214.916565 28.56132 
L 214.916565 24.18912 
L 202.424565 24.18912 
z
" style="fill:#ae0060;opacity:0.8;"/>
    </g>
    <g id="text_21">
     <!-- late, $p = 0.7$ -->
     <defs>
      <path d="M 30.328125 4.4375 
Q 30.328125 3.03125 30.125 2.203125 
Q 29.9375 1.375 29.546875 0.984375 
Q 29.15625 0.59375 28.375 0.25 
Q 27.59375 -0.09375 26.59375 -0.3125 
Q 25.59375 -0.53125 24.46875 -0.671875 
Q 23.34375 -0.828125 22.21875 -0.828125 
Q 18.796875 -0.828125 16.359375 0.078125 
Q 13.921875 0.984375 12.359375 2.8125 
Q 10.796875 4.640625 10.078125 7.4375 
Q 9.375 10.25 9.375 14.0625 
L 9.375 39.75 
L 3.21875 39.75 
Q 2.484375 39.75 2.046875 40.53125 
Q 1.609375 41.3125 1.609375 43.0625 
Q 1.609375 44 1.734375 44.625 
Q 1.859375 45.265625 2.046875 45.671875 
Q 2.25 46.09375 2.5625 46.265625 
Q 2.875 46.4375 3.265625 46.4375 
L 9.375 46.4375 
L 9.375 56.890625 
Q 9.375 57.234375 9.546875 57.515625 
Q 9.71875 57.8125 10.171875 58.03125 
Q 10.640625 58.25 11.421875 58.34375 
Q 12.203125 58.453125 13.375 58.453125 
Q 14.59375 58.453125 15.375 58.34375 
Q 16.15625 58.25 16.59375 58.03125 
Q 17.046875 57.8125 17.234375 57.515625 
Q 17.4375 57.234375 17.4375 56.890625 
L 17.4375 46.4375 
L 28.71875 46.4375 
Q 29.109375 46.4375 29.390625 46.265625 
Q 29.6875 46.09375 29.90625 45.671875 
Q 30.125 45.265625 30.21875 44.625 
Q 30.328125 44 30.328125 43.0625 
Q 30.328125 41.3125 29.875 40.53125 
Q 29.4375 39.75 28.71875 39.75 
L 17.4375 39.75 
L 17.4375 15.234375 
Q 17.4375 10.6875 18.78125 8.375 
Q 20.125 6.0625 23.578125 6.0625 
Q 24.703125 6.0625 25.578125 6.28125 
Q 26.46875 6.5 27.140625 6.734375 
Q 27.828125 6.984375 28.3125 7.203125 
Q 28.8125 7.421875 29.203125 7.421875 
Q 29.4375 7.421875 29.65625 7.296875 
Q 29.890625 7.171875 30 6.828125 
Q 30.125 6.5 30.21875 5.90625 
Q 30.328125 5.328125 30.328125 4.4375 
z
" id="Calibri-116"/>
      <path d="M 50.09375 64.3125 
L 21.6875 -0.34375 
L 14.59375 -0.34375 
L 14.59375 2.046875 
L 40.921875 57.765625 
L 40.921875 58.5 
L 19.4375 58.5 
Q 17.4375 58.5 16.234375 58.125 
Q 15.046875 57.765625 14.234375 57.078125 
Q 13.421875 56.390625 12.890625 55.265625 
Q 12.359375 54.15625 11.421875 50.828125 
L 7.234375 50.828125 
L 8.203125 66.65625 
L 50.09375 66.65625 
z
" id="Cambria-55"/>
     </defs>
     <g transform="translate(219.913365 28.56132)scale(0.06246 -0.06246)">
      <use transform="translate(0 0.984375)" xlink:href="#Calibri-108"/>
      <use transform="translate(22.949219 0.984375)" xlink:href="#Calibri-97"/>
      <use transform="translate(70.849609 0.984375)" xlink:href="#Calibri-116"/>
      <use transform="translate(104.345703 0.984375)" xlink:href="#Calibri-101"/>
      <use transform="translate(154.101562 0.984375)" xlink:href="#Calibri-44"/>
      <use transform="translate(179.052734 0.984375)" xlink:href="#Calibri-32"/>
      <use transform="translate(201.660156 0.984375)" xlink:href="#Cambria-Italic-112"/>
      <use transform="translate(270.322266 0.984375)" xlink:href="#Cambria-61"/>
      <use transform="translate(341.669922 0.984375)" xlink:href="#Cambria-48"/>
      <use transform="translate(397.041016 0.984375)" xlink:href="#Cambria-46"/>
      <use transform="translate(417.548828 0.984375)" xlink:href="#Cambria-55"/>
     </g>
    </g>
    <g id="patch_15">
     <path d="M 202.424565 34.86978 
L 214.916565 34.86978 
L 214.916565 30.49758 
L 202.424565 30.49758 
z
" style="fill:none;stroke:#005ea8;stroke-linejoin:miter;"/>
    </g>
    <g id="text_22">
     <!-- Bayesian network -->
     <defs>
      <path d="M 50.046875 18.109375 
Q 50.046875 15.140625 49.28125 12.625 
Q 48.53125 10.109375 47.15625 8.109375 
Q 45.796875 6.109375 43.859375 4.59375 
Q 41.9375 3.078125 39.515625 2.046875 
Q 37.109375 1.03125 34.34375 0.515625 
Q 31.59375 0 28.03125 0 
L 11.53125 0 
Q 10.40625 0 9.40625 0.75 
Q 8.40625 1.515625 8.40625 3.421875 
L 8.40625 59.765625 
Q 8.40625 61.671875 9.40625 62.421875 
Q 10.40625 63.1875 11.53125 63.1875 
L 25.875 63.1875 
Q 31.546875 63.1875 35.15625 62.109375 
Q 38.765625 61.03125 41.1875 58.984375 
Q 43.609375 56.9375 44.828125 53.953125 
Q 46.046875 50.984375 46.046875 47.21875 
Q 46.046875 44.96875 45.5 42.921875 
Q 44.96875 40.875 43.921875 39.140625 
Q 42.875 37.40625 41.28125 36.03125 
Q 39.703125 34.671875 37.640625 33.796875 
Q 40.234375 33.296875 42.484375 32 
Q 44.734375 30.71875 46.40625 28.703125 
Q 48.09375 26.703125 49.0625 24.015625 
Q 50.046875 21.34375 50.046875 18.109375 
z
M 37.40625 46.390625 
Q 37.40625 48.6875 36.765625 50.53125 
Q 36.140625 52.390625 34.765625 53.6875 
Q 33.40625 54.984375 31.203125 55.65625 
Q 29 56.34375 25.390625 56.34375 
L 16.703125 56.34375 
L 16.703125 35.890625 
L 26.265625 35.890625 
Q 29.546875 35.890625 31.546875 36.734375 
Q 33.546875 37.59375 34.859375 39.03125 
Q 36.1875 40.484375 36.796875 42.40625 
Q 37.40625 44.34375 37.40625 46.390625 
z
M 41.21875 17.625 
Q 41.21875 20.453125 40.3125 22.59375 
Q 39.40625 24.75 37.671875 26.21875 
Q 35.9375 27.6875 33.328125 28.4375 
Q 30.71875 29.203125 26.765625 29.203125 
L 16.703125 29.203125 
L 16.703125 6.9375 
L 28.90625 6.9375 
Q 31.78125 6.9375 33.921875 7.609375 
Q 36.078125 8.296875 37.71875 9.640625 
Q 39.359375 10.984375 40.28125 12.984375 
Q 41.21875 14.984375 41.21875 17.625 
z
" id="Calibri-66"/>
      <path d="M 45.3125 1.21875 
Q 45.3125 0.828125 45.109375 0.5625 
Q 44.921875 0.296875 44.484375 0.09375 
Q 44.046875 -0.09375 43.265625 -0.1875 
Q 42.484375 -0.296875 41.3125 -0.296875 
Q 40.09375 -0.296875 39.3125 -0.1875 
Q 38.53125 -0.09375 38.078125 0.09375 
Q 37.640625 0.296875 37.4375 0.5625 
Q 37.25 0.828125 37.25 1.21875 
L 37.25 26.953125 
Q 37.25 30.71875 36.65625 33 
Q 36.078125 35.296875 34.953125 36.953125 
Q 33.84375 38.625 32.0625 39.5 
Q 30.28125 40.375 27.9375 40.375 
Q 24.90625 40.375 21.875 38.21875 
Q 18.84375 36.078125 15.53125 31.9375 
L 15.53125 1.21875 
Q 15.53125 0.828125 15.328125 0.5625 
Q 15.140625 0.296875 14.703125 0.09375 
Q 14.265625 -0.09375 13.484375 -0.1875 
Q 12.703125 -0.296875 11.46875 -0.296875 
Q 10.296875 -0.296875 9.515625 -0.1875 
Q 8.734375 -0.09375 8.265625 0.09375 
Q 7.8125 0.296875 7.640625 0.5625 
Q 7.46875 0.828125 7.46875 1.21875 
L 7.46875 45.171875 
Q 7.46875 45.5625 7.609375 45.828125 
Q 7.765625 46.09375 8.203125 46.3125 
Q 8.640625 46.53125 9.328125 46.609375 
Q 10.015625 46.6875 11.140625 46.6875 
Q 12.203125 46.6875 12.90625 46.609375 
Q 13.625 46.53125 14.015625 46.3125 
Q 14.40625 46.09375 14.578125 45.828125 
Q 14.75 45.5625 14.75 45.171875 
L 14.75 39.359375 
Q 18.453125 43.5 22.140625 45.421875 
Q 25.828125 47.359375 29.59375 47.359375 
Q 33.984375 47.359375 36.984375 45.875 
Q 39.984375 44.390625 41.84375 41.890625 
Q 43.703125 39.40625 44.5 36.0625 
Q 45.3125 32.71875 45.3125 28.03125 
z
" id="Calibri-110"/>
      <path d="M 68.953125 45.265625 
Q 68.953125 44.921875 68.84375 44.4375 
Q 68.75 43.953125 68.5 43.21875 
L 55.5625 1.46875 
Q 55.421875 0.921875 55.09375 0.578125 
Q 54.78125 0.25 54.21875 0.046875 
Q 53.65625 -0.140625 52.671875 -0.21875 
Q 51.703125 -0.296875 50.25 -0.296875 
Q 48.734375 -0.296875 47.703125 -0.1875 
Q 46.6875 -0.09375 46.0625 0.09375 
Q 45.453125 0.296875 45.15625 0.640625 
Q 44.875 0.984375 44.734375 1.46875 
L 35.5 33.34375 
L 35.40625 33.796875 
L 35.296875 33.34375 
L 26.765625 1.46875 
Q 26.609375 0.921875 26.296875 0.578125 
Q 25.984375 0.25 25.34375 0.046875 
Q 24.703125 -0.140625 23.703125 -0.21875 
Q 22.703125 -0.296875 21.234375 -0.296875 
Q 19.734375 -0.296875 18.78125 -0.1875 
Q 17.828125 -0.09375 17.21875 0.09375 
Q 16.609375 0.296875 16.3125 0.640625 
Q 16.015625 0.984375 15.875 1.46875 
L 3.03125 43.21875 
Q 2.78125 43.953125 2.6875 44.4375 
Q 2.59375 44.921875 2.59375 45.265625 
Q 2.59375 45.703125 2.78125 45.96875 
Q 2.984375 46.234375 3.4375 46.40625 
Q 3.90625 46.578125 4.6875 46.625 
Q 5.46875 46.6875 6.59375 46.6875 
Q 7.953125 46.6875 8.78125 46.609375 
Q 9.625 46.53125 10.0625 46.359375 
Q 10.5 46.1875 10.6875 45.875 
Q 10.890625 45.5625 11.03125 45.125 
L 21.625 8.890625 
L 21.734375 8.453125 
L 21.828125 8.890625 
L 31.546875 45.125 
Q 31.640625 45.5625 31.859375 45.875 
Q 32.078125 46.1875 32.515625 46.359375 
Q 32.953125 46.53125 33.703125 46.609375 
Q 34.46875 46.6875 35.6875 46.6875 
Q 36.859375 46.6875 37.609375 46.609375 
Q 38.375 46.53125 38.8125 46.359375 
Q 39.265625 46.1875 39.453125 45.890625 
Q 39.65625 45.609375 39.75 45.21875 
L 50.25 8.890625 
L 50.34375 8.453125 
L 50.390625 8.890625 
L 60.84375 45.125 
Q 60.9375 45.5625 61.15625 45.875 
Q 61.375 46.1875 61.84375 46.359375 
Q 62.3125 46.53125 63.109375 46.609375 
Q 63.921875 46.6875 65.1875 46.6875 
Q 66.359375 46.6875 67.0625 46.625 
Q 67.78125 46.578125 68.1875 46.375 
Q 68.609375 46.1875 68.78125 45.9375 
Q 68.953125 45.703125 68.953125 45.265625 
z
" id="Calibri-119"/>
      <path d="M 48.34375 23.6875 
Q 48.34375 18.3125 46.921875 13.796875 
Q 45.515625 9.28125 42.703125 6 
Q 39.890625 2.734375 35.671875 0.90625 
Q 31.453125 -0.921875 25.875 -0.921875 
Q 20.453125 -0.921875 16.421875 0.6875 
Q 12.40625 2.296875 9.71875 5.375 
Q 7.03125 8.453125 5.703125 12.84375 
Q 4.390625 17.234375 4.390625 22.796875 
Q 4.390625 28.171875 5.78125 32.6875 
Q 7.171875 37.203125 9.984375 40.46875 
Q 12.796875 43.75 16.984375 45.546875 
Q 21.1875 47.359375 26.8125 47.359375 
Q 32.234375 47.359375 36.25 45.75 
Q 40.28125 44.140625 42.96875 41.0625 
Q 45.65625 37.984375 47 33.59375 
Q 48.34375 29.203125 48.34375 23.6875 
z
M 39.84375 23.140625 
Q 39.84375 26.703125 39.1875 29.875 
Q 38.53125 33.0625 37.015625 35.453125 
Q 35.5 37.84375 32.90625 39.234375 
Q 30.328125 40.625 26.46875 40.625 
Q 22.90625 40.625 20.34375 39.359375 
Q 17.78125 38.09375 16.109375 35.765625 
Q 14.453125 33.453125 13.640625 30.265625 
Q 12.84375 27.09375 12.84375 23.34375 
Q 12.84375 19.734375 13.5 16.546875 
Q 14.15625 13.375 15.6875 11 
Q 17.234375 8.640625 19.8125 7.25 
Q 22.40625 5.859375 26.265625 5.859375 
Q 29.78125 5.859375 32.375 7.125 
Q 34.96875 8.40625 36.625 10.6875 
Q 38.28125 12.984375 39.0625 16.15625 
Q 39.84375 19.34375 39.84375 23.140625 
z
" id="Calibri-111"/>
     </defs>
     <g transform="translate(219.913365 34.86978)scale(0.06246 -0.06246)">
      <use xlink:href="#Calibri-66"/>
      <use x="54.394531" xlink:href="#Calibri-97"/>
      <use x="102.294922" xlink:href="#Calibri-121"/>
      <use x="147.558594" xlink:href="#Calibri-101"/>
      <use x="197.314453" xlink:href="#Calibri-115"/>
      <use x="236.425781" xlink:href="#Calibri-105"/>
      <use x="259.375" xlink:href="#Calibri-97"/>
      <use x="307.275391" xlink:href="#Calibri-110"/>
      <use x="359.814453" xlink:href="#Calibri-32"/>
      <use x="382.421875" xlink:href="#Calibri-110"/>
      <use x="434.960938" xlink:href="#Calibri-101"/>
      <use x="484.716797" xlink:href="#Calibri-116"/>
      <use x="518.212891" xlink:href="#Calibri-119"/>
      <use x="589.697266" xlink:href="#Calibri-111"/>
      <use x="642.431641" xlink:href="#Calibri-114"/>
      <use x="677.294922" xlink:href="#Calibri-107"/>
     </g>
    </g>
   </g>
  </g>
 </g>
 <defs>
  <clipPath id="p2e1e8ac603">
   <rect height="137.374417" width="239.284567" x="30.144939" y="7.2"/>
  </clipPath>
 </defs>
</svg>
