<?xml version="1.0" encoding="utf-8" standalone="no"?>
<!DOCTYPE svg PUBLIC "-//W3C//DTD SVG 1.1//EN"
  "http://www.w3.org/Graphics/SVG/1.1/DTD/svg11.dtd">
<!-- Created with matplotlib (https://matplotlib.org/) -->
<svg height="140.851959pt" version="1.1" viewBox="0 0 453.543307 140.851959" width="453.543307pt" xmlns="http://www.w3.org/2000/svg" xmlns:xlink="http://www.w3.org/1999/xlink">
 <metadata>
  <rdf:RDF xmlns:cc="http://creativecommons.org/ns#" xmlns:dc="http://purl.org/dc/elements/1.1/" xmlns:rdf="http://www.w3.org/1999/02/22-rdf-syntax-ns#">
   <cc:Work>
    <dc:type rdf:resource="http://purl.org/dc/dcmitype/StillImage"/>
    <dc:date>2020-10-30T11:58:33.430585</dc:date>
    <dc:format>image/svg+xml</dc:format>
    <dc:creator>
     <cc:Agent>
      <dc:title>Matplotlib v3.3.2, https://matplotlib.org/</dc:title>
     </cc:Agent>
    </dc:creator>
   </cc:Work>
  </rdf:RDF>
 </metadata>
 <defs>
  <style type="text/css">*{stroke-linecap:butt;stroke-linejoin:round;}</style>
 </defs>
 <g id="figure_1">
  <g id="patch_1">
   <path d="M 0 140.851959 
L 453.543307 140.851959 
L 453.543307 0 
L 0 0 
z
" style="fill:none;"/>
  </g>
  <g id="axes_1">
   <g id="patch_2">
    <path d="M 20.553841 121.271127 
L 230.280498 121.271127 
L 230.280498 3.00024 
L 20.553841 3.00024 
z
" style="fill:#ffffff;"/>
   </g>
   <g id="matplotlib.axis_1">
    <g id="xtick_1">
     <g id="line2d_1">
      <path clip-path="url(#pf83515e33c)" d="M 30.086871 121.271127 
L 30.086871 3.00024 
" style="fill:none;stroke:#000000;stroke-linecap:square;stroke-opacity:0.1;stroke-width:0.5;"/>
     </g>
     <g id="line2d_2">
      <defs>
       <path d="M 0 0 
L 0 -3 
" id="mf9f9d52742" style="stroke:#000000;stroke-width:0.5;"/>
      </defs>
      <g>
       <use style="stroke:#000000;stroke-width:0.5;" x="30.086871" xlink:href="#mf9f9d52742" y="121.271127"/>
      </g>
     </g>
     <g id="text_1">
      <!-- 0 -->
      <g transform="translate(28.5039 127.019383)scale(0.06246 -0.06246)">
       <defs>
        <path d="M 47.21875 31.734375 
Q 47.21875 24.46875 46.0625 18.453125 
Q 44.921875 12.453125 42.25 8.125 
Q 39.59375 3.8125 35.296875 1.4375 
Q 31 -0.921875 24.703125 -0.921875 
Q 18.75 -0.921875 14.671875 1.203125 
Q 10.59375 3.328125 8.09375 7.453125 
Q 5.609375 11.578125 4.5625 17.609375 
Q 3.515625 23.640625 3.515625 31.453125 
Q 3.515625 38.671875 4.6875 44.703125 
Q 5.859375 50.734375 8.5 55.046875 
Q 11.140625 59.375 15.4375 61.734375 
Q 19.734375 64.109375 25.984375 64.109375 
Q 31.984375 64.109375 36.0625 61.984375 
Q 40.140625 59.859375 42.625 55.734375 
Q 45.125 51.609375 46.171875 45.578125 
Q 47.21875 39.546875 47.21875 31.734375 
z
M 38.625 31.15625 
Q 38.625 35.890625 38.28125 39.640625 
Q 37.9375 43.40625 37.28125 46.28125 
Q 36.625 49.171875 35.5625 51.25 
Q 34.515625 53.328125 33.046875 54.65625 
Q 31.59375 56 29.703125 56.609375 
Q 27.828125 57.234375 25.484375 57.234375 
Q 21.34375 57.234375 18.75 55.28125 
Q 16.15625 53.328125 14.671875 49.90625 
Q 13.1875 46.484375 12.640625 41.890625 
Q 12.109375 37.3125 12.109375 32.03125 
Q 12.109375 24.953125 12.84375 20 
Q 13.578125 15.046875 15.15625 11.921875 
Q 16.75 8.796875 19.21875 7.375 
Q 21.6875 5.953125 25.203125 5.953125 
Q 27.9375 5.953125 30 6.828125 
Q 32.078125 7.71875 33.5625 9.34375 
Q 35.0625 10.984375 36.03125 13.28125 
Q 37.015625 15.578125 37.59375 18.359375 
Q 38.1875 21.140625 38.40625 24.390625 
Q 38.625 27.640625 38.625 31.15625 
z
" id="Calibri-48"/>
       </defs>
       <use xlink:href="#Calibri-48"/>
      </g>
     </g>
    </g>
    <g id="xtick_2">
     <g id="line2d_3">
      <path clip-path="url(#pf83515e33c)" d="M 68.21899 121.271127 
L 68.21899 3.00024 
" style="fill:none;stroke:#000000;stroke-linecap:square;stroke-opacity:0.1;stroke-width:0.5;"/>
     </g>
     <g id="line2d_4">
      <g>
       <use style="stroke:#000000;stroke-width:0.5;" x="68.21899" xlink:href="#mf9f9d52742" y="121.271127"/>
      </g>
     </g>
     <g id="text_2">
      <!-- 2 -->
      <g transform="translate(66.63602 127.019383)scale(0.06246 -0.06246)">
       <defs>
        <path d="M 45.125 3.609375 
Q 45.125 2.734375 45 2.046875 
Q 44.875 1.375 44.65625 0.90625 
Q 44.4375 0.4375 44.0625 0.21875 
Q 43.703125 0 43.265625 0 
L 8.34375 0 
Q 7.671875 0 7.15625 0.171875 
Q 6.640625 0.34375 6.265625 0.734375 
Q 5.90625 1.125 5.734375 1.859375 
Q 5.5625 2.59375 5.5625 3.65625 
Q 5.5625 4.640625 5.640625 5.375 
Q 5.71875 6.109375 5.953125 6.671875 
Q 6.203125 7.234375 6.5625 7.78125 
Q 6.9375 8.34375 7.515625 8.984375 
L 19.78125 21.96875 
Q 24.03125 26.46875 26.59375 30.03125 
Q 29.15625 33.59375 30.546875 36.515625 
Q 31.9375 39.453125 32.375 41.84375 
Q 32.8125 44.234375 32.8125 46.34375 
Q 32.8125 48.4375 32.125 50.3125 
Q 31.453125 52.203125 30.15625 53.609375 
Q 28.859375 55.03125 26.90625 55.859375 
Q 24.953125 56.6875 22.40625 56.6875 
Q 19.4375 56.6875 17.0625 55.859375 
Q 14.703125 55.03125 12.921875 54.046875 
Q 11.140625 53.078125 9.9375 52.25 
Q 8.734375 51.421875 8.15625 51.421875 
Q 7.8125 51.421875 7.546875 51.609375 
Q 7.28125 51.8125 7.109375 52.25 
Q 6.9375 52.6875 6.828125 53.421875 
Q 6.734375 54.15625 6.734375 55.171875 
Q 6.734375 55.90625 6.78125 56.4375 
Q 6.84375 56.984375 6.953125 57.375 
Q 7.078125 57.765625 7.265625 58.109375 
Q 7.46875 58.453125 8.046875 58.953125 
Q 8.640625 59.46875 10.078125 60.34375 
Q 11.53125 61.234375 13.703125 62.078125 
Q 15.875 62.9375 18.484375 63.515625 
Q 21.09375 64.109375 23.96875 64.109375 
Q 28.5625 64.109375 32 62.8125 
Q 35.453125 61.53125 37.71875 59.28125 
Q 39.984375 57.03125 41.109375 54.046875 
Q 42.234375 51.078125 42.234375 47.703125 
Q 42.234375 44.671875 41.6875 41.671875 
Q 41.15625 38.671875 39.421875 35.171875 
Q 37.703125 31.6875 34.421875 27.40625 
Q 31.15625 23.140625 25.734375 17.578125 
L 15.71875 7.125 
L 43.21875 7.125 
Q 43.609375 7.125 43.96875 6.90625 
Q 44.34375 6.6875 44.609375 6.25 
Q 44.875 5.8125 45 5.15625 
Q 45.125 4.5 45.125 3.609375 
z
" id="Calibri-50"/>
       </defs>
       <use xlink:href="#Calibri-50"/>
      </g>
     </g>
    </g>
    <g id="xtick_3">
     <g id="line2d_5">
      <path clip-path="url(#pf83515e33c)" d="M 106.35111 121.271127 
L 106.35111 3.00024 
" style="fill:none;stroke:#000000;stroke-linecap:square;stroke-opacity:0.1;stroke-width:0.5;"/>
     </g>
     <g id="line2d_6">
      <g>
       <use style="stroke:#000000;stroke-width:0.5;" x="106.35111" xlink:href="#mf9f9d52742" y="121.271127"/>
      </g>
     </g>
     <g id="text_3">
      <!-- 4 -->
      <g transform="translate(104.768139 127.019383)scale(0.06246 -0.06246)">
       <defs>
        <path d="M 47.796875 17.96875 
Q 47.796875 16.359375 47.3125 15.421875 
Q 46.828125 14.5 45.953125 14.5 
L 38.8125 14.5 
L 38.8125 1.21875 
Q 38.8125 0.828125 38.609375 0.5625 
Q 38.421875 0.296875 37.9375 0.09375 
Q 37.453125 -0.09375 36.671875 -0.1875 
Q 35.890625 -0.296875 34.671875 -0.296875 
Q 33.5 -0.296875 32.71875 -0.1875 
Q 31.9375 -0.09375 31.46875 0.09375 
Q 31 0.296875 30.828125 0.5625 
Q 30.671875 0.828125 30.671875 1.21875 
L 30.671875 14.5 
L 4.59375 14.5 
Q 4 14.5 3.609375 14.640625 
Q 3.21875 14.796875 2.90625 15.1875 
Q 2.59375 15.578125 2.46875 16.3125 
Q 2.34375 17.046875 2.34375 18.21875 
Q 2.34375 19.140625 2.390625 19.875 
Q 2.4375 20.609375 2.578125 21.21875 
Q 2.734375 21.828125 2.96875 22.390625 
Q 3.21875 22.953125 3.5625 23.578125 
L 26.3125 61.96875 
Q 26.5625 62.359375 27.015625 62.640625 
Q 27.484375 62.9375 28.21875 63.125 
Q 28.953125 63.328125 30.03125 63.40625 
Q 31.109375 63.484375 32.5625 63.484375 
Q 34.1875 63.484375 35.375 63.359375 
Q 36.578125 63.234375 37.296875 63.03125 
Q 38.03125 62.84375 38.421875 62.515625 
Q 38.8125 62.203125 38.8125 61.765625 
L 38.8125 21.4375 
L 45.953125 21.4375 
Q 46.78125 21.4375 47.28125 20.578125 
Q 47.796875 19.734375 47.796875 17.96875 
z
M 30.671875 56.109375 
L 30.5625 56.109375 
L 10.015625 21.4375 
L 30.671875 21.4375 
z
" id="Calibri-52"/>
       </defs>
       <use xlink:href="#Calibri-52"/>
      </g>
     </g>
    </g>
    <g id="xtick_4">
     <g id="line2d_7">
      <path clip-path="url(#pf83515e33c)" d="M 144.483229 121.271127 
L 144.483229 3.00024 
" style="fill:none;stroke:#000000;stroke-linecap:square;stroke-opacity:0.1;stroke-width:0.5;"/>
     </g>
     <g id="line2d_8">
      <g>
       <use style="stroke:#000000;stroke-width:0.5;" x="144.483229" xlink:href="#mf9f9d52742" y="121.271127"/>
      </g>
     </g>
     <g id="text_4">
      <!-- 6 -->
      <g transform="translate(142.900258 127.019383)scale(0.06246 -0.06246)">
       <defs>
        <path d="M 46.734375 20.453125 
Q 46.734375 16.3125 45.453125 12.421875 
Q 44.1875 8.546875 41.546875 5.59375 
Q 38.921875 2.640625 34.859375 0.859375 
Q 30.8125 -0.921875 25.296875 -0.921875 
Q 21.34375 -0.921875 18.3125 0.046875 
Q 15.28125 1.03125 13.03125 2.828125 
Q 10.796875 4.640625 9.296875 7.265625 
Q 7.8125 9.90625 6.90625 13.28125 
Q 6 16.65625 5.609375 20.65625 
Q 5.21875 24.65625 5.21875 29.25 
Q 5.21875 33.296875 5.65625 37.453125 
Q 6.109375 41.609375 7.21875 45.453125 
Q 8.34375 49.3125 10.265625 52.703125 
Q 12.203125 56.109375 15.109375 58.625 
Q 18.015625 61.140625 22.0625 62.59375 
Q 26.125 64.0625 31.5 64.0625 
Q 33.296875 64.0625 35.15625 63.84375 
Q 37.015625 63.625 38.578125 63.25 
Q 40.140625 62.890625 41.203125 62.453125 
Q 42.28125 62.015625 42.625 61.734375 
Q 42.96875 61.46875 43.140625 61.15625 
Q 43.3125 60.84375 43.40625 60.46875 
Q 43.5 60.109375 43.546875 59.640625 
Q 43.609375 59.1875 43.609375 58.5 
Q 43.609375 57.625 43.578125 56.984375 
Q 43.5625 56.34375 43.390625 55.953125 
Q 43.21875 55.5625 42.9375 55.359375 
Q 42.671875 55.171875 42.234375 55.171875 
Q 41.703125 55.171875 40.765625 55.515625 
Q 39.84375 55.859375 38.515625 56.265625 
Q 37.203125 56.6875 35.328125 57.03125 
Q 33.453125 57.375 30.953125 57.375 
Q 26.421875 57.375 23.140625 55.515625 
Q 19.875 53.65625 17.796875 50.53125 
Q 15.71875 47.40625 14.71875 43.28125 
Q 13.71875 39.15625 13.578125 34.671875 
Q 14.84375 35.40625 16.421875 36.125 
Q 18.015625 36.859375 19.890625 37.4375 
Q 21.78125 38.03125 23.875 38.390625 
Q 25.984375 38.765625 28.375 38.765625 
Q 33.5 38.765625 37.015625 37.375 
Q 40.53125 35.984375 42.703125 33.515625 
Q 44.875 31.0625 45.796875 27.703125 
Q 46.734375 24.359375 46.734375 20.453125 
z
M 38.234375 19.671875 
Q 38.234375 22.515625 37.671875 24.828125 
Q 37.109375 27.15625 35.78125 28.765625 
Q 34.46875 30.375 32.265625 31.25 
Q 30.078125 32.125 26.859375 32.125 
Q 25.046875 32.125 23.234375 31.8125 
Q 21.4375 31.5 19.75 30.9375 
Q 18.0625 30.375 16.515625 29.609375 
Q 14.984375 28.859375 13.71875 27.984375 
Q 13.71875 21.6875 14.515625 17.4375 
Q 15.328125 13.1875 16.859375 10.625 
Q 18.40625 8.0625 20.703125 6.953125 
Q 23 5.859375 26.078125 5.859375 
Q 29.203125 5.859375 31.5 7.03125 
Q 33.796875 8.203125 35.296875 10.171875 
Q 36.8125 12.15625 37.515625 14.625 
Q 38.234375 17.09375 38.234375 19.671875 
z
" id="Calibri-54"/>
       </defs>
       <use xlink:href="#Calibri-54"/>
      </g>
     </g>
    </g>
    <g id="xtick_5">
     <g id="line2d_9">
      <path clip-path="url(#pf83515e33c)" d="M 182.615348 121.271127 
L 182.615348 3.00024 
" style="fill:none;stroke:#000000;stroke-linecap:square;stroke-opacity:0.1;stroke-width:0.5;"/>
     </g>
     <g id="line2d_10">
      <g>
       <use style="stroke:#000000;stroke-width:0.5;" x="182.615348" xlink:href="#mf9f9d52742" y="121.271127"/>
      </g>
     </g>
     <g id="text_5">
      <!-- 8 -->
      <g transform="translate(181.032378 127.019383)scale(0.06246 -0.06246)">
       <defs>
        <path d="M 46.578125 16.21875 
Q 46.578125 12.109375 45.109375 8.90625 
Q 43.65625 5.71875 40.890625 3.515625 
Q 38.140625 1.3125 34.078125 0.1875 
Q 30.03125 -0.921875 24.8125 -0.921875 
Q 19.921875 -0.921875 16.0625 0.09375 
Q 12.203125 1.125 9.515625 3.125 
Q 6.84375 5.125 5.421875 8.046875 
Q 4 10.984375 4 14.75 
Q 4 17.71875 4.96875 20.203125 
Q 5.953125 22.703125 7.78125 24.796875 
Q 9.625 26.90625 12.296875 28.734375 
Q 14.984375 30.5625 18.359375 32.234375 
Q 15.4375 33.734375 13.1875 35.421875 
Q 10.9375 37.109375 9.375 39.078125 
Q 7.8125 41.0625 7 43.3125 
Q 6.203125 45.5625 6.203125 48.1875 
Q 6.203125 51.515625 7.390625 54.421875 
Q 8.59375 57.328125 11 59.46875 
Q 13.421875 61.625 17.15625 62.859375 
Q 20.90625 64.109375 25.875 64.109375 
Q 30.671875 64.109375 34.15625 62.953125 
Q 37.640625 61.8125 39.90625 59.828125 
Q 42.1875 57.859375 43.265625 55.171875 
Q 44.34375 52.484375 44.34375 49.421875 
Q 44.34375 46.921875 43.53125 44.625 
Q 42.71875 42.328125 41.15625 40.28125 
Q 39.59375 38.234375 37.328125 36.453125 
Q 35.0625 34.671875 32.125 33.109375 
Q 35.59375 31.390625 38.296875 29.578125 
Q 41.015625 27.78125 42.84375 25.703125 
Q 44.671875 23.640625 45.625 21.3125 
Q 46.578125 19 46.578125 16.21875 
z
M 36.03125 48.640625 
Q 36.03125 50.6875 35.328125 52.34375 
Q 34.625 54 33.25 55.171875 
Q 31.890625 56.34375 29.859375 56.953125 
Q 27.828125 57.5625 25.25 57.5625 
Q 19.96875 57.5625 17.25 55.171875 
Q 14.546875 52.78125 14.546875 48.640625 
Q 14.546875 46.734375 15.203125 45.09375 
Q 15.875 43.453125 17.265625 41.984375 
Q 18.65625 40.53125 20.78125 39.140625 
Q 22.90625 37.75 25.828125 36.234375 
Q 30.765625 38.765625 33.390625 41.84375 
Q 36.03125 44.921875 36.03125 48.640625 
z
M 38.09375 15.328125 
Q 38.09375 17.578125 37.25 19.40625 
Q 36.421875 21.234375 34.734375 22.828125 
Q 33.0625 24.421875 30.546875 25.90625 
Q 28.03125 27.390625 24.703125 29 
Q 21.625 27.484375 19.3125 25.96875 
Q 17 24.46875 15.5 22.84375 
Q 14.015625 21.234375 13.25 19.453125 
Q 12.5 17.671875 12.5 15.53125 
Q 12.5 10.796875 15.75 8.203125 
Q 19 5.609375 25.4375 5.609375 
Q 31.6875 5.609375 34.890625 8.21875 
Q 38.09375 10.84375 38.09375 15.328125 
z
" id="Calibri-56"/>
       </defs>
       <use xlink:href="#Calibri-56"/>
      </g>
     </g>
    </g>
    <g id="xtick_6">
     <g id="line2d_11">
      <path clip-path="url(#pf83515e33c)" d="M 220.747468 121.271127 
L 220.747468 3.00024 
" style="fill:none;stroke:#000000;stroke-linecap:square;stroke-opacity:0.1;stroke-width:0.5;"/>
     </g>
     <g id="line2d_12">
      <g>
       <use style="stroke:#000000;stroke-width:0.5;" x="220.747468" xlink:href="#mf9f9d52742" y="121.271127"/>
      </g>
     </g>
     <g id="text_6">
      <!-- 10 -->
      <g transform="translate(217.581527 127.019383)scale(0.06246 -0.06246)">
       <defs>
        <path d="M 45.265625 3.328125 
Q 45.265625 2.390625 45.109375 1.75 
Q 44.96875 1.125 44.71875 0.734375 
Q 44.484375 0.34375 44.15625 0.171875 
Q 43.84375 0 43.5 0 
L 10.5 0 
Q 10.15625 0 9.859375 0.171875 
Q 9.578125 0.34375 9.296875 0.734375 
Q 9.03125 1.125 8.875 1.75 
Q 8.734375 2.390625 8.734375 3.328125 
Q 8.734375 4.203125 8.875 4.828125 
Q 9.03125 5.46875 9.25 5.875 
Q 9.46875 6.296875 9.78125 6.515625 
Q 10.109375 6.734375 10.5 6.734375 
L 23.6875 6.734375 
L 23.6875 54.78125 
L 11.46875 47.515625 
Q 10.546875 47.015625 9.984375 46.921875 
Q 9.421875 46.828125 9.078125 47.140625 
Q 8.734375 47.46875 8.609375 48.1875 
Q 8.5 48.921875 8.5 50.046875 
Q 8.5 50.875 8.5625 51.453125 
Q 8.640625 52.046875 8.78125 52.4375 
Q 8.9375 52.828125 9.203125 53.125 
Q 9.46875 53.421875 9.90625 53.71875 
L 24.46875 63.03125 
Q 24.65625 63.1875 24.953125 63.28125 
Q 25.25 63.375 25.6875 63.46875 
Q 26.125 63.578125 26.703125 63.59375 
Q 27.296875 63.625 28.171875 63.625 
Q 29.34375 63.625 30.125 63.515625 
Q 30.90625 63.421875 31.34375 63.25 
Q 31.78125 63.09375 31.921875 62.8125 
Q 32.078125 62.546875 32.078125 62.25 
L 32.078125 6.734375 
L 43.5 6.734375 
Q 43.890625 6.734375 44.234375 6.515625 
Q 44.578125 6.296875 44.796875 5.875 
Q 45.015625 5.46875 45.140625 4.828125 
Q 45.265625 4.203125 45.265625 3.328125 
z
" id="Calibri-49"/>
       </defs>
       <use xlink:href="#Calibri-49"/>
       <use x="50.683594" xlink:href="#Calibri-48"/>
      </g>
     </g>
    </g>
    <g id="text_7">
     <!-- time step $t$ -->
     <g transform="translate(105.572169 136.231719)scale(0.09 -0.09)">
      <defs>
       <path d="M 30.328125 4.4375 
Q 30.328125 3.03125 30.125 2.203125 
Q 29.9375 1.375 29.546875 0.984375 
Q 29.15625 0.59375 28.375 0.25 
Q 27.59375 -0.09375 26.59375 -0.3125 
Q 25.59375 -0.53125 24.46875 -0.671875 
Q 23.34375 -0.828125 22.21875 -0.828125 
Q 18.796875 -0.828125 16.359375 0.078125 
Q 13.921875 0.984375 12.359375 2.8125 
Q 10.796875 4.640625 10.078125 7.4375 
Q 9.375 10.25 9.375 14.0625 
L 9.375 39.75 
L 3.21875 39.75 
Q 2.484375 39.75 2.046875 40.53125 
Q 1.609375 41.3125 1.609375 43.0625 
Q 1.609375 44 1.734375 44.625 
Q 1.859375 45.265625 2.046875 45.671875 
Q 2.25 46.09375 2.5625 46.265625 
Q 2.875 46.4375 3.265625 46.4375 
L 9.375 46.4375 
L 9.375 56.890625 
Q 9.375 57.234375 9.546875 57.515625 
Q 9.71875 57.8125 10.171875 58.03125 
Q 10.640625 58.25 11.421875 58.34375 
Q 12.203125 58.453125 13.375 58.453125 
Q 14.59375 58.453125 15.375 58.34375 
Q 16.15625 58.25 16.59375 58.03125 
Q 17.046875 57.8125 17.234375 57.515625 
Q 17.4375 57.234375 17.4375 56.890625 
L 17.4375 46.4375 
L 28.71875 46.4375 
Q 29.109375 46.4375 29.390625 46.265625 
Q 29.6875 46.09375 29.90625 45.671875 
Q 30.125 45.265625 30.21875 44.625 
Q 30.328125 44 30.328125 43.0625 
Q 30.328125 41.3125 29.875 40.53125 
Q 29.4375 39.75 28.71875 39.75 
L 17.4375 39.75 
L 17.4375 15.234375 
Q 17.4375 10.6875 18.78125 8.375 
Q 20.125 6.0625 23.578125 6.0625 
Q 24.703125 6.0625 25.578125 6.28125 
Q 26.46875 6.5 27.140625 6.734375 
Q 27.828125 6.984375 28.3125 7.203125 
Q 28.8125 7.421875 29.203125 7.421875 
Q 29.4375 7.421875 29.65625 7.296875 
Q 29.890625 7.171875 30 6.828125 
Q 30.125 6.5 30.21875 5.90625 
Q 30.328125 5.328125 30.328125 4.4375 
z
" id="Calibri-116"/>
       <path d="M 15.53125 1.21875 
Q 15.53125 0.828125 15.328125 0.5625 
Q 15.140625 0.296875 14.703125 0.09375 
Q 14.265625 -0.09375 13.484375 -0.1875 
Q 12.703125 -0.296875 11.46875 -0.296875 
Q 10.296875 -0.296875 9.515625 -0.1875 
Q 8.734375 -0.09375 8.265625 0.09375 
Q 7.8125 0.296875 7.640625 0.5625 
Q 7.46875 0.828125 7.46875 1.21875 
L 7.46875 45.171875 
Q 7.46875 45.515625 7.640625 45.796875 
Q 7.8125 46.09375 8.265625 46.28125 
Q 8.734375 46.484375 9.515625 46.578125 
Q 10.296875 46.6875 11.46875 46.6875 
Q 12.703125 46.6875 13.484375 46.578125 
Q 14.265625 46.484375 14.703125 46.28125 
Q 15.140625 46.09375 15.328125 45.796875 
Q 15.53125 45.515625 15.53125 45.171875 
z
M 16.453125 60.015625 
Q 16.453125 57.171875 15.375 56.140625 
Q 14.3125 55.125 11.421875 55.125 
Q 8.59375 55.125 7.546875 56.125 
Q 6.5 57.125 6.5 59.90625 
Q 6.5 62.75 7.5625 63.765625 
Q 8.640625 64.796875 11.53125 64.796875 
Q 14.359375 64.796875 15.40625 63.796875 
Q 16.453125 62.796875 16.453125 60.015625 
z
" id="Calibri-105"/>
       <path d="M 72.65625 1.21875 
Q 72.65625 0.828125 72.453125 0.5625 
Q 72.265625 0.296875 71.828125 0.09375 
Q 71.390625 -0.09375 70.609375 -0.1875 
Q 69.828125 -0.296875 68.65625 -0.296875 
Q 67.4375 -0.296875 66.65625 -0.1875 
Q 65.875 -0.09375 65.40625 0.09375 
Q 64.9375 0.296875 64.734375 0.5625 
Q 64.546875 0.828125 64.546875 1.21875 
L 64.546875 27.9375 
Q 64.546875 30.71875 64.0625 33 
Q 63.578125 35.296875 62.5 36.953125 
Q 61.421875 38.625 59.765625 39.5 
Q 58.109375 40.375 55.859375 40.375 
Q 53.078125 40.375 50.265625 38.21875 
Q 47.46875 36.078125 44.09375 31.9375 
L 44.09375 1.21875 
Q 44.09375 0.828125 43.890625 0.5625 
Q 43.703125 0.296875 43.234375 0.09375 
Q 42.78125 -0.09375 42 -0.1875 
Q 41.21875 -0.296875 40.046875 -0.296875 
Q 38.921875 -0.296875 38.109375 -0.1875 
Q 37.3125 -0.09375 36.84375 0.09375 
Q 36.375 0.296875 36.203125 0.5625 
Q 36.03125 0.828125 36.03125 1.21875 
L 36.03125 27.9375 
Q 36.03125 30.71875 35.5 33 
Q 34.96875 35.296875 33.890625 36.953125 
Q 32.8125 38.625 31.171875 39.5 
Q 29.546875 40.375 27.296875 40.375 
Q 24.515625 40.375 21.671875 38.21875 
Q 18.84375 36.078125 15.53125 31.9375 
L 15.53125 1.21875 
Q 15.53125 0.828125 15.328125 0.5625 
Q 15.140625 0.296875 14.703125 0.09375 
Q 14.265625 -0.09375 13.484375 -0.1875 
Q 12.703125 -0.296875 11.46875 -0.296875 
Q 10.296875 -0.296875 9.515625 -0.1875 
Q 8.734375 -0.09375 8.265625 0.09375 
Q 7.8125 0.296875 7.640625 0.5625 
Q 7.46875 0.828125 7.46875 1.21875 
L 7.46875 45.171875 
Q 7.46875 45.5625 7.609375 45.828125 
Q 7.765625 46.09375 8.203125 46.3125 
Q 8.640625 46.53125 9.328125 46.609375 
Q 10.015625 46.6875 11.140625 46.6875 
Q 12.203125 46.6875 12.90625 46.609375 
Q 13.625 46.53125 14.015625 46.3125 
Q 14.40625 46.09375 14.578125 45.828125 
Q 14.75 45.5625 14.75 45.171875 
L 14.75 39.359375 
Q 18.453125 43.5 21.9375 45.421875 
Q 25.4375 47.359375 29 47.359375 
Q 31.734375 47.359375 33.90625 46.71875 
Q 36.078125 46.09375 37.734375 44.9375 
Q 39.40625 43.796875 40.578125 42.203125 
Q 41.75 40.625 42.53125 38.671875 
Q 44.734375 41.0625 46.703125 42.71875 
Q 48.6875 44.390625 50.515625 45.40625 
Q 52.34375 46.4375 54.078125 46.890625 
Q 55.8125 47.359375 57.5625 47.359375 
Q 61.8125 47.359375 64.6875 45.875 
Q 67.578125 44.390625 69.359375 41.890625 
Q 71.140625 39.40625 71.890625 36.0625 
Q 72.65625 32.71875 72.65625 29 
z
" id="Calibri-109"/>
       <path d="M 44.96875 25.09375 
Q 44.96875 23.1875 44.015625 22.375 
Q 43.0625 21.578125 41.84375 21.578125 
L 13.03125 21.578125 
Q 13.03125 17.921875 13.765625 14.984375 
Q 14.5 12.0625 16.203125 9.953125 
Q 17.921875 7.859375 20.65625 6.734375 
Q 23.390625 5.609375 27.34375 5.609375 
Q 30.46875 5.609375 32.90625 6.125 
Q 35.359375 6.640625 37.140625 7.265625 
Q 38.921875 7.90625 40.0625 8.421875 
Q 41.21875 8.9375 41.796875 8.9375 
Q 42.140625 8.9375 42.40625 8.765625 
Q 42.671875 8.59375 42.8125 8.25 
Q 42.96875 7.90625 43.03125 7.296875 
Q 43.109375 6.6875 43.109375 5.8125 
Q 43.109375 5.171875 43.0625 4.703125 
Q 43.015625 4.25 42.9375 3.875 
Q 42.875 3.515625 42.703125 3.21875 
Q 42.53125 2.9375 42.265625 2.65625 
Q 42 2.390625 40.671875 1.78125 
Q 39.359375 1.171875 37.25 0.578125 
Q 35.15625 0 32.390625 -0.453125 
Q 29.640625 -0.921875 26.515625 -0.921875 
Q 21.09375 -0.921875 17.015625 0.578125 
Q 12.9375 2.09375 10.15625 5.078125 
Q 7.375 8.0625 5.953125 12.546875 
Q 4.546875 17.046875 4.546875 23 
Q 4.546875 28.65625 6 33.171875 
Q 7.46875 37.703125 10.21875 40.84375 
Q 12.984375 44 16.890625 45.671875 
Q 20.796875 47.359375 25.640625 47.359375 
Q 30.8125 47.359375 34.453125 45.703125 
Q 38.09375 44.046875 40.4375 41.234375 
Q 42.78125 38.421875 43.875 34.640625 
Q 44.96875 30.859375 44.96875 26.5625 
z
M 36.859375 27.484375 
Q 37.015625 33.84375 34.0625 37.453125 
Q 31.109375 41.0625 25.296875 41.0625 
Q 22.3125 41.0625 20.0625 39.9375 
Q 17.828125 38.8125 16.3125 36.953125 
Q 14.796875 35.109375 13.96875 32.640625 
Q 13.140625 30.171875 13.03125 27.484375 
z
" id="Calibri-101"/>
       <path id="Calibri-32"/>
       <path d="M 35.0625 13.1875 
Q 35.0625 9.8125 33.8125 7.171875 
Q 32.5625 4.546875 30.265625 2.734375 
Q 27.984375 0.921875 24.796875 0 
Q 21.625 -0.921875 17.828125 -0.921875 
Q 15.484375 -0.921875 13.359375 -0.5625 
Q 11.234375 -0.203125 9.546875 0.359375 
Q 7.859375 0.921875 6.6875 1.53125 
Q 5.515625 2.15625 4.96875 2.640625 
Q 4.4375 3.125 4.1875 4 
Q 3.953125 4.890625 3.953125 6.390625 
Q 3.953125 7.328125 4.046875 7.953125 
Q 4.15625 8.59375 4.296875 8.984375 
Q 4.4375 9.375 4.703125 9.546875 
Q 4.984375 9.71875 5.328125 9.71875 
Q 5.859375 9.71875 6.90625 9.0625 
Q 7.953125 8.40625 9.484375 7.625 
Q 11.03125 6.84375 13.125 6.171875 
Q 15.234375 5.515625 17.96875 5.515625 
Q 20.015625 5.515625 21.671875 5.953125 
Q 23.34375 6.390625 24.5625 7.25 
Q 25.78125 8.109375 26.4375 9.421875 
Q 27.09375 10.75 27.09375 12.546875 
Q 27.09375 14.40625 26.140625 15.671875 
Q 25.203125 16.9375 23.640625 17.90625 
Q 22.078125 18.890625 20.125 19.640625 
Q 18.171875 20.40625 16.09375 21.234375 
Q 14.015625 22.078125 12.03125 23.125 
Q 10.0625 24.171875 8.5 25.6875 
Q 6.9375 27.203125 5.984375 29.296875 
Q 5.03125 31.390625 5.03125 34.328125 
Q 5.03125 36.921875 6.03125 39.28125 
Q 7.03125 41.65625 9.03125 43.4375 
Q 11.03125 45.21875 14.03125 46.28125 
Q 17.046875 47.359375 21.046875 47.359375 
Q 22.796875 47.359375 24.546875 47.0625 
Q 26.3125 46.78125 27.734375 46.34375 
Q 29.15625 45.90625 30.15625 45.390625 
Q 31.15625 44.875 31.65625 44.484375 
Q 32.171875 44.09375 32.34375 43.796875 
Q 32.515625 43.5 32.59375 43.140625 
Q 32.671875 42.78125 32.734375 42.234375 
Q 32.8125 41.703125 32.8125 40.921875 
Q 32.8125 40.09375 32.734375 39.484375 
Q 32.671875 38.875 32.5 38.484375 
Q 32.328125 38.09375 32.078125 37.921875 
Q 31.84375 37.75 31.546875 37.75 
Q 31.109375 37.75 30.265625 38.28125 
Q 29.4375 38.8125 28.125 39.421875 
Q 26.8125 40.046875 25.03125 40.578125 
Q 23.25 41.109375 20.953125 41.109375 
Q 18.890625 41.109375 17.328125 40.640625 
Q 15.765625 40.1875 14.765625 39.328125 
Q 13.765625 38.484375 13.25 37.3125 
Q 12.75 36.140625 12.75 34.765625 
Q 12.75 32.859375 13.71875 31.5625 
Q 14.703125 30.28125 16.265625 29.296875 
Q 17.828125 28.328125 19.828125 27.546875 
Q 21.828125 26.765625 23.90625 25.921875 
Q 25.984375 25.09375 28 24.0625 
Q 30.03125 23.046875 31.59375 21.578125 
Q 33.15625 20.125 34.109375 18.0625 
Q 35.0625 16.015625 35.0625 13.1875 
z
" id="Calibri-115"/>
       <path d="M 47.90625 23.875 
Q 47.90625 18.109375 46.65625 13.515625 
Q 45.40625 8.9375 42.984375 5.734375 
Q 40.578125 2.546875 37.015625 0.8125 
Q 33.453125 -0.921875 28.859375 -0.921875 
Q 26.90625 -0.921875 25.234375 -0.53125 
Q 23.578125 -0.140625 21.984375 0.6875 
Q 20.40625 1.515625 18.84375 2.78125 
Q 17.28125 4.046875 15.53125 5.765625 
L 15.53125 -16.21875 
Q 15.53125 -16.609375 15.328125 -16.890625 
Q 15.140625 -17.1875 14.703125 -17.375 
Q 14.265625 -17.578125 13.484375 -17.671875 
Q 12.703125 -17.78125 11.46875 -17.78125 
Q 10.296875 -17.78125 9.515625 -17.671875 
Q 8.734375 -17.578125 8.265625 -17.375 
Q 7.8125 -17.1875 7.640625 -16.890625 
Q 7.46875 -16.609375 7.46875 -16.21875 
L 7.46875 45.171875 
Q 7.46875 45.609375 7.609375 45.875 
Q 7.765625 46.140625 8.203125 46.328125 
Q 8.640625 46.53125 9.328125 46.609375 
Q 10.015625 46.6875 10.984375 46.6875 
Q 12.015625 46.6875 12.671875 46.609375 
Q 13.328125 46.53125 13.765625 46.328125 
Q 14.203125 46.140625 14.375 45.875 
Q 14.546875 45.609375 14.546875 45.171875 
L 14.546875 39.265625 
Q 16.546875 41.3125 18.40625 42.828125 
Q 20.265625 44.34375 22.140625 45.34375 
Q 24.03125 46.34375 26 46.84375 
Q 27.984375 47.359375 30.171875 47.359375 
Q 34.96875 47.359375 38.328125 45.5 
Q 41.703125 43.65625 43.828125 40.421875 
Q 45.953125 37.203125 46.921875 32.921875 
Q 47.90625 28.65625 47.90625 23.875 
z
M 39.40625 22.953125 
Q 39.40625 26.3125 38.890625 29.46875 
Q 38.375 32.625 37.125 35.0625 
Q 35.890625 37.5 33.78125 38.96875 
Q 31.6875 40.4375 28.5625 40.4375 
Q 27 40.4375 25.484375 39.96875 
Q 23.96875 39.5 22.40625 38.5 
Q 20.84375 37.5 19.140625 35.859375 
Q 17.4375 34.234375 15.53125 31.84375 
L 15.53125 14.359375 
Q 18.84375 10.296875 21.828125 8.140625 
Q 24.8125 6 28.078125 6 
Q 31.109375 6 33.28125 7.46875 
Q 35.453125 8.9375 36.796875 11.375 
Q 38.140625 13.8125 38.765625 16.84375 
Q 39.40625 19.875 39.40625 22.953125 
z
" id="Calibri-112"/>
       <path d="M 32.953125 8.984375 
Q 28.953125 4.15625 25.046875 1.6875 
Q 21.140625 -0.78125 16.75 -0.78125 
Q 11.578125 -0.78125 9.03125 1.859375 
Q 6.5 4.5 6.5 9.515625 
Q 6.5 12.59375 7.375 16.40625 
L 13.421875 41.75 
L 6.15625 41.75 
L 6.6875 44.234375 
Q 9.578125 44.578125 11.25 45.484375 
Q 12.9375 46.390625 14.078125 47.875 
Q 15.234375 49.359375 16.203125 51.75 
Q 17.1875 54.15625 18.65625 58.734375 
L 25.390625 58.734375 
L 22.703125 46.6875 
L 38.1875 46.6875 
L 37.109375 41.75 
L 21.578125 41.75 
L 16.890625 22.796875 
Q 14.9375 14.890625 14.9375 10.984375 
Q 14.9375 8.015625 16.234375 6.46875 
Q 17.53125 4.9375 20.015625 4.9375 
Q 22.265625 4.9375 24.734375 6.671875 
Q 27.203125 8.40625 30.125 11.921875 
z
" id="Cambria-Italic-116"/>
      </defs>
      <use transform="translate(0 0.203125)" xlink:href="#Calibri-116"/>
      <use transform="translate(33.496094 0.203125)" xlink:href="#Calibri-105"/>
      <use transform="translate(56.445312 0.203125)" xlink:href="#Calibri-109"/>
      <use transform="translate(136.328125 0.203125)" xlink:href="#Calibri-101"/>
      <use transform="translate(186.083984 0.203125)" xlink:href="#Calibri-32"/>
      <use transform="translate(208.691406 0.203125)" xlink:href="#Calibri-115"/>
      <use transform="translate(247.802734 0.203125)" xlink:href="#Calibri-116"/>
      <use transform="translate(281.298828 0.203125)" xlink:href="#Calibri-101"/>
      <use transform="translate(331.054688 0.203125)" xlink:href="#Calibri-112"/>
      <use transform="translate(383.59375 0.203125)" xlink:href="#Calibri-32"/>
      <use transform="translate(406.201172 0.203125)" xlink:href="#Cambria-Italic-116"/>
     </g>
    </g>
   </g>
   <g id="matplotlib.axis_2">
    <g id="ytick_1">
     <g id="line2d_13">
      <path clip-path="url(#pf83515e33c)" d="M 20.553841 115.895178 
L 230.280498 115.895178 
" style="fill:none;stroke:#000000;stroke-linecap:square;stroke-opacity:0.1;stroke-width:0.5;"/>
     </g>
     <g id="line2d_14">
      <defs>
       <path d="M 0 0 
L 3 0 
" id="m951e5a70b5" style="stroke:#000000;stroke-width:0.5;"/>
      </defs>
      <g>
       <use style="stroke:#000000;stroke-width:0.5;" x="20.553841" xlink:href="#m951e5a70b5" y="115.895178"/>
      </g>
     </g>
     <g id="text_8">
      <!-- 0 -->
      <g transform="translate(15.8879 118.019306)scale(0.06246 -0.06246)">
       <use xlink:href="#Calibri-48"/>
      </g>
     </g>
    </g>
    <g id="ytick_2">
     <g id="line2d_15">
      <path clip-path="url(#pf83515e33c)" d="M 20.553841 93.136705 
L 230.280498 93.136705 
" style="fill:none;stroke:#000000;stroke-linecap:square;stroke-opacity:0.1;stroke-width:0.5;"/>
     </g>
     <g id="line2d_16">
      <g>
       <use style="stroke:#000000;stroke-width:0.5;" x="20.553841" xlink:href="#m951e5a70b5" y="93.136705"/>
      </g>
     </g>
     <g id="text_9">
      <!-- 20 -->
      <g transform="translate(12.721959 95.260833)scale(0.06246 -0.06246)">
       <use xlink:href="#Calibri-50"/>
       <use x="50.683594" xlink:href="#Calibri-48"/>
      </g>
     </g>
    </g>
    <g id="ytick_3">
     <g id="line2d_17">
      <path clip-path="url(#pf83515e33c)" d="M 20.553841 70.378233 
L 230.280498 70.378233 
" style="fill:none;stroke:#000000;stroke-linecap:square;stroke-opacity:0.1;stroke-width:0.5;"/>
     </g>
     <g id="line2d_18">
      <g>
       <use style="stroke:#000000;stroke-width:0.5;" x="20.553841" xlink:href="#m951e5a70b5" y="70.378233"/>
      </g>
     </g>
     <g id="text_10">
      <!-- 40 -->
      <g transform="translate(12.721959 72.502361)scale(0.06246 -0.06246)">
       <use xlink:href="#Calibri-52"/>
       <use x="50.683594" xlink:href="#Calibri-48"/>
      </g>
     </g>
    </g>
    <g id="ytick_4">
     <g id="line2d_19">
      <path clip-path="url(#pf83515e33c)" d="M 20.553841 47.61976 
L 230.280498 47.61976 
" style="fill:none;stroke:#000000;stroke-linecap:square;stroke-opacity:0.1;stroke-width:0.5;"/>
     </g>
     <g id="line2d_20">
      <g>
       <use style="stroke:#000000;stroke-width:0.5;" x="20.553841" xlink:href="#m951e5a70b5" y="47.61976"/>
      </g>
     </g>
     <g id="text_11">
      <!-- 60 -->
      <g transform="translate(12.721959 49.743888)scale(0.06246 -0.06246)">
       <use xlink:href="#Calibri-54"/>
       <use x="50.683594" xlink:href="#Calibri-48"/>
      </g>
     </g>
    </g>
    <g id="ytick_5">
     <g id="line2d_21">
      <path clip-path="url(#pf83515e33c)" d="M 20.553841 24.861288 
L 230.280498 24.861288 
" style="fill:none;stroke:#000000;stroke-linecap:square;stroke-opacity:0.1;stroke-width:0.5;"/>
     </g>
     <g id="line2d_22">
      <g>
       <use style="stroke:#000000;stroke-width:0.5;" x="20.553841" xlink:href="#m951e5a70b5" y="24.861288"/>
      </g>
     </g>
     <g id="text_12">
      <!-- 80 -->
      <g transform="translate(12.721959 26.985416)scale(0.06246 -0.06246)">
       <use xlink:href="#Calibri-56"/>
       <use x="50.683594" xlink:href="#Calibri-48"/>
      </g>
     </g>
    </g>
    <g id="text_13">
     <!-- Risk [%] -->
     <g transform="translate(9.121646 76.411934)rotate(-90)scale(0.09 -0.09)">
      <defs>
       <path d="M 50.53125 1.265625 
Q 50.53125 0.875 50.390625 0.578125 
Q 50.25 0.296875 49.75 0.09375 
Q 49.265625 -0.09375 48.390625 -0.1875 
Q 47.515625 -0.296875 46.046875 -0.296875 
Q 44.78125 -0.296875 43.96875 -0.1875 
Q 43.171875 -0.09375 42.671875 0.125 
Q 42.1875 0.34375 41.921875 0.734375 
Q 41.65625 1.125 41.453125 1.703125 
L 35.640625 16.609375 
Q 34.625 19.140625 33.515625 21.265625 
Q 32.421875 23.390625 30.90625 24.921875 
Q 29.390625 26.46875 27.34375 27.3125 
Q 25.296875 28.171875 22.40625 28.171875 
L 16.796875 28.171875 
L 16.796875 1.265625 
Q 16.796875 0.875 16.578125 0.578125 
Q 16.359375 0.296875 15.890625 0.125 
Q 15.4375 -0.046875 14.625 -0.171875 
Q 13.8125 -0.296875 12.59375 -0.296875 
Q 11.375 -0.296875 10.5625 -0.171875 
Q 9.765625 -0.046875 9.28125 0.125 
Q 8.796875 0.296875 8.59375 0.578125 
Q 8.40625 0.875 8.40625 1.265625 
L 8.40625 59.765625 
Q 8.40625 61.671875 9.40625 62.421875 
Q 10.40625 63.1875 11.53125 63.1875 
L 24.953125 63.1875 
Q 27.34375 63.1875 28.921875 63.0625 
Q 30.515625 62.9375 31.78125 62.796875 
Q 35.453125 62.15625 38.25 60.78125 
Q 41.0625 59.421875 42.96875 57.3125 
Q 44.875 55.21875 45.828125 52.515625 
Q 46.78125 49.8125 46.78125 46.53125 
Q 46.78125 43.359375 45.921875 40.84375 
Q 45.0625 38.328125 43.453125 36.390625 
Q 41.84375 34.46875 39.59375 33.046875 
Q 37.359375 31.640625 34.578125 30.671875 
Q 36.140625 29.984375 37.40625 28.921875 
Q 38.671875 27.875 39.765625 26.40625 
Q 40.875 24.953125 41.84375 23.046875 
Q 42.828125 21.140625 43.796875 18.75 
L 49.46875 4.828125 
Q 50.140625 3.078125 50.328125 2.359375 
Q 50.53125 1.65625 50.53125 1.265625 
z
M 37.890625 45.65625 
Q 37.890625 49.359375 36.234375 51.921875 
Q 34.578125 54.5 30.671875 55.609375 
Q 29.4375 55.953125 27.90625 56.09375 
Q 26.375 56.25 23.875 56.25 
L 16.796875 56.25 
L 16.796875 34.96875 
L 25 34.96875 
Q 28.328125 34.96875 30.734375 35.765625 
Q 33.15625 36.578125 34.765625 38.015625 
Q 36.375 39.453125 37.125 41.40625 
Q 37.890625 43.359375 37.890625 45.65625 
z
" id="Calibri-82"/>
       <path d="M 43.5625 1.265625 
Q 43.5625 0.875 43.359375 0.578125 
Q 43.171875 0.296875 42.703125 0.09375 
Q 42.234375 -0.09375 41.40625 -0.1875 
Q 40.578125 -0.296875 39.3125 -0.296875 
Q 37.984375 -0.296875 37.125 -0.21875 
Q 36.28125 -0.140625 35.6875 0.03125 
Q 35.109375 0.203125 34.734375 0.515625 
Q 34.375 0.828125 34.078125 1.265625 
L 15.53125 25.59375 
L 15.53125 1.21875 
Q 15.53125 0.828125 15.328125 0.5625 
Q 15.140625 0.296875 14.703125 0.09375 
Q 14.265625 -0.09375 13.484375 -0.1875 
Q 12.703125 -0.296875 11.46875 -0.296875 
Q 10.296875 -0.296875 9.515625 -0.1875 
Q 8.734375 -0.09375 8.265625 0.09375 
Q 7.8125 0.296875 7.640625 0.5625 
Q 7.46875 0.828125 7.46875 1.21875 
L 7.46875 66.453125 
Q 7.46875 66.84375 7.640625 67.140625 
Q 7.8125 67.4375 8.265625 67.625 
Q 8.734375 67.828125 9.515625 67.921875 
Q 10.296875 68.015625 11.46875 68.015625 
Q 12.703125 68.015625 13.484375 67.921875 
Q 14.265625 67.828125 14.703125 67.625 
Q 15.140625 67.4375 15.328125 67.140625 
Q 15.53125 66.84375 15.53125 66.453125 
L 15.53125 26.703125 
L 32.125 44.96875 
Q 32.515625 45.453125 32.953125 45.765625 
Q 33.40625 46.09375 34.015625 46.3125 
Q 34.625 46.53125 35.453125 46.609375 
Q 36.28125 46.6875 37.453125 46.6875 
Q 38.671875 46.6875 39.5 46.609375 
Q 40.328125 46.53125 40.84375 46.359375 
Q 41.359375 46.1875 41.578125 45.921875 
Q 41.796875 45.65625 41.796875 45.21875 
Q 41.796875 44.625 41.46875 44.03125 
Q 41.15625 43.453125 40.4375 42.671875 
L 24.515625 26.765625 
L 42.390625 3.5625 
Q 43.015625 2.734375 43.28125 2.21875 
Q 43.5625 1.703125 43.5625 1.265625 
z
" id="Calibri-107"/>
       <path d="M 26.3125 -12.703125 
Q 26.3125 -14.3125 25.953125 -14.96875 
Q 25.59375 -15.625 24.90625 -15.625 
L 12.40625 -15.625 
Q 11.8125 -15.625 11.28125 -15.453125 
Q 10.75 -15.28125 10.296875 -14.890625 
Q 9.859375 -14.5 9.59375 -13.84375 
Q 9.328125 -13.1875 9.328125 -12.203125 
L 9.328125 64.890625 
Q 9.328125 65.828125 9.59375 66.484375 
Q 9.859375 67.140625 10.296875 67.546875 
Q 10.75 67.96875 11.28125 68.140625 
Q 11.8125 68.3125 12.40625 68.3125 
L 24.90625 68.3125 
Q 25.203125 68.3125 25.46875 68.15625 
Q 25.734375 68.015625 25.921875 67.625 
Q 26.125 67.234375 26.21875 66.671875 
Q 26.3125 66.109375 26.3125 65.28125 
Q 26.3125 63.71875 25.953125 63.03125 
Q 25.59375 62.359375 24.90625 62.359375 
L 16.9375 62.359375 
L 16.9375 -9.71875 
L 24.90625 -9.71875 
Q 25.203125 -9.71875 25.46875 -9.859375 
Q 25.734375 -10.015625 25.921875 -10.375 
Q 26.125 -10.75 26.21875 -11.296875 
Q 26.3125 -11.859375 26.3125 -12.703125 
z
" id="Calibri-91"/>
       <path d="M 30.71875 47.5625 
Q 30.71875 43.796875 29.875 40.71875 
Q 29.046875 37.65625 27.34375 35.46875 
Q 25.640625 33.296875 23.015625 32.078125 
Q 20.40625 30.859375 16.890625 30.859375 
Q 13.328125 30.859375 10.78125 31.984375 
Q 8.25 33.109375 6.640625 35.234375 
Q 5.03125 37.359375 4.265625 40.40625 
Q 3.515625 43.453125 3.515625 47.359375 
Q 3.515625 50.9375 4.3125 53.953125 
Q 5.125 56.984375 6.78125 59.171875 
Q 8.453125 61.375 11.0625 62.640625 
Q 13.671875 63.921875 17.234375 63.921875 
Q 21.09375 63.921875 23.703125 62.59375 
Q 26.3125 61.28125 27.875 59.0625 
Q 29.4375 56.84375 30.078125 53.859375 
Q 30.71875 50.875 30.71875 47.5625 
z
M 23.875 47.3125 
Q 23.875 50.046875 23.484375 52.171875 
Q 23.09375 54.296875 22.28125 55.703125 
Q 21.484375 57.125 20.15625 57.828125 
Q 18.84375 58.546875 17.046875 58.546875 
Q 15.328125 58.546875 14.0625 57.859375 
Q 12.796875 57.1875 11.984375 55.8125 
Q 11.1875 54.453125 10.796875 52.421875 
Q 10.40625 50.390625 10.40625 47.65625 
Q 10.40625 44.34375 10.859375 42.109375 
Q 11.328125 39.890625 12.171875 38.59375 
Q 13.03125 37.3125 14.328125 36.796875 
Q 15.625 36.28125 17.28125 36.28125 
Q 19.234375 36.28125 20.484375 37.015625 
Q 21.734375 37.75 22.484375 39.1875 
Q 23.25 40.625 23.5625 42.65625 
Q 23.875 44.6875 23.875 47.3125 
z
M 67.96875 15.96875 
Q 67.96875 12.203125 67.140625 9.125 
Q 66.3125 6.0625 64.59375 3.875 
Q 62.890625 1.703125 60.28125 0.484375 
Q 57.671875 -0.734375 54.15625 -0.734375 
Q 50.59375 -0.734375 48.046875 0.390625 
Q 45.515625 1.515625 43.890625 3.640625 
Q 42.28125 5.765625 41.515625 8.8125 
Q 40.765625 11.859375 40.765625 15.765625 
Q 40.765625 19.34375 41.578125 22.359375 
Q 42.390625 25.390625 44.046875 27.578125 
Q 45.703125 29.78125 48.3125 31.046875 
Q 50.921875 32.328125 54.5 32.328125 
Q 58.34375 32.328125 60.953125 31 
Q 63.578125 29.6875 65.140625 27.46875 
Q 66.703125 25.25 67.328125 22.265625 
Q 67.96875 19.28125 67.96875 15.96875 
z
M 61.140625 15.71875 
Q 61.140625 18.453125 60.75 20.578125 
Q 60.359375 22.703125 59.546875 24.109375 
Q 58.734375 25.53125 57.421875 26.234375 
Q 56.109375 26.953125 54.296875 26.953125 
Q 52.59375 26.953125 51.3125 26.265625 
Q 50.046875 25.59375 49.234375 24.21875 
Q 48.4375 22.859375 48.046875 20.828125 
Q 47.65625 18.796875 47.65625 16.0625 
Q 47.65625 12.75 48.109375 10.515625 
Q 48.578125 8.296875 49.4375 7 
Q 50.296875 5.71875 51.578125 5.203125 
Q 52.875 4.6875 54.546875 4.6875 
Q 56.5 4.6875 57.734375 5.421875 
Q 58.984375 6.15625 59.734375 7.59375 
Q 60.5 9.03125 60.8125 11.0625 
Q 61.140625 13.09375 61.140625 15.71875 
z
M 16.890625 -0.390625 
Q 16.65625 -0.828125 16.3125 -1.046875 
Q 15.96875 -1.265625 15.46875 -1.4375 
Q 14.984375 -1.609375 14.296875 -1.6875 
Q 13.625 -1.765625 12.640625 -1.765625 
Q 11.578125 -1.765625 10.90625 -1.5625 
Q 10.25 -1.375 9.984375 -1.046875 
Q 9.71875 -0.734375 9.78125 -0.265625 
Q 9.859375 0.203125 10.25 0.78125 
L 54.203125 63.71875 
Q 54.4375 64.109375 54.78125 64.375 
Q 55.125 64.65625 55.640625 64.796875 
Q 56.15625 64.9375 56.8125 65.015625 
Q 57.46875 65.09375 58.5 65.09375 
Q 59.515625 65.09375 60.171875 64.921875 
Q 60.84375 64.75 61.125 64.40625 
Q 61.421875 64.0625 61.34375 63.578125 
Q 61.28125 63.09375 60.890625 62.546875 
z
" id="Calibri-37"/>
       <path d="M 21.390625 -12.203125 
Q 21.390625 -13.1875 21.109375 -13.84375 
Q 20.84375 -14.5 20.40625 -14.890625 
Q 19.96875 -15.28125 19.40625 -15.453125 
Q 18.84375 -15.625 18.265625 -15.625 
L 5.8125 -15.625 
Q 5.125 -15.625 4.75 -14.96875 
Q 4.390625 -14.3125 4.390625 -12.703125 
Q 4.390625 -11.859375 4.46875 -11.296875 
Q 4.546875 -10.75 4.734375 -10.375 
Q 4.9375 -10.015625 5.203125 -9.859375 
Q 5.46875 -9.71875 5.8125 -9.71875 
L 13.765625 -9.71875 
L 13.765625 62.359375 
L 5.8125 62.359375 
Q 5.125 62.359375 4.75 63.03125 
Q 4.390625 63.71875 4.390625 65.28125 
Q 4.390625 66.109375 4.46875 66.671875 
Q 4.546875 67.234375 4.734375 67.625 
Q 4.9375 68.015625 5.203125 68.15625 
Q 5.46875 68.3125 5.8125 68.3125 
L 18.265625 68.3125 
Q 18.84375 68.3125 19.40625 68.140625 
Q 19.96875 67.96875 20.40625 67.546875 
Q 20.84375 67.140625 21.109375 66.484375 
Q 21.390625 65.828125 21.390625 64.890625 
z
" id="Calibri-93"/>
      </defs>
      <use xlink:href="#Calibri-82"/>
      <use x="54.296875" xlink:href="#Calibri-105"/>
      <use x="77.246094" xlink:href="#Calibri-115"/>
      <use x="116.357422" xlink:href="#Calibri-107"/>
      <use x="161.816406" xlink:href="#Calibri-32"/>
      <use x="184.423828" xlink:href="#Calibri-91"/>
      <use x="215.087891" xlink:href="#Calibri-37"/>
      <use x="286.572266" xlink:href="#Calibri-93"/>
     </g>
    </g>
   </g>
   <g id="line2d_23">
    <path clip-path="url(#pf83515e33c)" d="M 30.086871 115.895178 
L 49.152931 90.112137 
L 68.21899 78.008491 
L 87.28505 74.119479 
L 106.35111 74.92845 
L 125.417169 78.213292 
L 144.483229 82.604158 
L 163.549289 87.285809 
L 182.615348 91.798628 
L 201.681408 95.906628 
L 220.747468 99.510767 
" style="fill:none;stroke:#005ea8;stroke-linecap:square;"/>
    <defs>
     <path d="M 0 1.5 
C 0.397805 1.5 0.77937 1.341951 1.06066 1.06066 
C 1.341951 0.77937 1.5 0.397805 1.5 0 
C 1.5 -0.397805 1.341951 -0.77937 1.06066 -1.06066 
C 0.77937 -1.341951 0.397805 -1.5 0 -1.5 
C -0.397805 -1.5 -0.77937 -1.341951 -1.06066 -1.06066 
C -1.341951 -0.77937 -1.5 -0.397805 -1.5 0 
C -1.5 0.397805 -1.341951 0.77937 -1.06066 1.06066 
C -0.77937 1.341951 -0.397805 1.5 0 1.5 
z
" id="m4d53dbdd53" style="stroke:#005ea8;"/>
    </defs>
    <g clip-path="url(#pf83515e33c)">
     <use style="fill:#005ea8;stroke:#005ea8;" x="30.086871" xlink:href="#m4d53dbdd53" y="115.895178"/>
     <use style="fill:#005ea8;stroke:#005ea8;" x="49.152931" xlink:href="#m4d53dbdd53" y="90.112137"/>
     <use style="fill:#005ea8;stroke:#005ea8;" x="68.21899" xlink:href="#m4d53dbdd53" y="78.008491"/>
     <use style="fill:#005ea8;stroke:#005ea8;" x="87.28505" xlink:href="#m4d53dbdd53" y="74.119479"/>
     <use style="fill:#005ea8;stroke:#005ea8;" x="106.35111" xlink:href="#m4d53dbdd53" y="74.92845"/>
     <use style="fill:#005ea8;stroke:#005ea8;" x="125.417169" xlink:href="#m4d53dbdd53" y="78.213292"/>
     <use style="fill:#005ea8;stroke:#005ea8;" x="144.483229" xlink:href="#m4d53dbdd53" y="82.604158"/>
     <use style="fill:#005ea8;stroke:#005ea8;" x="163.549289" xlink:href="#m4d53dbdd53" y="87.285809"/>
     <use style="fill:#005ea8;stroke:#005ea8;" x="182.615348" xlink:href="#m4d53dbdd53" y="91.798628"/>
     <use style="fill:#005ea8;stroke:#005ea8;" x="201.681408" xlink:href="#m4d53dbdd53" y="95.906628"/>
     <use style="fill:#005ea8;stroke:#005ea8;" x="220.747468" xlink:href="#m4d53dbdd53" y="99.510767"/>
    </g>
   </g>
   <g id="line2d_24">
    <path clip-path="url(#pf83515e33c)" d="M 30.086871 115.895178 
L 49.152931 88.243989 
L 68.21899 66.989057 
L 87.28505 50.807711 
L 106.35111 38.570697 
L 125.417169 29.359631 
L 144.483229 22.449092 
L 163.549289 17.276665 
L 182.615348 13.411684 
L 201.681408 10.52714 
L 220.747468 8.376189 
" style="fill:none;stroke:#f17900;stroke-linecap:square;"/>
    <defs>
     <path d="M 0 1.5 
C 0.397805 1.5 0.77937 1.341951 1.06066 1.06066 
C 1.341951 0.77937 1.5 0.397805 1.5 0 
C 1.5 -0.397805 1.341951 -0.77937 1.06066 -1.06066 
C 0.77937 -1.341951 0.397805 -1.5 0 -1.5 
C -0.397805 -1.5 -0.77937 -1.341951 -1.06066 -1.06066 
C -1.341951 -0.77937 -1.5 -0.397805 -1.5 0 
C -1.5 0.397805 -1.341951 0.77937 -1.06066 1.06066 
C -0.77937 1.341951 -0.397805 1.5 0 1.5 
z
" id="mfc167dd1d6" style="stroke:#f17900;"/>
    </defs>
    <g clip-path="url(#pf83515e33c)">
     <use style="fill:#f17900;stroke:#f17900;" x="30.086871" xlink:href="#mfc167dd1d6" y="115.895178"/>
     <use style="fill:#f17900;stroke:#f17900;" x="49.152931" xlink:href="#mfc167dd1d6" y="88.243989"/>
     <use style="fill:#f17900;stroke:#f17900;" x="68.21899" xlink:href="#mfc167dd1d6" y="66.989057"/>
     <use style="fill:#f17900;stroke:#f17900;" x="87.28505" xlink:href="#mfc167dd1d6" y="50.807711"/>
     <use style="fill:#f17900;stroke:#f17900;" x="106.35111" xlink:href="#mfc167dd1d6" y="38.570697"/>
     <use style="fill:#f17900;stroke:#f17900;" x="125.417169" xlink:href="#mfc167dd1d6" y="29.359631"/>
     <use style="fill:#f17900;stroke:#f17900;" x="144.483229" xlink:href="#mfc167dd1d6" y="22.449092"/>
     <use style="fill:#f17900;stroke:#f17900;" x="163.549289" xlink:href="#mfc167dd1d6" y="17.276665"/>
     <use style="fill:#f17900;stroke:#f17900;" x="182.615348" xlink:href="#mfc167dd1d6" y="13.411684"/>
     <use style="fill:#f17900;stroke:#f17900;" x="201.681408" xlink:href="#mfc167dd1d6" y="10.52714"/>
     <use style="fill:#f17900;stroke:#f17900;" x="220.747468" xlink:href="#mfc167dd1d6" y="8.376189"/>
    </g>
   </g>
   <g id="patch_3">
    <path d="M 20.553841 121.271127 
L 20.553841 3.00024 
" style="fill:none;stroke:#000000;stroke-linecap:square;stroke-linejoin:miter;stroke-width:0.5;"/>
   </g>
   <g id="patch_4">
    <path d="M 230.280498 121.271127 
L 230.280498 3.00024 
" style="fill:none;stroke:#000000;stroke-linecap:square;stroke-linejoin:miter;stroke-width:0.5;"/>
   </g>
   <g id="patch_5">
    <path d="M 20.553841 121.271127 
L 230.280498 121.271127 
" style="fill:none;stroke:#000000;stroke-linecap:square;stroke-linejoin:miter;stroke-width:0.5;"/>
   </g>
   <g id="patch_6">
    <path d="M 20.553841 3.00024 
L 230.280498 3.00024 
" style="fill:none;stroke:#000000;stroke-linecap:square;stroke-linejoin:miter;stroke-width:0.5;"/>
   </g>
   <g id="legend_1">
    <g id="patch_7">
     <path d="M 24.926041 20.475377 
L 76.330621 20.475377 
Q 77.579821 20.475377 77.579821 19.226177 
L 77.579821 7.37244 
Q 77.579821 6.12324 76.330621 6.12324 
L 24.926041 6.12324 
Q 23.676841 6.12324 23.676841 7.37244 
L 23.676841 19.226177 
Q 23.676841 20.475377 24.926041 20.475377 
z
" style="fill:#ffffff;opacity:0.8;stroke:#cccccc;stroke-linejoin:miter;"/>
    </g>
    <g id="line2d_25">
     <path d="M 24.926041 9.621 
L 37.418041 9.621 
" style="fill:none;stroke:#005ea8;stroke-linecap:square;"/>
    </g>
    <g id="line2d_26">
     <defs>
      <path d="M 0 1.125 
C 0.298353 1.125 0.584527 1.006463 0.795495 0.795495 
C 1.006463 0.584527 1.125 0.298353 1.125 0 
C 1.125 -0.298353 1.006463 -0.584527 0.795495 -0.795495 
C 0.584527 -1.006463 0.298353 -1.125 0 -1.125 
C -0.298353 -1.125 -0.584527 -1.006463 -0.795495 -0.795495 
C -1.006463 -0.584527 -1.125 -0.298353 -1.125 0 
C -1.125 0.298353 -1.006463 0.584527 -0.795495 0.795495 
C -0.584527 1.006463 -0.298353 1.125 0 1.125 
z
" id="m5c6190e410" style="stroke:#005ea8;"/>
     </defs>
     <g>
      <use style="fill:#005ea8;stroke:#005ea8;" x="31.172041" xlink:href="#m5c6190e410" y="9.621"/>
     </g>
    </g>
    <g id="text_14">
     <!-- $\xi_5=[0\ 1\ 0\ 0]$ -->
     <g transform="translate(42.414841 11.8071)scale(0.06246 -0.06246)">
      <defs>
       <path d="M 48.09375 62.703125 
L 45.90625 62.5 
Q 37.546875 61.765625 30.265625 57.296875 
Q 23 52.828125 23 46.578125 
Q 23 43.265625 25.78125 41.484375 
Q 28.5625 39.703125 32.671875 39.703125 
Q 34.28125 39.703125 35.890625 39.984375 
L 39.703125 40.71875 
L 38.8125 35.984375 
L 35.796875 35.40625 
Q 26.3125 33.59375 19.703125 29.25 
Q 13.09375 24.90625 13.09375 18.890625 
Q 13.09375 15.484375 15.140625 13.078125 
Q 17.1875 10.6875 23 8.109375 
Q 28.90625 5.5625 31.25 2.84375 
Q 33.59375 0.140625 33.59375 -3.90625 
Q 33.59375 -8.796875 29.421875 -13.25 
Q 25.25 -17.71875 18.015625 -20.015625 
L 16.21875 -17.09375 
Q 21.484375 -15.28125 24.734375 -12.34375 
Q 27.984375 -9.421875 27.984375 -6.390625 
Q 27.984375 -3.65625 26 -2.09375 
Q 24.03125 -0.53125 17 2.203125 
Q 4.109375 7.234375 4.109375 17.1875 
Q 4.109375 24.125 10.109375 29.375 
Q 16.109375 34.625 25.484375 36.71875 
L 25.484375 37.109375 
Q 20.3125 37.546875 17.203125 40.125 
Q 14.109375 42.71875 14.109375 46.78125 
Q 14.109375 57.03125 33.40625 62.3125 
L 33.40625 62.5 
L 31.34375 62.5 
Q 20.21875 62.5 17.671875 68.890625 
L 25.09375 70.125 
Q 26.765625 66.109375 36.1875 66.109375 
Q 39.65625 66.109375 42.671875 66.65625 
Q 45.65625 67.140625 49.125 67.578125 
z
" id="Cambria-Italic-958"/>
       <path d="M 7.328125 2.6875 
L 7.328125 13.03125 
L 13.234375 13.03125 
Q 14.703125 8.0625 17.65625 5.71875 
Q 20.609375 3.375 25.296875 3.375 
Q 31.78125 3.375 35.09375 7.28125 
Q 38.421875 11.1875 38.421875 18.953125 
Q 38.421875 24.125 36.65625 27.515625 
Q 34.90625 30.90625 31.921875 32.421875 
Q 28.953125 33.9375 25 33.9375 
Q 21.6875 33.9375 19.28125 33.515625 
Q 16.890625 33.109375 14.15625 32.234375 
L 10.25 34.515625 
L 10.25 66.65625 
L 37.15625 66.65625 
Q 38.8125 66.65625 39.546875 66.921875 
Q 40.28125 67.1875 40.71875 67.75 
Q 41.15625 68.3125 41.75 69.875 
L 45.5625 69.875 
L 44.828125 58.546875 
L 16.75 58.546875 
L 16.75 37.109375 
Q 19.28125 38.1875 22.265625 38.71875 
Q 25.25 39.265625 28.21875 39.265625 
Q 34.03125 39.265625 38.515625 36.890625 
Q 43.015625 34.515625 45.453125 30.140625 
Q 47.90625 25.78125 47.90625 20.015625 
Q 47.90625 13.484375 45.171875 8.796875 
Q 42.4375 4.109375 37.25 1.65625 
Q 32.078125 -0.78125 25 -0.78125 
Q 16.546875 -0.78125 7.328125 2.6875 
z
" id="Cambria-53"/>
       <path d="M 6.0625 35.296875 
L 6.0625 42.09375 
L 49.3125 42.09375 
L 49.3125 35.296875 
z
M 6.0625 15.046875 
L 6.0625 21.828125 
L 49.3125 21.828125 
L 49.3125 15.046875 
z
" id="Cambria-61"/>
       <path d="M 32.90625 -21 
L 11.140625 -21 
L 11.140625 69.875 
L 32.90625 69.875 
L 32.90625 65.875 
L 19.734375 65.875 
L 19.734375 -17 
L 32.90625 -17 
z
" id="Cambria-91"/>
       <path d="M 27.15625 -0.78125 
Q 16.609375 -0.78125 11.453125 7.515625 
Q 6.296875 15.828125 6.296875 32.71875 
Q 6.296875 41.703125 7.875 48.234375 
Q 9.46875 54.78125 12.328125 59.046875 
Q 15.1875 63.328125 19.1875 65.375 
Q 23.1875 67.4375 27.9375 67.4375 
Q 38.625 67.4375 43.84375 59.171875 
Q 49.078125 50.921875 49.078125 34.234375 
Q 49.078125 16.9375 43.484375 8.078125 
Q 37.890625 -0.78125 27.15625 -0.78125 
z
M 15.828125 34.1875 
Q 15.828125 18.265625 18.78125 10.8125 
Q 21.734375 3.375 27.9375 3.375 
Q 33.84375 3.375 36.6875 10.375 
Q 39.546875 17.390625 39.546875 32.078125 
Q 39.546875 43.3125 38.078125 50.265625 
Q 36.625 57.234375 34 60.25 
Q 31.390625 63.28125 27.6875 63.28125 
Q 24.3125 63.28125 22.046875 61.28125 
Q 19.78125 59.28125 18.390625 55.515625 
Q 17 51.765625 16.40625 46.359375 
Q 15.828125 40.96875 15.828125 34.1875 
z
" id="Cambria-48"/>
       <path d="M 33.9375 12.75 
Q 33.9375 9.90625 34.25 8.46875 
Q 34.578125 7.03125 35.375 6.125 
Q 36.1875 5.21875 37.6875 4.703125 
Q 39.203125 4.203125 41.5 3.921875 
Q 43.796875 3.65625 47.5625 3.5625 
L 47.5625 0 
L 11.46875 0 
L 11.46875 3.5625 
Q 16.890625 3.8125 19.203125 4.21875 
Q 21.53125 4.640625 22.75 5.46875 
Q 23.96875 6.296875 24.53125 7.8125 
Q 25.09375 9.328125 25.09375 12.75 
L 25.09375 52.34375 
Q 25.09375 54.296875 24.40625 55.203125 
Q 23.734375 56.109375 22.40625 56.109375 
Q 20.84375 56.109375 17.96875 54.484375 
Q 15.09375 52.875 10.84375 50.046875 
L 8.6875 53.8125 
L 31.546875 67.4375 
L 34.234375 67.4375 
Q 33.9375 62.75 33.9375 54.4375 
z
" id="Cambria-49"/>
       <path d="M 23.875 -21 
L 2.09375 -21 
L 2.09375 -17 
L 15.28125 -17 
L 15.28125 65.875 
L 2.09375 65.875 
L 2.09375 69.875 
L 23.875 69.875 
z
" id="Cambria-93"/>
      </defs>
      <use transform="translate(0 0.875)" xlink:href="#Cambria-Italic-958"/>
      <use transform="translate(42.822266 -13.13125)scale(0.7)" xlink:href="#Cambria-53"/>
      <use transform="translate(99.892969 0.875)" xlink:href="#Cambria-61"/>
      <use transform="translate(171.240625 0.875)" xlink:href="#Cambria-91"/>
      <use transform="translate(206.250391 0.875)" xlink:href="#Cambria-48"/>
      <use transform="translate(288.248822 0.875)" xlink:href="#Cambria-49"/>
      <use transform="translate(370.247254 0.875)" xlink:href="#Cambria-48"/>
      <use transform="translate(452.245686 0.875)" xlink:href="#Cambria-48"/>
      <use transform="translate(507.616779 0.875)" xlink:href="#Cambria-93"/>
     </g>
    </g>
    <g id="line2d_27">
     <path d="M 24.926041 15.92946 
L 37.418041 15.92946 
" style="fill:none;stroke:#f17900;stroke-linecap:square;"/>
    </g>
    <g id="line2d_28">
     <defs>
      <path d="M 0 1.125 
C 0.298353 1.125 0.584527 1.006463 0.795495 0.795495 
C 1.006463 0.584527 1.125 0.298353 1.125 0 
C 1.125 -0.298353 1.006463 -0.584527 0.795495 -0.795495 
C 0.584527 -1.006463 0.298353 -1.125 0 -1.125 
C -0.298353 -1.125 -0.584527 -1.006463 -0.795495 -0.795495 
C -1.006463 -0.584527 -1.125 -0.298353 -1.125 0 
C -1.125 0.298353 -1.006463 0.584527 -0.795495 0.795495 
C -0.584527 1.006463 -0.298353 1.125 0 1.125 
z
" id="mc3f3a50262" style="stroke:#f17900;"/>
     </defs>
     <g>
      <use style="fill:#f17900;stroke:#f17900;" x="31.172041" xlink:href="#mc3f3a50262" y="15.92946"/>
     </g>
    </g>
    <g id="text_15">
     <!-- lvl II involved -->
     <g transform="translate(42.414841 18.11556)scale(0.06246 -0.06246)">
      <defs>
       <path d="M 15.53125 1.21875 
Q 15.53125 0.828125 15.328125 0.5625 
Q 15.140625 0.296875 14.703125 0.09375 
Q 14.265625 -0.09375 13.484375 -0.1875 
Q 12.703125 -0.296875 11.46875 -0.296875 
Q 10.296875 -0.296875 9.515625 -0.1875 
Q 8.734375 -0.09375 8.265625 0.09375 
Q 7.8125 0.296875 7.640625 0.5625 
Q 7.46875 0.828125 7.46875 1.21875 
L 7.46875 66.453125 
Q 7.46875 66.84375 7.640625 67.140625 
Q 7.8125 67.4375 8.265625 67.625 
Q 8.734375 67.828125 9.515625 67.921875 
Q 10.296875 68.015625 11.46875 68.015625 
Q 12.703125 68.015625 13.484375 67.921875 
Q 14.265625 67.828125 14.703125 67.625 
Q 15.140625 67.4375 15.328125 67.140625 
Q 15.53125 66.84375 15.53125 66.453125 
z
" id="Calibri-108"/>
       <path d="M 43.5 45.265625 
Q 43.5 45.0625 43.46875 44.84375 
Q 43.453125 44.625 43.40625 44.375 
Q 43.359375 44.140625 43.28125 43.84375 
Q 43.21875 43.5625 43.109375 43.21875 
L 28.125 1.46875 
Q 27.9375 0.921875 27.609375 0.578125 
Q 27.296875 0.25 26.65625 0.046875 
Q 26.03125 -0.140625 25.046875 -0.21875 
Q 24.078125 -0.296875 22.609375 -0.296875 
Q 21.140625 -0.296875 20.15625 -0.1875 
Q 19.1875 -0.09375 18.578125 0.09375 
Q 17.96875 0.296875 17.625 0.640625 
Q 17.28125 0.984375 17.09375 1.46875 
L 2.15625 43.21875 
Q 1.953125 43.796875 1.828125 44.234375 
Q 1.703125 44.671875 1.671875 44.890625 
Q 1.65625 45.125 1.65625 45.265625 
Q 1.65625 45.65625 1.84375 45.9375 
Q 2.046875 46.234375 2.515625 46.40625 
Q 2.984375 46.578125 3.734375 46.625 
Q 4.5 46.6875 5.609375 46.6875 
Q 7.03125 46.6875 7.875 46.609375 
Q 8.734375 46.53125 9.203125 46.328125 
Q 9.671875 46.140625 9.890625 45.84375 
Q 10.109375 45.5625 10.296875 45.125 
L 22.703125 8.890625 
L 22.90625 8.296875 
L 23.046875 8.890625 
L 35.296875 45.125 
Q 35.40625 45.5625 35.640625 45.84375 
Q 35.890625 46.140625 36.34375 46.328125 
Q 36.8125 46.53125 37.609375 46.609375 
Q 38.421875 46.6875 39.75 46.6875 
Q 40.875 46.6875 41.59375 46.625 
Q 42.328125 46.578125 42.75 46.375 
Q 43.171875 46.1875 43.328125 45.921875 
Q 43.5 45.65625 43.5 45.265625 
z
" id="Calibri-118"/>
       <path d="M 16.796875 1.265625 
Q 16.796875 0.875 16.59375 0.578125 
Q 16.40625 0.296875 15.921875 0.125 
Q 15.4375 -0.046875 14.625 -0.171875 
Q 13.8125 -0.296875 12.59375 -0.296875 
Q 11.421875 -0.296875 10.59375 -0.171875 
Q 9.765625 -0.046875 9.28125 0.125 
Q 8.796875 0.296875 8.59375 0.578125 
Q 8.40625 0.875 8.40625 1.265625 
L 8.40625 61.921875 
Q 8.40625 62.3125 8.625 62.59375 
Q 8.84375 62.890625 9.34375 63.0625 
Q 9.859375 63.234375 10.65625 63.359375 
Q 11.46875 63.484375 12.59375 63.484375 
Q 13.8125 63.484375 14.625 63.359375 
Q 15.4375 63.234375 15.921875 63.0625 
Q 16.40625 62.890625 16.59375 62.59375 
Q 16.796875 62.3125 16.796875 61.921875 
z
" id="Calibri-73"/>
       <path d="M 45.3125 1.21875 
Q 45.3125 0.828125 45.109375 0.5625 
Q 44.921875 0.296875 44.484375 0.09375 
Q 44.046875 -0.09375 43.265625 -0.1875 
Q 42.484375 -0.296875 41.3125 -0.296875 
Q 40.09375 -0.296875 39.3125 -0.1875 
Q 38.53125 -0.09375 38.078125 0.09375 
Q 37.640625 0.296875 37.4375 0.5625 
Q 37.25 0.828125 37.25 1.21875 
L 37.25 26.953125 
Q 37.25 30.71875 36.65625 33 
Q 36.078125 35.296875 34.953125 36.953125 
Q 33.84375 38.625 32.0625 39.5 
Q 30.28125 40.375 27.9375 40.375 
Q 24.90625 40.375 21.875 38.21875 
Q 18.84375 36.078125 15.53125 31.9375 
L 15.53125 1.21875 
Q 15.53125 0.828125 15.328125 0.5625 
Q 15.140625 0.296875 14.703125 0.09375 
Q 14.265625 -0.09375 13.484375 -0.1875 
Q 12.703125 -0.296875 11.46875 -0.296875 
Q 10.296875 -0.296875 9.515625 -0.1875 
Q 8.734375 -0.09375 8.265625 0.09375 
Q 7.8125 0.296875 7.640625 0.5625 
Q 7.46875 0.828125 7.46875 1.21875 
L 7.46875 45.171875 
Q 7.46875 45.5625 7.609375 45.828125 
Q 7.765625 46.09375 8.203125 46.3125 
Q 8.640625 46.53125 9.328125 46.609375 
Q 10.015625 46.6875 11.140625 46.6875 
Q 12.203125 46.6875 12.90625 46.609375 
Q 13.625 46.53125 14.015625 46.3125 
Q 14.40625 46.09375 14.578125 45.828125 
Q 14.75 45.5625 14.75 45.171875 
L 14.75 39.359375 
Q 18.453125 43.5 22.140625 45.421875 
Q 25.828125 47.359375 29.59375 47.359375 
Q 33.984375 47.359375 36.984375 45.875 
Q 39.984375 44.390625 41.84375 41.890625 
Q 43.703125 39.40625 44.5 36.0625 
Q 45.3125 32.71875 45.3125 28.03125 
z
" id="Calibri-110"/>
       <path d="M 48.34375 23.6875 
Q 48.34375 18.3125 46.921875 13.796875 
Q 45.515625 9.28125 42.703125 6 
Q 39.890625 2.734375 35.671875 0.90625 
Q 31.453125 -0.921875 25.875 -0.921875 
Q 20.453125 -0.921875 16.421875 0.6875 
Q 12.40625 2.296875 9.71875 5.375 
Q 7.03125 8.453125 5.703125 12.84375 
Q 4.390625 17.234375 4.390625 22.796875 
Q 4.390625 28.171875 5.78125 32.6875 
Q 7.171875 37.203125 9.984375 40.46875 
Q 12.796875 43.75 16.984375 45.546875 
Q 21.1875 47.359375 26.8125 47.359375 
Q 32.234375 47.359375 36.25 45.75 
Q 40.28125 44.140625 42.96875 41.0625 
Q 45.65625 37.984375 47 33.59375 
Q 48.34375 29.203125 48.34375 23.6875 
z
M 39.84375 23.140625 
Q 39.84375 26.703125 39.1875 29.875 
Q 38.53125 33.0625 37.015625 35.453125 
Q 35.5 37.84375 32.90625 39.234375 
Q 30.328125 40.625 26.46875 40.625 
Q 22.90625 40.625 20.34375 39.359375 
Q 17.78125 38.09375 16.109375 35.765625 
Q 14.453125 33.453125 13.640625 30.265625 
Q 12.84375 27.09375 12.84375 23.34375 
Q 12.84375 19.734375 13.5 16.546875 
Q 14.15625 13.375 15.6875 11 
Q 17.234375 8.640625 19.8125 7.25 
Q 22.40625 5.859375 26.265625 5.859375 
Q 29.78125 5.859375 32.375 7.125 
Q 34.96875 8.40625 36.625 10.6875 
Q 38.28125 12.984375 39.0625 16.15625 
Q 39.84375 19.34375 39.84375 23.140625 
z
" id="Calibri-111"/>
       <path d="M 45.125 1.21875 
Q 45.125 0.828125 44.953125 0.53125 
Q 44.78125 0.25 44.359375 0.078125 
Q 43.953125 -0.09375 43.265625 -0.1875 
Q 42.578125 -0.296875 41.609375 -0.296875 
Q 40.578125 -0.296875 39.890625 -0.1875 
Q 39.203125 -0.09375 38.765625 0.078125 
Q 38.328125 0.25 38.125 0.53125 
Q 37.9375 0.828125 37.9375 1.21875 
L 37.9375 7.03125 
Q 34.46875 3.265625 30.734375 1.171875 
Q 27 -0.921875 22.5625 -0.921875 
Q 17.71875 -0.921875 14.296875 0.953125 
Q 10.890625 2.828125 8.765625 6.03125 
Q 6.640625 9.234375 5.65625 13.546875 
Q 4.6875 17.875 4.6875 22.65625 
Q 4.6875 28.328125 5.90625 32.890625 
Q 7.125 37.453125 9.515625 40.671875 
Q 11.921875 43.890625 15.453125 45.625 
Q 19 47.359375 23.640625 47.359375 
Q 27.484375 47.359375 30.6875 45.671875 
Q 33.890625 44 37.015625 40.71875 
L 37.015625 66.265625 
Q 37.015625 66.609375 37.1875 66.921875 
Q 37.359375 67.234375 37.84375 67.40625 
Q 38.328125 67.578125 39.078125 67.703125 
Q 39.84375 67.828125 41.015625 67.828125 
Q 42.234375 67.828125 43.015625 67.703125 
Q 43.796875 67.578125 44.234375 67.40625 
Q 44.671875 67.234375 44.890625 66.921875 
Q 45.125 66.609375 45.125 66.265625 
z
M 37.015625 32.125 
Q 33.734375 36.1875 30.6875 38.3125 
Q 27.640625 40.4375 24.3125 40.4375 
Q 21.234375 40.4375 19.078125 38.96875 
Q 16.9375 37.5 15.59375 35.109375 
Q 14.265625 32.71875 13.640625 29.6875 
Q 13.03125 26.65625 13.03125 23.53125 
Q 13.03125 20.21875 13.546875 17.046875 
Q 14.0625 13.875 15.328125 11.40625 
Q 16.609375 8.9375 18.703125 7.4375 
Q 20.796875 5.953125 23.96875 5.953125 
Q 25.59375 5.953125 27.078125 6.390625 
Q 28.5625 6.84375 30.125 7.859375 
Q 31.6875 8.890625 33.390625 10.515625 
Q 35.109375 12.15625 37.015625 14.546875 
z
" id="Calibri-100"/>
      </defs>
      <use xlink:href="#Calibri-108"/>
      <use x="22.949219" xlink:href="#Calibri-118"/>
      <use x="68.115234" xlink:href="#Calibri-108"/>
      <use x="91.064453" xlink:href="#Calibri-32"/>
      <use x="113.671875" xlink:href="#Calibri-73"/>
      <use x="138.867188" xlink:href="#Calibri-73"/>
      <use x="164.0625" xlink:href="#Calibri-32"/>
      <use x="186.669922" xlink:href="#Calibri-105"/>
      <use x="209.619141" xlink:href="#Calibri-110"/>
      <use x="262.158203" xlink:href="#Calibri-118"/>
      <use x="307.324219" xlink:href="#Calibri-111"/>
      <use x="360.058594" xlink:href="#Calibri-108"/>
      <use x="383.007812" xlink:href="#Calibri-118"/>
      <use x="428.173828" xlink:href="#Calibri-101"/>
      <use x="477.929688" xlink:href="#Calibri-100"/>
     </g>
    </g>
   </g>
  </g>
  <g id="axes_2">
   <g id="patch_8">
    <path d="M 240.816411 121.271127 
L 450.543067 121.271127 
L 450.543067 3.00024 
L 240.816411 3.00024 
z
" style="fill:#ffffff;"/>
   </g>
   <g id="matplotlib.axis_3">
    <g id="xtick_7">
     <g id="line2d_29">
      <path clip-path="url(#p09793b24c4)" d="M 250.349441 121.271127 
L 250.349441 3.00024 
" style="fill:none;stroke:#000000;stroke-linecap:square;stroke-opacity:0.1;stroke-width:0.5;"/>
     </g>
     <g id="line2d_30">
      <g>
       <use style="stroke:#000000;stroke-width:0.5;" x="250.349441" xlink:href="#mf9f9d52742" y="121.271127"/>
      </g>
     </g>
     <g id="text_16">
      <!-- 0 -->
      <g transform="translate(248.76647 127.019383)scale(0.06246 -0.06246)">
       <use xlink:href="#Calibri-48"/>
      </g>
     </g>
    </g>
    <g id="xtick_8">
     <g id="line2d_31">
      <path clip-path="url(#p09793b24c4)" d="M 288.48156 121.271127 
L 288.48156 3.00024 
" style="fill:none;stroke:#000000;stroke-linecap:square;stroke-opacity:0.1;stroke-width:0.5;"/>
     </g>
     <g id="line2d_32">
      <g>
       <use style="stroke:#000000;stroke-width:0.5;" x="288.48156" xlink:href="#mf9f9d52742" y="121.271127"/>
      </g>
     </g>
     <g id="text_17">
      <!-- 2 -->
      <g transform="translate(286.898589 127.019383)scale(0.06246 -0.06246)">
       <use xlink:href="#Calibri-50"/>
      </g>
     </g>
    </g>
    <g id="xtick_9">
     <g id="line2d_33">
      <path clip-path="url(#p09793b24c4)" d="M 326.613679 121.271127 
L 326.613679 3.00024 
" style="fill:none;stroke:#000000;stroke-linecap:square;stroke-opacity:0.1;stroke-width:0.5;"/>
     </g>
     <g id="line2d_34">
      <g>
       <use style="stroke:#000000;stroke-width:0.5;" x="326.613679" xlink:href="#mf9f9d52742" y="121.271127"/>
      </g>
     </g>
     <g id="text_18">
      <!-- 4 -->
      <g transform="translate(325.030709 127.019383)scale(0.06246 -0.06246)">
       <use xlink:href="#Calibri-52"/>
      </g>
     </g>
    </g>
    <g id="xtick_10">
     <g id="line2d_35">
      <path clip-path="url(#p09793b24c4)" d="M 364.745799 121.271127 
L 364.745799 3.00024 
" style="fill:none;stroke:#000000;stroke-linecap:square;stroke-opacity:0.1;stroke-width:0.5;"/>
     </g>
     <g id="line2d_36">
      <g>
       <use style="stroke:#000000;stroke-width:0.5;" x="364.745799" xlink:href="#mf9f9d52742" y="121.271127"/>
      </g>
     </g>
     <g id="text_19">
      <!-- 6 -->
      <g transform="translate(363.162828 127.019383)scale(0.06246 -0.06246)">
       <use xlink:href="#Calibri-54"/>
      </g>
     </g>
    </g>
    <g id="xtick_11">
     <g id="line2d_37">
      <path clip-path="url(#p09793b24c4)" d="M 402.877918 121.271127 
L 402.877918 3.00024 
" style="fill:none;stroke:#000000;stroke-linecap:square;stroke-opacity:0.1;stroke-width:0.5;"/>
     </g>
     <g id="line2d_38">
      <g>
       <use style="stroke:#000000;stroke-width:0.5;" x="402.877918" xlink:href="#mf9f9d52742" y="121.271127"/>
      </g>
     </g>
     <g id="text_20">
      <!-- 8 -->
      <g transform="translate(401.294947 127.019383)scale(0.06246 -0.06246)">
       <use xlink:href="#Calibri-56"/>
      </g>
     </g>
    </g>
    <g id="xtick_12">
     <g id="line2d_39">
      <path clip-path="url(#p09793b24c4)" d="M 441.010037 121.271127 
L 441.010037 3.00024 
" style="fill:none;stroke:#000000;stroke-linecap:square;stroke-opacity:0.1;stroke-width:0.5;"/>
     </g>
     <g id="line2d_40">
      <g>
       <use style="stroke:#000000;stroke-width:0.5;" x="441.010037" xlink:href="#mf9f9d52742" y="121.271127"/>
      </g>
     </g>
     <g id="text_21">
      <!-- 10 -->
      <g transform="translate(437.844096 127.019383)scale(0.06246 -0.06246)">
       <use xlink:href="#Calibri-49"/>
       <use x="50.683594" xlink:href="#Calibri-48"/>
      </g>
     </g>
    </g>
    <g id="text_22">
     <!-- time step $t$ -->
     <g transform="translate(325.834739 136.231719)scale(0.09 -0.09)">
      <use transform="translate(0 0.203125)" xlink:href="#Calibri-116"/>
      <use transform="translate(33.496094 0.203125)" xlink:href="#Calibri-105"/>
      <use transform="translate(56.445312 0.203125)" xlink:href="#Calibri-109"/>
      <use transform="translate(136.328125 0.203125)" xlink:href="#Calibri-101"/>
      <use transform="translate(186.083984 0.203125)" xlink:href="#Calibri-32"/>
      <use transform="translate(208.691406 0.203125)" xlink:href="#Calibri-115"/>
      <use transform="translate(247.802734 0.203125)" xlink:href="#Calibri-116"/>
      <use transform="translate(281.298828 0.203125)" xlink:href="#Calibri-101"/>
      <use transform="translate(331.054688 0.203125)" xlink:href="#Calibri-112"/>
      <use transform="translate(383.59375 0.203125)" xlink:href="#Calibri-32"/>
      <use transform="translate(406.201172 0.203125)" xlink:href="#Cambria-Italic-116"/>
     </g>
    </g>
   </g>
   <g id="matplotlib.axis_4">
    <g id="ytick_6">
     <g id="line2d_41">
      <path clip-path="url(#p09793b24c4)" d="M 240.816411 115.895178 
L 450.543067 115.895178 
" style="fill:none;stroke:#000000;stroke-linecap:square;stroke-opacity:0.1;stroke-width:0.5;"/>
     </g>
     <g id="line2d_42">
      <g>
       <use style="stroke:#000000;stroke-width:0.5;" x="240.816411" xlink:href="#m951e5a70b5" y="115.895178"/>
      </g>
     </g>
    </g>
    <g id="ytick_7">
     <g id="line2d_43">
      <path clip-path="url(#p09793b24c4)" d="M 240.816411 93.136705 
L 450.543067 93.136705 
" style="fill:none;stroke:#000000;stroke-linecap:square;stroke-opacity:0.1;stroke-width:0.5;"/>
     </g>
     <g id="line2d_44">
      <g>
       <use style="stroke:#000000;stroke-width:0.5;" x="240.816411" xlink:href="#m951e5a70b5" y="93.136705"/>
      </g>
     </g>
    </g>
    <g id="ytick_8">
     <g id="line2d_45">
      <path clip-path="url(#p09793b24c4)" d="M 240.816411 70.378233 
L 450.543067 70.378233 
" style="fill:none;stroke:#000000;stroke-linecap:square;stroke-opacity:0.1;stroke-width:0.5;"/>
     </g>
     <g id="line2d_46">
      <g>
       <use style="stroke:#000000;stroke-width:0.5;" x="240.816411" xlink:href="#m951e5a70b5" y="70.378233"/>
      </g>
     </g>
    </g>
    <g id="ytick_9">
     <g id="line2d_47">
      <path clip-path="url(#p09793b24c4)" d="M 240.816411 47.61976 
L 450.543067 47.61976 
" style="fill:none;stroke:#000000;stroke-linecap:square;stroke-opacity:0.1;stroke-width:0.5;"/>
     </g>
     <g id="line2d_48">
      <g>
       <use style="stroke:#000000;stroke-width:0.5;" x="240.816411" xlink:href="#m951e5a70b5" y="47.61976"/>
      </g>
     </g>
    </g>
    <g id="ytick_10">
     <g id="line2d_49">
      <path clip-path="url(#p09793b24c4)" d="M 240.816411 24.861288 
L 450.543067 24.861288 
" style="fill:none;stroke:#000000;stroke-linecap:square;stroke-opacity:0.1;stroke-width:0.5;"/>
     </g>
     <g id="line2d_50">
      <g>
       <use style="stroke:#000000;stroke-width:0.5;" x="240.816411" xlink:href="#m951e5a70b5" y="24.861288"/>
      </g>
     </g>
    </g>
   </g>
   <g id="line2d_51">
    <path clip-path="url(#p09793b24c4)" d="M 250.349441 115.895178 
L 269.4155 114.995438 
L 288.48156 108.82696 
L 307.54762 101.575168 
L 326.613679 95.248733 
L 345.679739 90.627771 
L 364.745799 87.836117 
L 383.811858 86.678867 
L 402.877918 86.834938 
L 421.943978 87.961471 
L 441.010037 89.745704 
" style="fill:none;stroke:#005ea8;stroke-linecap:square;"/>
    <g clip-path="url(#p09793b24c4)">
     <use style="fill:#005ea8;stroke:#005ea8;" x="250.349441" xlink:href="#m4d53dbdd53" y="115.895178"/>
     <use style="fill:#005ea8;stroke:#005ea8;" x="269.4155" xlink:href="#m4d53dbdd53" y="114.995438"/>
     <use style="fill:#005ea8;stroke:#005ea8;" x="288.48156" xlink:href="#m4d53dbdd53" y="108.82696"/>
     <use style="fill:#005ea8;stroke:#005ea8;" x="307.54762" xlink:href="#m4d53dbdd53" y="101.575168"/>
     <use style="fill:#005ea8;stroke:#005ea8;" x="326.613679" xlink:href="#m4d53dbdd53" y="95.248733"/>
     <use style="fill:#005ea8;stroke:#005ea8;" x="345.679739" xlink:href="#m4d53dbdd53" y="90.627771"/>
     <use style="fill:#005ea8;stroke:#005ea8;" x="364.745799" xlink:href="#m4d53dbdd53" y="87.836117"/>
     <use style="fill:#005ea8;stroke:#005ea8;" x="383.811858" xlink:href="#m4d53dbdd53" y="86.678867"/>
     <use style="fill:#005ea8;stroke:#005ea8;" x="402.877918" xlink:href="#m4d53dbdd53" y="86.834938"/>
     <use style="fill:#005ea8;stroke:#005ea8;" x="421.943978" xlink:href="#m4d53dbdd53" y="87.961471"/>
     <use style="fill:#005ea8;stroke:#005ea8;" x="441.010037" xlink:href="#m4d53dbdd53" y="89.745704"/>
    </g>
   </g>
   <g id="line2d_52">
    <path clip-path="url(#p09793b24c4)" d="M 250.349441 115.895178 
L 269.4155 114.962783 
L 288.48156 107.977206 
L 307.54762 97.840495 
L 326.613679 86.455668 
L 345.679739 75.010166 
L 364.745799 64.19728 
L 383.811858 54.380168 
L 402.877918 45.708998 
L 421.943978 38.202261 
L 441.010037 31.801778 
" style="fill:none;stroke:#f17900;stroke-linecap:square;"/>
    <g clip-path="url(#p09793b24c4)">
     <use style="fill:#f17900;stroke:#f17900;" x="250.349441" xlink:href="#mfc167dd1d6" y="115.895178"/>
     <use style="fill:#f17900;stroke:#f17900;" x="269.4155" xlink:href="#mfc167dd1d6" y="114.962783"/>
     <use style="fill:#f17900;stroke:#f17900;" x="288.48156" xlink:href="#mfc167dd1d6" y="107.977206"/>
     <use style="fill:#f17900;stroke:#f17900;" x="307.54762" xlink:href="#mfc167dd1d6" y="97.840495"/>
     <use style="fill:#f17900;stroke:#f17900;" x="326.613679" xlink:href="#mfc167dd1d6" y="86.455668"/>
     <use style="fill:#f17900;stroke:#f17900;" x="345.679739" xlink:href="#mfc167dd1d6" y="75.010166"/>
     <use style="fill:#f17900;stroke:#f17900;" x="364.745799" xlink:href="#mfc167dd1d6" y="64.19728"/>
     <use style="fill:#f17900;stroke:#f17900;" x="383.811858" xlink:href="#mfc167dd1d6" y="54.380168"/>
     <use style="fill:#f17900;stroke:#f17900;" x="402.877918" xlink:href="#mfc167dd1d6" y="45.708998"/>
     <use style="fill:#f17900;stroke:#f17900;" x="421.943978" xlink:href="#mfc167dd1d6" y="38.202261"/>
     <use style="fill:#f17900;stroke:#f17900;" x="441.010037" xlink:href="#mfc167dd1d6" y="31.801778"/>
    </g>
   </g>
   <g id="patch_9">
    <path d="M 240.816411 121.271127 
L 240.816411 3.00024 
" style="fill:none;stroke:#000000;stroke-linecap:square;stroke-linejoin:miter;stroke-width:0.5;"/>
   </g>
   <g id="patch_10">
    <path d="M 450.543067 121.271127 
L 450.543067 3.00024 
" style="fill:none;stroke:#000000;stroke-linecap:square;stroke-linejoin:miter;stroke-width:0.5;"/>
   </g>
   <g id="patch_11">
    <path d="M 240.816411 121.271127 
L 450.543067 121.271127 
" style="fill:none;stroke:#000000;stroke-linecap:square;stroke-linejoin:miter;stroke-width:0.5;"/>
   </g>
   <g id="patch_12">
    <path d="M 240.816411 3.00024 
L 450.543067 3.00024 
" style="fill:none;stroke:#000000;stroke-linecap:square;stroke-linejoin:miter;stroke-width:0.5;"/>
   </g>
   <g id="legend_2">
    <g id="patch_13">
     <path d="M 383.737217 20.475377 
L 446.170867 20.475377 
Q 447.420067 20.475377 447.420067 19.226177 
L 447.420067 7.37244 
Q 447.420067 6.12324 446.170867 6.12324 
L 383.737217 6.12324 
Q 382.488017 6.12324 382.488017 7.37244 
L 382.488017 19.226177 
Q 382.488017 20.475377 383.737217 20.475377 
z
" style="fill:#ffffff;opacity:0.8;stroke:#cccccc;stroke-linejoin:miter;"/>
    </g>
    <g id="line2d_53">
     <path d="M 383.737217 9.621 
L 396.229217 9.621 
" style="fill:none;stroke:#005ea8;stroke-linecap:square;"/>
    </g>
    <g id="line2d_54">
     <g>
      <use style="fill:#005ea8;stroke:#005ea8;" x="389.983217" xlink:href="#m5c6190e410" y="9.621"/>
     </g>
    </g>
    <g id="text_23">
     <!-- $\xi_7=[0\ 1\ 1\ 0]$ -->
     <g transform="translate(401.226017 11.8071)scale(0.06246 -0.06246)">
      <defs>
       <path d="M 50.09375 64.3125 
L 21.6875 -0.34375 
L 14.59375 -0.34375 
L 14.59375 2.046875 
L 40.921875 57.765625 
L 40.921875 58.5 
L 19.4375 58.5 
Q 17.4375 58.5 16.234375 58.125 
Q 15.046875 57.765625 14.234375 57.078125 
Q 13.421875 56.390625 12.890625 55.265625 
Q 12.359375 54.15625 11.421875 50.828125 
L 7.234375 50.828125 
L 8.203125 66.65625 
L 50.09375 66.65625 
z
" id="Cambria-55"/>
      </defs>
      <use transform="translate(0 0.875)" xlink:href="#Cambria-Italic-958"/>
      <use transform="translate(42.822266 -13.13125)scale(0.7)" xlink:href="#Cambria-55"/>
      <use transform="translate(99.892969 0.875)" xlink:href="#Cambria-61"/>
      <use transform="translate(171.240625 0.875)" xlink:href="#Cambria-91"/>
      <use transform="translate(206.250391 0.875)" xlink:href="#Cambria-48"/>
      <use transform="translate(288.248822 0.875)" xlink:href="#Cambria-49"/>
      <use transform="translate(370.247254 0.875)" xlink:href="#Cambria-49"/>
      <use transform="translate(452.245686 0.875)" xlink:href="#Cambria-48"/>
      <use transform="translate(507.616779 0.875)" xlink:href="#Cambria-93"/>
     </g>
    </g>
    <g id="line2d_55">
     <path d="M 383.737217 15.92946 
L 396.229217 15.92946 
" style="fill:none;stroke:#f17900;stroke-linecap:square;"/>
    </g>
    <g id="line2d_56">
     <g>
      <use style="fill:#f17900;stroke:#f17900;" x="389.983217" xlink:href="#mc3f3a50262" y="15.92946"/>
     </g>
    </g>
    <g id="text_24">
     <!-- lvl II &amp; III involved -->
     <g transform="translate(401.226017 18.11556)scale(0.06246 -0.06246)">
      <defs>
       <path d="M 5.28125 16.65625 
Q 5.28125 19.34375 6 21.75 
Q 6.734375 24.171875 8.296875 26.4375 
Q 9.859375 28.71875 12.375 30.828125 
Q 14.890625 32.953125 18.453125 35.109375 
Q 16.5 37.75 15.109375 39.890625 
Q 13.71875 42.046875 12.8125 43.890625 
Q 11.921875 45.75 11.53125 47.4375 
Q 11.140625 49.125 11.140625 50.828125 
Q 11.140625 53.859375 12.15625 56.609375 
Q 13.1875 59.375 15.453125 61.5 
Q 17.71875 63.625 21.28125 64.859375 
Q 24.859375 66.109375 29.9375 66.109375 
Q 34.234375 66.109375 37.375 65.1875 
Q 40.53125 64.265625 42.59375 62.546875 
Q 44.671875 60.84375 45.71875 58.421875 
Q 46.78125 56 46.78125 53.03125 
Q 46.78125 50.140625 45.84375 47.75 
Q 44.921875 45.359375 42.875 43.109375 
Q 40.828125 40.875 37.625 38.640625 
Q 34.421875 36.421875 29.890625 33.984375 
Q 31.546875 31.984375 33.5 29.8125 
Q 35.453125 27.640625 37.578125 25.4375 
Q 39.703125 23.25 41.921875 21.125 
Q 44.140625 19 46.296875 17.046875 
Q 47.265625 18.359375 48.046875 20.046875 
Q 48.828125 21.734375 49.40625 23.609375 
Q 50 25.484375 50.296875 27.4375 
Q 50.59375 29.390625 50.59375 31.390625 
L 50.59375 33.15625 
Q 50.59375 33.640625 50.75 33.953125 
Q 50.921875 34.28125 51.3125 34.5 
Q 51.703125 34.71875 52.453125 34.8125 
Q 53.21875 34.90625 54.4375 34.90625 
Q 55.515625 34.90625 56.265625 34.859375 
Q 57.03125 34.8125 57.515625 34.640625 
Q 58.015625 34.46875 58.234375 34.09375 
Q 58.453125 33.734375 58.453125 33.109375 
L 58.453125 31.890625 
Q 58.453125 29.15625 57.984375 26.515625 
Q 57.515625 23.875 56.703125 21.359375 
Q 55.90625 18.84375 54.703125 16.546875 
Q 53.515625 14.265625 52.046875 12.3125 
Q 54.25 10.546875 55.875 9.375 
Q 57.515625 8.203125 58.65625 7.46875 
Q 59.8125 6.734375 60.5625 6.4375 
Q 61.328125 6.15625 61.8125 6.15625 
Q 62.3125 6.15625 62.75 6.203125 
Q 63.1875 6.25 63.453125 6.046875 
Q 63.71875 5.859375 63.859375 5.265625 
Q 64.015625 4.6875 64.015625 3.46875 
Q 64.015625 2.25 63.96875 1.515625 
Q 63.921875 0.78125 63.796875 0.40625 
Q 63.671875 0.046875 63.375 -0.1875 
Q 63.09375 -0.4375 62.3125 -0.625 
Q 61.53125 -0.828125 60.25 -0.828125 
Q 59.28125 -0.828125 58.109375 -0.484375 
Q 56.9375 -0.140625 55.375 0.703125 
Q 53.8125 1.5625 51.734375 3.03125 
Q 49.65625 4.5 46.875 6.734375 
Q 44.828125 5.078125 42.546875 3.65625 
Q 40.28125 2.25 37.71875 1.25 
Q 35.15625 0.25 32.34375 -0.3125 
Q 29.546875 -0.875 26.265625 -0.875 
Q 23.1875 -0.875 20.421875 -0.328125 
Q 17.671875 0.203125 15.328125 1.203125 
Q 12.984375 2.203125 11.125 3.703125 
Q 9.28125 5.21875 7.984375 7.140625 
Q 6.6875 9.078125 5.984375 11.46875 
Q 5.28125 13.875 5.28125 16.65625 
z
M 19.671875 51.46875 
Q 19.671875 50.140625 20.03125 48.765625 
Q 20.40625 47.40625 21.15625 45.921875 
Q 21.921875 44.4375 23.015625 42.71875 
Q 24.125 41.015625 25.640625 38.921875 
Q 29.203125 40.921875 31.609375 42.59375 
Q 34.03125 44.28125 35.5 45.84375 
Q 36.96875 47.40625 37.625 48.96875 
Q 38.28125 50.53125 38.28125 52.296875 
Q 38.28125 53.71875 37.765625 55 
Q 37.25 56.296875 36.125 57.296875 
Q 35.015625 58.296875 33.296875 58.875 
Q 31.59375 59.46875 29.203125 59.46875 
Q 26.609375 59.46875 24.828125 58.8125 
Q 23.046875 58.15625 21.890625 57.046875 
Q 20.75 55.953125 20.203125 54.484375 
Q 19.671875 53.03125 19.671875 51.46875 
z
M 14.015625 17.484375 
Q 14.015625 14.9375 14.859375 12.84375 
Q 15.71875 10.75 17.375 9.203125 
Q 19.046875 7.671875 21.53125 6.8125 
Q 24.03125 5.953125 27.296875 5.953125 
Q 29.296875 5.953125 31.203125 6.359375 
Q 33.109375 6.78125 34.84375 7.484375 
Q 36.578125 8.203125 38.140625 9.203125 
Q 39.703125 10.203125 41.015625 11.328125 
Q 38.484375 13.53125 35.96875 15.890625 
Q 33.453125 18.265625 31.109375 20.65625 
Q 28.765625 23.046875 26.59375 25.40625 
Q 24.421875 27.78125 22.609375 30.03125 
Q 20.171875 28.46875 18.53125 26.921875 
Q 16.890625 25.390625 15.890625 23.84375 
Q 14.890625 22.3125 14.453125 20.75 
Q 14.015625 19.1875 14.015625 17.484375 
z
M 0 63.1875 
z
" id="Calibri-38"/>
      </defs>
      <use xlink:href="#Calibri-108"/>
      <use x="22.949219" xlink:href="#Calibri-118"/>
      <use x="68.115234" xlink:href="#Calibri-108"/>
      <use x="91.064453" xlink:href="#Calibri-32"/>
      <use x="113.671875" xlink:href="#Calibri-73"/>
      <use x="138.867188" xlink:href="#Calibri-73"/>
      <use x="164.0625" xlink:href="#Calibri-32"/>
      <use x="186.669922" xlink:href="#Calibri-38"/>
      <use x="254.882812" xlink:href="#Calibri-32"/>
      <use x="277.490234" xlink:href="#Calibri-73"/>
      <use x="302.685547" xlink:href="#Calibri-73"/>
      <use x="327.880859" xlink:href="#Calibri-73"/>
      <use x="353.076172" xlink:href="#Calibri-32"/>
      <use x="375.683594" xlink:href="#Calibri-105"/>
      <use x="398.632812" xlink:href="#Calibri-110"/>
      <use x="451.171875" xlink:href="#Calibri-118"/>
      <use x="496.337891" xlink:href="#Calibri-111"/>
      <use x="549.072266" xlink:href="#Calibri-108"/>
      <use x="572.021484" xlink:href="#Calibri-118"/>
      <use x="617.1875" xlink:href="#Calibri-101"/>
      <use x="666.943359" xlink:href="#Calibri-100"/>
     </g>
    </g>
   </g>
  </g>
 </g>
 <defs>
  <clipPath id="pf83515e33c">
   <rect height="118.270887" width="209.726656" x="20.553841" y="3.00024"/>
  </clipPath>
  <clipPath id="p09793b24c4">
   <rect height="118.270887" width="209.726656" x="240.816411" y="3.00024"/>
  </clipPath>
 </defs>
</svg>
