<svg width="1112" height="540" xmlns="http://www.w3.org/2000/svg" xmlns:xlink="http://www.w3.org/1999/xlink" overflow="hidden"><defs><clipPath id="clip0"><path d="M58 136 1170 136 1170 676 58 676Z" fill-rule="evenodd" clip-rule="evenodd"/></clipPath></defs><g clip-path="url(#clip0)" transform="translate(-58 -136)"><path d="M293.709 275.961 461.099 551.46 457.68 553.537 290.291 278.039ZM463.188 542.371 460.967 555.094 448.651 551.204C447.598 550.871 447.014 549.747 447.346 548.694 447.679 547.641 448.803 547.057 449.856 547.39L459.992 550.592 457.42 552.155 459.248 541.683C459.438 540.595 460.474 539.867 461.562 540.057 462.65 540.247 463.378 541.283 463.188 542.371Z"/><path d="M690 391 771.075 391 771.075 395 690 395ZM764.392 384.495 774.112 393 764.392 401.505C763.561 402.233 762.297 402.148 761.57 401.317 760.843 400.486 760.927 399.222 761.758 398.495L769.758 391.495 769.758 394.505 761.758 387.505C760.927 386.778 760.843 385.514 761.57 384.683 762.297 383.852 763.561 383.768 764.392 384.495Z"/><path d="M888 391 960.551 391 960.551 395 888 395ZM953.868 384.495 963.588 393 953.868 401.505C953.036 402.233 951.773 402.148 951.045 401.317 950.318 400.486 950.402 399.222 951.234 398.495L959.234 391.495 959.234 394.505 951.234 387.505C950.402 386.778 950.318 385.514 951.045 384.683 951.773 383.852 953.036 383.768 953.868 384.495Z"/><path d="M963 393.5C963 374.446 978.67 359 998 359 1017.33 359 1033 374.446 1033 393.5 1033 412.554 1017.33 428 998 428 978.67 428 963 412.554 963 393.5Z" stroke="#000000" stroke-width="4" stroke-miterlimit="8" fill="none" fill-rule="evenodd"/><path d="M1098 639C1098 619.67 1113.67 604 1133 604 1152.33 604 1168 619.67 1168 639 1168 658.33 1152.33 674 1133 674 1113.67 674 1098 658.33 1098 639Z" stroke="#000000" stroke-width="4" stroke-miterlimit="8" fill-rule="evenodd"/><text fill="#FFFFFF" font-family="Cambria Math,Cambria Math_MSFontService,sans-serif" font-weight="400" font-size="32" transform="translate(1117.42 650)"> <tspan x="7.16675" y="0">𝒛</tspan></text><path d="M451 393.5C451 374.446 466.67 359 486 359 505.33 359 521 374.446 521 393.5 521 412.554 505.33 428 486 428 466.67 428 451 412.554 451 393.5Z" stroke="#000000" stroke-width="4" stroke-miterlimit="8" fill="none" fill-rule="evenodd"/><path d="M319.853 299.191 460.198 365.34 458.492 368.958 318.147 302.809ZM456.926 356.607 462.093 368.444 449.674 371.994C448.612 372.297 447.505 371.682 447.202 370.62 446.898 369.558 447.513 368.451 448.575 368.148L458.796 365.226 457.512 367.949 453.26 358.207C452.819 357.194 453.281 356.016 454.293 355.574 455.306 355.132 456.485 355.594 456.926 356.607Z"/><path d="M620 393.5C620 374.446 635.67 359 655 359 674.33 359 690 374.446 690 393.5 690 412.554 674.33 428 655 428 635.67 428 620 412.554 620 393.5Z" stroke="#000000" stroke-width="4" stroke-miterlimit="8" fill="none" fill-rule="evenodd"/><path d="M521 391 617.255 391 617.255 395 521 395ZM610.572 384.495 620.292 393 610.572 401.505C609.74 402.233 608.477 402.148 607.749 401.317 607.022 400.486 607.106 399.222 607.938 398.495L615.938 391.495 615.938 394.505 607.938 387.505C607.106 386.778 607.022 385.514 607.749 384.683 608.477 383.852 609.74 383.768 610.572 384.495Z"/><path d="M963 486.5C963 467.446 978.446 452 997.5 452 1016.55 452 1032 467.446 1032 486.5 1032 505.554 1016.55 521 997.5 521 978.446 521 963 505.554 963 486.5Z" stroke="#000000" stroke-width="4" stroke-miterlimit="8" fill="none" fill-rule="evenodd"/><path d="M451 486.5C451 467.446 466.67 452 486 452 505.33 452 521 467.446 521 486.5 521 505.554 505.33 521 486 521 466.67 521 451 505.554 451 486.5Z" stroke="#000000" stroke-width="4" stroke-miterlimit="8" fill="none" fill-rule="evenodd"/><path d="M620 486.5C620 467.446 635.67 452 655 452 674.33 452 690 467.446 690 486.5 690 505.554 674.33 521 655 521 635.67 521 620 505.554 620 486.5Z" stroke="#000000" stroke-width="4" stroke-miterlimit="8" fill="none" fill-rule="evenodd"/><path d="M963 300.5C963 281.446 978.446 266 997.5 266 1016.55 266 1032 281.446 1032 300.5 1032 319.554 1016.55 335 997.5 335 978.446 335 963 319.554 963 300.5Z" stroke="#000000" stroke-width="4" stroke-miterlimit="8" fill="none" fill-rule="evenodd"/><path d="M963 579.5C963 560.446 978.446 545 997.5 545 1016.55 545 1032 560.446 1032 579.5 1032 598.554 1016.55 614 997.5 614 978.446 614 963 598.554 963 579.5Z" stroke="#000000" stroke-width="4" stroke-miterlimit="8" fill="none" fill-rule="evenodd"/><path d="M451 579.5C451 560.446 466.67 545 486 545 505.33 545 521 560.446 521 579.5 521 598.554 505.33 614 486 614 466.67 614 451 598.554 451 579.5Z" stroke="#000000" stroke-width="4" stroke-miterlimit="8" fill="none" fill-rule="evenodd"/><path d="M620 579.5C620 560.446 635.67 545 655 545 674.33 545 690 560.446 690 579.5 690 598.554 674.33 614 655 614 635.67 614 620 598.554 620 579.5Z" stroke="#000000" stroke-width="4" stroke-miterlimit="8" fill="none" fill-rule="evenodd"/><path d="M293.477 275.652 460.397 458.495 457.442 461.192 290.523 278.348ZM460.694 449.173 460.966 462.086 448.132 460.641C447.034 460.518 446.244 459.528 446.368 458.43 446.491 457.332 447.481 456.543 448.579 456.666L459.142 457.855 456.919 459.885 456.695 449.257C456.672 448.153 457.548 447.238 458.653 447.215 459.757 447.192 460.671 448.068 460.694 449.173Z"/><path d="M0.0187202-1.99991 96.2734-1.09892 96.236 2.90091-0.0187202 1.99991ZM89.6516-7.66634 99.2918 0.929423 89.4924 9.34322C88.6544 10.0628 87.3917 9.96671 86.6721 9.12867 85.9526 8.29062 86.0486 7.02794 86.8867 6.30839L94.9519-0.616421 94.9237 2.39375 86.9895-4.68082C86.1651-5.41593 86.0927-6.68019 86.8278-7.50462 87.563-8.32905 88.8272-8.40145 89.6516-7.66634Z" transform="matrix(1 0 0 -1 352 300.929)"/><path d="M282 301C282 281.67 297.67 266 317 266 336.33 266 352 281.67 352 301 352 320.33 336.33 336 317 336 297.67 336 282 320.33 282 301Z" stroke="#000000" stroke-width="4" stroke-miterlimit="8" fill="#FFFFFF" fill-rule="evenodd"/><path d="M521 298 617.255 298 617.255 302 521 302ZM610.572 291.495 620.292 300 610.572 308.505C609.74 309.233 608.477 309.148 607.749 308.317 607.022 307.486 607.106 306.222 607.938 305.495L615.938 298.495 615.938 301.505 607.938 294.505C607.106 293.778 607.022 292.514 607.749 291.683 608.477 290.852 609.74 290.768 610.572 291.495Z"/><path d="M485.869 297.199 628.292 365.905 626.554 369.508 484.131 300.801ZM625.099 357.142 630.159 369.026 617.708 372.463C616.644 372.757 615.542 372.132 615.248 371.067 614.954 370.002 615.579 368.901 616.644 368.607L626.891 365.778 625.583 368.49 621.419 358.709C620.986 357.693 621.459 356.518 622.476 356.085 623.492 355.653 624.667 356.126 625.099 357.142Z"/><path d="M521 484 617.255 484 617.255 488 521 488ZM610.572 477.495 620.292 486 610.572 494.505C609.74 495.233 608.477 495.148 607.749 494.317 607.022 493.486 607.106 492.222 607.938 491.495L615.938 484.495 615.938 487.505 607.938 480.505C607.106 479.778 607.022 478.514 607.749 477.683 608.477 476.852 609.74 476.768 610.572 477.495Z"/><path d="M521 577 617.255 577 617.255 581 521 581ZM610.572 570.495 620.292 579 610.572 587.505C609.74 588.233 608.477 588.148 607.749 587.317 607.022 586.486 607.106 585.222 607.938 584.495L615.938 577.495 615.938 580.505 607.938 573.505C607.106 572.778 607.022 571.514 607.749 570.683 608.477 569.852 609.74 569.768 610.572 570.495Z"/><path d="M512.507 416.685 629.797 551.146 626.783 553.775 509.493 419.315ZM630.306 541.833 630.287 554.749 617.488 553.015C616.393 552.867 615.626 551.859 615.774 550.764 615.923 549.67 616.93 548.903 618.025 549.051L628.559 550.478 626.29 552.457 626.306 541.827C626.308 540.722 627.205 539.828 628.309 539.83 629.414 539.832 630.308 540.728 630.306 541.833Z"/><path d="M522.059 484.304 628.979 551.069 626.861 554.462 519.941 487.696ZM626.756 542.012 630.496 554.374 617.746 556.44C616.656 556.617 615.629 555.876 615.452 554.786 615.275 553.695 616.016 552.668 617.106 552.492L627.6 550.791 626.005 553.345 622.927 543.17C622.607 542.113 623.205 540.996 624.262 540.677 625.32 540.357 626.436 540.954 626.756 542.012Z"/><path d="M462.48 274.655 629.404 458.422 626.443 461.111 459.52 277.345ZM629.727 449.101 629.966 462.015 617.135 460.539C616.038 460.412 615.251 459.42 615.377 458.323 615.503 457.226 616.495 456.439 617.593 456.565L628.153 457.78 625.925 459.804 625.727 449.176C625.707 448.071 626.585 447.159 627.69 447.139 628.794 447.118 629.706 447.997 629.727 449.101Z"/><path d="M462.711 274.964 630.102 551.386 626.681 553.458 459.289 277.036ZM632.207 542.304 629.967 555.024 617.657 551.115C616.604 550.781 616.022 549.656 616.356 548.604 616.69 547.551 617.815 546.968 618.867 547.303L628.999 550.52 626.424 552.079 628.268 541.61C628.459 540.522 629.497 539.796 630.584 539.987 631.672 540.179 632.399 541.216 632.207 542.304Z"/><path d="M690.033 298 786.288 299.602 786.222 303.601 689.967 302ZM779.714 292.986 789.292 301.652 779.431 309.994C778.588 310.708 777.326 310.602 776.613 309.759 775.899 308.916 776.005 307.654 776.848 306.94L784.963 300.075 784.913 303.084 777.031 295.952C776.212 295.211 776.148 293.946 776.89 293.127 777.631 292.308 778.895 292.245 779.714 292.986Z"/><path d="M656.929 293.229 797.333 366.918 795.474 370.46 655.071 296.771ZM794.439 358.052 799.093 370.101 786.534 373.114C785.459 373.372 784.38 372.71 784.122 371.636 783.864 370.562 784.526 369.483 785.6 369.225L795.937 366.744 794.538 369.41 790.707 359.494C790.309 358.464 790.822 357.306 791.852 356.908 792.883 356.51 794.041 357.022 794.439 358.052Z"/><path d="M690.033 484 786.288 485.602 786.222 489.601 689.967 488ZM779.714 478.986 789.292 487.652 779.431 495.994C778.588 496.708 777.326 496.602 776.613 495.759 775.899 494.916 776.005 493.654 776.848 492.94L784.963 486.075 784.913 489.084 777.031 481.952C776.212 481.211 776.148 479.946 776.89 479.127 777.631 478.308 778.895 478.245 779.714 478.986Z"/><path d="M690.033 577 786.288 578.602 786.222 582.601 689.967 581ZM779.714 571.986 789.292 580.652 779.431 588.994C778.588 589.708 777.326 589.602 776.613 588.759 775.899 587.916 776.005 586.654 776.848 585.94L784.963 579.075 784.913 582.084 777.031 574.952C776.212 574.211 776.148 572.946 776.89 572.127 777.631 571.308 778.895 571.245 779.714 571.986Z"/><path d="M681.515 416.694 798.819 552.795 795.789 555.406 678.485 419.306ZM799.383 543.485 799.287 556.401 786.498 554.591C785.405 554.436 784.643 553.424 784.798 552.33 784.953 551.236 785.965 550.475 787.059 550.63L797.584 552.12 795.304 554.085 795.383 543.455C795.392 542.351 796.294 541.462 797.398 541.47 798.503 541.479 799.391 542.381 799.383 543.485Z"/><path d="M691.078 484.315 798.015 552.705 795.859 556.075 688.922 487.685ZM795.889 543.624 799.496 556.026 786.725 557.954C785.632 558.119 784.613 557.368 784.448 556.275 784.284 555.183 785.035 554.164 786.127 553.999L796.638 552.412 795.017 554.948 792.048 544.741C791.74 543.68 792.35 542.57 793.41 542.262 794.471 541.954 795.581 542.563 795.889 543.624Z"/><path d="M631.486 274.662 798.422 460.073 795.449 462.75 628.514 277.338ZM798.783 450.752 798.966 463.667 786.142 462.134C785.045 462.003 784.262 461.008 784.393 459.911 784.525 458.814 785.52 458.031 786.617 458.162L797.172 459.424 794.935 461.438 794.784 450.809C794.768 449.705 795.651 448.797 796.755 448.781 797.86 448.765 798.768 449.648 798.783 450.752Z"/><path d="M631.714 274.968 799.115 553.043 795.688 555.106 628.286 277.032ZM801.24 543.962 798.967 556.676 786.667 552.735C785.615 552.398 785.036 551.272 785.373 550.22 785.71 549.168 786.836 548.589 787.888 548.926L798.011 552.169 795.432 553.722 797.303 543.258C797.497 542.17 798.536 541.446 799.624 541.641 800.711 541.835 801.435 542.874 801.24 543.962Z"/><path d="M864 391 960.009 391 960.009 395 864 395ZM953.326 384.495 963.046 393 953.326 401.505C952.495 402.233 951.231 402.148 950.504 401.317 949.776 400.486 949.861 399.222 950.692 398.495L958.692 391.495 958.692 394.505 950.692 387.505C949.861 386.778 949.776 385.514 950.504 384.683 951.231 383.852 952.495 383.768 953.326 384.495Z"/><path d="M864 298 960.009 298 960.009 302 864 302ZM953.326 291.495 963.046 300 953.326 308.505C952.495 309.233 951.231 309.148 950.504 308.317 949.776 307.486 949.861 306.222 950.692 305.495L958.692 298.495 958.692 301.505 950.692 294.505C949.861 293.778 949.776 292.514 950.504 291.683 951.231 290.852 952.495 290.768 953.326 291.495Z"/><path d="M865.058 298.303 972.144 365.069 970.027 368.464 862.942 301.697ZM969.915 356.014 973.663 368.374 960.915 370.448C959.825 370.625 958.797 369.886 958.62 368.795 958.442 367.705 959.182 366.677 960.272 366.5L970.765 364.793 969.172 367.347 966.087 357.174C965.766 356.117 966.363 355.001 967.42 354.68 968.477 354.359 969.594 354.957 969.915 356.014Z"/><path d="M864 484 960.009 484 960.009 488 864 488ZM953.326 477.495 963.046 486 953.326 494.505C952.495 495.233 951.231 495.148 950.504 494.317 949.776 493.486 949.861 492.222 950.692 491.495L958.692 484.495 958.692 487.505 950.692 480.505C949.861 479.778 949.776 478.514 950.504 477.683 951.231 476.852 952.495 476.768 953.326 477.495Z"/><path d="M864 577 960.009 577 960.009 581 864 581ZM953.326 570.495 963.046 579 953.326 587.505C952.495 588.233 951.231 588.148 950.504 587.317 949.776 586.486 949.861 585.222 950.692 584.495L958.692 577.495 958.692 580.505 950.692 573.505C949.861 572.778 949.776 571.514 950.504 570.683 951.231 569.852 952.495 569.768 953.326 570.495Z"/><path d="M855.508 416.687 972.556 551.145 969.539 553.771 852.492 419.313ZM973.074 541.833 973.041 554.749 960.244 553.002C959.15 552.852 958.383 551.844 958.533 550.75 958.682 549.655 959.691 548.889 960.785 549.038L971.317 550.476 969.047 552.453 969.074 541.823C969.077 540.718 969.975 539.825 971.079 539.828 972.184 539.831 973.077 540.728 973.074 541.833Z"/><path d="M865.061 484.305 971.736 551.068 969.614 554.458 862.939 487.695ZM969.523 542.008 973.25 554.374 960.498 556.427C959.408 556.603 958.382 555.861 958.206 554.77 958.03 553.68 958.772 552.654 959.863 552.478L970.358 550.788 968.761 553.34 965.693 543.162C965.374 542.105 965.973 540.989 967.031 540.67 968.088 540.351 969.204 540.95 969.523 542.008Z"/><path d="M855.506 323.684 972.962 458.145 969.95 460.777 852.494 326.316ZM973.465 448.832 973.454 461.748 960.654 460.023C959.559 459.875 958.792 458.868 958.939 457.774 959.087 456.679 960.094 455.911 961.188 456.059L971.723 457.479 969.456 459.459 969.465 448.829C969.466 447.724 970.362 446.83 971.466 446.831 972.571 446.832 973.466 447.728 973.465 448.832Z"/><path d="M855.774 324.077 973.829 551.141 970.28 552.986 852.226 325.923ZM976.517 542.209 973.455 554.757 961.425 550.056C960.396 549.654 959.888 548.494 960.29 547.465 960.692 546.437 961.852 545.928 962.88 546.331L972.782 550.199 970.111 551.588 972.631 541.261C972.893 540.188 973.975 539.53 975.048 539.792 976.121 540.054 976.779 541.136 976.517 542.209Z"/><rect x="740" y="282" width="177" height="322" fill="#FFFFFF"/><text font-family="Cambria Math,Cambria Math_MSFontService,sans-serif" font-weight="400" font-size="37" transform="translate(813.458 406)">…<tspan x="-0.413025" y="93">…</tspan><tspan x="-0.413025" y="-93">…</tspan><tspan x="-0.413025" y="186">…</tspan></text><path d="M0 0 0.000104987 37.7953" stroke="#ABC2CB" stroke-width="6" stroke-linecap="round" stroke-linejoin="round" stroke-miterlimit="10" fill="none" fill-rule="evenodd" transform="matrix(1 0 0 -1 486 234.795)"/><path d="M0 0 0.000104987 37.7953" stroke="#ABC2CB" stroke-width="6" stroke-linecap="round" stroke-linejoin="round" stroke-miterlimit="10" fill="none" fill-rule="evenodd" transform="matrix(1 0 0 -1 652 234.795)"/><path d="M0 0 0.000104987 37.7953" stroke="#ABC2CB" stroke-width="6" stroke-linecap="round" stroke-linejoin="round" stroke-miterlimit="10" fill="none" fill-rule="evenodd" transform="matrix(1 0 0 -1 996 234.795)"/><path d="M206 298 243.037 298" stroke="#ABC2CB" stroke-width="6" stroke-linecap="round" stroke-linejoin="round" stroke-miterlimit="10" fill="none" fill-rule="evenodd"/><path d="M206 393 243.037 393" stroke="#ABC2CB" stroke-width="6" stroke-linecap="round" stroke-linejoin="round" stroke-miterlimit="10" fill="none" fill-rule="evenodd"/><path d="M206 489 243.037 489" stroke="#ABC2CB" stroke-width="6" stroke-linecap="round" stroke-linejoin="round" stroke-miterlimit="10" fill="none" fill-rule="evenodd"/><path d="M206 584 243.037 584" stroke="#ABC2CB" stroke-width="6" stroke-linecap="round" stroke-linejoin="round" stroke-miterlimit="10" fill="none" fill-rule="evenodd"/><text font-family="Cambria Math,Cambria Math_MSFontService,sans-serif" font-weight="400" font-size="37" transform="translate(446.328 173)">𝑡<tspan x="25.9533" y="0">=</tspan><tspan x="64.16" y="0">1</tspan><tspan x="167.126" y="0">𝑡</tspan><tspan x="193.079" y="0">=</tspan><tspan x="231.286" y="0">2</tspan><tspan x="509.524" y="0">𝑡</tspan><tspan x="535.477" y="0">=</tspan><tspan x="573.684" y="0">𝑇</tspan></text><path d="M451 300.5C451 281.446 466.67 266 486 266 505.33 266 521 281.446 521 300.5 521 319.554 505.33 335 486 335 466.67 335 451 319.554 451 300.5Z" stroke="#000000" stroke-width="4" stroke-miterlimit="8" fill="#FFFFFF" fill-rule="evenodd"/><path d="M620 300.5C620 281.446 635.67 266 655 266 674.33 266 690 281.446 690 300.5 690 319.554 674.33 335 655 335 635.67 335 620 319.554 620 300.5Z" stroke="#000000" stroke-width="4" stroke-miterlimit="8" fill="#FFFFFF" fill-rule="evenodd"/><text font-family="Cambria Math,Cambria Math_MSFontService,sans-serif" font-weight="400" font-size="37" transform="translate(76.5217 310)">𝒙<tspan x="31.8733" y="0">=</tspan><tspan x="70.08" y="0">𝝃</tspan><tspan font-size="27" x="88.5533" y="8">1</tspan><tspan x="-0.429977" y="95">𝒙</tspan><tspan x="31.4434" y="95">=</tspan><tspan x="69.65" y="95">𝝃</tspan><tspan font-size="27" x="88.9834" y="102">2</tspan><tspan x="-0.429977" y="190">𝒙</tspan><tspan x="31.4434" y="190">=</tspan><tspan x="69.65" y="190">𝝃</tspan><tspan font-size="27" x="88.9834" y="197">3</tspan><tspan x="-0.429977" y="286">𝒙</tspan><tspan x="31.4434" y="286">=</tspan><tspan x="69.65" y="286">𝝃</tspan><tspan font-size="27" x="88.9834" y="294">4</tspan></text><path d="M458 300C458 292.82 463.82 287 471 287 478.18 287 484 292.82 484 300 484 307.18 478.18 313 471 313 463.82 313 458 307.18 458 300Z" fill="#00AFA5" fill-rule="evenodd"/><path d="M488 300C488 292.82 493.82 287 501 287 508.18 287 514 292.82 514 300 514 307.18 508.18 313 501 313 493.82 313 488 307.18 488 300Z" fill="#00AFA5" fill-rule="evenodd"/><path d="M627 300C627 292.82 632.82 287 640 287 647.18 287 653 292.82 653 300 653 307.18 647.18 313 640 313 632.82 313 627 307.18 627 300Z" fill="#00AFA5" fill-rule="evenodd"/><path d="M657 300C657 292.82 662.82 287 670 287 677.18 287 683 292.82 683 300 683 307.18 677.18 313 670 313 662.82 313 657 307.18 657 300Z" fill="#00AFA5" fill-rule="evenodd"/><path d="M970 302C970 294.82 975.596 289 982.5 289 989.404 289 995 294.82 995 302 995 309.18 989.404 315 982.5 315 975.596 315 970 309.18 970 302Z" fill="#00AFA5" fill-rule="evenodd"/><path d="M1000 302C1000 294.82 1005.82 289 1013 289 1020.18 289 1026 294.82 1026 302 1026 309.18 1020.18 315 1013 315 1005.82 315 1000 309.18 1000 302Z" fill="#00AFA5" fill-rule="evenodd"/><path d="M458 393C458 385.82 463.82 380 471 380 478.18 380 484 385.82 484 393 484 400.18 478.18 406 471 406 463.82 406 458 400.18 458 393Z" fill="#00AFA5" fill-rule="evenodd"/><path d="M488 393C488 385.82 493.82 380 501 380 508.18 380 514 385.82 514 393 514 400.18 508.18 406 501 406 493.82 406 488 400.18 488 393Z" fill="#AE0060" fill-rule="evenodd"/><path d="M628 393.5C628 386.596 633.82 381 641 381 648.18 381 654 386.596 654 393.5 654 400.404 648.18 406 641 406 633.82 406 628 400.404 628 393.5Z" fill="#00AFA5" fill-rule="evenodd"/><path d="M658 393.5C658 386.596 663.82 381 671 381 678.18 381 684 386.596 684 393.5 684 400.404 678.18 406 671 406 663.82 406 658 400.404 658 393.5Z" fill="#AE0060" fill-rule="evenodd"/><path d="M970 393.5C970 386.596 975.82 381 983 381 990.18 381 996 386.596 996 393.5 996 400.404 990.18 406 983 406 975.82 406 970 400.404 970 393.5Z" fill="#00AFA5" fill-rule="evenodd"/><path d="M1000 393.5C1000 386.596 1005.82 381 1013 381 1020.18 381 1026 386.596 1026 393.5 1026 400.404 1020.18 406 1013 406 1005.82 406 1000 400.404 1000 393.5Z" fill="#AE0060" fill-rule="evenodd"/><path d="M458 486C458 478.82 463.82 473 471 473 478.18 473 484 478.82 484 486 484 493.18 478.18 499 471 499 463.82 499 458 493.18 458 486Z" fill="#AE0060" fill-rule="evenodd"/><path d="M488 486C488 478.82 493.82 473 501 473 508.18 473 514 478.82 514 486 514 493.18 508.18 499 501 499 493.82 499 488 493.18 488 486Z" fill="#00AFA5" fill-rule="evenodd"/><path d="M627 487C627 479.82 632.82 474 640 474 647.18 474 653 479.82 653 487 653 494.18 647.18 500 640 500 632.82 500 627 494.18 627 487Z" fill="#AE0060" fill-rule="evenodd"/><path d="M657 487C657 479.82 662.82 474 670 474 677.18 474 683 479.82 683 487 683 494.18 677.18 500 670 500 662.82 500 657 494.18 657 487Z" fill="#00AFA5" fill-rule="evenodd"/><path d="M970 487C970 479.82 975.596 474 982.5 474 989.404 474 995 479.82 995 487 995 494.18 989.404 500 982.5 500 975.596 500 970 494.18 970 487Z" fill="#AE0060" fill-rule="evenodd"/><path d="M1000 487C1000 479.82 1005.82 474 1013 474 1020.18 474 1026 479.82 1026 487 1026 494.18 1020.18 500 1013 500 1005.82 500 1000 494.18 1000 487Z" fill="#00AFA5" fill-rule="evenodd"/><path d="M458 579C458 571.82 463.82 566 471 566 478.18 566 484 571.82 484 579 484 586.18 478.18 592 471 592 463.82 592 458 586.18 458 579Z" fill="#AE0060" fill-rule="evenodd"/><path d="M488 579C488 571.82 493.82 566 501 566 508.18 566 514 571.82 514 579 514 586.18 508.18 592 501 592 493.82 592 488 586.18 488 579Z" fill="#AE0060" fill-rule="evenodd"/><path d="M627 580C627 572.82 632.82 567 640 567 647.18 567 653 572.82 653 580 653 587.18 647.18 593 640 593 632.82 593 627 587.18 627 580Z" fill="#AE0060" fill-rule="evenodd"/><path d="M657 580C657 572.82 662.82 567 670 567 677.18 567 683 572.82 683 580 683 587.18 677.18 593 670 593 662.82 593 657 587.18 657 580Z" fill="#AE0060" fill-rule="evenodd"/><path d="M970 580C970 572.82 975.596 567 982.5 567 989.404 567 995 572.82 995 580 995 587.18 989.404 593 982.5 593 975.596 593 970 587.18 970 580Z" fill="#AE0060" fill-rule="evenodd"/><path d="M1000 580C1000 572.82 1005.82 567 1013 567 1020.18 567 1026 572.82 1026 580 1026 587.18 1020.18 593 1013 593 1005.82 593 1000 587.18 1000 580Z" fill="#AE0060" fill-rule="evenodd"/><path d="M289 300C289 292.82 294.82 287 302 287 309.18 287 315 292.82 315 300 315 307.18 309.18 313 302 313 294.82 313 289 307.18 289 300Z" fill="#00AFA5" fill-rule="evenodd"/><path d="M320 300C320 292.82 325.596 287 332.5 287 339.404 287 345 292.82 345 300 345 307.18 339.404 313 332.5 313 325.596 313 320 307.18 320 300Z" fill="#00AFA5" fill-rule="evenodd"/><text fill="#00AFA5" font-family="Cambria Math,Cambria Math_MSFontService,sans-serif" font-weight="400" font-size="37" transform="translate(303.584 371)">𝝅<tspan fill="#000000" x="-24.4615" y="-199">𝑡</tspan><tspan fill="#000000" x="1.49176" y="-199">=</tspan><tspan fill="#000000" x="39.6985" y="-199">0</tspan></text><path d="M0 0 0.000104987 37.7953" stroke="#ABC2CB" stroke-width="6" stroke-linecap="round" stroke-linejoin="round" stroke-miterlimit="10" fill="none" fill-rule="evenodd" transform="matrix(1 0 0 -1 319 234.795)"/><path d="M1025.14 553.196 1031.18 550.3 1037.1 547.818 1042.85 545.838 1048.47 544.305 1053.9 543.156 1059.1 542.384 1064.2 542.062 1069.19 542.127 1078.38 543.219 1086.93 545.55 1094.77 549.111 1101.81 553.571 1108.08 558.868 1113.56 564.864 1118.25 571.42 1122.16 578.286 1125.31 585.416 1127.62 592.665 1129.23 599.859 1129.55 602.845 1125.58 603.283 1125.26 600.406 1125.3 600.623 1123.74 593.623 1123.78 593.795 1121.53 586.732 1121.61 586.933 1118.55 579.995 1118.64 580.178 1114.82 573.491 1114.94 573.664 1110.37 567.289 1110.52 567.474 1105.21 561.662 1105.4 561.84 1099.33 556.715 1099.56 556.877 1092.74 552.565 1092.98 552.696 1085.42 549.258 1085.72 549.367 1077.47 547.117 1077.76 547.174 1068.83 546.111 1069.04 546.125 1064.22 546.062 1064.38 546.059 1059.44 546.371 1059.61 546.353 1054.54 547.103 1054.66 547.082 1049.35 548.207 1049.46 548.18 1043.96 549.68 1044.09 549.641 1038.46 551.578 1038.59 551.532 1032.77 553.969 1032.86 553.929 1026.86 556.804ZM1135.04 591.182 1128 607.009 1117.69 593.093C1117.03 592.205 1117.22 590.953 1118.1 590.295 1118.99 589.637 1120.24 589.824 1120.9 590.711L1129.17 601.873 1125.74 602.251 1131.38 589.557C1131.83 588.548 1133.01 588.094 1134.02 588.542 1135.03 588.991 1135.49 590.173 1135.04 591.182Z"/><path d="M1023 461.849C1113.81 417.815 1125.52 571.844 1128 607" stroke="#000000" stroke-width="4" stroke-miterlimit="8" fill="none" fill-rule="evenodd"/><path d="M1019 366.94C1133.3 310.777 1127.02 569.739 1128 605" stroke="#000000" stroke-width="4" stroke-miterlimit="8" fill="none" fill-rule="evenodd"/><path d="M1019 273.086C1155.79 211.761 1123.53 567.643 1127 604" stroke="#000000" stroke-width="4" stroke-miterlimit="8" fill="none" fill-rule="evenodd"/></g></svg>