<?xml version="1.0" encoding="utf-8" standalone="no"?>
<!DOCTYPE svg PUBLIC "-//W3C//DTD SVG 1.1//EN"
  "http://www.w3.org/Graphics/SVG/1.1/DTD/svg11.dtd">
<!-- Created with matplotlib (https://matplotlib.org/) -->
<svg height="173.030211pt" version="1.1" viewBox="0 0 390.856349 173.030211" width="390.856349pt" xmlns="http://www.w3.org/2000/svg" xmlns:xlink="http://www.w3.org/1999/xlink">
 <defs>
  <style type="text/css">
*{stroke-linecap:butt;stroke-linejoin:round;}
  </style>
 </defs>
 <g id="figure_1">
  <g id="patch_1">
   <path d="M 0 173.030211 
L 390.856349 173.030211 
L 390.856349 0 
L 0 0 
z
" style="fill:#ffffff;"/>
  </g>
  <g id="axes_1">
   <g id="patch_2">
    <path d="M 32.160286 146.891339 
L 191.931224 146.891339 
L 191.931224 7.2 
L 32.160286 7.2 
z
" style="fill:#ffffff;"/>
   </g>
   <g id="matplotlib.axis_1">
    <g id="xtick_1">
     <g id="line2d_1">
      <path clip-path="url(#pda36076144)" d="M 32.160286 146.891339 
L 32.160286 7.2 
" style="fill:none;stroke:#000000;stroke-linecap:square;stroke-opacity:0.1;stroke-width:0.5;"/>
     </g>
     <g id="line2d_2">
      <defs>
       <path d="M 0 0 
L 0 -3 
" id="mf9ceeb0ad6" style="stroke:#000000;stroke-width:0.5;"/>
      </defs>
      <g>
       <use style="stroke:#000000;stroke-width:0.5;" x="32.160286" xlink:href="#mf9ceeb0ad6" y="146.891339"/>
      </g>
     </g>
     <g id="text_1">
      <!-- 0.0 -->
      <defs>
       <path d="M 47.21875 31.734375 
Q 47.21875 24.46875 46.0625 18.453125 
Q 44.921875 12.453125 42.25 8.125 
Q 39.59375 3.8125 35.296875 1.4375 
Q 31 -0.921875 24.703125 -0.921875 
Q 18.75 -0.921875 14.671875 1.203125 
Q 10.59375 3.328125 8.09375 7.453125 
Q 5.609375 11.578125 4.5625 17.609375 
Q 3.515625 23.640625 3.515625 31.453125 
Q 3.515625 38.671875 4.6875 44.703125 
Q 5.859375 50.734375 8.5 55.046875 
Q 11.140625 59.375 15.4375 61.734375 
Q 19.734375 64.109375 25.984375 64.109375 
Q 31.984375 64.109375 36.0625 61.984375 
Q 40.140625 59.859375 42.625 55.734375 
Q 45.125 51.609375 46.171875 45.578125 
Q 47.21875 39.546875 47.21875 31.734375 
z
M 38.625 31.15625 
Q 38.625 35.890625 38.28125 39.640625 
Q 37.9375 43.40625 37.28125 46.28125 
Q 36.625 49.171875 35.5625 51.25 
Q 34.515625 53.328125 33.046875 54.65625 
Q 31.59375 56 29.703125 56.609375 
Q 27.828125 57.234375 25.484375 57.234375 
Q 21.34375 57.234375 18.75 55.28125 
Q 16.15625 53.328125 14.671875 49.90625 
Q 13.1875 46.484375 12.640625 41.890625 
Q 12.109375 37.3125 12.109375 32.03125 
Q 12.109375 24.953125 12.84375 20 
Q 13.578125 15.046875 15.15625 11.921875 
Q 16.75 8.796875 19.21875 7.375 
Q 21.6875 5.953125 25.203125 5.953125 
Q 27.9375 5.953125 30 6.828125 
Q 32.078125 7.71875 33.5625 9.34375 
Q 35.0625 10.984375 36.03125 13.28125 
Q 37.015625 15.578125 37.59375 18.359375 
Q 38.1875 21.140625 38.40625 24.390625 
Q 38.625 27.640625 38.625 31.15625 
z
" id="Calibri-48"/>
       <path d="M 17.875 5.328125 
Q 17.875 1.859375 16.71875 0.703125 
Q 15.578125 -0.4375 12.546875 -0.4375 
Q 9.625 -0.4375 8.5 0.6875 
Q 7.375 1.8125 7.375 5.171875 
Q 7.375 8.640625 8.515625 9.78125 
Q 9.671875 10.9375 12.703125 10.9375 
Q 15.625 10.9375 16.75 9.8125 
Q 17.875 8.6875 17.875 5.328125 
z
" id="Calibri-46"/>
      </defs>
      <g transform="translate(28.205787 152.639595)scale(0.06246 -0.06246)">
       <use xlink:href="#Calibri-48"/>
       <use x="50.683594" xlink:href="#Calibri-46"/>
       <use x="75.927734" xlink:href="#Calibri-48"/>
      </g>
     </g>
    </g>
    <g id="xtick_2">
     <g id="line2d_3">
      <path clip-path="url(#pda36076144)" d="M 64.114474 146.891339 
L 64.114474 7.2 
" style="fill:none;stroke:#000000;stroke-linecap:square;stroke-opacity:0.1;stroke-width:0.5;"/>
     </g>
     <g id="line2d_4">
      <g>
       <use style="stroke:#000000;stroke-width:0.5;" x="64.114474" xlink:href="#mf9ceeb0ad6" y="146.891339"/>
      </g>
     </g>
     <g id="text_2">
      <!-- 0.2 -->
      <defs>
       <path d="M 45.125 3.609375 
Q 45.125 2.734375 45 2.046875 
Q 44.875 1.375 44.65625 0.90625 
Q 44.4375 0.4375 44.0625 0.21875 
Q 43.703125 0 43.265625 0 
L 8.34375 0 
Q 7.671875 0 7.15625 0.171875 
Q 6.640625 0.34375 6.265625 0.734375 
Q 5.90625 1.125 5.734375 1.859375 
Q 5.5625 2.59375 5.5625 3.65625 
Q 5.5625 4.640625 5.640625 5.375 
Q 5.71875 6.109375 5.953125 6.671875 
Q 6.203125 7.234375 6.5625 7.78125 
Q 6.9375 8.34375 7.515625 8.984375 
L 19.78125 21.96875 
Q 24.03125 26.46875 26.59375 30.03125 
Q 29.15625 33.59375 30.546875 36.515625 
Q 31.9375 39.453125 32.375 41.84375 
Q 32.8125 44.234375 32.8125 46.34375 
Q 32.8125 48.4375 32.125 50.3125 
Q 31.453125 52.203125 30.15625 53.609375 
Q 28.859375 55.03125 26.90625 55.859375 
Q 24.953125 56.6875 22.40625 56.6875 
Q 19.4375 56.6875 17.0625 55.859375 
Q 14.703125 55.03125 12.921875 54.046875 
Q 11.140625 53.078125 9.9375 52.25 
Q 8.734375 51.421875 8.15625 51.421875 
Q 7.8125 51.421875 7.546875 51.609375 
Q 7.28125 51.8125 7.109375 52.25 
Q 6.9375 52.6875 6.828125 53.421875 
Q 6.734375 54.15625 6.734375 55.171875 
Q 6.734375 55.90625 6.78125 56.4375 
Q 6.84375 56.984375 6.953125 57.375 
Q 7.078125 57.765625 7.265625 58.109375 
Q 7.46875 58.453125 8.046875 58.953125 
Q 8.640625 59.46875 10.078125 60.34375 
Q 11.53125 61.234375 13.703125 62.078125 
Q 15.875 62.9375 18.484375 63.515625 
Q 21.09375 64.109375 23.96875 64.109375 
Q 28.5625 64.109375 32 62.8125 
Q 35.453125 61.53125 37.71875 59.28125 
Q 39.984375 57.03125 41.109375 54.046875 
Q 42.234375 51.078125 42.234375 47.703125 
Q 42.234375 44.671875 41.6875 41.671875 
Q 41.15625 38.671875 39.421875 35.171875 
Q 37.703125 31.6875 34.421875 27.40625 
Q 31.15625 23.140625 25.734375 17.578125 
L 15.71875 7.125 
L 43.21875 7.125 
Q 43.609375 7.125 43.96875 6.90625 
Q 44.34375 6.6875 44.609375 6.25 
Q 44.875 5.8125 45 5.15625 
Q 45.125 4.5 45.125 3.609375 
z
" id="Calibri-50"/>
      </defs>
      <g transform="translate(60.159975 152.639595)scale(0.06246 -0.06246)">
       <use xlink:href="#Calibri-48"/>
       <use x="50.683594" xlink:href="#Calibri-46"/>
       <use x="75.927734" xlink:href="#Calibri-50"/>
      </g>
     </g>
    </g>
    <g id="xtick_3">
     <g id="line2d_5">
      <path clip-path="url(#pda36076144)" d="M 96.068661 146.891339 
L 96.068661 7.2 
" style="fill:none;stroke:#000000;stroke-linecap:square;stroke-opacity:0.1;stroke-width:0.5;"/>
     </g>
     <g id="line2d_6">
      <g>
       <use style="stroke:#000000;stroke-width:0.5;" x="96.068661" xlink:href="#mf9ceeb0ad6" y="146.891339"/>
      </g>
     </g>
     <g id="text_3">
      <!-- 0.4 -->
      <defs>
       <path d="M 47.796875 17.96875 
Q 47.796875 16.359375 47.3125 15.421875 
Q 46.828125 14.5 45.953125 14.5 
L 38.8125 14.5 
L 38.8125 1.21875 
Q 38.8125 0.828125 38.609375 0.5625 
Q 38.421875 0.296875 37.9375 0.09375 
Q 37.453125 -0.09375 36.671875 -0.1875 
Q 35.890625 -0.296875 34.671875 -0.296875 
Q 33.5 -0.296875 32.71875 -0.1875 
Q 31.9375 -0.09375 31.46875 0.09375 
Q 31 0.296875 30.828125 0.5625 
Q 30.671875 0.828125 30.671875 1.21875 
L 30.671875 14.5 
L 4.59375 14.5 
Q 4 14.5 3.609375 14.640625 
Q 3.21875 14.796875 2.90625 15.1875 
Q 2.59375 15.578125 2.46875 16.3125 
Q 2.34375 17.046875 2.34375 18.21875 
Q 2.34375 19.140625 2.390625 19.875 
Q 2.4375 20.609375 2.578125 21.21875 
Q 2.734375 21.828125 2.96875 22.390625 
Q 3.21875 22.953125 3.5625 23.578125 
L 26.3125 61.96875 
Q 26.5625 62.359375 27.015625 62.640625 
Q 27.484375 62.9375 28.21875 63.125 
Q 28.953125 63.328125 30.03125 63.40625 
Q 31.109375 63.484375 32.5625 63.484375 
Q 34.1875 63.484375 35.375 63.359375 
Q 36.578125 63.234375 37.296875 63.03125 
Q 38.03125 62.84375 38.421875 62.515625 
Q 38.8125 62.203125 38.8125 61.765625 
L 38.8125 21.4375 
L 45.953125 21.4375 
Q 46.78125 21.4375 47.28125 20.578125 
Q 47.796875 19.734375 47.796875 17.96875 
z
M 30.671875 56.109375 
L 30.5625 56.109375 
L 10.015625 21.4375 
L 30.671875 21.4375 
z
" id="Calibri-52"/>
      </defs>
      <g transform="translate(92.114163 152.639595)scale(0.06246 -0.06246)">
       <use xlink:href="#Calibri-48"/>
       <use x="50.683594" xlink:href="#Calibri-46"/>
       <use x="75.927734" xlink:href="#Calibri-52"/>
      </g>
     </g>
    </g>
    <g id="xtick_4">
     <g id="line2d_7">
      <path clip-path="url(#pda36076144)" d="M 128.022849 146.891339 
L 128.022849 7.2 
" style="fill:none;stroke:#000000;stroke-linecap:square;stroke-opacity:0.1;stroke-width:0.5;"/>
     </g>
     <g id="line2d_8">
      <g>
       <use style="stroke:#000000;stroke-width:0.5;" x="128.022849" xlink:href="#mf9ceeb0ad6" y="146.891339"/>
      </g>
     </g>
     <g id="text_4">
      <!-- 0.6 -->
      <defs>
       <path d="M 46.734375 20.453125 
Q 46.734375 16.3125 45.453125 12.421875 
Q 44.1875 8.546875 41.546875 5.59375 
Q 38.921875 2.640625 34.859375 0.859375 
Q 30.8125 -0.921875 25.296875 -0.921875 
Q 21.34375 -0.921875 18.3125 0.046875 
Q 15.28125 1.03125 13.03125 2.828125 
Q 10.796875 4.640625 9.296875 7.265625 
Q 7.8125 9.90625 6.90625 13.28125 
Q 6 16.65625 5.609375 20.65625 
Q 5.21875 24.65625 5.21875 29.25 
Q 5.21875 33.296875 5.65625 37.453125 
Q 6.109375 41.609375 7.21875 45.453125 
Q 8.34375 49.3125 10.265625 52.703125 
Q 12.203125 56.109375 15.109375 58.625 
Q 18.015625 61.140625 22.0625 62.59375 
Q 26.125 64.0625 31.5 64.0625 
Q 33.296875 64.0625 35.15625 63.84375 
Q 37.015625 63.625 38.578125 63.25 
Q 40.140625 62.890625 41.203125 62.453125 
Q 42.28125 62.015625 42.625 61.734375 
Q 42.96875 61.46875 43.140625 61.15625 
Q 43.3125 60.84375 43.40625 60.46875 
Q 43.5 60.109375 43.546875 59.640625 
Q 43.609375 59.1875 43.609375 58.5 
Q 43.609375 57.625 43.578125 56.984375 
Q 43.5625 56.34375 43.390625 55.953125 
Q 43.21875 55.5625 42.9375 55.359375 
Q 42.671875 55.171875 42.234375 55.171875 
Q 41.703125 55.171875 40.765625 55.515625 
Q 39.84375 55.859375 38.515625 56.265625 
Q 37.203125 56.6875 35.328125 57.03125 
Q 33.453125 57.375 30.953125 57.375 
Q 26.421875 57.375 23.140625 55.515625 
Q 19.875 53.65625 17.796875 50.53125 
Q 15.71875 47.40625 14.71875 43.28125 
Q 13.71875 39.15625 13.578125 34.671875 
Q 14.84375 35.40625 16.421875 36.125 
Q 18.015625 36.859375 19.890625 37.4375 
Q 21.78125 38.03125 23.875 38.390625 
Q 25.984375 38.765625 28.375 38.765625 
Q 33.5 38.765625 37.015625 37.375 
Q 40.53125 35.984375 42.703125 33.515625 
Q 44.875 31.0625 45.796875 27.703125 
Q 46.734375 24.359375 46.734375 20.453125 
z
M 38.234375 19.671875 
Q 38.234375 22.515625 37.671875 24.828125 
Q 37.109375 27.15625 35.78125 28.765625 
Q 34.46875 30.375 32.265625 31.25 
Q 30.078125 32.125 26.859375 32.125 
Q 25.046875 32.125 23.234375 31.8125 
Q 21.4375 31.5 19.75 30.9375 
Q 18.0625 30.375 16.515625 29.609375 
Q 14.984375 28.859375 13.71875 27.984375 
Q 13.71875 21.6875 14.515625 17.4375 
Q 15.328125 13.1875 16.859375 10.625 
Q 18.40625 8.0625 20.703125 6.953125 
Q 23 5.859375 26.078125 5.859375 
Q 29.203125 5.859375 31.5 7.03125 
Q 33.796875 8.203125 35.296875 10.171875 
Q 36.8125 12.15625 37.515625 14.625 
Q 38.234375 17.09375 38.234375 19.671875 
z
" id="Calibri-54"/>
      </defs>
      <g transform="translate(124.06835 152.639595)scale(0.06246 -0.06246)">
       <use xlink:href="#Calibri-48"/>
       <use x="50.683594" xlink:href="#Calibri-46"/>
       <use x="75.927734" xlink:href="#Calibri-54"/>
      </g>
     </g>
    </g>
    <g id="xtick_5">
     <g id="line2d_9">
      <path clip-path="url(#pda36076144)" d="M 159.977036 146.891339 
L 159.977036 7.2 
" style="fill:none;stroke:#000000;stroke-linecap:square;stroke-opacity:0.1;stroke-width:0.5;"/>
     </g>
     <g id="line2d_10">
      <g>
       <use style="stroke:#000000;stroke-width:0.5;" x="159.977036" xlink:href="#mf9ceeb0ad6" y="146.891339"/>
      </g>
     </g>
     <g id="text_5">
      <!-- 0.8 -->
      <defs>
       <path d="M 46.578125 16.21875 
Q 46.578125 12.109375 45.109375 8.90625 
Q 43.65625 5.71875 40.890625 3.515625 
Q 38.140625 1.3125 34.078125 0.1875 
Q 30.03125 -0.921875 24.8125 -0.921875 
Q 19.921875 -0.921875 16.0625 0.09375 
Q 12.203125 1.125 9.515625 3.125 
Q 6.84375 5.125 5.421875 8.046875 
Q 4 10.984375 4 14.75 
Q 4 17.71875 4.96875 20.203125 
Q 5.953125 22.703125 7.78125 24.796875 
Q 9.625 26.90625 12.296875 28.734375 
Q 14.984375 30.5625 18.359375 32.234375 
Q 15.4375 33.734375 13.1875 35.421875 
Q 10.9375 37.109375 9.375 39.078125 
Q 7.8125 41.0625 7 43.3125 
Q 6.203125 45.5625 6.203125 48.1875 
Q 6.203125 51.515625 7.390625 54.421875 
Q 8.59375 57.328125 11 59.46875 
Q 13.421875 61.625 17.15625 62.859375 
Q 20.90625 64.109375 25.875 64.109375 
Q 30.671875 64.109375 34.15625 62.953125 
Q 37.640625 61.8125 39.90625 59.828125 
Q 42.1875 57.859375 43.265625 55.171875 
Q 44.34375 52.484375 44.34375 49.421875 
Q 44.34375 46.921875 43.53125 44.625 
Q 42.71875 42.328125 41.15625 40.28125 
Q 39.59375 38.234375 37.328125 36.453125 
Q 35.0625 34.671875 32.125 33.109375 
Q 35.59375 31.390625 38.296875 29.578125 
Q 41.015625 27.78125 42.84375 25.703125 
Q 44.671875 23.640625 45.625 21.3125 
Q 46.578125 19 46.578125 16.21875 
z
M 36.03125 48.640625 
Q 36.03125 50.6875 35.328125 52.34375 
Q 34.625 54 33.25 55.171875 
Q 31.890625 56.34375 29.859375 56.953125 
Q 27.828125 57.5625 25.25 57.5625 
Q 19.96875 57.5625 17.25 55.171875 
Q 14.546875 52.78125 14.546875 48.640625 
Q 14.546875 46.734375 15.203125 45.09375 
Q 15.875 43.453125 17.265625 41.984375 
Q 18.65625 40.53125 20.78125 39.140625 
Q 22.90625 37.75 25.828125 36.234375 
Q 30.765625 38.765625 33.390625 41.84375 
Q 36.03125 44.921875 36.03125 48.640625 
z
M 38.09375 15.328125 
Q 38.09375 17.578125 37.25 19.40625 
Q 36.421875 21.234375 34.734375 22.828125 
Q 33.0625 24.421875 30.546875 25.90625 
Q 28.03125 27.390625 24.703125 29 
Q 21.625 27.484375 19.3125 25.96875 
Q 17 24.46875 15.5 22.84375 
Q 14.015625 21.234375 13.25 19.453125 
Q 12.5 17.671875 12.5 15.53125 
Q 12.5 10.796875 15.75 8.203125 
Q 19 5.609375 25.4375 5.609375 
Q 31.6875 5.609375 34.890625 8.21875 
Q 38.09375 10.84375 38.09375 15.328125 
z
" id="Calibri-56"/>
      </defs>
      <g transform="translate(156.022538 152.639595)scale(0.06246 -0.06246)">
       <use xlink:href="#Calibri-48"/>
       <use x="50.683594" xlink:href="#Calibri-46"/>
       <use x="75.927734" xlink:href="#Calibri-56"/>
      </g>
     </g>
    </g>
    <g id="xtick_6">
     <g id="line2d_11">
      <path clip-path="url(#pda36076144)" d="M 191.931224 146.891339 
L 191.931224 7.2 
" style="fill:none;stroke:#000000;stroke-linecap:square;stroke-opacity:0.1;stroke-width:0.5;"/>
     </g>
     <g id="line2d_12">
      <g>
       <use style="stroke:#000000;stroke-width:0.5;" x="191.931224" xlink:href="#mf9ceeb0ad6" y="146.891339"/>
      </g>
     </g>
     <g id="text_6">
      <!-- 1.0 -->
      <defs>
       <path d="M 45.265625 3.328125 
Q 45.265625 2.390625 45.109375 1.75 
Q 44.96875 1.125 44.71875 0.734375 
Q 44.484375 0.34375 44.15625 0.171875 
Q 43.84375 0 43.5 0 
L 10.5 0 
Q 10.15625 0 9.859375 0.171875 
Q 9.578125 0.34375 9.296875 0.734375 
Q 9.03125 1.125 8.875 1.75 
Q 8.734375 2.390625 8.734375 3.328125 
Q 8.734375 4.203125 8.875 4.828125 
Q 9.03125 5.46875 9.25 5.875 
Q 9.46875 6.296875 9.78125 6.515625 
Q 10.109375 6.734375 10.5 6.734375 
L 23.6875 6.734375 
L 23.6875 54.78125 
L 11.46875 47.515625 
Q 10.546875 47.015625 9.984375 46.921875 
Q 9.421875 46.828125 9.078125 47.140625 
Q 8.734375 47.46875 8.609375 48.1875 
Q 8.5 48.921875 8.5 50.046875 
Q 8.5 50.875 8.5625 51.453125 
Q 8.640625 52.046875 8.78125 52.4375 
Q 8.9375 52.828125 9.203125 53.125 
Q 9.46875 53.421875 9.90625 53.71875 
L 24.46875 63.03125 
Q 24.65625 63.1875 24.953125 63.28125 
Q 25.25 63.375 25.6875 63.46875 
Q 26.125 63.578125 26.703125 63.59375 
Q 27.296875 63.625 28.171875 63.625 
Q 29.34375 63.625 30.125 63.515625 
Q 30.90625 63.421875 31.34375 63.25 
Q 31.78125 63.09375 31.921875 62.8125 
Q 32.078125 62.546875 32.078125 62.25 
L 32.078125 6.734375 
L 43.5 6.734375 
Q 43.890625 6.734375 44.234375 6.515625 
Q 44.578125 6.296875 44.796875 5.875 
Q 45.015625 5.46875 45.140625 4.828125 
Q 45.265625 4.203125 45.265625 3.328125 
z
" id="Calibri-49"/>
      </defs>
      <g transform="translate(187.976725 152.639595)scale(0.06246 -0.06246)">
       <use xlink:href="#Calibri-49"/>
       <use x="50.683594" xlink:href="#Calibri-46"/>
       <use x="75.927734" xlink:href="#Calibri-48"/>
      </g>
     </g>
    </g>
    <g id="text_7">
     <!-- probability $\tilde{b}_1$ -->
     <defs>
      <path d="M 47.90625 23.875 
Q 47.90625 18.109375 46.65625 13.515625 
Q 45.40625 8.9375 42.984375 5.734375 
Q 40.578125 2.546875 37.015625 0.8125 
Q 33.453125 -0.921875 28.859375 -0.921875 
Q 26.90625 -0.921875 25.234375 -0.53125 
Q 23.578125 -0.140625 21.984375 0.6875 
Q 20.40625 1.515625 18.84375 2.78125 
Q 17.28125 4.046875 15.53125 5.765625 
L 15.53125 -16.21875 
Q 15.53125 -16.609375 15.328125 -16.890625 
Q 15.140625 -17.1875 14.703125 -17.375 
Q 14.265625 -17.578125 13.484375 -17.671875 
Q 12.703125 -17.78125 11.46875 -17.78125 
Q 10.296875 -17.78125 9.515625 -17.671875 
Q 8.734375 -17.578125 8.265625 -17.375 
Q 7.8125 -17.1875 7.640625 -16.890625 
Q 7.46875 -16.609375 7.46875 -16.21875 
L 7.46875 45.171875 
Q 7.46875 45.609375 7.609375 45.875 
Q 7.765625 46.140625 8.203125 46.328125 
Q 8.640625 46.53125 9.328125 46.609375 
Q 10.015625 46.6875 10.984375 46.6875 
Q 12.015625 46.6875 12.671875 46.609375 
Q 13.328125 46.53125 13.765625 46.328125 
Q 14.203125 46.140625 14.375 45.875 
Q 14.546875 45.609375 14.546875 45.171875 
L 14.546875 39.265625 
Q 16.546875 41.3125 18.40625 42.828125 
Q 20.265625 44.34375 22.140625 45.34375 
Q 24.03125 46.34375 26 46.84375 
Q 27.984375 47.359375 30.171875 47.359375 
Q 34.96875 47.359375 38.328125 45.5 
Q 41.703125 43.65625 43.828125 40.421875 
Q 45.953125 37.203125 46.921875 32.921875 
Q 47.90625 28.65625 47.90625 23.875 
z
M 39.40625 22.953125 
Q 39.40625 26.3125 38.890625 29.46875 
Q 38.375 32.625 37.125 35.0625 
Q 35.890625 37.5 33.78125 38.96875 
Q 31.6875 40.4375 28.5625 40.4375 
Q 27 40.4375 25.484375 39.96875 
Q 23.96875 39.5 22.40625 38.5 
Q 20.84375 37.5 19.140625 35.859375 
Q 17.4375 34.234375 15.53125 31.84375 
L 15.53125 14.359375 
Q 18.84375 10.296875 21.828125 8.140625 
Q 24.8125 6 28.078125 6 
Q 31.109375 6 33.28125 7.46875 
Q 35.453125 8.9375 36.796875 11.375 
Q 38.140625 13.8125 38.765625 16.84375 
Q 39.40625 19.875 39.40625 22.953125 
z
" id="Calibri-112"/>
      <path d="M 33.15625 42.28125 
Q 33.15625 41.21875 33.109375 40.484375 
Q 33.0625 39.75 32.90625 39.328125 
Q 32.765625 38.921875 32.546875 38.703125 
Q 32.328125 38.484375 31.9375 38.484375 
Q 31.546875 38.484375 30.984375 38.703125 
Q 30.421875 38.921875 29.703125 39.140625 
Q 29 39.359375 28.125 39.546875 
Q 27.25 39.75 26.21875 39.75 
Q 25 39.75 23.828125 39.25 
Q 22.65625 38.765625 21.359375 37.640625 
Q 20.0625 36.53125 18.640625 34.671875 
Q 17.234375 32.8125 15.53125 30.125 
L 15.53125 1.21875 
Q 15.53125 0.828125 15.328125 0.5625 
Q 15.140625 0.296875 14.703125 0.09375 
Q 14.265625 -0.09375 13.484375 -0.1875 
Q 12.703125 -0.296875 11.46875 -0.296875 
Q 10.296875 -0.296875 9.515625 -0.1875 
Q 8.734375 -0.09375 8.265625 0.09375 
Q 7.8125 0.296875 7.640625 0.5625 
Q 7.46875 0.828125 7.46875 1.21875 
L 7.46875 45.171875 
Q 7.46875 45.5625 7.609375 45.828125 
Q 7.765625 46.09375 8.203125 46.3125 
Q 8.640625 46.53125 9.328125 46.609375 
Q 10.015625 46.6875 11.140625 46.6875 
Q 12.203125 46.6875 12.90625 46.609375 
Q 13.625 46.53125 14.015625 46.3125 
Q 14.40625 46.09375 14.578125 45.828125 
Q 14.75 45.5625 14.75 45.171875 
L 14.75 38.765625 
Q 16.546875 41.40625 18.140625 43.0625 
Q 19.734375 44.734375 21.140625 45.671875 
Q 22.5625 46.625 23.953125 46.984375 
Q 25.34375 47.359375 26.765625 47.359375 
Q 27.390625 47.359375 28.1875 47.28125 
Q 29 47.21875 29.875 47.015625 
Q 30.765625 46.828125 31.46875 46.578125 
Q 32.171875 46.34375 32.46875 46.09375 
Q 32.765625 45.84375 32.859375 45.625 
Q 32.953125 45.40625 33.03125 45.0625 
Q 33.109375 44.734375 33.125 44.0625 
Q 33.15625 43.40625 33.15625 42.28125 
z
" id="Calibri-114"/>
      <path d="M 48.34375 23.6875 
Q 48.34375 18.3125 46.921875 13.796875 
Q 45.515625 9.28125 42.703125 6 
Q 39.890625 2.734375 35.671875 0.90625 
Q 31.453125 -0.921875 25.875 -0.921875 
Q 20.453125 -0.921875 16.421875 0.6875 
Q 12.40625 2.296875 9.71875 5.375 
Q 7.03125 8.453125 5.703125 12.84375 
Q 4.390625 17.234375 4.390625 22.796875 
Q 4.390625 28.171875 5.78125 32.6875 
Q 7.171875 37.203125 9.984375 40.46875 
Q 12.796875 43.75 16.984375 45.546875 
Q 21.1875 47.359375 26.8125 47.359375 
Q 32.234375 47.359375 36.25 45.75 
Q 40.28125 44.140625 42.96875 41.0625 
Q 45.65625 37.984375 47 33.59375 
Q 48.34375 29.203125 48.34375 23.6875 
z
M 39.84375 23.140625 
Q 39.84375 26.703125 39.1875 29.875 
Q 38.53125 33.0625 37.015625 35.453125 
Q 35.5 37.84375 32.90625 39.234375 
Q 30.328125 40.625 26.46875 40.625 
Q 22.90625 40.625 20.34375 39.359375 
Q 17.78125 38.09375 16.109375 35.765625 
Q 14.453125 33.453125 13.640625 30.265625 
Q 12.84375 27.09375 12.84375 23.34375 
Q 12.84375 19.734375 13.5 16.546875 
Q 14.15625 13.375 15.6875 11 
Q 17.234375 8.640625 19.8125 7.25 
Q 22.40625 5.859375 26.265625 5.859375 
Q 29.78125 5.859375 32.375 7.125 
Q 34.96875 8.40625 36.625 10.6875 
Q 38.28125 12.984375 39.0625 16.15625 
Q 39.84375 19.34375 39.84375 23.140625 
z
" id="Calibri-111"/>
      <path d="M 47.90625 23.78125 
Q 47.90625 18.0625 46.65625 13.5 
Q 45.40625 8.9375 42.984375 5.703125 
Q 40.578125 2.484375 37.0625 0.78125 
Q 33.546875 -0.921875 29 -0.921875 
Q 26.90625 -0.921875 25.125 -0.5 
Q 23.34375 -0.09375 21.625 0.828125 
Q 19.921875 1.765625 18.203125 3.171875 
Q 16.5 4.59375 14.59375 6.59375 
L 14.59375 1.21875 
Q 14.59375 0.828125 14.390625 0.53125 
Q 14.203125 0.25 13.765625 0.078125 
Q 13.328125 -0.09375 12.671875 -0.1875 
Q 12.015625 -0.296875 10.984375 -0.296875 
Q 10.015625 -0.296875 9.328125 -0.1875 
Q 8.640625 -0.09375 8.203125 0.078125 
Q 7.765625 0.25 7.609375 0.53125 
Q 7.46875 0.828125 7.46875 1.21875 
L 7.46875 66.453125 
Q 7.46875 66.84375 7.640625 67.140625 
Q 7.8125 67.4375 8.265625 67.625 
Q 8.734375 67.828125 9.515625 67.921875 
Q 10.296875 68.015625 11.46875 68.015625 
Q 12.703125 68.015625 13.484375 67.921875 
Q 14.265625 67.828125 14.703125 67.625 
Q 15.140625 67.4375 15.328125 67.140625 
Q 15.53125 66.84375 15.53125 66.453125 
L 15.53125 40.140625 
Q 17.484375 42.140625 19.3125 43.5 
Q 21.140625 44.875 22.890625 45.71875 
Q 24.65625 46.578125 26.40625 46.96875 
Q 28.171875 47.359375 30.125 47.359375 
Q 34.90625 47.359375 38.296875 45.453125 
Q 41.703125 43.5625 43.828125 40.359375 
Q 45.953125 37.15625 46.921875 32.859375 
Q 47.90625 28.5625 47.90625 23.78125 
z
M 39.40625 22.859375 
Q 39.40625 26.21875 38.890625 29.390625 
Q 38.375 32.5625 37.109375 35 
Q 35.84375 37.453125 33.734375 38.9375 
Q 31.640625 40.4375 28.515625 40.4375 
Q 26.953125 40.4375 25.4375 39.984375 
Q 23.921875 39.546875 22.359375 38.515625 
Q 20.796875 37.5 19.109375 35.890625 
Q 17.4375 34.28125 15.53125 31.84375 
L 15.53125 14.3125 
Q 18.84375 10.25 21.875 8.125 
Q 24.90625 6 28.171875 6 
Q 31.203125 6 33.34375 7.46875 
Q 35.5 8.9375 36.84375 11.34375 
Q 38.1875 13.765625 38.796875 16.765625 
Q 39.40625 19.78125 39.40625 22.859375 
z
" id="Calibri-98"/>
      <path d="M 40.578125 1.171875 
Q 40.578125 0.59375 40.1875 0.296875 
Q 39.796875 0 39.109375 -0.140625 
Q 38.421875 -0.296875 37.109375 -0.296875 
Q 35.84375 -0.296875 35.078125 -0.140625 
Q 34.328125 0 33.984375 0.296875 
Q 33.640625 0.59375 33.640625 1.171875 
L 33.640625 5.5625 
Q 30.765625 2.484375 27.21875 0.78125 
Q 23.6875 -0.921875 19.734375 -0.921875 
Q 16.265625 -0.921875 13.453125 -0.015625 
Q 10.640625 0.875 8.65625 2.578125 
Q 6.6875 4.296875 5.59375 6.78125 
Q 4.5 9.28125 4.5 12.453125 
Q 4.5 16.15625 6 18.890625 
Q 7.515625 21.625 10.34375 23.4375 
Q 13.1875 25.25 17.28125 26.140625 
Q 21.390625 27.046875 26.515625 27.046875 
L 32.5625 27.046875 
L 32.5625 30.46875 
Q 32.5625 33.015625 32.03125 34.96875 
Q 31.5 36.921875 30.296875 38.203125 
Q 29.109375 39.5 27.203125 40.15625 
Q 25.296875 40.828125 22.515625 40.828125 
Q 19.53125 40.828125 17.15625 40.109375 
Q 14.796875 39.40625 13.015625 38.546875 
Q 11.234375 37.703125 10.03125 36.984375 
Q 8.84375 36.28125 8.25 36.28125 
Q 7.859375 36.28125 7.5625 36.46875 
Q 7.28125 36.671875 7.0625 37.0625 
Q 6.84375 37.453125 6.734375 38.0625 
Q 6.640625 38.671875 6.640625 39.40625 
Q 6.640625 40.625 6.8125 41.328125 
Q 6.984375 42.046875 7.640625 42.671875 
Q 8.296875 43.3125 9.90625 44.15625 
Q 11.53125 45.015625 13.625 45.71875 
Q 15.71875 46.4375 18.203125 46.890625 
Q 20.703125 47.359375 23.25 47.359375 
Q 27.984375 47.359375 31.296875 46.28125 
Q 34.625 45.21875 36.671875 43.140625 
Q 38.71875 41.0625 39.640625 37.984375 
Q 40.578125 34.90625 40.578125 30.8125 
z
M 32.5625 21.234375 
L 25.6875 21.234375 
Q 22.359375 21.234375 19.921875 20.671875 
Q 17.484375 20.125 15.875 19.015625 
Q 14.265625 17.921875 13.5 16.375 
Q 12.75 14.84375 12.75 12.84375 
Q 12.75 9.421875 14.921875 7.390625 
Q 17.09375 5.375 21 5.375 
Q 24.171875 5.375 26.875 6.984375 
Q 29.59375 8.59375 32.5625 11.921875 
z
" id="Calibri-97"/>
      <path d="M 15.53125 1.21875 
Q 15.53125 0.828125 15.328125 0.5625 
Q 15.140625 0.296875 14.703125 0.09375 
Q 14.265625 -0.09375 13.484375 -0.1875 
Q 12.703125 -0.296875 11.46875 -0.296875 
Q 10.296875 -0.296875 9.515625 -0.1875 
Q 8.734375 -0.09375 8.265625 0.09375 
Q 7.8125 0.296875 7.640625 0.5625 
Q 7.46875 0.828125 7.46875 1.21875 
L 7.46875 45.171875 
Q 7.46875 45.515625 7.640625 45.796875 
Q 7.8125 46.09375 8.265625 46.28125 
Q 8.734375 46.484375 9.515625 46.578125 
Q 10.296875 46.6875 11.46875 46.6875 
Q 12.703125 46.6875 13.484375 46.578125 
Q 14.265625 46.484375 14.703125 46.28125 
Q 15.140625 46.09375 15.328125 45.796875 
Q 15.53125 45.515625 15.53125 45.171875 
z
M 16.453125 60.015625 
Q 16.453125 57.171875 15.375 56.140625 
Q 14.3125 55.125 11.421875 55.125 
Q 8.59375 55.125 7.546875 56.125 
Q 6.5 57.125 6.5 59.90625 
Q 6.5 62.75 7.5625 63.765625 
Q 8.640625 64.796875 11.53125 64.796875 
Q 14.359375 64.796875 15.40625 63.796875 
Q 16.453125 62.796875 16.453125 60.015625 
z
" id="Calibri-105"/>
      <path d="M 15.53125 1.21875 
Q 15.53125 0.828125 15.328125 0.5625 
Q 15.140625 0.296875 14.703125 0.09375 
Q 14.265625 -0.09375 13.484375 -0.1875 
Q 12.703125 -0.296875 11.46875 -0.296875 
Q 10.296875 -0.296875 9.515625 -0.1875 
Q 8.734375 -0.09375 8.265625 0.09375 
Q 7.8125 0.296875 7.640625 0.5625 
Q 7.46875 0.828125 7.46875 1.21875 
L 7.46875 66.453125 
Q 7.46875 66.84375 7.640625 67.140625 
Q 7.8125 67.4375 8.265625 67.625 
Q 8.734375 67.828125 9.515625 67.921875 
Q 10.296875 68.015625 11.46875 68.015625 
Q 12.703125 68.015625 13.484375 67.921875 
Q 14.265625 67.828125 14.703125 67.625 
Q 15.140625 67.4375 15.328125 67.140625 
Q 15.53125 66.84375 15.53125 66.453125 
z
" id="Calibri-108"/>
      <path d="M 30.328125 4.4375 
Q 30.328125 3.03125 30.125 2.203125 
Q 29.9375 1.375 29.546875 0.984375 
Q 29.15625 0.59375 28.375 0.25 
Q 27.59375 -0.09375 26.59375 -0.3125 
Q 25.59375 -0.53125 24.46875 -0.671875 
Q 23.34375 -0.828125 22.21875 -0.828125 
Q 18.796875 -0.828125 16.359375 0.078125 
Q 13.921875 0.984375 12.359375 2.8125 
Q 10.796875 4.640625 10.078125 7.4375 
Q 9.375 10.25 9.375 14.0625 
L 9.375 39.75 
L 3.21875 39.75 
Q 2.484375 39.75 2.046875 40.53125 
Q 1.609375 41.3125 1.609375 43.0625 
Q 1.609375 44 1.734375 44.625 
Q 1.859375 45.265625 2.046875 45.671875 
Q 2.25 46.09375 2.5625 46.265625 
Q 2.875 46.4375 3.265625 46.4375 
L 9.375 46.4375 
L 9.375 56.890625 
Q 9.375 57.234375 9.546875 57.515625 
Q 9.71875 57.8125 10.171875 58.03125 
Q 10.640625 58.25 11.421875 58.34375 
Q 12.203125 58.453125 13.375 58.453125 
Q 14.59375 58.453125 15.375 58.34375 
Q 16.15625 58.25 16.59375 58.03125 
Q 17.046875 57.8125 17.234375 57.515625 
Q 17.4375 57.234375 17.4375 56.890625 
L 17.4375 46.4375 
L 28.71875 46.4375 
Q 29.109375 46.4375 29.390625 46.265625 
Q 29.6875 46.09375 29.90625 45.671875 
Q 30.125 45.265625 30.21875 44.625 
Q 30.328125 44 30.328125 43.0625 
Q 30.328125 41.3125 29.875 40.53125 
Q 29.4375 39.75 28.71875 39.75 
L 17.4375 39.75 
L 17.4375 15.234375 
Q 17.4375 10.6875 18.78125 8.375 
Q 20.125 6.0625 23.578125 6.0625 
Q 24.703125 6.0625 25.578125 6.28125 
Q 26.46875 6.5 27.140625 6.734375 
Q 27.828125 6.984375 28.3125 7.203125 
Q 28.8125 7.421875 29.203125 7.421875 
Q 29.4375 7.421875 29.65625 7.296875 
Q 29.890625 7.171875 30 6.828125 
Q 30.125 6.5 30.21875 5.90625 
Q 30.328125 5.328125 30.328125 4.4375 
z
" id="Calibri-116"/>
      <path d="M 27.484375 0 
L 21.625 -16.15625 
Q 21.34375 -16.9375 20.140625 -17.359375 
Q 18.953125 -17.78125 16.5 -17.78125 
Q 15.234375 -17.78125 14.453125 -17.65625 
Q 13.671875 -17.53125 13.25 -17.234375 
Q 12.84375 -16.9375 12.796875 -16.453125 
Q 12.75 -15.96875 13.03125 -15.28125 
L 19.09375 0 
Q 18.65625 0.203125 18.265625 0.640625 
Q 17.875 1.078125 17.71875 1.5625 
L 2.046875 43.5625 
Q 1.65625 44.578125 1.65625 45.15625 
Q 1.65625 45.75 2.046875 46.09375 
Q 2.4375 46.4375 3.3125 46.5625 
Q 4.203125 46.6875 5.671875 46.6875 
Q 7.125 46.6875 7.953125 46.609375 
Q 8.796875 46.53125 9.28125 46.328125 
Q 9.765625 46.140625 9.984375 45.765625 
Q 10.203125 45.40625 10.453125 44.78125 
L 23 9.515625 
L 23.140625 9.515625 
L 35.25 44.96875 
Q 35.546875 45.90625 35.953125 46.171875 
Q 36.375 46.4375 37.203125 46.5625 
Q 38.03125 46.6875 39.59375 46.6875 
Q 40.96875 46.6875 41.84375 46.5625 
Q 42.71875 46.4375 43.140625 46.09375 
Q 43.5625 45.75 43.5625 45.15625 
Q 43.5625 44.578125 43.265625 43.703125 
z
" id="Calibri-121"/>
      <path id="Calibri-32"/>
      <path d="M -1.5625 66.703125 
L 2.25 65.046875 
Q 0.390625 61.03125 -1.296875 58.859375 
Q -2.984375 56.6875 -4.515625 55.875 
Q -6.0625 55.078125 -8.015625 55.078125 
Q -9.328125 55.078125 -10.296875 55.34375 
Q -11.28125 55.609375 -12.234375 56.125 
Q -13.1875 56.640625 -15.1875 58.015625 
Q -16.5 58.890625 -17.25 59.375 
Q -18.015625 59.859375 -18.84375 60.171875 
Q -19.671875 60.5 -20.609375 60.5 
Q -21.875 60.5 -22.71875 60 
Q -23.578125 59.515625 -24.453125 58.296875 
Q -25.34375 57.078125 -26.265625 55.078125 
L -30.078125 56.734375 
Q -27.734375 61.421875 -26.265625 63.25 
Q -24.8125 65.09375 -23.265625 65.890625 
Q -21.734375 66.703125 -19.578125 66.703125 
Q -18.40625 66.703125 -17.453125 66.421875 
Q -16.5 66.15625 -15.6875 65.71875 
Q -14.890625 65.28125 -12.9375 63.96875 
Q -11.53125 62.984375 -10.6875 62.453125 
Q -9.859375 61.921875 -8.984375 61.59375 
Q -8.109375 61.28125 -6.984375 61.28125 
Q -5.421875 61.28125 -4.203125 62.46875 
Q -2.984375 63.671875 -1.5625 66.703125 
z
" id="Cambria-771"/>
      <path d="M 11.375 2.390625 
L 6.890625 -0.78125 
L 3.765625 0 
L 16.40625 55.8125 
Q 16.703125 57.03125 17.109375 59.328125 
Q 17.53125 61.625 17.53125 63.03125 
Q 17.53125 65.09375 16.28125 65.921875 
Q 15.046875 66.75 11.8125 66.84375 
L 12.40625 69.390625 
L 24.75 69.828125 
L 27.59375 69.828125 
L 19 35.640625 
L 19.625 35.453125 
Q 24.359375 41.796875 28.515625 44.625 
Q 32.671875 47.46875 36.8125 47.46875 
Q 42.140625 47.46875 45.09375 43.40625 
Q 48.046875 39.359375 48.046875 31.984375 
Q 48.046875 26.703125 46.609375 21.375 
Q 45.171875 16.0625 42.609375 11.765625 
Q 40.046875 7.46875 36.890625 4.703125 
Q 33.734375 1.953125 30.25 0.578125 
Q 26.765625 -0.78125 22.90625 -0.78125 
Q 16.40625 -0.78125 11.375 2.390625 
z
M 15.671875 17 
Q 15.1875 14.796875 15.0625 13.25 
Q 14.9375 11.71875 14.9375 10.359375 
Q 14.9375 6.5 16.625 4.78125 
Q 18.3125 3.078125 22.21875 3.078125 
Q 24.75 3.078125 26.84375 4.046875 
Q 28.953125 5.03125 30.828125 6.90625 
Q 32.71875 8.796875 34.25 11.46875 
Q 35.796875 14.15625 36.96875 17.59375 
Q 38.140625 21.046875 38.75 24.734375 
Q 39.359375 28.421875 39.359375 31.59375 
Q 39.359375 36.671875 37.90625 39.203125 
Q 36.46875 41.75 33.296875 41.75 
Q 30.953125 41.75 28.6875 40.25 
Q 26.421875 38.765625 23.625 35.328125 
Q 20.84375 31.890625 19.078125 28.265625 
Q 17.328125 24.65625 16.109375 19.046875 
z
" id="Cambria-Italic-98"/>
      <path d="M 33.9375 12.75 
Q 33.9375 9.90625 34.25 8.46875 
Q 34.578125 7.03125 35.375 6.125 
Q 36.1875 5.21875 37.6875 4.703125 
Q 39.203125 4.203125 41.5 3.921875 
Q 43.796875 3.65625 47.5625 3.5625 
L 47.5625 0 
L 11.46875 0 
L 11.46875 3.5625 
Q 16.890625 3.8125 19.203125 4.21875 
Q 21.53125 4.640625 22.75 5.46875 
Q 23.96875 6.296875 24.53125 7.8125 
Q 25.09375 9.328125 25.09375 12.75 
L 25.09375 52.34375 
Q 25.09375 54.296875 24.40625 55.203125 
Q 23.734375 56.109375 22.40625 56.109375 
Q 20.84375 56.109375 17.96875 54.484375 
Q 15.09375 52.875 10.84375 50.046875 
L 8.6875 53.8125 
L 31.546875 67.4375 
L 34.234375 67.4375 
Q 33.9375 62.75 33.9375 54.4375 
z
" id="Cambria-49"/>
     </defs>
     <g transform="translate(86.935755 164.210211)scale(0.09 -0.09)">
      <use transform="translate(0 0.046875)" xlink:href="#Calibri-112"/>
      <use transform="translate(52.539062 0.046875)" xlink:href="#Calibri-114"/>
      <use transform="translate(87.402344 0.046875)" xlink:href="#Calibri-111"/>
      <use transform="translate(140.136719 0.046875)" xlink:href="#Calibri-98"/>
      <use transform="translate(192.675781 0.046875)" xlink:href="#Calibri-97"/>
      <use transform="translate(240.576172 0.046875)" xlink:href="#Calibri-98"/>
      <use transform="translate(293.115234 0.046875)" xlink:href="#Calibri-105"/>
      <use transform="translate(316.064453 0.046875)" xlink:href="#Calibri-108"/>
      <use transform="translate(339.013672 0.046875)" xlink:href="#Calibri-105"/>
      <use transform="translate(361.962891 0.046875)" xlink:href="#Calibri-116"/>
      <use transform="translate(395.458984 0.046875)" xlink:href="#Calibri-121"/>
      <use transform="translate(440.722656 0.046875)" xlink:href="#Calibri-32"/>
      <use transform="translate(509.433105 27.296875)" xlink:href="#Cambria-771"/>
      <use transform="translate(463.330078 0.046875)" xlink:href="#Cambria-Italic-98"/>
      <use transform="translate(516.246719 -13.959375)scale(0.7)" xlink:href="#Cambria-49"/>
     </g>
    </g>
   </g>
   <g id="matplotlib.axis_2">
    <g id="ytick_1">
     <g id="line2d_13">
      <path clip-path="url(#pda36076144)" d="M 32.160286 140.66886 
L 191.931224 140.66886 
" style="fill:none;stroke:#000000;stroke-linecap:square;stroke-opacity:0.1;stroke-width:0.5;"/>
     </g>
     <g id="line2d_14">
      <defs>
       <path d="M 0 0 
L 3 0 
" id="md574fd81a3" style="stroke:#000000;stroke-width:0.5;"/>
      </defs>
      <g>
       <use style="stroke:#000000;stroke-width:0.5;" x="32.160286" xlink:href="#md574fd81a3" y="140.66886"/>
      </g>
     </g>
     <g id="text_8">
      <!-- −0.4 -->
      <defs>
       <path d="M 45.84375 28.078125 
Q 45.84375 26.265625 45.375 25.4375 
Q 44.921875 24.609375 44.046875 24.609375 
L 5.5625 24.609375 
Q 4.640625 24.609375 4.171875 25.4375 
Q 3.71875 26.265625 3.71875 28.078125 
Q 3.71875 29.828125 4.171875 30.6875 
Q 4.640625 31.546875 5.5625 31.546875 
L 44.046875 31.546875 
Q 44.921875 31.546875 45.375 30.71875 
Q 45.84375 29.890625 45.84375 28.078125 
z
" id="Calibri-8722"/>
      </defs>
      <g transform="translate(19.64 142.792988)scale(0.06246 -0.06246)">
       <use xlink:href="#Calibri-8722"/>
       <use x="49.804688" xlink:href="#Calibri-48"/>
       <use x="100.488281" xlink:href="#Calibri-46"/>
       <use x="125.732422" xlink:href="#Calibri-52"/>
      </g>
     </g>
    </g>
    <g id="ytick_2">
     <g id="line2d_15">
      <path clip-path="url(#pda36076144)" d="M 32.160286 115.243313 
L 191.931224 115.243313 
" style="fill:none;stroke:#000000;stroke-linecap:square;stroke-opacity:0.1;stroke-width:0.5;"/>
     </g>
     <g id="line2d_16">
      <g>
       <use style="stroke:#000000;stroke-width:0.5;" x="32.160286" xlink:href="#md574fd81a3" y="115.243313"/>
      </g>
     </g>
     <g id="text_9">
      <!-- −0.2 -->
      <g transform="translate(19.64 117.367441)scale(0.06246 -0.06246)">
       <use xlink:href="#Calibri-8722"/>
       <use x="49.804688" xlink:href="#Calibri-48"/>
       <use x="100.488281" xlink:href="#Calibri-46"/>
       <use x="125.732422" xlink:href="#Calibri-50"/>
      </g>
     </g>
    </g>
    <g id="ytick_3">
     <g id="line2d_17">
      <path clip-path="url(#pda36076144)" d="M 32.160286 89.817765 
L 191.931224 89.817765 
" style="fill:none;stroke:#000000;stroke-linecap:square;stroke-opacity:0.1;stroke-width:0.5;"/>
     </g>
     <g id="line2d_18">
      <g>
       <use style="stroke:#000000;stroke-width:0.5;" x="32.160286" xlink:href="#md574fd81a3" y="89.817765"/>
      </g>
     </g>
     <g id="text_10">
      <!-- 0.0 -->
      <g transform="translate(22.751289 91.941893)scale(0.06246 -0.06246)">
       <use xlink:href="#Calibri-48"/>
       <use x="50.683594" xlink:href="#Calibri-46"/>
       <use x="75.927734" xlink:href="#Calibri-48"/>
      </g>
     </g>
    </g>
    <g id="ytick_4">
     <g id="line2d_19">
      <path clip-path="url(#pda36076144)" d="M 32.160286 64.392218 
L 191.931224 64.392218 
" style="fill:none;stroke:#000000;stroke-linecap:square;stroke-opacity:0.1;stroke-width:0.5;"/>
     </g>
     <g id="line2d_20">
      <g>
       <use style="stroke:#000000;stroke-width:0.5;" x="32.160286" xlink:href="#md574fd81a3" y="64.392218"/>
      </g>
     </g>
     <g id="text_11">
      <!-- 0.2 -->
      <g transform="translate(22.751289 66.516346)scale(0.06246 -0.06246)">
       <use xlink:href="#Calibri-48"/>
       <use x="50.683594" xlink:href="#Calibri-46"/>
       <use x="75.927734" xlink:href="#Calibri-50"/>
      </g>
     </g>
    </g>
    <g id="ytick_5">
     <g id="line2d_21">
      <path clip-path="url(#pda36076144)" d="M 32.160286 38.96667 
L 191.931224 38.96667 
" style="fill:none;stroke:#000000;stroke-linecap:square;stroke-opacity:0.1;stroke-width:0.5;"/>
     </g>
     <g id="line2d_22">
      <g>
       <use style="stroke:#000000;stroke-width:0.5;" x="32.160286" xlink:href="#md574fd81a3" y="38.96667"/>
      </g>
     </g>
     <g id="text_12">
      <!-- 0.4 -->
      <g transform="translate(22.751289 41.090798)scale(0.06246 -0.06246)">
       <use xlink:href="#Calibri-48"/>
       <use x="50.683594" xlink:href="#Calibri-46"/>
       <use x="75.927734" xlink:href="#Calibri-52"/>
      </g>
     </g>
    </g>
    <g id="ytick_6">
     <g id="line2d_23">
      <path clip-path="url(#pda36076144)" d="M 32.160286 13.541123 
L 191.931224 13.541123 
" style="fill:none;stroke:#000000;stroke-linecap:square;stroke-opacity:0.1;stroke-width:0.5;"/>
     </g>
     <g id="line2d_24">
      <g>
       <use style="stroke:#000000;stroke-width:0.5;" x="32.160286" xlink:href="#md574fd81a3" y="13.541123"/>
      </g>
     </g>
     <g id="text_13">
      <!-- 0.6 -->
      <g transform="translate(22.751289 15.665251)scale(0.06246 -0.06246)">
       <use xlink:href="#Calibri-48"/>
       <use x="50.683594" xlink:href="#Calibri-46"/>
       <use x="75.927734" xlink:href="#Calibri-54"/>
      </g>
     </g>
    </g>
    <g id="text_14">
     <!-- $f(\tilde{b}_1) - p^*$ -->
     <defs>
      <path d="M 12.40625 -0.828125 
Q 10.75 -8.640625 7.84375 -13.234375 
Q 4.9375 -17.828125 0.78125 -19.828125 
Q -3.375 -21.828125 -9.28125 -21.828125 
Q -11.421875 -21.828125 -13.140625 -21.34375 
L -12.015625 -17.046875 
Q -10.84375 -17.4375 -8.59375 -17.4375 
Q -6 -17.4375 -4.359375 -16.75 
Q -2.734375 -16.0625 -1.34375 -14.515625 
Q 0.046875 -12.984375 1.296875 -10.03125 
Q 2.546875 -7.078125 3.65625 -2.25 
L 13.578125 41.75 
L 7.671875 41.75 
L 8.25 44.234375 
Q 10.640625 44.484375 11.609375 44.890625 
Q 12.59375 45.3125 13.203125 46.015625 
Q 13.8125 46.734375 14.296875 48.015625 
Q 14.796875 49.3125 15.71875 52.484375 
Q 18.3125 61.28125 23.703125 65.703125 
Q 29.109375 70.125 37.453125 70.125 
Q 42.234375 70.125 45.703125 69.34375 
L 43.796875 61.03125 
L 39.5 61.03125 
Q 38.8125 63.8125 37.71875 65.03125 
Q 36.625 66.265625 34.46875 66.265625 
Q 31.6875 66.265625 29.734375 64.75 
Q 27.78125 63.234375 26.390625 60.171875 
Q 25 57.125 23.828125 52 
L 22.609375 46.6875 
L 33.796875 46.6875 
L 32.71875 41.75 
L 21.484375 41.75 
z
" id="Cambria-Italic-102"/>
      <path d="M 36.078125 -21.234375 
Q 27.78125 -21.234375 22.53125 -18.75 
Q 17.28125 -16.265625 14.34375 -11.15625 
Q 11.421875 -6.0625 10.109375 2.09375 
Q 8.796875 10.25 8.796875 24.21875 
Q 8.796875 38.09375 10.078125 46.3125 
Q 11.375 54.546875 14.296875 59.71875 
Q 17.234375 64.890625 22.5 67.46875 
Q 27.78125 70.0625 36.078125 70.0625 
L 36.078125 66.0625 
Q 32.671875 66.0625 30.03125 65.484375 
Q 27.046875 64.796875 24.953125 62.84375 
Q 22.609375 60.6875 21.140625 56.84375 
Q 19.4375 52.34375 18.609375 44.921875 
Q 17.71875 37.0625 17.71875 24.609375 
Q 17.71875 13.625 18.453125 5.921875 
Q 19.1875 -1.765625 20.90625 -6.640625 
Q 22.265625 -10.75 24.3125 -13.03125 
Q 26.125 -15.046875 28.609375 -16.0625 
Q 31.5 -17.234375 36.078125 -17.234375 
z
" id="Cambria-40"/>
      <path d="M 2.09375 70.0625 
Q 10.40625 70.0625 15.65625 67.578125 
Q 20.90625 65.09375 23.828125 59.984375 
Q 26.765625 54.890625 28.078125 46.734375 
Q 29.390625 38.578125 29.390625 24.609375 
Q 29.390625 10.75 28.09375 2.515625 
Q 26.8125 -5.71875 23.875 -10.890625 
Q 20.953125 -16.0625 15.671875 -18.640625 
Q 10.40625 -21.234375 2.09375 -21.234375 
L 2.09375 -17.234375 
Q 5.515625 -17.234375 8.15625 -16.65625 
Q 11.140625 -15.96875 13.234375 -14.015625 
Q 15.578125 -11.859375 17.046875 -8.015625 
Q 18.75 -3.515625 19.578125 3.90625 
Q 20.453125 11.765625 20.453125 24.21875 
Q 20.453125 35.203125 19.71875 42.890625 
Q 19 50.59375 17.28125 55.46875 
Q 15.921875 59.578125 13.875 61.859375 
Q 12.0625 63.875 9.578125 64.890625 
Q 6.6875 66.0625 2.09375 66.0625 
z
" id="Cambria-41"/>
      <path d="M 6.203125 25.203125 
L 6.203125 31.984375 
L 49.171875 31.984375 
L 49.171875 25.203125 
z
" id="Cambria-8722"/>
      <path d="M 10.453125 -8.640625 
Q 9.96875 -10.984375 9.84375 -12.25 
Q 9.71875 -13.53125 9.71875 -14.359375 
Q 9.71875 -15.828125 10.203125 -16.65625 
Q 10.6875 -17.484375 11.71875 -17.921875 
Q 12.75 -18.359375 15.09375 -18.609375 
L 14.703125 -21 
L -0.390625 -21 
L 11.96875 33.296875 
Q 12.890625 37.40625 12.890625 40.328125 
Q 12.890625 41.703125 12.46875 42.453125 
Q 12.0625 43.21875 11.0625 43.578125 
Q 10.0625 43.953125 7.671875 44.09375 
L 8.25 46.6875 
L 19.34375 47.125 
L 22.125 47.125 
L 18.84375 34.421875 
L 19.4375 34.234375 
Q 28.46875 47.46875 37.40625 47.46875 
Q 42.71875 47.46875 45.671875 43.40625 
Q 48.640625 39.359375 48.640625 31.984375 
Q 48.640625 26.703125 47.1875 21.375 
Q 45.75 16.0625 43.1875 11.765625 
Q 40.625 7.46875 37.46875 4.703125 
Q 34.328125 1.953125 30.828125 0.578125 
Q 27.34375 -0.78125 23.484375 -0.78125 
Q 17 -0.78125 12.703125 2.046875 
z
M 16.3125 17 
Q 15.828125 14.40625 15.703125 13.03125 
Q 15.578125 11.671875 15.578125 10.359375 
Q 15.578125 6.546875 17.203125 4.8125 
Q 18.84375 3.078125 22.859375 3.078125 
Q 25.34375 3.078125 27.4375 4.046875 
Q 29.546875 5.03125 31.421875 6.875 
Q 33.296875 8.734375 34.8125 11.375 
Q 36.328125 14.015625 37.515625 17.5 
Q 38.71875 21 39.328125 24.6875 
Q 39.9375 28.375 39.9375 31.59375 
Q 39.9375 36.71875 38.5 39.234375 
Q 37.0625 41.75 33.9375 41.75 
Q 31.453125 41.75 29.03125 40.0625 
Q 26.609375 38.375 23.71875 34.65625 
Q 20.84375 30.953125 19.234375 27.34375 
Q 17.625 23.734375 16.703125 19.046875 
z
" id="Cambria-Italic-112"/>
      <path d="M 38.921875 44.921875 
L 35.75 39.5 
L 23.1875 48.34375 
L 24.609375 33.0625 
L 18.171875 33.0625 
L 19.625 48.34375 
L 7.03125 39.5 
L 3.8125 44.921875 
L 17.78125 51.46875 
L 3.8125 57.953125 
L 7.03125 63.421875 
L 19.625 54.59375 
L 18.171875 69.875 
L 24.609375 69.875 
L 23.1875 54.59375 
L 35.75 63.421875 
L 38.921875 57.953125 
L 25 51.46875 
z
" id="Cambria-42"/>
     </defs>
     <g transform="translate(15.66 95.000669)rotate(-90)scale(0.09 -0.09)">
      <use transform="translate(0 0.046875)" xlink:href="#Cambria-Italic-102"/>
      <use transform="translate(29.248047 0.046875)" xlink:href="#Cambria-40"/>
      <use transform="translate(113.534668 27.296875)" xlink:href="#Cambria-771"/>
      <use transform="translate(67.431641 0.046875)" xlink:href="#Cambria-Italic-98"/>
      <use transform="translate(120.348281 -13.959375)scale(0.7)" xlink:href="#Cambria-49"/>
      <use transform="translate(161.442422 0.046875)" xlink:href="#Cambria-41"/>
      <use transform="translate(215.602578 0.046875)" xlink:href="#Cambria-8722"/>
      <use transform="translate(286.950234 0.046875)" xlink:href="#Cambria-Italic-112"/>
      <use transform="translate(354.741562 32.728125)scale(0.7)" xlink:href="#Cambria-42"/>
     </g>
    </g>
   </g>
   <g id="line2d_25">
    <path clip-path="url(#pda36076144)" d="M 32.320057 140.541732 
L 191.771453 13.66825 
L 191.771453 13.66825 
" style="fill:none;stroke:#005ea8;stroke-linecap:square;"/>
   </g>
   <g id="line2d_26">
    <path clip-path="url(#pda36076144)" d="M 32.320057 140.414774 
L 37.9289 131.707804 
L 43.537743 123.407312 
L 49.146586 115.502299 
L 54.755429 107.981764 
L 60.364273 100.834707 
L 65.973116 94.050129 
L 71.581959 87.617028 
L 77.190802 81.524405 
L 82.799645 75.76126 
L 88.408488 70.316593 
L 94.017331 65.179403 
L 99.626174 60.338691 
L 105.235017 55.783455 
L 110.84386 51.502698 
L 116.452703 47.485417 
L 122.061546 43.720613 
L 127.670389 40.197286 
L 134.080496 36.452202 
L 140.490602 32.991729 
L 146.900708 29.799447 
L 153.310815 26.858936 
L 159.720921 24.153776 
L 166.932291 21.371344 
L 174.143661 18.842617 
L 181.35503 16.544217 
L 189.367663 14.232138 
L 191.771453 13.583541 
L 191.771453 13.583541 
" style="fill:none;stroke:#ae0060;stroke-linecap:square;"/>
   </g>
   <g id="line2d_27">
    <path clip-path="url(#pda36076144)" d="M 32.320057 140.287985 
L 36.326374 131.063207 
L 40.33269 122.441284 
L 44.339007 114.388325 
L 48.345323 106.871828 
L 52.35164 99.860643 
L 56.357956 93.324947 
L 60.364273 87.236214 
L 64.370589 81.567178 
L 68.376905 76.291813 
L 72.383222 71.385294 
L 76.389538 66.82397 
L 80.395855 62.585336 
L 84.402171 58.647998 
L 88.408488 54.991648 
L 92.414804 51.597028 
L 97.222384 47.843367 
L 102.029964 44.410768 
L 106.837544 41.271589 
L 111.645123 38.400092 
L 116.452703 35.772376 
L 122.061546 32.985366 
L 127.670389 30.46781 
L 133.279232 28.190374 
L 139.689339 25.847693 
L 146.099445 23.748628 
L 153.310815 21.639599 
L 160.522185 19.760706 
L 168.534817 17.902834 
L 177.348714 16.094811 
L 186.963873 14.35698 
L 191.771453 13.566574 
L 191.771453 13.566574 
" style="fill:none;stroke:#f17900;stroke-linecap:square;"/>
   </g>
   <g id="line2d_28">
    <path clip-path="url(#pda36076144)" d="M 32.320057 140.161365 
L 35.52511 130.398875 
L 38.730164 121.392725 
L 41.935217 113.087208 
L 45.14027 105.43018 
L 48.345323 98.372876 
L 51.550376 91.869738 
L 54.755429 85.878243 
L 57.960483 80.358745 
L 61.165536 75.274315 
L 64.370589 70.590594 
L 67.575642 66.275645 
L 70.780695 62.299817 
L 73.985749 58.635614 
L 77.190802 55.257561 
L 81.197118 51.401657 
L 85.203435 47.914024 
L 89.209751 44.756542 
L 93.216068 41.894791 
L 97.222384 39.297756 
L 101.228701 36.937536 
L 106.03628 34.382783 
L 110.84386 32.094721 
L 115.65144 30.039782 
L 121.260283 27.898143 
L 126.869126 25.994083 
L 133.279232 24.065639 
L 139.689339 22.360983 
L 146.900708 20.667542 
L 154.913341 19.017659 
L 163.727238 17.434295 
L 173.342397 15.932315 
L 184.560083 14.419523 
L 191.771453 13.559302 
L 191.771453 13.559302 
" style="fill:none;stroke:#00afa5;stroke-linecap:square;"/>
   </g>
   <g id="line2d_29">
    <path clip-path="url(#pda36076144)" d="M 32.320057 140.034913 
L 34.723847 130.894259 
L 37.127637 122.459112 
L 39.531427 114.675356 
L 41.935217 107.492718 
L 44.339007 100.864527 
L 46.742797 94.747486 
L 49.146586 89.101455 
L 51.550376 83.889251 
L 53.954166 79.076454 
L 57.159219 73.226003 
L 60.364273 67.960383 
L 63.569326 63.217633 
L 66.774379 58.9421 
L 69.979432 55.083856 
L 73.184485 51.59817 
L 76.389538 48.44501 
L 79.594592 45.588595 
L 82.799645 42.996981 
L 86.805961 40.086737 
L 90.812278 37.497059 
L 94.818594 35.185686 
L 98.824911 33.11615 
L 103.632491 30.907982 
L 108.44007 28.956883 
L 114.048913 26.954483 
L 119.657756 25.19946 
L 126.067863 23.444692 
L 132.477969 21.911336 
L 139.689339 20.403463 
L 147.701972 18.948225 
L 156.515868 17.563878 
L 166.932291 16.161233 
L 178.149977 14.874534 
L 190.97019 13.626602 
L 191.771453 13.555262 
L 191.771453 13.555262 
" style="fill:none;stroke:#005ea8;stroke-dasharray:3.7,1.6;stroke-dashoffset:0;"/>
   </g>
   <g id="line2d_30">
    <path clip-path="url(#pda36076144)" d="M 32.320057 139.90863 
L 34.723847 129.061643 
L 37.127637 119.248109 
L 39.531427 110.367489 
L 41.935217 102.328629 
L 44.339007 95.048944 
L 46.742797 88.453679 
L 49.146586 82.475217 
L 51.550376 77.052446 
L 53.954166 72.130175 
L 56.357956 67.658602 
L 58.761746 63.592816 
L 61.165536 59.892346 
L 63.569326 56.520751 
L 65.973116 53.445238 
L 69.178169 49.754586 
L 72.383222 46.476429 
L 75.588275 43.557225 
L 78.793328 40.950617 
L 81.998382 38.616499 
L 85.203435 36.52019 
L 89.209751 34.188958 
L 93.216068 32.133026 
L 97.222384 30.310957 
L 102.029964 28.384968 
L 106.837544 26.697356 
L 112.446387 24.977563 
L 118.05523 23.479 
L 124.465336 21.987556 
L 131.676706 20.538463 
L 139.689339 19.155979 
L 148.503235 17.855092 
L 158.919658 16.550895 
L 170.938607 15.289329 
L 184.560083 14.100105 
L 191.771453 13.552691 
L 191.771453 13.552691 
" style="fill:none;stroke:#ae0060;stroke-dasharray:3.7,1.6;stroke-dashoffset:0;"/>
   </g>
   <g id="line2d_31">
    <path clip-path="url(#pda36076144)" d="M 32.320057 139.782516 
L 34.723847 127.267548 
L 37.127637 116.165682 
L 39.531427 106.311159 
L 41.935217 97.557282 
L 44.339007 89.774337 
L 46.742797 82.847717 
L 49.146586 76.676248 
L 51.550376 71.17068 
L 53.954166 66.252339 
L 56.357956 61.851922 
L 58.761746 57.90842 
L 61.165536 54.368153 
L 63.569326 51.183917 
L 65.973116 48.31422 
L 68.376905 45.722604 
L 71.581959 42.644907 
L 74.787012 39.939747 
L 77.992065 37.552175 
L 81.197118 35.435979 
L 84.402171 33.552281 
L 88.408488 31.475257 
L 92.414804 29.657917 
L 97.222384 27.760302 
L 102.029964 26.116695 
L 107.638807 24.459435 
L 113.24765 23.029333 
L 119.657756 21.618418 
L 126.869126 20.258981 
L 134.881759 18.972208 
L 144.496919 17.670343 
L 154.913341 16.490133 
L 166.932291 15.355045 
L 180.553767 14.290891 
L 191.771453 13.550911 
L 191.771453 13.550911 
" style="fill:none;stroke:#f17900;stroke-dasharray:3.7,1.6;stroke-dashoffset:0;"/>
   </g>
   <g id="line2d_32">
    <path clip-path="url(#pda36076144)" d="M 32.320057 139.656569 
L 34.723847 125.51106 
L 37.127637 113.205995 
L 39.531427 102.489652 
L 41.935217 93.144555 
L 44.339007 84.982978 
L 46.742797 77.842997 
L 49.146586 71.585043 
L 51.550376 66.088894 
L 53.954166 61.251054 
L 56.357956 56.982465 
L 58.761746 53.206525 
L 61.165536 49.857366 
L 63.569326 46.878356 
L 65.973116 44.22081 
L 68.376905 41.842869 
L 71.581959 39.045745 
L 74.787012 36.61053 
L 77.992065 34.478461 
L 81.197118 32.601348 
L 85.203435 30.553852 
L 89.209751 28.781039 
L 93.216068 27.233819 
L 98.023647 25.620815 
L 103.632491 24.010162 
L 109.241334 22.632541 
L 115.65144 21.284161 
L 122.86281 19.994806 
L 130.875443 18.783059 
L 140.490602 17.565561 
L 150.907025 16.469098 
L 162.925974 15.42101 
L 177.348714 14.392357 
L 191.771453 13.549606 
L 191.771453 13.549606 
" style="fill:none;stroke:#00afa5;stroke-dasharray:3.7,1.6;stroke-dashoffset:0;"/>
   </g>
   <g id="line2d_33">
    <path clip-path="url(#pda36076144)" d="M 32.160286 89.817765 
L 191.931224 89.817765 
" style="fill:none;stroke:#000000;stroke-linecap:square;"/>
   </g>
   <g id="patch_3">
    <path d="M 32.160286 146.891339 
L 32.160286 7.2 
" style="fill:none;stroke:#000000;stroke-linecap:square;stroke-linejoin:miter;stroke-width:0.5;"/>
   </g>
   <g id="patch_4">
    <path d="M 191.931224 146.891339 
L 191.931224 7.2 
" style="fill:none;stroke:#000000;stroke-linecap:square;stroke-linejoin:miter;stroke-width:0.5;"/>
   </g>
   <g id="patch_5">
    <path d="M 32.160286 146.891339 
L 191.931224 146.891339 
" style="fill:none;stroke:#000000;stroke-linecap:square;stroke-linejoin:miter;stroke-width:0.5;"/>
   </g>
   <g id="patch_6">
    <path d="M 32.160286 7.2 
L 191.931224 7.2 
" style="fill:none;stroke:#000000;stroke-linecap:square;stroke-linejoin:miter;stroke-width:0.5;"/>
   </g>
   <g id="legend_1">
    <g id="patch_7">
     <path d="M 162.144194 143.768339 
L 187.559024 143.768339 
Q 188.808224 143.768339 188.808224 142.519139 
L 188.808224 87.137414 
Q 188.808224 85.888214 187.559024 85.888214 
L 162.144194 85.888214 
Q 160.894994 85.888214 160.894994 87.137414 
L 160.894994 142.519139 
Q 160.894994 143.768339 162.144194 143.768339 
z
" style="fill:#ffffff;opacity:0.8;stroke:#cccccc;stroke-linejoin:miter;"/>
    </g>
    <g id="text_15">
     <!-- length $T$ -->
     <defs>
      <path d="M 44.96875 25.09375 
Q 44.96875 23.1875 44.015625 22.375 
Q 43.0625 21.578125 41.84375 21.578125 
L 13.03125 21.578125 
Q 13.03125 17.921875 13.765625 14.984375 
Q 14.5 12.0625 16.203125 9.953125 
Q 17.921875 7.859375 20.65625 6.734375 
Q 23.390625 5.609375 27.34375 5.609375 
Q 30.46875 5.609375 32.90625 6.125 
Q 35.359375 6.640625 37.140625 7.265625 
Q 38.921875 7.90625 40.0625 8.421875 
Q 41.21875 8.9375 41.796875 8.9375 
Q 42.140625 8.9375 42.40625 8.765625 
Q 42.671875 8.59375 42.8125 8.25 
Q 42.96875 7.90625 43.03125 7.296875 
Q 43.109375 6.6875 43.109375 5.8125 
Q 43.109375 5.171875 43.0625 4.703125 
Q 43.015625 4.25 42.9375 3.875 
Q 42.875 3.515625 42.703125 3.21875 
Q 42.53125 2.9375 42.265625 2.65625 
Q 42 2.390625 40.671875 1.78125 
Q 39.359375 1.171875 37.25 0.578125 
Q 35.15625 0 32.390625 -0.453125 
Q 29.640625 -0.921875 26.515625 -0.921875 
Q 21.09375 -0.921875 17.015625 0.578125 
Q 12.9375 2.09375 10.15625 5.078125 
Q 7.375 8.0625 5.953125 12.546875 
Q 4.546875 17.046875 4.546875 23 
Q 4.546875 28.65625 6 33.171875 
Q 7.46875 37.703125 10.21875 40.84375 
Q 12.984375 44 16.890625 45.671875 
Q 20.796875 47.359375 25.640625 47.359375 
Q 30.8125 47.359375 34.453125 45.703125 
Q 38.09375 44.046875 40.4375 41.234375 
Q 42.78125 38.421875 43.875 34.640625 
Q 44.96875 30.859375 44.96875 26.5625 
z
M 36.859375 27.484375 
Q 37.015625 33.84375 34.0625 37.453125 
Q 31.109375 41.0625 25.296875 41.0625 
Q 22.3125 41.0625 20.0625 39.9375 
Q 17.828125 38.8125 16.3125 36.953125 
Q 14.796875 35.109375 13.96875 32.640625 
Q 13.140625 30.171875 13.03125 27.484375 
z
" id="Calibri-101"/>
      <path d="M 45.3125 1.21875 
Q 45.3125 0.828125 45.109375 0.5625 
Q 44.921875 0.296875 44.484375 0.09375 
Q 44.046875 -0.09375 43.265625 -0.1875 
Q 42.484375 -0.296875 41.3125 -0.296875 
Q 40.09375 -0.296875 39.3125 -0.1875 
Q 38.53125 -0.09375 38.078125 0.09375 
Q 37.640625 0.296875 37.4375 0.5625 
Q 37.25 0.828125 37.25 1.21875 
L 37.25 26.953125 
Q 37.25 30.71875 36.65625 33 
Q 36.078125 35.296875 34.953125 36.953125 
Q 33.84375 38.625 32.0625 39.5 
Q 30.28125 40.375 27.9375 40.375 
Q 24.90625 40.375 21.875 38.21875 
Q 18.84375 36.078125 15.53125 31.9375 
L 15.53125 1.21875 
Q 15.53125 0.828125 15.328125 0.5625 
Q 15.140625 0.296875 14.703125 0.09375 
Q 14.265625 -0.09375 13.484375 -0.1875 
Q 12.703125 -0.296875 11.46875 -0.296875 
Q 10.296875 -0.296875 9.515625 -0.1875 
Q 8.734375 -0.09375 8.265625 0.09375 
Q 7.8125 0.296875 7.640625 0.5625 
Q 7.46875 0.828125 7.46875 1.21875 
L 7.46875 45.171875 
Q 7.46875 45.5625 7.609375 45.828125 
Q 7.765625 46.09375 8.203125 46.3125 
Q 8.640625 46.53125 9.328125 46.609375 
Q 10.015625 46.6875 11.140625 46.6875 
Q 12.203125 46.6875 12.90625 46.609375 
Q 13.625 46.53125 14.015625 46.3125 
Q 14.40625 46.09375 14.578125 45.828125 
Q 14.75 45.5625 14.75 45.171875 
L 14.75 39.359375 
Q 18.453125 43.5 22.140625 45.421875 
Q 25.828125 47.359375 29.59375 47.359375 
Q 33.984375 47.359375 36.984375 45.875 
Q 39.984375 44.390625 41.84375 41.890625 
Q 43.703125 39.40625 44.5 36.0625 
Q 45.3125 32.71875 45.3125 28.03125 
z
" id="Calibri-110"/>
      <path d="M 44.1875 43.171875 
Q 44.1875 41.453125 43.71875 40.6875 
Q 43.265625 39.9375 42.53125 39.9375 
L 36.234375 39.9375 
Q 37.9375 38.1875 38.625 36.0625 
Q 39.3125 33.9375 39.3125 31.640625 
Q 39.3125 27.828125 38.078125 24.890625 
Q 36.859375 21.96875 34.59375 19.9375 
Q 32.328125 17.921875 29.203125 16.84375 
Q 26.078125 15.765625 22.265625 15.765625 
Q 19.578125 15.765625 17.15625 16.46875 
Q 14.75 17.1875 13.421875 18.265625 
Q 12.546875 17.390625 11.984375 16.265625 
Q 11.421875 15.140625 11.421875 13.671875 
Q 11.421875 11.96875 13 10.84375 
Q 14.59375 9.71875 17.234375 9.625 
L 28.71875 9.125 
Q 31.984375 9.03125 34.71875 8.21875 
Q 37.453125 7.421875 39.453125 5.921875 
Q 41.453125 4.4375 42.578125 2.265625 
Q 43.703125 0.09375 43.703125 -2.78125 
Q 43.703125 -5.8125 42.421875 -8.546875 
Q 41.15625 -11.28125 38.546875 -13.359375 
Q 35.9375 -15.4375 31.875 -16.625 
Q 27.828125 -17.828125 22.3125 -17.828125 
Q 17 -17.828125 13.25 -16.921875 
Q 9.515625 -16.015625 7.125 -14.453125 
Q 4.734375 -12.890625 3.65625 -10.71875 
Q 2.59375 -8.546875 2.59375 -6 
Q 2.59375 -4.390625 2.984375 -2.875 
Q 3.375 -1.375 4.171875 0 
Q 4.984375 1.375 6.171875 2.609375 
Q 7.375 3.859375 8.9375 5.078125 
Q 6.546875 6.296875 5.390625 8.15625 
Q 4.25 10.015625 4.25 12.15625 
Q 4.25 15.140625 5.46875 17.484375 
Q 6.6875 19.828125 8.5 21.6875 
Q 6.984375 23.484375 6.09375 25.75 
Q 5.21875 28.03125 5.21875 31.25 
Q 5.21875 35.015625 6.484375 37.984375 
Q 7.765625 40.96875 10 43.015625 
Q 12.25 45.0625 15.40625 46.15625 
Q 18.5625 47.265625 22.265625 47.265625 
Q 24.265625 47.265625 26 47.046875 
Q 27.734375 46.828125 29.25 46.4375 
L 42.53125 46.4375 
Q 43.359375 46.4375 43.765625 45.625 
Q 44.1875 44.828125 44.1875 43.171875 
z
M 31.59375 31.59375 
Q 31.59375 36.078125 29.125 38.59375 
Q 26.65625 41.109375 22.125 41.109375 
Q 19.78125 41.109375 18.046875 40.328125 
Q 16.3125 39.546875 15.15625 38.171875 
Q 14.015625 36.8125 13.453125 35.03125 
Q 12.890625 33.25 12.890625 31.296875 
Q 12.890625 26.953125 15.359375 24.453125 
Q 17.828125 21.96875 22.265625 21.96875 
Q 24.65625 21.96875 26.40625 22.71875 
Q 28.171875 23.484375 29.3125 24.828125 
Q 30.46875 26.171875 31.03125 27.921875 
Q 31.59375 29.6875 31.59375 31.59375 
z
M 35.640625 -3.21875 
Q 35.640625 -0.390625 33.3125 1.140625 
Q 31 2.6875 27.046875 2.78125 
L 15.671875 3.171875 
Q 14.109375 1.953125 13.109375 0.84375 
Q 12.109375 -0.25 11.515625 -1.25 
Q 10.9375 -2.25 10.71875 -3.21875 
Q 10.5 -4.203125 10.5 -5.21875 
Q 10.5 -8.40625 13.71875 -10.03125 
Q 16.9375 -11.671875 22.703125 -11.671875 
Q 26.375 -11.671875 28.828125 -10.953125 
Q 31.296875 -10.25 32.8125 -9.078125 
Q 34.328125 -7.90625 34.984375 -6.390625 
Q 35.640625 -4.890625 35.640625 -3.21875 
z
" id="Calibri-103"/>
      <path d="M 45.3125 1.21875 
Q 45.3125 0.828125 45.109375 0.5625 
Q 44.921875 0.296875 44.484375 0.09375 
Q 44.046875 -0.09375 43.265625 -0.1875 
Q 42.484375 -0.296875 41.3125 -0.296875 
Q 40.09375 -0.296875 39.3125 -0.1875 
Q 38.53125 -0.09375 38.078125 0.09375 
Q 37.640625 0.296875 37.4375 0.5625 
Q 37.25 0.828125 37.25 1.21875 
L 37.25 26.953125 
Q 37.25 30.71875 36.65625 33 
Q 36.078125 35.296875 34.953125 36.953125 
Q 33.84375 38.625 32.0625 39.5 
Q 30.28125 40.375 27.9375 40.375 
Q 24.90625 40.375 21.875 38.21875 
Q 18.84375 36.078125 15.53125 31.9375 
L 15.53125 1.21875 
Q 15.53125 0.828125 15.328125 0.5625 
Q 15.140625 0.296875 14.703125 0.09375 
Q 14.265625 -0.09375 13.484375 -0.1875 
Q 12.703125 -0.296875 11.46875 -0.296875 
Q 10.296875 -0.296875 9.515625 -0.1875 
Q 8.734375 -0.09375 8.265625 0.09375 
Q 7.8125 0.296875 7.640625 0.5625 
Q 7.46875 0.828125 7.46875 1.21875 
L 7.46875 66.453125 
Q 7.46875 66.84375 7.640625 67.140625 
Q 7.8125 67.4375 8.265625 67.625 
Q 8.734375 67.828125 9.515625 67.921875 
Q 10.296875 68.015625 11.46875 68.015625 
Q 12.703125 68.015625 13.484375 67.921875 
Q 14.265625 67.828125 14.703125 67.625 
Q 15.140625 67.4375 15.328125 67.140625 
Q 15.53125 66.84375 15.53125 66.453125 
L 15.53125 40.140625 
Q 19 43.796875 22.515625 45.578125 
Q 26.03125 47.359375 29.59375 47.359375 
Q 33.984375 47.359375 36.984375 45.875 
Q 39.984375 44.390625 41.84375 41.890625 
Q 43.703125 39.40625 44.5 36.0625 
Q 45.3125 32.71875 45.3125 27.984375 
z
" id="Calibri-104"/>
      <path d="M 34.765625 0 
L 14.203125 0 
L 14.75 2.390625 
Q 16.65625 2.640625 17.578125 3.140625 
Q 18.5 3.65625 19.203125 4.6875 
Q 19.921875 5.71875 20.65625 7.890625 
Q 21.390625 10.0625 22.359375 14.546875 
L 32.8125 62.359375 
L 26.609375 62.359375 
Q 23.578125 62.359375 21.765625 61.46875 
Q 19.96875 60.59375 18.15625 58.203125 
Q 16.359375 55.8125 13.765625 50.203125 
L 9.078125 50.203125 
L 12.75 66.65625 
L 63.71875 66.65625 
L 59.90625 49.46875 
L 55.21875 49.46875 
Q 55.21875 54.203125 54.96875 56.5625 
Q 54.734375 58.9375 54.046875 60.171875 
Q 53.375 61.421875 52.375 61.890625 
Q 51.375 62.359375 48.828125 62.359375 
L 41.609375 62.359375 
L 31 14.203125 
Q 30.5625 12.3125 30.390625 11.1875 
Q 30.21875 10.0625 30.09375 8.8125 
Q 29.984375 7.5625 29.984375 6.59375 
Q 29.984375 5.078125 30.46875 4.21875 
Q 30.953125 3.375 31.921875 2.984375 
Q 32.90625 2.59375 35.296875 2.390625 
z
" id="Cambria-Italic-84"/>
     </defs>
     <g transform="translate(162.144194 92.310344)scale(0.07497 -0.07497)">
      <use transform="translate(0 0.984375)" xlink:href="#Calibri-108"/>
      <use transform="translate(22.949219 0.984375)" xlink:href="#Calibri-101"/>
      <use transform="translate(72.705078 0.984375)" xlink:href="#Calibri-110"/>
      <use transform="translate(125.244141 0.984375)" xlink:href="#Calibri-103"/>
      <use transform="translate(172.314453 0.984375)" xlink:href="#Calibri-116"/>
      <use transform="translate(205.810547 0.984375)" xlink:href="#Calibri-104"/>
      <use transform="translate(258.349609 0.984375)" xlink:href="#Calibri-32"/>
      <use transform="translate(280.957031 0.984375)" xlink:href="#Cambria-Italic-84"/>
     </g>
    </g>
    <g id="line2d_34">
     <path d="M 162.941268 96.470504 
L 175.433268 96.470504 
" style="fill:none;stroke:#005ea8;stroke-linecap:square;"/>
    </g>
    <g id="line2d_35"/>
    <g id="text_16">
     <!-- 1 -->
     <g transform="translate(180.430068 98.656604)scale(0.06246 -0.06246)">
      <use xlink:href="#Calibri-49"/>
     </g>
    </g>
    <g id="line2d_36">
     <path d="M 162.941268 102.57792 
L 175.433268 102.57792 
" style="fill:none;stroke:#ae0060;stroke-linecap:square;"/>
    </g>
    <g id="line2d_37"/>
    <g id="text_17">
     <!-- 3 -->
     <defs>
      <path d="M 44.625 18.0625 
Q 44.625 13.71875 43.109375 10.21875 
Q 41.609375 6.734375 38.765625 4.25 
Q 35.9375 1.765625 31.78125 0.421875 
Q 27.640625 -0.921875 22.40625 -0.921875 
Q 19.234375 -0.921875 16.46875 -0.40625 
Q 13.71875 0.09375 11.5625 0.796875 
Q 9.421875 1.515625 8 2.265625 
Q 6.59375 3.03125 6.21875 3.375 
Q 5.859375 3.71875 5.65625 4.046875 
Q 5.46875 4.390625 5.3125 4.875 
Q 5.171875 5.375 5.09375 6.078125 
Q 5.03125 6.78125 5.03125 7.8125 
Q 5.03125 9.578125 5.375 10.25 
Q 5.71875 10.9375 6.34375 10.9375 
Q 6.78125 10.9375 8.078125 10.15625 
Q 9.375 9.375 11.390625 8.46875 
Q 13.421875 7.5625 16.125 6.78125 
Q 18.84375 6 22.171875 6 
Q 25.390625 6 27.828125 6.828125 
Q 30.28125 7.671875 31.9375 9.171875 
Q 33.59375 10.6875 34.421875 12.765625 
Q 35.25 14.84375 35.25 17.28125 
Q 35.25 19.96875 34.203125 22.109375 
Q 33.15625 24.265625 31.125 25.828125 
Q 29.109375 27.390625 26.140625 28.21875 
Q 23.1875 29.046875 19.4375 29.046875 
L 13.421875 29.046875 
Q 13.03125 29.046875 12.671875 29.21875 
Q 12.3125 29.390625 12.03125 29.78125 
Q 11.765625 30.171875 11.59375 30.8125 
Q 11.421875 31.453125 11.421875 32.46875 
Q 11.421875 33.40625 11.5625 34.015625 
Q 11.71875 34.625 11.984375 34.984375 
Q 12.25 35.359375 12.59375 35.515625 
Q 12.9375 35.6875 13.375 35.6875 
L 18.890625 35.6875 
Q 22.125 35.6875 24.6875 36.515625 
Q 27.25 37.359375 29.03125 38.921875 
Q 30.8125 40.484375 31.765625 42.65625 
Q 32.71875 44.828125 32.71875 47.515625 
Q 32.71875 49.46875 32.078125 51.25 
Q 31.453125 53.03125 30.171875 54.34375 
Q 28.90625 55.671875 26.921875 56.421875 
Q 24.953125 57.171875 22.359375 57.171875 
Q 19.53125 57.171875 17.15625 56.3125 
Q 14.796875 55.46875 12.9375 54.484375 
Q 11.078125 53.515625 9.859375 52.65625 
Q 8.640625 51.8125 8.15625 51.8125 
Q 7.8125 51.8125 7.546875 51.921875 
Q 7.28125 52.046875 7.109375 52.40625 
Q 6.9375 52.78125 6.859375 53.4375 
Q 6.78125 54.109375 6.78125 55.171875 
Q 6.78125 55.90625 6.828125 56.46875 
Q 6.890625 57.03125 7.03125 57.4375 
Q 7.171875 57.859375 7.359375 58.203125 
Q 7.5625 58.546875 8.03125 59 
Q 8.5 59.46875 9.90625 60.34375 
Q 11.328125 61.234375 13.40625 62.078125 
Q 15.484375 62.9375 18.1875 63.515625 
Q 20.90625 64.109375 24.03125 64.109375 
Q 28.421875 64.109375 31.734375 62.984375 
Q 35.0625 61.859375 37.28125 59.8125 
Q 39.5 57.765625 40.59375 54.90625 
Q 41.703125 52.046875 41.703125 48.578125 
Q 41.703125 45.609375 40.921875 43.046875 
Q 40.140625 40.484375 38.625 38.5 
Q 37.109375 36.53125 34.90625 35.125 
Q 32.71875 33.734375 29.828125 33.203125 
L 29.828125 33.109375 
Q 33.109375 32.765625 35.8125 31.46875 
Q 38.53125 30.171875 40.484375 28.21875 
Q 42.4375 26.265625 43.53125 23.65625 
Q 44.625 21.046875 44.625 18.0625 
z
" id="Calibri-51"/>
     </defs>
     <g transform="translate(180.430068 104.76402)scale(0.06246 -0.06246)">
      <use xlink:href="#Calibri-51"/>
     </g>
    </g>
    <g id="line2d_38">
     <path d="M 162.941268 108.685337 
L 175.433268 108.685337 
" style="fill:none;stroke:#f17900;stroke-linecap:square;"/>
    </g>
    <g id="line2d_39"/>
    <g id="text_18">
     <!-- 5 -->
     <defs>
      <path d="M 44.828125 20.3125 
Q 44.828125 15.234375 43.109375 11.28125 
Q 41.40625 7.328125 38.28125 4.609375 
Q 35.15625 1.90625 30.828125 0.484375 
Q 26.515625 -0.921875 21.234375 -0.921875 
Q 18.3125 -0.921875 15.671875 -0.5 
Q 13.03125 -0.09375 10.984375 0.515625 
Q 8.9375 1.125 7.609375 1.703125 
Q 6.296875 2.296875 5.921875 2.640625 
Q 5.5625 2.984375 5.421875 3.265625 
Q 5.28125 3.5625 5.15625 3.96875 
Q 5.03125 4.390625 4.984375 5.03125 
Q 4.9375 5.671875 4.9375 6.546875 
Q 4.9375 7.375 5 8.03125 
Q 5.078125 8.6875 5.265625 9.09375 
Q 5.46875 9.515625 5.734375 9.703125 
Q 6 9.90625 6.34375 9.90625 
Q 6.84375 9.90625 7.859375 9.296875 
Q 8.890625 8.6875 10.625 7.984375 
Q 12.359375 7.28125 14.921875 6.640625 
Q 17.484375 6 21 6 
Q 24.265625 6 27 6.78125 
Q 29.734375 7.5625 31.703125 9.21875 
Q 33.6875 10.890625 34.8125 13.40625 
Q 35.9375 15.921875 35.9375 19.53125 
Q 35.9375 22.5625 34.984375 24.875 
Q 34.03125 27.203125 32.046875 28.734375 
Q 30.078125 30.28125 27.046875 31.03125 
Q 24.03125 31.78125 19.828125 31.78125 
Q 16.84375 31.78125 14.6875 31.484375 
Q 12.546875 31.203125 10.6875 31.203125 
Q 9.328125 31.203125 8.734375 31.828125 
Q 8.15625 32.46875 8.15625 34.28125 
L 8.15625 60.015625 
Q 8.15625 61.625 8.90625 62.40625 
Q 9.671875 63.1875 11.078125 63.1875 
L 39.0625 63.1875 
Q 39.453125 63.1875 39.8125 62.96875 
Q 40.1875 62.75 40.421875 62.296875 
Q 40.671875 61.859375 40.796875 61.171875 
Q 40.921875 60.5 40.921875 59.578125 
Q 40.921875 57.8125 40.421875 56.828125 
Q 39.9375 55.859375 39.0625 55.859375 
L 15.484375 55.859375 
L 15.484375 38.140625 
Q 17.1875 38.375 18.96875 38.421875 
Q 20.75 38.484375 23.09375 38.484375 
Q 28.515625 38.484375 32.5625 37.1875 
Q 36.625 35.890625 39.328125 33.515625 
Q 42.046875 31.15625 43.4375 27.78125 
Q 44.828125 24.421875 44.828125 20.3125 
z
" id="Calibri-53"/>
     </defs>
     <g transform="translate(180.430068 110.871437)scale(0.06246 -0.06246)">
      <use xlink:href="#Calibri-53"/>
     </g>
    </g>
    <g id="line2d_40">
     <path d="M 162.941268 114.792754 
L 175.433268 114.792754 
" style="fill:none;stroke:#00afa5;stroke-linecap:square;"/>
    </g>
    <g id="line2d_41"/>
    <g id="text_19">
     <!-- 7 -->
     <defs>
      <path d="M 46.046875 59.578125 
Q 46.046875 58.6875 45.96875 57.984375 
Q 45.90625 57.28125 45.78125 56.609375 
Q 45.65625 55.953125 45.4375 55.34375 
Q 45.21875 54.734375 44.921875 54.046875 
L 22.171875 1.609375 
Q 21.921875 1.03125 21.546875 0.65625 
Q 21.1875 0.296875 20.625 0.078125 
Q 20.0625 -0.140625 19.1875 -0.21875 
Q 18.3125 -0.296875 17.046875 -0.296875 
Q 15.375 -0.296875 14.453125 -0.140625 
Q 13.53125 0 13.109375 0.3125 
Q 12.703125 0.640625 12.75 1.09375 
Q 12.796875 1.5625 13.09375 2.203125 
L 37.015625 55.8125 
L 6.6875 55.8125 
Q 5.765625 55.8125 5.296875 56.78125 
Q 4.828125 57.765625 4.828125 59.515625 
Q 4.828125 60.453125 4.953125 61.125 
Q 5.078125 61.8125 5.3125 62.28125 
Q 5.5625 62.75 5.90625 62.96875 
Q 6.25 63.1875 6.6875 63.1875 
L 43.5 63.1875 
Q 44.1875 63.1875 44.703125 63.03125 
Q 45.21875 62.890625 45.484375 62.453125 
Q 45.75 62.015625 45.890625 61.328125 
Q 46.046875 60.640625 46.046875 59.578125 
z
" id="Calibri-55"/>
     </defs>
     <g transform="translate(180.430068 116.978854)scale(0.06246 -0.06246)">
      <use xlink:href="#Calibri-55"/>
     </g>
    </g>
    <g id="line2d_42">
     <path d="M 162.941268 120.900171 
L 175.433268 120.900171 
" style="fill:none;stroke:#005ea8;stroke-dasharray:3.7,1.6;stroke-dashoffset:0;"/>
    </g>
    <g id="line2d_43"/>
    <g id="text_20">
     <!-- 9 -->
     <defs>
      <path d="M 45.609375 34.078125 
Q 45.609375 29.984375 45.109375 25.78125 
Q 44.625 21.578125 43.453125 17.6875 
Q 42.28125 13.8125 40.296875 10.421875 
Q 38.328125 7.03125 35.328125 4.484375 
Q 32.328125 1.953125 28.203125 0.515625 
Q 24.078125 -0.921875 18.609375 -0.921875 
Q 16.5 -0.921875 14.515625 -0.65625 
Q 12.546875 -0.390625 10.953125 0 
Q 9.375 0.390625 8.296875 0.828125 
Q 7.234375 1.265625 6.734375 1.703125 
Q 6.25 2.15625 6.03125 2.90625 
Q 5.8125 3.65625 5.8125 4.9375 
Q 5.8125 6 5.875 6.640625 
Q 5.953125 7.28125 6.09375 7.609375 
Q 6.25 7.953125 6.515625 8.078125 
Q 6.78125 8.203125 7.171875 8.203125 
Q 7.71875 8.203125 8.6875 7.828125 
Q 9.671875 7.46875 11.15625 7.03125 
Q 12.640625 6.59375 14.640625 6.21875 
Q 16.65625 5.859375 19.140625 5.859375 
Q 23.875 5.859375 27.265625 7.6875 
Q 30.671875 9.515625 32.8125 12.59375 
Q 34.96875 15.671875 36.03125 19.71875 
Q 37.109375 23.78125 37.203125 28.265625 
Q 34.625 26.765625 31 25.59375 
Q 27.390625 24.421875 22.703125 24.421875 
Q 17.4375 24.421875 13.84375 25.859375 
Q 10.25 27.296875 8.078125 29.78125 
Q 5.90625 32.28125 4.953125 35.6875 
Q 4 39.109375 4 43.171875 
Q 4 47.359375 5.21875 51.140625 
Q 6.453125 54.9375 9.03125 57.8125 
Q 11.625 60.6875 15.625 62.390625 
Q 19.625 64.109375 25.203125 64.109375 
Q 29.15625 64.109375 32.203125 63.109375 
Q 35.25 62.109375 37.5 60.21875 
Q 39.75 58.34375 41.3125 55.6875 
Q 42.875 53.03125 43.828125 49.65625 
Q 44.78125 46.296875 45.1875 42.359375 
Q 45.609375 38.421875 45.609375 34.078125 
z
M 37.0625 35.015625 
Q 37.0625 41.265625 36.234375 45.53125 
Q 35.40625 49.8125 33.78125 52.4375 
Q 32.171875 55.078125 29.828125 56.25 
Q 27.484375 57.421875 24.421875 57.421875 
Q 21.234375 57.421875 18.984375 56.265625 
Q 16.75 55.125 15.3125 53.1875 
Q 13.875 51.265625 13.1875 48.828125 
Q 12.5 46.390625 12.5 43.796875 
Q 12.5 40.921875 13.109375 38.53125 
Q 13.71875 36.140625 15.078125 34.46875 
Q 16.453125 32.8125 18.640625 31.90625 
Q 20.84375 31 24.078125 31 
Q 27.734375 31 31.15625 32.09375 
Q 34.578125 33.203125 37.0625 35.015625 
z
" id="Calibri-57"/>
     </defs>
     <g transform="translate(180.430068 123.086271)scale(0.06246 -0.06246)">
      <use xlink:href="#Calibri-57"/>
     </g>
    </g>
    <g id="line2d_44">
     <path d="M 162.941268 127.007588 
L 175.433268 127.007588 
" style="fill:none;stroke:#ae0060;stroke-dasharray:3.7,1.6;stroke-dashoffset:0;"/>
    </g>
    <g id="line2d_45"/>
    <g id="text_21">
     <!-- 11 -->
     <g transform="translate(180.430068 129.193688)scale(0.06246 -0.06246)">
      <use xlink:href="#Calibri-49"/>
      <use x="50.683594" xlink:href="#Calibri-49"/>
     </g>
    </g>
    <g id="line2d_46">
     <path d="M 162.941268 133.115005 
L 175.433268 133.115005 
" style="fill:none;stroke:#f17900;stroke-dasharray:3.7,1.6;stroke-dashoffset:0;"/>
    </g>
    <g id="line2d_47"/>
    <g id="text_22">
     <!-- 13 -->
     <g transform="translate(180.430068 135.301105)scale(0.06246 -0.06246)">
      <use xlink:href="#Calibri-49"/>
      <use x="50.683594" xlink:href="#Calibri-51"/>
     </g>
    </g>
    <g id="line2d_48">
     <path d="M 162.941268 139.222422 
L 175.433268 139.222422 
" style="fill:none;stroke:#00afa5;stroke-dasharray:3.7,1.6;stroke-dashoffset:0;"/>
    </g>
    <g id="line2d_49"/>
    <g id="text_23">
     <!-- 15 -->
     <g transform="translate(180.430068 141.408522)scale(0.06246 -0.06246)">
      <use xlink:href="#Calibri-49"/>
      <use x="50.683594" xlink:href="#Calibri-53"/>
     </g>
    </g>
   </g>
  </g>
  <g id="axes_2">
   <g id="patch_8">
    <path d="M 223.885412 146.891339 
L 383.656349 146.891339 
L 383.656349 7.2 
L 223.885412 7.2 
z
" style="fill:#ffffff;"/>
   </g>
   <g id="matplotlib.axis_3">
    <g id="xtick_7">
     <g id="line2d_50">
      <path clip-path="url(#p17c23ebff3)" d="M 233.871095 146.891339 
L 233.871095 7.2 
" style="fill:none;stroke:#000000;stroke-linecap:square;stroke-opacity:0.1;stroke-width:0.5;"/>
     </g>
     <g id="line2d_51">
      <g>
       <use style="stroke:#000000;stroke-width:0.5;" x="233.871095" xlink:href="#mf9ceeb0ad6" y="146.891339"/>
      </g>
     </g>
     <g id="text_24">
      <!-- 1 -->
      <g transform="translate(232.288125 152.639595)scale(0.06246 -0.06246)">
       <use xlink:href="#Calibri-49"/>
      </g>
     </g>
    </g>
    <g id="xtick_8">
     <g id="line2d_52">
      <path clip-path="url(#p17c23ebff3)" d="M 253.842462 146.891339 
L 253.842462 7.2 
" style="fill:none;stroke:#000000;stroke-linecap:square;stroke-opacity:0.1;stroke-width:0.5;"/>
     </g>
     <g id="line2d_53">
      <g>
       <use style="stroke:#000000;stroke-width:0.5;" x="253.842462" xlink:href="#mf9ceeb0ad6" y="146.891339"/>
      </g>
     </g>
     <g id="text_25">
      <!-- 3 -->
      <g transform="translate(252.259492 152.639595)scale(0.06246 -0.06246)">
       <use xlink:href="#Calibri-51"/>
      </g>
     </g>
    </g>
    <g id="xtick_9">
     <g id="line2d_54">
      <path clip-path="url(#p17c23ebff3)" d="M 273.81383 146.891339 
L 273.81383 7.2 
" style="fill:none;stroke:#000000;stroke-linecap:square;stroke-opacity:0.1;stroke-width:0.5;"/>
     </g>
     <g id="line2d_55">
      <g>
       <use style="stroke:#000000;stroke-width:0.5;" x="273.81383" xlink:href="#mf9ceeb0ad6" y="146.891339"/>
      </g>
     </g>
     <g id="text_26">
      <!-- 5 -->
      <g transform="translate(272.230859 152.639595)scale(0.06246 -0.06246)">
       <use xlink:href="#Calibri-53"/>
      </g>
     </g>
    </g>
    <g id="xtick_10">
     <g id="line2d_56">
      <path clip-path="url(#p17c23ebff3)" d="M 293.785197 146.891339 
L 293.785197 7.2 
" style="fill:none;stroke:#000000;stroke-linecap:square;stroke-opacity:0.1;stroke-width:0.5;"/>
     </g>
     <g id="line2d_57">
      <g>
       <use style="stroke:#000000;stroke-width:0.5;" x="293.785197" xlink:href="#mf9ceeb0ad6" y="146.891339"/>
      </g>
     </g>
     <g id="text_27">
      <!-- 7 -->
      <g transform="translate(292.202226 152.639595)scale(0.06246 -0.06246)">
       <use xlink:href="#Calibri-55"/>
      </g>
     </g>
    </g>
    <g id="xtick_11">
     <g id="line2d_58">
      <path clip-path="url(#p17c23ebff3)" d="M 313.756564 146.891339 
L 313.756564 7.2 
" style="fill:none;stroke:#000000;stroke-linecap:square;stroke-opacity:0.1;stroke-width:0.5;"/>
     </g>
     <g id="line2d_59">
      <g>
       <use style="stroke:#000000;stroke-width:0.5;" x="313.756564" xlink:href="#mf9ceeb0ad6" y="146.891339"/>
      </g>
     </g>
     <g id="text_28">
      <!-- 9 -->
      <g transform="translate(312.173593 152.639595)scale(0.06246 -0.06246)">
       <use xlink:href="#Calibri-57"/>
      </g>
     </g>
    </g>
    <g id="xtick_12">
     <g id="line2d_60">
      <path clip-path="url(#p17c23ebff3)" d="M 333.727931 146.891339 
L 333.727931 7.2 
" style="fill:none;stroke:#000000;stroke-linecap:square;stroke-opacity:0.1;stroke-width:0.5;"/>
     </g>
     <g id="line2d_61">
      <g>
       <use style="stroke:#000000;stroke-width:0.5;" x="333.727931" xlink:href="#mf9ceeb0ad6" y="146.891339"/>
      </g>
     </g>
     <g id="text_29">
      <!-- 11 -->
      <g transform="translate(330.56199 152.639595)scale(0.06246 -0.06246)">
       <use xlink:href="#Calibri-49"/>
       <use x="50.683594" xlink:href="#Calibri-49"/>
      </g>
     </g>
    </g>
    <g id="xtick_13">
     <g id="line2d_62">
      <path clip-path="url(#p17c23ebff3)" d="M 353.699298 146.891339 
L 353.699298 7.2 
" style="fill:none;stroke:#000000;stroke-linecap:square;stroke-opacity:0.1;stroke-width:0.5;"/>
     </g>
     <g id="line2d_63">
      <g>
       <use style="stroke:#000000;stroke-width:0.5;" x="353.699298" xlink:href="#mf9ceeb0ad6" y="146.891339"/>
      </g>
     </g>
     <g id="text_30">
      <!-- 13 -->
      <g transform="translate(350.533357 152.639595)scale(0.06246 -0.06246)">
       <use xlink:href="#Calibri-49"/>
       <use x="50.683594" xlink:href="#Calibri-51"/>
      </g>
     </g>
    </g>
    <g id="xtick_14">
     <g id="line2d_64">
      <path clip-path="url(#p17c23ebff3)" d="M 373.670666 146.891339 
L 373.670666 7.2 
" style="fill:none;stroke:#000000;stroke-linecap:square;stroke-opacity:0.1;stroke-width:0.5;"/>
     </g>
     <g id="line2d_65">
      <g>
       <use style="stroke:#000000;stroke-width:0.5;" x="373.670666" xlink:href="#mf9ceeb0ad6" y="146.891339"/>
      </g>
     </g>
     <g id="text_31">
      <!-- 15 -->
      <g transform="translate(370.504724 152.639595)scale(0.06246 -0.06246)">
       <use xlink:href="#Calibri-49"/>
       <use x="50.683594" xlink:href="#Calibri-53"/>
      </g>
     </g>
    </g>
    <g id="text_32">
     <!-- length of prior $T$ -->
     <defs>
      <path d="M 31.546875 63.234375 
Q 31.546875 62.3125 31.4375 61.75 
Q 31.34375 61.1875 31.21875 60.84375 
Q 31.109375 60.5 30.90625 60.375 
Q 30.71875 60.25 30.421875 60.25 
Q 30.078125 60.25 29.5625 60.46875 
Q 29.046875 60.6875 28.3125 60.953125 
Q 27.59375 61.234375 26.59375 61.453125 
Q 25.59375 61.671875 24.265625 61.671875 
Q 22.46875 61.671875 21.1875 61.078125 
Q 19.921875 60.5 19.140625 59.25 
Q 18.359375 58.015625 18.015625 56.03125 
Q 17.671875 54.046875 17.671875 51.21875 
L 17.671875 46.4375 
L 27.484375 46.4375 
Q 27.875 46.4375 28.140625 46.265625 
Q 28.421875 46.09375 28.640625 45.671875 
Q 28.859375 45.265625 28.984375 44.625 
Q 29.109375 44 29.109375 43.0625 
Q 29.109375 41.3125 28.65625 40.53125 
Q 28.21875 39.75 27.484375 39.75 
L 17.671875 39.75 
L 17.671875 1.21875 
Q 17.671875 0.828125 17.46875 0.5625 
Q 17.28125 0.296875 16.8125 0.09375 
Q 16.359375 -0.09375 15.578125 -0.1875 
Q 14.796875 -0.296875 13.625 -0.296875 
Q 12.453125 -0.296875 11.671875 -0.1875 
Q 10.890625 -0.09375 10.421875 0.09375 
Q 9.96875 0.296875 9.765625 0.5625 
Q 9.578125 0.828125 9.578125 1.21875 
L 9.578125 39.75 
L 3.375 39.75 
Q 2.59375 39.75 2.203125 40.53125 
Q 1.8125 41.3125 1.8125 43.0625 
Q 1.8125 44 1.90625 44.625 
Q 2 45.265625 2.1875 45.671875 
Q 2.390625 46.09375 2.6875 46.265625 
Q 2.984375 46.4375 3.375 46.4375 
L 9.578125 46.4375 
L 9.578125 50.984375 
Q 9.578125 55.5625 10.421875 58.859375 
Q 11.28125 62.15625 13.03125 64.25 
Q 14.796875 66.359375 17.453125 67.359375 
Q 20.125 68.359375 23.734375 68.359375 
Q 25.4375 68.359375 27.046875 68.03125 
Q 28.65625 67.71875 29.53125 67.359375 
Q 30.421875 67 30.703125 66.703125 
Q 31 66.40625 31.1875 65.9375 
Q 31.390625 65.484375 31.46875 64.8125 
Q 31.546875 64.15625 31.546875 63.234375 
z
" id="Calibri-102"/>
     </defs>
     <g transform="translate(273.84588 161.960211)scale(0.09 -0.09)">
      <use transform="translate(0 0.640625)" xlink:href="#Calibri-108"/>
      <use transform="translate(22.949219 0.640625)" xlink:href="#Calibri-101"/>
      <use transform="translate(72.705078 0.640625)" xlink:href="#Calibri-110"/>
      <use transform="translate(125.244141 0.640625)" xlink:href="#Calibri-103"/>
      <use transform="translate(172.314453 0.640625)" xlink:href="#Calibri-116"/>
      <use transform="translate(205.810547 0.640625)" xlink:href="#Calibri-104"/>
      <use transform="translate(258.349609 0.640625)" xlink:href="#Calibri-32"/>
      <use transform="translate(280.957031 0.640625)" xlink:href="#Calibri-111"/>
      <use transform="translate(333.691406 0.640625)" xlink:href="#Calibri-102"/>
      <use transform="translate(364.208984 0.640625)" xlink:href="#Calibri-32"/>
      <use transform="translate(386.816406 0.640625)" xlink:href="#Calibri-112"/>
      <use transform="translate(439.355469 0.640625)" xlink:href="#Calibri-114"/>
      <use transform="translate(474.21875 0.640625)" xlink:href="#Calibri-105"/>
      <use transform="translate(497.167969 0.640625)" xlink:href="#Calibri-111"/>
      <use transform="translate(549.902344 0.640625)" xlink:href="#Calibri-114"/>
      <use transform="translate(584.765625 0.640625)" xlink:href="#Calibri-32"/>
      <use transform="translate(607.373047 0.640625)" xlink:href="#Cambria-Italic-84"/>
     </g>
    </g>
   </g>
   <g id="matplotlib.axis_4">
    <g id="ytick_7">
     <g id="line2d_66">
      <path clip-path="url(#p17c23ebff3)" d="M 223.885412 127.981388 
L 383.656349 127.981388 
" style="fill:none;stroke:#000000;stroke-linecap:square;stroke-opacity:0.1;stroke-width:0.5;"/>
     </g>
     <g id="line2d_67">
      <g>
       <use style="stroke:#000000;stroke-width:0.5;" x="223.885412" xlink:href="#md574fd81a3" y="127.981388"/>
      </g>
     </g>
     <g id="text_33">
      <!-- 0.10 -->
      <g transform="translate(211.310473 130.105516)scale(0.06246 -0.06246)">
       <use xlink:href="#Calibri-48"/>
       <use x="50.683594" xlink:href="#Calibri-46"/>
       <use x="75.927734" xlink:href="#Calibri-49"/>
       <use x="126.611328" xlink:href="#Calibri-48"/>
      </g>
     </g>
    </g>
    <g id="ytick_8">
     <g id="line2d_68">
      <path clip-path="url(#p17c23ebff3)" d="M 223.885412 108.909425 
L 383.656349 108.909425 
" style="fill:none;stroke:#000000;stroke-linecap:square;stroke-opacity:0.1;stroke-width:0.5;"/>
     </g>
     <g id="line2d_69">
      <g>
       <use style="stroke:#000000;stroke-width:0.5;" x="223.885412" xlink:href="#md574fd81a3" y="108.909425"/>
      </g>
     </g>
     <g id="text_34">
      <!-- 0.15 -->
      <g transform="translate(211.310473 111.033553)scale(0.06246 -0.06246)">
       <use xlink:href="#Calibri-48"/>
       <use x="50.683594" xlink:href="#Calibri-46"/>
       <use x="75.927734" xlink:href="#Calibri-49"/>
       <use x="126.611328" xlink:href="#Calibri-53"/>
      </g>
     </g>
    </g>
    <g id="ytick_9">
     <g id="line2d_70">
      <path clip-path="url(#p17c23ebff3)" d="M 223.885412 89.837461 
L 383.656349 89.837461 
" style="fill:none;stroke:#000000;stroke-linecap:square;stroke-opacity:0.1;stroke-width:0.5;"/>
     </g>
     <g id="line2d_71">
      <g>
       <use style="stroke:#000000;stroke-width:0.5;" x="223.885412" xlink:href="#md574fd81a3" y="89.837461"/>
      </g>
     </g>
     <g id="text_35">
      <!-- 0.20 -->
      <g transform="translate(211.310473 91.961589)scale(0.06246 -0.06246)">
       <use xlink:href="#Calibri-48"/>
       <use x="50.683594" xlink:href="#Calibri-46"/>
       <use x="75.927734" xlink:href="#Calibri-50"/>
       <use x="126.611328" xlink:href="#Calibri-48"/>
      </g>
     </g>
    </g>
    <g id="ytick_10">
     <g id="line2d_72">
      <path clip-path="url(#p17c23ebff3)" d="M 223.885412 70.765497 
L 383.656349 70.765497 
" style="fill:none;stroke:#000000;stroke-linecap:square;stroke-opacity:0.1;stroke-width:0.5;"/>
     </g>
     <g id="line2d_73">
      <g>
       <use style="stroke:#000000;stroke-width:0.5;" x="223.885412" xlink:href="#md574fd81a3" y="70.765497"/>
      </g>
     </g>
     <g id="text_36">
      <!-- 0.25 -->
      <g transform="translate(211.310473 72.889625)scale(0.06246 -0.06246)">
       <use xlink:href="#Calibri-48"/>
       <use x="50.683594" xlink:href="#Calibri-46"/>
       <use x="75.927734" xlink:href="#Calibri-50"/>
       <use x="126.611328" xlink:href="#Calibri-53"/>
      </g>
     </g>
    </g>
    <g id="ytick_11">
     <g id="line2d_74">
      <path clip-path="url(#p17c23ebff3)" d="M 223.885412 51.693534 
L 383.656349 51.693534 
" style="fill:none;stroke:#000000;stroke-linecap:square;stroke-opacity:0.1;stroke-width:0.5;"/>
     </g>
     <g id="line2d_75">
      <g>
       <use style="stroke:#000000;stroke-width:0.5;" x="223.885412" xlink:href="#md574fd81a3" y="51.693534"/>
      </g>
     </g>
     <g id="text_37">
      <!-- 0.30 -->
      <g transform="translate(211.310473 53.817662)scale(0.06246 -0.06246)">
       <use xlink:href="#Calibri-48"/>
       <use x="50.683594" xlink:href="#Calibri-46"/>
       <use x="75.927734" xlink:href="#Calibri-51"/>
       <use x="126.611328" xlink:href="#Calibri-48"/>
      </g>
     </g>
    </g>
    <g id="ytick_12">
     <g id="line2d_76">
      <path clip-path="url(#p17c23ebff3)" d="M 223.885412 32.62157 
L 383.656349 32.62157 
" style="fill:none;stroke:#000000;stroke-linecap:square;stroke-opacity:0.1;stroke-width:0.5;"/>
     </g>
     <g id="line2d_77">
      <g>
       <use style="stroke:#000000;stroke-width:0.5;" x="223.885412" xlink:href="#md574fd81a3" y="32.62157"/>
      </g>
     </g>
     <g id="text_38">
      <!-- 0.35 -->
      <g transform="translate(211.310473 34.745698)scale(0.06246 -0.06246)">
       <use xlink:href="#Calibri-48"/>
       <use x="50.683594" xlink:href="#Calibri-46"/>
       <use x="75.927734" xlink:href="#Calibri-51"/>
       <use x="126.611328" xlink:href="#Calibri-53"/>
      </g>
     </g>
    </g>
    <g id="ytick_13">
     <g id="line2d_78">
      <path clip-path="url(#p17c23ebff3)" d="M 223.885412 13.549606 
L 383.656349 13.549606 
" style="fill:none;stroke:#000000;stroke-linecap:square;stroke-opacity:0.1;stroke-width:0.5;"/>
     </g>
     <g id="line2d_79">
      <g>
       <use style="stroke:#000000;stroke-width:0.5;" x="223.885412" xlink:href="#md574fd81a3" y="13.549606"/>
      </g>
     </g>
     <g id="text_39">
      <!-- 0.40 -->
      <g transform="translate(211.310473 15.673734)scale(0.06246 -0.06246)">
       <use xlink:href="#Calibri-48"/>
       <use x="50.683594" xlink:href="#Calibri-46"/>
       <use x="75.927734" xlink:href="#Calibri-52"/>
       <use x="126.611328" xlink:href="#Calibri-48"/>
      </g>
     </g>
    </g>
    <g id="text_40">
     <!-- solution for $\tilde{b}_1$ -->
     <defs>
      <path d="M 35.0625 13.1875 
Q 35.0625 9.8125 33.8125 7.171875 
Q 32.5625 4.546875 30.265625 2.734375 
Q 27.984375 0.921875 24.796875 0 
Q 21.625 -0.921875 17.828125 -0.921875 
Q 15.484375 -0.921875 13.359375 -0.5625 
Q 11.234375 -0.203125 9.546875 0.359375 
Q 7.859375 0.921875 6.6875 1.53125 
Q 5.515625 2.15625 4.96875 2.640625 
Q 4.4375 3.125 4.1875 4 
Q 3.953125 4.890625 3.953125 6.390625 
Q 3.953125 7.328125 4.046875 7.953125 
Q 4.15625 8.59375 4.296875 8.984375 
Q 4.4375 9.375 4.703125 9.546875 
Q 4.984375 9.71875 5.328125 9.71875 
Q 5.859375 9.71875 6.90625 9.0625 
Q 7.953125 8.40625 9.484375 7.625 
Q 11.03125 6.84375 13.125 6.171875 
Q 15.234375 5.515625 17.96875 5.515625 
Q 20.015625 5.515625 21.671875 5.953125 
Q 23.34375 6.390625 24.5625 7.25 
Q 25.78125 8.109375 26.4375 9.421875 
Q 27.09375 10.75 27.09375 12.546875 
Q 27.09375 14.40625 26.140625 15.671875 
Q 25.203125 16.9375 23.640625 17.90625 
Q 22.078125 18.890625 20.125 19.640625 
Q 18.171875 20.40625 16.09375 21.234375 
Q 14.015625 22.078125 12.03125 23.125 
Q 10.0625 24.171875 8.5 25.6875 
Q 6.9375 27.203125 5.984375 29.296875 
Q 5.03125 31.390625 5.03125 34.328125 
Q 5.03125 36.921875 6.03125 39.28125 
Q 7.03125 41.65625 9.03125 43.4375 
Q 11.03125 45.21875 14.03125 46.28125 
Q 17.046875 47.359375 21.046875 47.359375 
Q 22.796875 47.359375 24.546875 47.0625 
Q 26.3125 46.78125 27.734375 46.34375 
Q 29.15625 45.90625 30.15625 45.390625 
Q 31.15625 44.875 31.65625 44.484375 
Q 32.171875 44.09375 32.34375 43.796875 
Q 32.515625 43.5 32.59375 43.140625 
Q 32.671875 42.78125 32.734375 42.234375 
Q 32.8125 41.703125 32.8125 40.921875 
Q 32.8125 40.09375 32.734375 39.484375 
Q 32.671875 38.875 32.5 38.484375 
Q 32.328125 38.09375 32.078125 37.921875 
Q 31.84375 37.75 31.546875 37.75 
Q 31.109375 37.75 30.265625 38.28125 
Q 29.4375 38.8125 28.125 39.421875 
Q 26.8125 40.046875 25.03125 40.578125 
Q 23.25 41.109375 20.953125 41.109375 
Q 18.890625 41.109375 17.328125 40.640625 
Q 15.765625 40.1875 14.765625 39.328125 
Q 13.765625 38.484375 13.25 37.3125 
Q 12.75 36.140625 12.75 34.765625 
Q 12.75 32.859375 13.71875 31.5625 
Q 14.703125 30.28125 16.265625 29.296875 
Q 17.828125 28.328125 19.828125 27.546875 
Q 21.828125 26.765625 23.90625 25.921875 
Q 25.984375 25.09375 28 24.0625 
Q 30.03125 23.046875 31.59375 21.578125 
Q 33.15625 20.125 34.109375 18.0625 
Q 35.0625 16.015625 35.0625 13.1875 
z
" id="Calibri-115"/>
      <path d="M 45.125 1.21875 
Q 45.125 0.828125 44.953125 0.5625 
Q 44.78125 0.296875 44.328125 0.09375 
Q 43.890625 -0.09375 43.1875 -0.1875 
Q 42.484375 -0.296875 41.453125 -0.296875 
Q 40.328125 -0.296875 39.625 -0.1875 
Q 38.921875 -0.09375 38.5 0.09375 
Q 38.09375 0.296875 37.9375 0.5625 
Q 37.796875 0.828125 37.796875 1.21875 
L 37.796875 7.03125 
Q 34.03125 2.875 30.359375 0.96875 
Q 26.703125 -0.921875 22.953125 -0.921875 
Q 18.5625 -0.921875 15.546875 0.53125 
Q 12.546875 2 10.6875 4.515625 
Q 8.84375 7.03125 8.03125 10.375 
Q 7.234375 13.71875 7.234375 18.5 
L 7.234375 45.171875 
Q 7.234375 45.5625 7.390625 45.828125 
Q 7.5625 46.09375 8.046875 46.3125 
Q 8.546875 46.53125 9.328125 46.609375 
Q 10.109375 46.6875 11.28125 46.6875 
Q 12.453125 46.6875 13.234375 46.609375 
Q 14.015625 46.53125 14.46875 46.3125 
Q 14.9375 46.09375 15.125 45.828125 
Q 15.328125 45.5625 15.328125 45.171875 
L 15.328125 19.578125 
Q 15.328125 15.71875 15.890625 13.390625 
Q 16.453125 11.078125 17.59375 9.4375 
Q 18.75 7.8125 20.5 6.90625 
Q 22.265625 6 24.609375 6 
Q 27.640625 6 30.640625 8.140625 
Q 33.640625 10.296875 37.015625 14.453125 
L 37.015625 45.171875 
Q 37.015625 45.5625 37.1875 45.828125 
Q 37.359375 46.09375 37.84375 46.3125 
Q 38.328125 46.53125 39.078125 46.609375 
Q 39.84375 46.6875 41.0625 46.6875 
Q 42.234375 46.6875 43.015625 46.609375 
Q 43.796875 46.53125 44.234375 46.3125 
Q 44.671875 46.09375 44.890625 45.828125 
Q 45.125 45.5625 45.125 45.171875 
z
" id="Calibri-117"/>
     </defs>
     <g transform="translate(207.71016 103.460669)rotate(-90)scale(0.09 -0.09)">
      <use transform="translate(0 0.046875)" xlink:href="#Calibri-115"/>
      <use transform="translate(39.111328 0.046875)" xlink:href="#Calibri-111"/>
      <use transform="translate(91.845703 0.046875)" xlink:href="#Calibri-108"/>
      <use transform="translate(114.794922 0.046875)" xlink:href="#Calibri-117"/>
      <use transform="translate(167.333984 0.046875)" xlink:href="#Calibri-116"/>
      <use transform="translate(200.830078 0.046875)" xlink:href="#Calibri-105"/>
      <use transform="translate(223.779297 0.046875)" xlink:href="#Calibri-111"/>
      <use transform="translate(276.513672 0.046875)" xlink:href="#Calibri-110"/>
      <use transform="translate(329.052734 0.046875)" xlink:href="#Calibri-32"/>
      <use transform="translate(351.660156 0.046875)" xlink:href="#Calibri-102"/>
      <use transform="translate(382.177734 0.046875)" xlink:href="#Calibri-111"/>
      <use transform="translate(434.912109 0.046875)" xlink:href="#Calibri-114"/>
      <use transform="translate(469.775391 0.046875)" xlink:href="#Calibri-32"/>
      <use transform="translate(538.48584 27.296875)" xlink:href="#Cambria-771"/>
      <use transform="translate(492.382812 0.046875)" xlink:href="#Cambria-Italic-98"/>
      <use transform="translate(545.299453 -13.959375)scale(0.7)" xlink:href="#Cambria-49"/>
     </g>
    </g>
   </g>
   <g id="line2d_80">
    <path clip-path="url(#p17c23ebff3)" d="M 233.871095 13.549606 
L 243.856779 53.280114 
L 253.842462 76.671955 
L 263.828146 92.053319 
L 273.81383 102.929461 
L 283.799513 111.024254 
L 293.785197 117.282592 
L 303.77088 122.265278 
L 313.756564 126.326027 
L 323.742248 129.698919 
L 333.727931 132.54501 
L 343.713615 134.978735 
L 353.699298 137.083633 
L 363.684982 138.922113 
L 373.670666 140.541732 
" style="fill:none;stroke:#005ea8;stroke-dasharray:3.7,1.6;stroke-dashoffset:0;"/>
    <defs>
     <path d="M 0 1.5 
C 0.397805 1.5 0.77937 1.341951 1.06066 1.06066 
C 1.341951 0.77937 1.5 0.397805 1.5 0 
C 1.5 -0.397805 1.341951 -0.77937 1.06066 -1.06066 
C 0.77937 -1.341951 0.397805 -1.5 0 -1.5 
C -0.397805 -1.5 -0.77937 -1.341951 -1.06066 -1.06066 
C -1.341951 -0.77937 -1.5 -0.397805 -1.5 0 
C -1.5 0.397805 -1.341951 0.77937 -1.06066 1.06066 
C -0.77937 1.341951 -0.397805 1.5 0 1.5 
z
" id="mab2418cef0" style="stroke:#005ea8;"/>
    </defs>
    <g clip-path="url(#p17c23ebff3)">
     <use style="fill:#005ea8;stroke:#005ea8;" x="233.871095" xlink:href="#mab2418cef0" y="13.549606"/>
     <use style="fill:#005ea8;stroke:#005ea8;" x="243.856779" xlink:href="#mab2418cef0" y="53.280114"/>
     <use style="fill:#005ea8;stroke:#005ea8;" x="253.842462" xlink:href="#mab2418cef0" y="76.671955"/>
     <use style="fill:#005ea8;stroke:#005ea8;" x="263.828146" xlink:href="#mab2418cef0" y="92.053319"/>
     <use style="fill:#005ea8;stroke:#005ea8;" x="273.81383" xlink:href="#mab2418cef0" y="102.929461"/>
     <use style="fill:#005ea8;stroke:#005ea8;" x="283.799513" xlink:href="#mab2418cef0" y="111.024254"/>
     <use style="fill:#005ea8;stroke:#005ea8;" x="293.785197" xlink:href="#mab2418cef0" y="117.282592"/>
     <use style="fill:#005ea8;stroke:#005ea8;" x="303.77088" xlink:href="#mab2418cef0" y="122.265278"/>
     <use style="fill:#005ea8;stroke:#005ea8;" x="313.756564" xlink:href="#mab2418cef0" y="126.326027"/>
     <use style="fill:#005ea8;stroke:#005ea8;" x="323.742248" xlink:href="#mab2418cef0" y="129.698919"/>
     <use style="fill:#005ea8;stroke:#005ea8;" x="333.727931" xlink:href="#mab2418cef0" y="132.54501"/>
     <use style="fill:#005ea8;stroke:#005ea8;" x="343.713615" xlink:href="#mab2418cef0" y="134.978735"/>
     <use style="fill:#005ea8;stroke:#005ea8;" x="353.699298" xlink:href="#mab2418cef0" y="137.083633"/>
     <use style="fill:#005ea8;stroke:#005ea8;" x="363.684982" xlink:href="#mab2418cef0" y="138.922113"/>
     <use style="fill:#005ea8;stroke:#005ea8;" x="373.670666" xlink:href="#mab2418cef0" y="140.541732"/>
    </g>
   </g>
   <g id="patch_9">
    <path d="M 223.885412 146.891339 
L 223.885412 7.2 
" style="fill:none;stroke:#000000;stroke-linecap:square;stroke-linejoin:miter;stroke-width:0.5;"/>
   </g>
   <g id="patch_10">
    <path d="M 383.656349 146.891339 
L 383.656349 7.2 
" style="fill:none;stroke:#000000;stroke-linecap:square;stroke-linejoin:miter;stroke-width:0.5;"/>
   </g>
   <g id="patch_11">
    <path d="M 223.885412 146.891339 
L 383.656349 146.891339 
" style="fill:none;stroke:#000000;stroke-linecap:square;stroke-linejoin:miter;stroke-width:0.5;"/>
   </g>
   <g id="patch_12">
    <path d="M 223.885412 7.2 
L 383.656349 7.2 
" style="fill:none;stroke:#000000;stroke-linecap:square;stroke-linejoin:miter;stroke-width:0.5;"/>
   </g>
  </g>
 </g>
 <defs>
  <clipPath id="pda36076144">
   <rect height="139.691339" width="159.770938" x="32.160286" y="7.2"/>
  </clipPath>
  <clipPath id="p17c23ebff3">
   <rect height="139.691339" width="159.770938" x="223.885412" y="7.2"/>
  </clipPath>
 </defs>
</svg>
